<svg width="901" height="161" viewBox="0 0 901 161" fill="none" xmlns="http://www.w3.org/2000/svg">
<g clip-path="url(#clip0_1192_8603)">
<path d="M1.32227 79.2059C7.30581 64.2375 25.7761 55.9416 38.3519 47.2585C59.9848 32.3348 82.939 18.2898 102.553 0.655396C104.052 0.744759 104.78 0.804335 106.235 0.908592C91.506 20.1515 26.3997 54.4076 29.191 80.6953C30.9876 80.7996 31.8933 80.8592 33.7047 80.9634C34.8479 84.955 35.7388 87.204 37.2978 91.5232C35.5161 91.4785 34.6252 91.4636 32.8435 91.419C35.1597 97.8531 36.5405 101.264 37.0602 106.06C33.1405 106.119 31.1806 106.149 27.246 106.194C26.756 101.353 25.3307 97.8084 22.9402 91.1658C15.858 90.987 12.3094 90.8977 5.19746 90.7189C3.5197 85.9678 2.55461 83.4656 1.35196 79.2059H1.32227ZM4.85597 79.3847C10.5871 79.6677 13.4527 79.8166 19.1838 80.1294C17.3724 60.7524 47.6465 44.9648 60.445 34.5093C47.5277 43.4605 9.99321 61.1992 4.85597 79.3847Z" fill="black"/>
<path d="M70.0217 76.6738C67.6164 81.6037 71.7292 87.4123 72.2785 92.5954C72.62 95.7678 72.4121 98.3593 71.6104 100.31C70.7938 102.262 69.5466 103.751 67.9727 104.823C66.3989 105.896 64.543 106.432 62.5385 106.506C60.2372 106.581 58.1585 106.059 56.0947 104.793C54.0309 103.513 51.9374 101.532 49.5767 98.5976C47.8544 96.4678 45.8351 93.4294 43.6822 89.5719C40.7721 84.3888 37.3869 77.5972 38.0847 74.7524C41.3215 61.3181 68.9378 45.3072 83.9783 33.1984C94.7576 24.5153 105.611 15.5938 116.658 7.41703C122.151 3.35099 123.814 2.91907 125.73 3.21695C127.675 3.52972 129.62 4.60208 127.808 9.14473C125.982 13.6874 119.731 21.7748 108.685 33.4814C95.7079 47.2285 77.49 61.3628 70.0365 76.6887L70.0217 76.6738ZM58.797 75.6461C70.3632 58.7713 88.0614 45.4114 102.805 31.4409C115.336 19.5705 120.963 13.1512 122.849 10.2022C124.081 8.28088 123.963 7.43193 123.027 7.28299C122.315 7.16383 121.305 7.64044 119.687 8.90642C117.311 10.7682 113.302 14.4619 105.537 21.4471C94.4013 31.4558 45.8648 65.4289 49.9182 80.2334C52.175 88.4846 55.3672 95.6039 56.7777 98.5976C57.8022 100.772 58.6337 102.113 59.4503 102.768C60.252 103.423 61.1874 103.721 62.2564 103.691C63.4294 103.662 64.2312 103.215 64.6172 102.321C65.2408 100.757 65.0923 98.2551 63.9639 94.6507C61.2171 86.7123 55.7978 83.1079 58.7821 75.6312L58.797 75.6461Z" fill="black"/>
<path d="M75.766 83.6739C93.776 54.7053 130.138 35.9687 152.038 9.32349C152.973 9.60647 153.448 9.75541 154.369 10.0533C144.762 27.7175 98.8539 64.4608 103.575 85.5953C105.372 85.7144 106.278 85.7889 108.074 85.908C108.831 88.8421 109.396 90.3166 110.405 93.2061C108.638 93.1763 107.762 93.1465 105.996 93.1167C107.54 97.4955 108.46 99.67 108.831 103.676C105.016 103.855 103.115 103.93 99.2845 104.094C98.8539 99.953 97.874 97.5849 96.1962 92.8933C89.203 92.7443 85.7139 92.655 78.7058 92.4911C77.4289 88.9315 76.7014 87.0995 75.7363 83.6442L75.766 83.6739ZM79.2849 83.9122C85.0012 84.2995 87.8667 84.508 93.583 84.9101C92.4101 68.4226 112.662 53.0223 122.61 41.8071C108.252 54.8095 89.7821 67.4842 79.27 83.9271L79.2849 83.9122Z" fill="black"/>
<path d="M125.431 93.3994C127.094 93.4292 128.668 93.9654 130.123 94.9335C131.578 95.9016 132.514 97.0335 132.855 98.374C133.197 99.7144 132.825 100.876 131.801 101.889C130.776 102.902 129.425 103.468 127.837 103.557C126.248 103.632 124.897 103.214 123.664 102.261C122.417 101.308 121.63 100.087 121.244 98.6272C120.858 97.1676 120.992 95.9016 121.794 94.8739C122.581 93.8462 123.798 93.3696 125.431 93.3994ZM137.844 56.105C139.21 56.3135 138.987 58.488 137.651 62.2562C136.3 66.0393 134.221 70.3287 132.083 74.2756C129.945 78.2225 128.46 80.531 127.079 81.7821C125.699 83.0332 124.526 83.2119 122.848 83.063C121.17 82.9141 119.388 82.4673 118.468 80.9928C117.547 79.5183 118.067 77.0608 120.576 73.0543C123.085 69.0478 126.693 64.8031 130.301 61.2434C133.924 57.6987 136.478 55.8816 137.844 56.0901V56.105Z" fill="black"/>
<path d="M178.719 26.2728C171.83 45.2029 161.852 62.9267 156.047 82.2441C156.611 82.2888 156.893 82.3186 157.457 82.3782C159.625 82.5718 161.451 82.259 163.07 81.1866C164.673 80.1143 166.321 78.0589 168.415 74.2312C170.508 70.4035 173.121 64.3565 176.254 56.1053C176.64 56.1649 176.833 56.2095 177.219 56.2691C166.633 87.308 169.053 88.5889 170.493 93.8018C169.989 93.8018 169.751 93.7869 169.246 93.772C168.088 91.2698 166.529 89.0953 164.376 87.8293C162.223 86.5634 159.877 85.6995 157.264 85.4761C156.7 85.4314 156.403 85.4016 155.839 85.3569C155.987 90.5102 156.952 91.9996 158.007 95.7082C158.452 97.2572 158.764 98.27 159.105 98.6721C159.447 99.0742 160.011 99.4317 160.828 99.7147C161.629 99.9977 162.684 100.117 164.005 100.057C164.629 100.027 164.94 100.013 165.564 99.9828C165.594 100.34 165.594 100.534 165.609 100.906C155.824 101.398 150.924 101.636 141.14 102.128C141.11 101.696 141.095 101.487 141.051 101.07C141.674 101.04 141.986 101.025 142.61 100.996C143.976 100.936 145.045 100.668 145.817 100.281C146.366 99.9977 146.767 99.536 146.99 98.9551C147.153 98.5381 147.064 97.4359 146.544 95.7231C138.245 77.1504 157.309 54.2584 165.059 39.7071C169.202 31.7984 170.909 27.7771 171.444 26.1685C171.978 24.5749 172.186 23.2344 172.156 22.1025C172.112 20.9705 171.711 20.3301 171.013 20.0918C170.686 19.9726 170.523 19.9131 170.196 19.7939C170.568 18.7513 170.716 18.2896 170.909 17.4556C178.971 20.479 182.802 22.0578 191.206 24.9621C191.503 33.3921 187.538 45.3817 183.099 62.465C182.609 62.3905 182.371 62.3607 181.881 62.2863C184.346 52.2031 185.95 44.2497 186.306 39.4986C186.647 34.7474 186.143 31.6793 185.088 29.7133C184.509 28.626 183.173 27.7622 181.109 27.077C180.144 26.7494 179.669 26.6004 178.704 26.2728H178.719Z" fill="black"/>
<path d="M200.946 89.5422C200.886 93.3997 201.183 93.6529 201.45 95.455C201.584 96.3189 201.777 97.0189 202.104 97.3168C202.43 97.6146 202.98 97.853 203.767 98.0317C204.554 98.2104 206.024 98.2551 208.191 98.1806C208.191 98.4636 208.191 98.6125 208.162 98.9253C198.511 99.3275 193.7 99.5509 184.094 100.013C184.094 99.6551 184.094 99.4913 184.094 99.1785C186.261 99.0891 187.731 98.8955 188.503 98.6274C189.276 98.3594 189.795 98.0466 190.077 97.704C190.359 97.3615 190.448 96.5721 190.226 95.5146C187.449 78.9972 191.829 63.8501 194.561 47.1392C195.868 39.2901 196.194 35.2538 196.15 33.6155C196.12 31.9771 195.868 30.7409 195.452 29.7877C195.051 28.8345 194.235 28.2239 193.047 27.8366C193.091 26.8536 193.091 26.3919 193.047 25.6025C197.724 27.1813 200.129 27.9409 205.266 29.3558C208.607 30.2792 211.324 31.441 213.254 33.258C215.199 35.0751 217.1 38.2326 219.045 44.0412C221.005 49.835 222.697 57.5649 223.841 65.9353C225.221 76.1525 225.147 83.108 223.395 86.6229C222.267 88.857 220.114 89.5422 217.07 89.9294C221.613 95.0976 224.108 94.338 228.547 95.738C230.002 96.1848 231.012 96.6465 231.635 96.8402C232.571 97.0934 233.67 97.2572 234.932 97.2572C234.902 97.4955 234.902 97.6295 234.872 97.9274C228.874 98.121 225.889 98.2402 219.921 98.4636C214.13 93.5635 210.448 96.3934 204.182 89.7656C202.876 89.6911 202.237 89.6464 200.931 89.557L200.946 89.5422ZM203.128 33.3772C202.772 51.3541 199.327 69.4502 200.857 87.4123C201.688 87.4719 202.104 87.5017 202.935 87.5464C206.32 87.7698 208.755 87.6059 210.255 86.8612C211.755 86.1016 212.764 84.5229 213.373 81.1569C213.982 77.7908 214.071 72.4886 213.759 65.0565C213.314 54.3031 212.319 46.0817 210.938 41.3603C209.557 36.6389 207.701 34.5538 205.415 33.958C204.494 33.7197 204.049 33.6006 203.143 33.3623L203.128 33.3772Z" fill="black"/>
<path d="M260.796 96.5425C260.766 96.766 260.751 96.9 260.736 97.1979C250.655 97.4064 245.651 97.5553 235.688 97.883C235.718 97.5851 235.718 97.4511 235.748 97.2128C236.386 97.1979 236.698 97.183 237.337 97.1681C238.717 97.1234 239.846 96.9596 240.722 96.7511C241.345 96.6021 241.85 96.3638 242.221 96.1255C242.503 95.9468 242.711 95.5595 242.845 95.2617C242.028 80.9188 237.426 67.276 233.743 52.7842C232.051 45.9777 231.041 42.4478 230.492 41.0627C229.942 39.6627 229.274 38.5158 228.473 37.5328C227.671 36.5647 226.81 36.0434 225.874 35.8945C225.429 35.82 225.206 35.7902 224.761 35.7158C224.523 34.7775 224.404 34.3455 224.182 33.571C231.056 34.7626 234.753 35.269 242.889 36.0136C243.112 36.7881 243.246 37.2201 243.528 38.1435C243.008 38.0988 242.756 38.069 242.251 38.0243C241.137 37.9201 240.395 38.2775 240.009 39.1265C239.757 39.7073 239.712 40.7946 239.979 42.5372C240.172 43.7734 241.137 47.1543 243.276 53.7225C248.116 68.3632 253.951 80.9784 254.456 95.1723C254.263 95.351 254.307 95.7234 254.53 95.8872C254.767 96.051 255.257 96.2149 256.03 96.3787C256.802 96.5425 257.856 96.617 259.207 96.5872C259.845 96.5872 260.172 96.5723 260.81 96.5574L260.796 96.5425Z" fill="black"/>
<path d="M263.114 42.0006C269.914 57.5797 277.857 72.8013 284.034 88.6484C284.435 88.6484 284.628 88.6484 285.029 88.6484C288.206 88.6186 290.3 87.4271 290.121 83.5696C289.943 79.6972 287.271 72.6672 282.43 62.5394C282.95 62.5245 283.217 62.5096 283.737 62.4947C297.649 89.7059 296.669 95.2613 295.318 94.9634C294.769 94.9634 294.487 94.9634 293.937 94.9783C294.012 95.0677 293.67 94.8443 292.883 94.2485C292.111 93.6528 291.072 92.8187 289.854 92.3719C288.637 91.9251 286.855 91.657 284.509 91.6719C284.346 96.3039 283.856 95.0975 283.203 94.9783C282.876 94.9187 282.831 95.1124 283.01 95.2017C283.188 95.2911 283.559 95.4103 284.168 95.4996C284.762 95.589 285.756 95.6485 287.152 95.6337C288.325 95.6337 288.904 95.6188 290.077 95.6039C294.65 95.5592 298.406 95.1868 301.391 95.0379C304.375 94.889 306.84 95.4251 308.503 95.0379C309.037 95.0528 309.29 95.0677 309.824 95.0826C308.28 95.6783 307.092 93.3847 305.979 97.2273C291.992 96.5124 277.872 96.8698 263.871 97.1677C263.901 96.8698 263.901 96.7358 263.93 96.5124C264.569 96.5124 264.896 96.4975 265.534 96.4826C266.93 96.4528 268.088 96.3039 268.964 96.1103C269.602 95.9762 270.122 95.7528 270.508 95.5741C270.805 95.44 271.072 95.1273 271.31 95.0677C271.428 81.0376 264.242 69.6884 257.902 54.7052C255.482 48.8965 254.265 45.7986 253.73 44.6815C252.839 42.8049 251.978 41.4645 251.132 40.5559C249.914 39.2155 248.712 38.5899 247.405 38.4857C246.871 38.441 246.603 38.4261 246.084 38.3814C245.787 37.458 245.668 37.0261 245.445 36.2516C258.778 37.3388 266.989 36.9516 283.752 37.3984C285.148 45.6794 290.715 56.0903 297.946 70.9246C297.441 70.9246 297.189 70.9246 296.669 70.9246C291.577 61.8691 287.286 54.9584 284.331 51.1753C281.376 47.4071 278.57 44.9496 275.69 43.4602C273.997 42.5815 271.295 42.1794 267.791 42.1198C265.89 42.09 264.94 42.0602 263.099 42.0155L263.114 42.0006Z" fill="black"/>
<path d="M309.898 38.7688C324.196 59.2032 334.812 82.9888 353.95 99.5062C348.783 86.0719 343.483 74.5887 339.31 60.4692C337.484 52.918 336.326 48.6881 335.049 46.603C333.342 43.7731 331.1 42.5965 328.249 42.3731C328.086 41.5242 328.011 41.1369 327.893 40.422C334.752 41.1518 338.197 41.5539 345.116 42.4327C345.22 43.1178 345.264 43.505 345.383 44.3391C343.245 44.4731 341.849 44.8604 341.226 45.5157C340.602 46.1711 340.216 47.3477 340.157 49.2839C340.097 51.2201 340.543 54.8393 341.894 60.782C349.347 80.6654 356.845 88.7826 355.019 105.449C354.559 105.345 354.321 105.285 353.861 105.181C332.926 93.7125 323.023 77.9249 308.65 57.8181C321.434 89.8996 324.478 95.6785 322.948 96.2295C322.607 96.3636 323.038 96.9444 324.211 97.4657C325.383 97.987 326.779 98.4636 328.383 98.687C328.828 98.7466 329.051 98.7764 329.496 98.8509C329.452 99.1338 329.437 99.2828 329.422 99.6402C322.696 98.6423 319.326 98.2253 312.481 97.6593C312.511 97.3168 312.511 97.1678 312.555 96.9146C315.213 97.1232 317.084 97.004 318.212 96.7359C319.341 96.4678 320.053 96.0806 320.38 95.9912C320.87 84.4931 305.384 55.3308 302.8 49.2541C301.939 48.0328 301.509 47.437 300.692 46.2902C298.643 43.4306 297.262 41.8369 296.223 41.0773C295.198 40.3177 293.922 39.8858 292.363 39.7369C292.125 38.8432 292.036 38.4262 291.902 37.6815C299.059 37.9943 302.667 38.2326 309.942 38.7986L309.898 38.7688Z" fill="black"/>
<path d="M363.689 106.715C363.718 106.328 363.733 106.149 363.763 105.836C364.372 105.985 364.684 106.074 365.292 106.223C366.629 106.566 367.668 106.7 368.41 106.64C369.153 106.581 369.717 106.417 370.118 106.193C370.355 106.045 370.593 105.464 370.816 105.002C368.603 92.0591 360.007 72.5481 357.126 60.5287C356.354 54.2286 355.983 51.0711 355.597 49.8051C355.211 48.5391 354.543 47.4667 353.607 46.5582C352.672 45.6497 351.469 45.1433 349.999 44.9497C349.301 44.8603 348.96 44.8156 348.262 44.7262C348.158 43.8922 348.099 43.5049 348.01 42.8198C357.408 44.0411 362.13 44.7262 371.617 46.1561C377.942 47.1093 383.184 48.7476 386.791 52.1285C391.216 56.2541 393.369 63.3288 394.839 74.5886C396.309 85.8484 406.39 106.015 408.053 110.006C409.211 112.762 409.137 113.626 408.32 114.102C407.489 114.579 406.108 114.668 404.415 114.772C402.738 114.862 400.778 114.951 398.595 114.906C396.413 114.862 393.755 114.623 390.667 114.147C389.301 113.938 387.133 113.372 384.208 112.494C376.042 110.021 371.944 108.845 363.689 106.715ZM368.291 49.9391C369.613 71.4161 373.206 88.9165 381.699 107.966C381.55 108.428 381.55 108.949 381.699 109.187C381.847 109.425 382.129 109.679 382.53 109.917C383.109 110.26 383.97 110.632 385.114 110.96C388.84 112.077 391.78 112.077 393.889 111.808C396.754 111.436 398.877 113.015 396.695 106.879C394.943 101.934 384.743 78.8631 382.991 68.5863C381.625 60.5436 379.902 55.8967 377.393 53.3945C375.626 51.6221 372.553 50.5349 368.291 49.9391Z" fill="black"/>
<path d="M445.04 58.2945C447.014 84.1354 436.695 115.681 466.658 130.217C450.014 117.394 455.507 98.4038 460.719 81.946C464.846 73.9182 467.177 69.7777 467.385 67.6628C467.667 64.818 465.9 63.5967 462.946 63.1946C463.302 62.3903 463.436 62.018 463.629 61.3626C470.666 62.4946 474.17 63.0456 481.164 64.1031C480.926 64.7584 480.763 65.1159 480.347 65.9202C477.912 65.9797 476.145 66.2925 474.972 66.9032C473.814 67.5138 472.508 68.6309 470.889 70.5522C469.256 72.4735 466.643 76.0778 463.302 82.4077C451.825 101.606 453.666 117.647 468.825 130.545C471.216 134.224 472.032 138.305 471.29 142.788C470.83 142.639 470.607 142.579 470.147 142.43C464.772 133.375 459.115 132.526 452.701 125.853C434.379 106.819 432.731 100.534 430.014 76.197C426.347 102.366 431.157 103.646 439.502 125.734C439.576 126.881 440.125 128.296 441.298 129.383C442.471 130.47 443.837 131.379 445.366 131.885C445.797 132.034 446.005 132.109 446.435 132.243C446.435 132.69 446.435 132.928 446.435 133.419C440.021 131.23 436.829 130.113 430.43 127.894C430.43 127.417 430.43 127.194 430.445 126.777C432.924 127.611 434.661 127.745 435.641 127.343C436.621 126.941 437.156 126.002 437.096 124.96C423.362 104.361 424.461 91.0909 430.415 67.0968C430.415 65.8159 430.415 65.2053 430.385 64.0286C430.296 61.0945 429.762 59.5009 429.108 58.6668C428.455 57.8477 427.297 57.2966 425.693 56.9391C425.886 56.12 425.961 55.7476 426.065 55.0923C433.652 56.3881 437.438 57.0285 445.025 58.2945H445.04Z" fill="black"/>
<path d="M514.02 67.7524C522.082 68.7354 530.204 70.2992 524.473 81.559C512.966 104.198 505.483 120.834 522.78 138.305C542.498 158.218 527.873 145.096 525.007 147.822C521.206 151.426 514.495 154.405 506.166 152.469C497.822 150.518 491.497 144.754 486.493 140.077C482.529 136.369 490.279 146.988 475.55 129.413C462.291 113.581 466.968 92.9976 486.701 77.2249C499.9 66.68 506.611 66.8885 513.99 67.7821L514.02 67.7524ZM512.847 70.7758C508.111 70.2247 501.905 72.5631 490.977 84.2697C475.075 101.293 475.045 116.515 488.037 132.869C492.64 138.677 494.6 140.628 497.658 144.128C499.781 146.571 502.499 148.731 505.988 149.52C508.334 150.056 510.279 149.863 511.793 149.133C513.723 148.194 515.193 146.556 515.698 144.769C516.203 142.982 515.238 141.209 511.927 137.65C498.727 123.456 496.53 110.26 507.68 92.1337C513.293 83.0037 516.693 77.7015 516.901 74.961C517.123 72.2205 515.416 71.0588 512.847 70.7609V70.7758Z" fill="black"/>
<path d="M591.748 72.6522C588.496 78.1331 574.05 85.8631 563.553 102.5C562.988 102.5 562.706 102.514 562.142 102.529C567.398 92.9526 573.411 87.3525 575.921 84.2248C578.43 81.1119 579.573 79.0566 579.514 77.6565C579.469 76.897 578.266 76.5246 575.95 76.5544C574.48 76.5693 573.738 76.5842 572.268 76.5842C553.56 94.4122 536.723 106.834 548.809 130.411C552.862 138.305 558.801 143.324 562.855 150.756C563.211 152.677 563.404 154.196 563.701 154.807C564.013 155.418 564.577 155.984 565.394 156.49C566.21 156.996 567.339 157.265 568.72 157.265C569.358 157.265 569.685 157.265 570.338 157.265C570.338 157.86 570.353 158.158 570.368 158.784C560.123 158.843 554.971 158.62 544.919 157.652C544.904 157.041 544.889 156.743 544.874 156.162C545.513 156.222 545.825 156.252 546.463 156.311C547.859 156.43 548.987 156.222 549.819 155.79C550.398 155.477 550.888 154.926 551.199 154.182C551.422 153.66 551.496 152.23 551.14 150.398C547.161 143.205 541.415 137.977 537.629 130.292C526.167 107.012 542.41 94.3526 560.316 76.4352C558.876 76.3906 558.148 76.3757 556.693 76.3161C553.323 76.1969 549.804 77.1353 545.275 80.0098C538.935 84.0162 529.314 90.9866 522.158 102.351C521.653 102.321 521.401 102.306 520.881 102.276C530.561 85.5801 543.85 77.5821 547.042 71.6841C561.815 72.8011 576.915 73.1586 591.718 72.6522H591.748Z" fill="black"/>
<path d="M626.997 72.9948C608.764 91.5973 601.429 104.63 610.991 129.339C611.644 129.219 611.986 129.16 612.639 129.041C615.178 128.564 616.292 127.149 616.544 124.811C616.796 122.472 616.188 118.764 616.588 113.7C616.989 108.636 618.459 101.815 622.453 94.0846C623.017 93.9952 623.3 93.9506 623.864 93.8463C622.364 127.224 631.377 116.53 634.91 140.226C634.361 140.345 634.079 140.39 633.529 140.509C633.559 136.711 631.154 134.998 628.11 134.492C625.052 133.985 621.77 134.09 618.816 134.685C618.162 134.819 617.851 134.879 617.197 135.013C621.607 138.781 620.775 140.688 620.3 145.96C620.107 148.164 620.152 149.743 620.404 150.339C620.672 150.935 621.221 151.426 622.038 151.799C622.869 152.171 623.983 152.245 625.378 152.007C626.046 151.888 626.373 151.828 627.026 151.724C627.041 152.32 627.056 152.618 627.115 153.228C616.707 155.045 611.525 155.835 601.192 156.952C601.132 156.341 601.117 156.043 601.088 155.448C601.741 155.373 602.068 155.343 602.721 155.269C604.146 155.105 605.29 154.658 606.151 154.048C606.745 153.616 607.22 152.916 607.576 152.082C607.828 151.471 608.007 149.922 608.021 147.852C608.541 143.011 606.789 139.258 602.721 136.592C586.092 119.613 586.7 102.902 604.547 86.4589C610.145 80.0099 613.099 77.1651 613.946 76.0481C614.792 74.931 615.119 74.0821 615 73.4565C614.866 72.831 614.079 72.6374 612.773 72.7714C612.149 72.831 611.852 72.8608 611.229 72.9204C611.852 72.1905 612.105 71.8629 612.461 71.2969C628.17 69.7479 635.786 68.4671 650.827 65.4734C647.694 71.5352 637.464 80.0396 632.564 96.7655C631.881 96.8996 631.54 96.9591 630.872 97.0783C633.44 87.3079 637.42 81.2312 638.682 77.8353C639.944 74.4395 639.691 72.7416 638.132 72.0267C637.271 71.6395 634.999 71.7735 631.302 72.3544C629.58 72.6225 628.719 72.7565 626.997 73.0097V72.9948Z" fill="black"/>
<path d="M678.74 58.5479C685.555 56.8797 690.825 56.0159 692.741 64.6395C696.26 80.5164 699.17 96.9593 712.191 108.606C728.108 122.86 707.38 120.983 699.972 127.507C690.142 136.16 684.04 141.864 675.072 144.113C666.09 146.377 658.785 144.069 655.652 139.273C653.172 135.475 663.669 144.292 648.258 126.345C634.583 110.423 638.354 91.0315 656.008 73.3077C667.277 61.9884 672.682 60.0522 678.754 58.5479H678.74ZM678.116 61.0947C674.048 62.0926 669.311 65.2799 661.665 76.8376C650.054 94.4273 652.831 108.502 664.798 122.919C669.787 128.922 665.793 134.849 667.366 138.424C668.45 140.926 671.271 141.879 675.072 140.926C677.626 140.286 679.823 139.035 681.991 137.188C684.753 134.835 687.915 131.498 691.434 127.492C694.953 123.485 699.585 118.645 696.839 114.236C693.572 108.994 682.288 84.3888 682.615 76.5099C682.941 68.631 683.535 64.5948 682.719 62.748C681.902 60.9011 680.313 60.5734 678.116 61.1245V61.0947Z" fill="black"/>
<path d="M705.734 52.1136C714.657 49.7008 719.111 48.4795 728.049 46.0816C728.094 46.6029 728.124 46.9007 728.183 47.571C727.723 47.6901 727.5 47.7497 727.055 47.8688C725.347 48.3157 724.189 48.8667 723.565 49.5816C722.942 50.2817 722.496 51.1902 722.259 52.3966C722.021 53.603 721.814 56.5371 722.586 62.867C724.991 71.9225 743.654 100.966 738.354 109.5C734.716 114.549 731.39 118.228 730.677 119.836C729.98 121.445 730.098 122.636 730.974 123.411C731.85 124.185 733.573 124.245 735.978 123.604C738.725 122.875 741.397 121.49 744.441 119.404C747.47 117.319 750.766 114.743 754.448 111.674C758.131 108.606 765.005 103.334 767.989 97.4656C762.837 83.376 752.266 70.9246 745.97 57.2073C744.174 52.4115 743.149 49.6561 742.288 48.1965C741.412 46.7369 740.67 45.9624 739.927 45.6348C738.769 45.1284 737.329 45.1582 735.562 45.6348C735.444 44.9794 735.399 44.6815 735.325 44.1603C741.323 42.5815 744.337 41.807 750.365 40.3176C750.514 40.8389 750.603 41.1219 750.826 41.7772C750.454 41.8666 750.276 41.9113 749.905 42.0006C748.658 42.2985 747.737 42.8794 747.129 43.8326C746.535 44.7858 746.312 46.156 746.549 48.1518C746.713 49.5519 747.366 52.1136 749.148 56.4775C755.948 70.5225 763.743 82.0355 772.325 94.9485C770.216 101.219 762.006 107.281 757.863 110.945C753.706 114.594 749.103 118.272 744.708 121.847C740.313 125.407 736.438 127.79 731.242 129.19C726.921 130.351 723.521 130.56 721.472 129.8C718.681 128.758 717.463 126.911 718.102 124.304C718.725 121.713 721.635 117.915 724.486 113.432C727.693 106.596 726.119 100.802 719.794 96.0656C712.192 87.7995 709.015 77.7461 710.262 65.9203C710.277 59.4116 710.604 56.5371 710.425 55.4796C710.247 54.4222 709.846 53.7668 709.223 53.3796C708.599 53.0072 707.352 53.1115 705.496 53.6328C705.6 52.9477 705.659 52.6349 705.719 52.0987L705.734 52.1136Z" fill="black"/>
<path d="M767.988 36.2071C780.772 46.4988 826.027 68.5269 829.813 84.5527C837.029 72.1759 809.219 53.2755 803.102 47.1839C797.119 41.0178 793.897 37.7858 791.818 36.3411C789.027 34.39 786.829 34.0028 784.35 34.5091C783.934 33.8687 783.756 33.5708 783.489 33.0495C789.413 31.9474 792.382 31.441 798.396 30.5474C798.693 31.0835 798.886 31.3814 799.376 32.0368C797.683 32.6474 796.703 33.2729 796.495 33.9581C796.287 34.6432 796.555 35.7007 797.579 37.339C798.603 38.9773 801.053 41.9114 805.894 46.7668C817.712 58.2203 836.405 69.6588 832.486 83.3761C829.59 93.5189 811.447 102.113 804.721 111.987C804.216 112.077 803.978 112.121 803.474 112.211C803.132 103.781 813.867 94.5614 811.996 87.4719C809.457 77.8505 779.97 61.2735 769.74 53.1712C777.179 65.2502 785.939 76.2568 796.005 86.206C792.412 94.5317 786.755 101.219 779.02 106.268C774.862 110.245 773.526 112.702 773.957 113.715C774.387 114.728 775.62 115.026 777.327 114.638C777.802 114.534 778.04 114.475 778.515 114.37C778.144 115.07 777.995 115.413 777.787 116.098C770.69 117.692 767.142 118.541 760.03 120.298C760.223 119.628 760.356 119.27 760.668 118.585C763.459 117.87 765.657 116.694 767.736 114.966C769.814 113.253 772.398 110.587 776.169 106.923C801.736 82.0803 779.435 72.9206 762.969 46.7668C762.034 45.8881 761.589 45.4711 760.742 44.6668C758.634 42.671 757.327 41.7327 756.377 41.3604C755.427 40.988 754.299 40.9731 752.918 41.2412C752.68 40.6008 752.591 40.3029 752.428 39.7816C758.634 38.2624 761.737 37.5326 768.003 36.1773L767.988 36.2071Z" fill="black"/>
<path d="M814.357 109.128C814.609 108.472 814.787 108.13 815.203 107.43C815.857 107.325 816.198 107.281 816.851 107.191C818.291 106.983 819.554 106.536 820.741 105.836C821.929 105.136 823.132 104.242 824.513 103.11C825.389 102.381 827.527 100.221 832.218 96.4081C842.033 90.9719 849.679 83.4951 855.188 73.9779C844.141 63.016 832.59 52.6349 820.519 42.8347C814.773 37.741 812.174 35.2239 810.957 34.2558C809.754 33.2877 808.537 32.5579 807.245 32.0217C805.953 31.4855 804.736 31.3366 803.444 31.5004C802.835 31.5749 802.523 31.6196 801.915 31.7089C801.425 31.0536 801.232 30.7557 800.92 30.2195C809.086 29.0578 813.229 28.5812 821.617 27.911C827.215 27.4642 831.907 27.9408 837.593 30.2195C844.557 33.0047 854.757 38.6942 869.129 47.3922C883.517 56.0903 900.725 66.7245 900.591 71.7736C900.502 75.2588 894.251 79.8163 887.258 84.1504C880.28 88.4697 873.331 92.2229 867.912 95.0379C862.493 97.8528 858.172 99.9976 854.49 101.591C850.808 103.185 847.333 104.391 843.666 105.374C842.033 105.806 839.642 106.164 836.465 106.447C827.631 107.251 823.206 107.802 814.312 109.157L814.357 109.128ZM821.35 31.7089C829.056 38.3218 858.899 56.8797 863.472 68.1544C868.832 81.3653 855.217 86.7122 843.651 95.6634C839.82 98.7167 838.143 100.474 837.697 101.1C837.237 101.725 837.148 102.187 837.296 102.47C837.519 102.887 838.261 103.066 839.494 102.961C843.532 102.634 847.794 100.698 854.935 96.5422C864.586 90.9123 888.461 77.0014 887.228 71.8778C885.12 63.0904 863.458 51.4434 851.832 44.2943C841.929 38.2027 835.708 34.509 831.446 32.8856C828.432 31.7387 825.181 31.3813 821.35 31.7387V31.7089Z" fill="black"/>
</g>
<defs>
<clipPath id="clip0_1192_8603">
<rect width="900.62" height="160.214" fill="white"/>
</clipPath>
</defs>
</svg>
