<svg width="98" height="118" viewBox="0 0 98 118" fill="none" xmlns="http://www.w3.org/2000/svg">
<g clip-path="url(#clip0_569_4370)">
<path d="M14.9231 3.56445H11.3828V63.258H14.9231V3.56445Z" fill="#231815"/>
<path d="M78.7727 3.56445H75.2324V63.258H78.7727V3.56445Z" fill="#231815"/>
<path d="M74.2227 3.56379V0L14.9236 0V3.56379L74.2227 3.56379Z" fill="#231815"/>
<path d="M74.2402 66.8216V63.2578L14.9412 63.2578V66.8216H74.2402Z" fill="#231815"/>
<path d="M82.8242 74.9818V71.418H23.5252V74.9818H82.8242Z" fill="#231815"/>
<path d="M86.382 11.7246H82.8418V71.4181H86.382V11.7246Z" fill="#231815"/>
<path d="M22.7297 9.97852H19.1895V50.0355H22.7297V9.97852Z" fill="#231815"/>
<path d="M70.6125 9.97852H67.0723V50.0355H70.6125V9.97852Z" fill="#231815"/>
<path d="M67.0723 53.1009V49.5371H22.7485V53.1009H67.0723Z" fill="#231815"/>
<path d="M67.248 12.3118V8.74805L22.9242 8.74805V12.3118L67.248 12.3118Z" fill="#231815"/>
<path d="M24.4986 38.8457H22.7285V40.6276H24.4986V38.8457Z" fill="#231815"/>
<path d="M26.2877 38.8457H24.5176V40.6276H26.2877V38.8457Z" fill="#231815"/>
<path d="M24.4986 37.0645H22.7285V38.8463H24.4986V37.0645Z" fill="#231815"/>
<path d="M26.2877 37.0645H24.5176V38.8463H26.2877V37.0645Z" fill="#231815"/>
<path d="M24.4986 40.627H22.7285V42.4088H24.4986V40.627Z" fill="#231815"/>
<path d="M26.2877 40.627H24.5176V42.4088H26.2877V40.627Z" fill="#231815"/>
<path d="M28.0572 35.1934H26.2871V36.9753H28.0572V35.1934Z" fill="#231815"/>
<path d="M29.8287 35.1934H28.0586V36.9753H29.8287V35.1934Z" fill="#231815"/>
<path d="M28.0572 33.4102H26.2871V35.1921H28.0572V33.4102Z" fill="#231815"/>
<path d="M29.8287 33.4102H28.0586V35.1921H29.8287V33.4102Z" fill="#231815"/>
<path d="M28.0572 36.9746H26.2871V38.7565H28.0572V36.9746Z" fill="#231815"/>
<path d="M29.8287 36.9746H28.0586V38.7565H29.8287V36.9746Z" fill="#231815"/>
<path d="M31.5064 31.7188H29.7363V33.5006H31.5064V31.7188Z" fill="#231815"/>
<path d="M33.2994 31.7188H31.5293V33.5006H33.2994V31.7188Z" fill="#231815"/>
<path d="M31.5064 29.9355H29.7363V31.7174H31.5064V29.9355Z" fill="#231815"/>
<path d="M33.2994 29.9355H31.5293V31.7174H33.2994V29.9355Z" fill="#231815"/>
<path d="M31.5064 33.5H29.7363V35.2819H31.5064V33.5Z" fill="#231815"/>
<path d="M33.2994 33.5H31.5293V35.2819H33.2994V33.5Z" fill="#231815"/>
<path d="M36.8398 28.2253V26.4434H35.0697V28.2253H36.8398Z" fill="#231815"/>
<path d="M36.8398 30.026V28.2441H35.0697V30.026H36.8398Z" fill="#231815"/>
<path d="M38.6094 28.2253V26.4434H36.8393V28.2253H38.6094Z" fill="#231815"/>
<path d="M38.6094 30.026V28.2441H36.8393V30.026H38.6094Z" fill="#231815"/>
<path d="M35.0703 28.2253V26.4434H33.3002V28.2253H35.0703Z" fill="#231815"/>
<path d="M35.0703 30.026V28.2441H33.3002V30.026H35.0703Z" fill="#231815"/>
<path d="M42.1504 28.2253V26.4434H40.3803V28.2253H42.1504Z" fill="#231815"/>
<path d="M42.1504 30.026V28.2441H40.3803V30.026H42.1504Z" fill="#231815"/>
<path d="M40.3809 28.2253V26.4434H38.6107V28.2253H40.3809Z" fill="#231815"/>
<path d="M40.3809 30.026V28.2441H38.6107V30.026H40.3809Z" fill="#231815"/>
<path d="M42.1504 31.8073V30.0254H40.3803V31.8073H42.1504Z" fill="#231815"/>
<path d="M42.1289 33.5885V31.8066H40.3588V33.5885H42.1289Z" fill="#231815"/>
<path d="M45.6914 31.8073V30.0254H43.9213V31.8073H45.6914Z" fill="#231815"/>
<path d="M45.668 33.5885V31.8066H43.8978V33.5885H45.668Z" fill="#231815"/>
<path d="M43.9199 31.8073V30.0254H42.1498V31.8073H43.9199Z" fill="#231815"/>
<path d="M43.8984 33.5885V31.8066H42.1283V33.5885H43.8984Z" fill="#231815"/>
<path d="M45.668 35.3717V33.5898H43.8978V35.3717H45.668Z" fill="#231815"/>
<path d="M45.6914 37.153V35.3711H43.9213V37.153H45.6914Z" fill="#231815"/>
<path d="M49.209 35.3717V33.5898H47.4389V35.3717H49.209Z" fill="#231815"/>
<path d="M49.2305 37.153V35.3711H47.4603V37.153H49.2305Z" fill="#231815"/>
<path d="M47.4395 35.3717V33.5898H45.6693V35.3717H47.4395Z" fill="#231815"/>
<path d="M47.4609 37.153V35.3711H45.6908V37.153H47.4609Z" fill="#231815"/>
<path d="M49.2305 38.8463V37.0645H47.4603V38.8463H49.2305Z" fill="#231815"/>
<path d="M49.209 40.6276V38.8457H47.4389V40.6276H49.209Z" fill="#231815"/>
<path d="M52.7715 38.8463V37.0645H51.0014V38.8463H52.7715Z" fill="#231815"/>
<path d="M52.748 40.6276V38.8457H50.9779V40.6276H52.748Z" fill="#231815"/>
<path d="M51 38.8463V37.0645H49.2299V38.8463H51Z" fill="#231815"/>
<path d="M50.9785 40.6276V38.8457H49.2084V40.6276H50.9785Z" fill="#231815"/>
<path d="M50.9785 42.4088V40.627H49.2084V42.4088H50.9785Z" fill="#231815"/>
<path d="M54.5195 42.4088V40.627H52.7494V42.4088H54.5195Z" fill="#231815"/>
<path d="M52.748 42.4088V40.627H50.9779V42.4088H52.748Z" fill="#231815"/>
<path d="M56.2891 42.4088V40.627H54.5189V42.4088H56.2891Z" fill="#231815"/>
<path d="M59.8301 42.4088V40.627H58.06V42.4088H59.8301Z" fill="#231815"/>
<path d="M58.0586 42.4088V40.627H56.2885V42.4088H58.0586Z" fill="#231815"/>
<path d="M59.8301 40.6276V38.8457H58.06V40.6276H59.8301Z" fill="#231815"/>
<path d="M58.0586 40.6276V38.8457H56.2885V40.6276H58.0586Z" fill="#231815"/>
<path d="M59.8516 49.5378V47.7559H58.0814V49.5378H59.8516Z" fill="#231815"/>
<path d="M58.0801 49.5378V47.7559H56.31V49.5378H58.0801Z" fill="#231815"/>
<path d="M59.8516 47.7546V45.9727H58.0814V47.7546H59.8516Z" fill="#231815"/>
<path d="M58.0801 47.7546V45.9727H56.31V47.7546H58.0801Z" fill="#231815"/>
<path d="M56.3105 45.9733V44.1914H54.5404V45.9733H56.3105Z" fill="#231815"/>
<path d="M54.541 45.9733V44.1914H52.7709V45.9733H54.541Z" fill="#231815"/>
<path d="M56.2891 44.1921V42.4102H54.5189V44.1921H56.2891Z" fill="#231815"/>
<path d="M54.5195 44.1921V42.4102H52.7494V44.1921H54.5195Z" fill="#231815"/>
<path d="M59.8516 38.8463V37.0645H58.0814V38.8463H59.8516Z" fill="#231815"/>
<path d="M58.0801 38.8463V37.0645H56.31V38.8463H58.0801Z" fill="#231815"/>
<path d="M63.5488 37.0631V35.2812H61.7787V37.0631H63.5488Z" fill="#231815"/>
<path d="M61.7793 37.0631V35.2812H60.0092V37.0631H61.7793Z" fill="#231815"/>
<path d="M63.5488 35.2643V33.4824H61.7787V35.2643H63.5488Z" fill="#231815"/>
<path d="M61.7793 35.2643V33.4824H60.0092V35.2643H61.7793Z" fill="#231815"/>
<path d="M67.0898 37.0631V35.2812H65.3197V37.0631H67.0898Z" fill="#231815"/>
<path d="M65.3203 37.0631V35.2812H63.5502V37.0631H65.3203Z" fill="#231815"/>
<path d="M67.0898 35.2643V33.4824H65.3197V35.2643H67.0898Z" fill="#231815"/>
<path d="M65.3203 35.2643V33.4824H63.5502V35.2643H65.3203Z" fill="#231815"/>
<path d="M52.9453 26.444V24.6621H51.1752V26.444H52.9453Z" fill="#231815"/>
<path d="M51.1758 26.444V24.6621H49.4057V26.444H51.1758Z" fill="#231815"/>
<path d="M56.4863 26.444V24.6621H54.7162V26.444H56.4863Z" fill="#231815"/>
<path d="M54.7168 26.444V24.6621H52.9467V26.444H54.7168Z" fill="#231815"/>
<path d="M59.9922 26.444V24.6621H58.2221V26.444H59.9922Z" fill="#231815"/>
<path d="M58.2227 26.444V24.6621H56.4525V26.444H58.2227Z" fill="#231815"/>
<path d="M63.5332 26.444V24.6621H61.7631V26.444H63.5332Z" fill="#231815"/>
<path d="M61.7637 26.444V24.6621H59.9936V26.444H61.7637Z" fill="#231815"/>
<path d="M52.9453 24.6608V22.8789H51.1752V24.6608H52.9453Z" fill="#231815"/>
<path d="M51.1758 24.6608V22.8789H49.4057V24.6608H51.1758Z" fill="#231815"/>
<path d="M56.4863 24.6608V22.8789H54.7162V24.6608H56.4863Z" fill="#231815"/>
<path d="M54.7168 24.6608V22.8789H52.9467V24.6608H54.7168Z" fill="#231815"/>
<path d="M59.9922 24.6608V22.8789H58.2221V24.6608H59.9922Z" fill="#231815"/>
<path d="M58.2227 24.6608V22.8789H56.4525V24.6608H58.2227Z" fill="#231815"/>
<path d="M56.5039 30.0065V28.2246H54.7338V30.0065H56.5039Z" fill="#231815"/>
<path d="M54.7344 30.0065V28.2246H52.9643V30.0065H54.7344Z" fill="#231815"/>
<path d="M60.0098 30.0065V28.2246H58.2396V30.0065H60.0098Z" fill="#231815"/>
<path d="M58.2402 30.0065V28.2246H56.4701V30.0065H58.2402Z" fill="#231815"/>
<path d="M56.5039 28.2253V26.4434H54.7338V28.2253H56.5039Z" fill="#231815"/>
<path d="M54.7344 28.2253V26.4434H52.9643V28.2253H54.7344Z" fill="#231815"/>
<path d="M60.0098 28.2253V26.4434H58.2396V28.2253H60.0098Z" fill="#231815"/>
<path d="M58.2402 28.2253V26.4434H56.4701V28.2253H58.2402Z" fill="#231815"/>
<path d="M56.4863 19.3151V17.5332H54.7162V19.3151H56.4863Z" fill="#231815"/>
<path d="M54.7168 19.3151V17.5332H52.9467V19.3151H54.7168Z" fill="#231815"/>
<path d="M59.9922 19.3151V17.5332H58.2221V19.3151H59.9922Z" fill="#231815"/>
<path d="M58.2227 19.3151V17.5332H56.4525V19.3151H58.2227Z" fill="#231815"/>
<path d="M56.4863 17.5338V15.752H54.7162V17.5338H56.4863Z" fill="#231815"/>
<path d="M54.7168 17.5338V15.752H52.9467V17.5338H54.7168Z" fill="#231815"/>
<path d="M59.9922 17.5338V15.752H58.2221V17.5338H59.9922Z" fill="#231815"/>
<path d="M58.2227 17.5338V15.752H56.4525V17.5338H58.2227Z" fill="#231815"/>
<path d="M63.5332 24.6608V22.8789H61.7631V24.6608H63.5332Z" fill="#231815"/>
<path d="M61.7637 24.6608V22.8789H59.9936V24.6608H61.7637Z" fill="#231815"/>
<path d="M52.9453 22.8796V21.0977H51.1752V22.8796H52.9453Z" fill="#231815"/>
<path d="M51.1758 22.8796V21.0977H49.4057V22.8796H51.1758Z" fill="#231815"/>
<path d="M56.4863 22.8796V21.0977H54.7162V22.8796H56.4863Z" fill="#231815"/>
<path d="M54.7168 22.8796V21.0977H52.9467V22.8796H54.7168Z" fill="#231815"/>
<path d="M59.9922 22.8796V21.0977H58.2221V22.8796H59.9922Z" fill="#231815"/>
<path d="M58.2227 22.8796V21.0977H56.4525V22.8796H58.2227Z" fill="#231815"/>
<path d="M63.5332 22.8796V21.0977H61.7631V22.8796H63.5332Z" fill="#231815"/>
<path d="M61.7637 22.8796V21.0977H59.9936V22.8796H61.7637Z" fill="#231815"/>
<path d="M52.9453 21.0983V19.3164H51.1752V21.0983H52.9453Z" fill="#231815"/>
<path d="M51.1758 21.0983V19.3164H49.4057V21.0983H51.1758Z" fill="#231815"/>
<path d="M56.4863 21.0983V19.3164H54.7162V21.0983H56.4863Z" fill="#231815"/>
<path d="M54.7168 21.0983V19.3164H52.9467V21.0983H54.7168Z" fill="#231815"/>
<path d="M59.9922 21.0983V19.3164H58.2221V21.0983H59.9922Z" fill="#231815"/>
<path d="M58.2227 21.0983V19.3164H56.4525V21.0983H58.2227Z" fill="#231815"/>
<path d="M63.5332 21.0983V19.3164H61.7631V21.0983H63.5332Z" fill="#231815"/>
<path d="M61.7637 21.0983V19.3164H59.9936V21.0983H61.7637Z" fill="#231815"/>
</g>
<g filter="url(#filter0_d_569_4370)">
<path d="M6.11116 105.264V103.224H3.99916V95.856H6.11116V93.792H13.4072V95.856H15.5432V102H17.6792V105.264H14.6072V103.224H13.4072V105.264H6.11116ZM7.04716 102H12.4712V97.056H7.04716V102ZM20.6163 109.248V95.856H22.7283V93.792H30.0243V95.856H32.1603V103.224H30.0243V105.264H23.6643V109.248H20.6163ZM23.6643 102H29.0883V97.056H23.6643V102ZM35.0773 109.248V95.856H37.1893V93.792H44.4853V95.856H46.6213V103.224H44.4853V105.264H38.1253V109.248H35.0773ZM38.1253 102H43.5493V97.056H38.1253V102ZM49.5382 105.264V89.688H52.5862V91.752H54.6982V93.792H56.8342V99.936H58.0102V89.688H61.0822V105.264H58.0102V103.224H55.8982V101.16H53.7622V95.016H52.5862V105.264H49.5382ZM65.6424 105.264V103.224H63.5304V95.856H65.6424V93.792H72.9384V95.856H75.0744V103.224H72.9384V105.264H65.6424ZM66.5784 102H72.0024V97.056H66.5784V102ZM77.9913 105.264V93.792H85.2873V95.856H86.4633V93.792H91.6713V95.856H93.7593V105.264H90.7353V97.056H87.3993V105.264H84.3513V97.056H81.0393V105.264H77.9913Z" fill="black"/>
</g>
<defs>
<filter id="filter0_d_569_4370" x="0" y="89.6875" width="97.7598" height="27.5605" filterUnits="userSpaceOnUse" color-interpolation-filters="sRGB">
<feFlood flood-opacity="0" result="BackgroundImageFix"/>
<feColorMatrix in="SourceAlpha" type="matrix" values="0 0 0 0 0 0 0 0 0 0 0 0 0 0 0 0 0 0 127 0" result="hardAlpha"/>
<feOffset dy="4"/>
<feGaussianBlur stdDeviation="2"/>
<feComposite in2="hardAlpha" operator="out"/>
<feColorMatrix type="matrix" values="0 0 0 0 0 0 0 0 0 0 0 0 0 0 0 0 0 0 0.25 0"/>
<feBlend mode="normal" in2="BackgroundImageFix" result="effect1_dropShadow_569_4370"/>
<feBlend mode="normal" in="SourceGraphic" in2="effect1_dropShadow_569_4370" result="shape"/>
</filter>
<clipPath id="clip0_569_4370">
<rect width="75" height="75" fill="white" transform="translate(11.3828)"/>
</clipPath>
</defs>
</svg>
