<svg width="1920" height="1080" viewBox="0 0 1920 1080" fill="none" xmlns="http://www.w3.org/2000/svg">
<g clip-path="url(#clip0_575_4894)">
<rect width="1920" height="1080" fill="#3D9B70"/>
<g filter="url(#filter0_f_575_4894)">
<path d="M103.5 5V1075" stroke="white" stroke-opacity="0.3"/>
<path d="M1926 100L4.00002 100" stroke="white" stroke-opacity="0.3"/>
<path d="M1926 200L4.00002 200" stroke="white" stroke-opacity="0.3"/>
<path d="M1926 300L4.00002 300" stroke="white" stroke-opacity="0.3"/>
<path d="M1926 400L4.00002 400" stroke="white" stroke-opacity="0.3"/>
<path d="M1926 500L4.00002 500" stroke="white" stroke-opacity="0.3"/>
<path d="M1926 600L4.00002 600" stroke="white" stroke-opacity="0.3"/>
<path d="M1926 700L4.00002 700" stroke="white" stroke-opacity="0.3"/>
<path d="M1926 800L4.00002 800" stroke="white" stroke-opacity="0.3"/>
<path d="M1926 900L4.00002 900" stroke="white" stroke-opacity="0.3"/>
<path d="M1926 1000L4.00002 1000" stroke="white" stroke-opacity="0.3"/>
<path d="M200 5V1075" stroke="white" stroke-opacity="0.3"/>
<path d="M300 5V1075" stroke="white" stroke-opacity="0.3"/>
<path d="M400 5V1075" stroke="white" stroke-opacity="0.3"/>
<path d="M500 5V1075" stroke="white" stroke-opacity="0.3"/>
<path d="M600 5V1075" stroke="white" stroke-opacity="0.3"/>
<path d="M700 5V1075" stroke="white" stroke-opacity="0.3"/>
<path d="M800 5V1075" stroke="white" stroke-opacity="0.3"/>
<path d="M900 5V1075" stroke="white" stroke-opacity="0.3"/>
<path d="M1000 5V1075" stroke="white" stroke-opacity="0.3"/>
<path d="M1100 5V1075" stroke="white" stroke-opacity="0.3"/>
<path d="M1200 5V1075" stroke="white" stroke-opacity="0.3"/>
<path d="M1300 5V1075" stroke="white" stroke-opacity="0.3"/>
<path d="M1400 5V1075" stroke="white" stroke-opacity="0.3"/>
<path d="M1500 5V1075" stroke="white" stroke-opacity="0.3"/>
<path d="M1600 5V1075" stroke="white" stroke-opacity="0.3"/>
<path d="M1700 5V1075" stroke="white" stroke-opacity="0.3"/>
<path d="M1800 5V1075" stroke="white" stroke-opacity="0.3"/>
<path d="M1900 5V1075" stroke="white" stroke-opacity="0.3"/>
</g>
</g>
<defs>
<filter id="filter0_f_575_4894" x="0" y="1" width="1930" height="1078" filterUnits="userSpaceOnUse" color-interpolation-filters="sRGB">
<feFlood flood-opacity="0" result="BackgroundImageFix"/>
<feBlend mode="normal" in="SourceGraphic" in2="BackgroundImageFix" result="shape"/>
<feGaussianBlur stdDeviation="2" result="effect1_foregroundBlur_575_4894"/>
</filter>
<clipPath id="clip0_575_4894">
<rect width="1920" height="1080" fill="white"/>
</clipPath>
</defs>
</svg>
