<svg width="21" height="23" viewBox="0 0 21 23" fill="none" xmlns="http://www.w3.org/2000/svg">
<path fill-rule="evenodd" clip-rule="evenodd" d="M3.5425 5.731C3.67267 4.16881 4.38514 2.71258 5.53863 1.65106C6.69212 0.589531 8.2024 0.000229208 9.77 0H10.7285C13.4025 0 15.7085 1.686 16.5935 4.087C16.8845 4.876 16.212 5.5695 15.4535 5.553C14.7835 5.538 14.0542 5.526 13.2655 5.517C12.7805 5.5115 12.3825 5.2195 12.1165 4.891C11.8117 4.51449 11.4003 4.23893 10.9361 4.10051C10.4719 3.9621 9.97666 3.96729 9.51547 4.11542C9.05428 4.26354 8.64867 4.54767 8.35188 4.93049C8.0551 5.31332 7.88102 5.77695 7.8525 6.2605L7.69 9.0165C8.46733 9.00583 9.3205 9.00033 10.2495 9C13.4895 9 15.7905 9.0745 17.271 9.148C18.855 9.2265 20.19 10.3665 20.3435 12.011C20.43 12.934 20.4995 14.169 20.4995 15.75C20.4995 17.331 20.4295 18.566 20.3435 19.489C20.19 21.1335 18.855 22.2735 17.271 22.352C15.7905 22.4255 13.49 22.5 10.2495 22.5C7.009 22.5 4.7085 22.4255 3.228 22.352C1.644 22.2735 0.309 21.1335 0.1555 19.489C0.0695001 18.566 0 17.331 0 15.75C0 14.169 0.07 12.934 0.156 12.011C0.3095 10.3665 1.6445 9.2265 3.2285 9.148L3.2575 9.1465L3.5425 5.731ZM12.25 14.75C12.25 15.0518 12.1817 15.3496 12.0503 15.6213C11.9189 15.8929 11.7276 16.1313 11.491 16.3185L11.8095 17.6835C11.9195 18.156 11.666 18.625 11.186 18.6905C10.933 18.725 10.621 18.75 10.25 18.75C9.879 18.75 9.567 18.725 9.314 18.69C8.834 18.625 8.58 18.156 8.6905 17.684L9.009 16.3185C8.74338 16.1083 8.53548 15.8341 8.40481 15.5216C8.27414 15.2091 8.22498 14.8686 8.26194 14.5319C8.2989 14.1952 8.42076 13.8734 8.6161 13.5967C8.81144 13.32 9.07386 13.0974 9.37875 12.9498C9.68364 12.8023 10.021 12.7346 10.3592 12.7531C10.6974 12.7716 11.0254 12.8757 11.3124 13.0556C11.5994 13.2355 11.836 13.4854 11.9999 13.7817C12.1639 14.0781 12.25 14.4113 12.25 14.75Z" fill="black"/>
</svg>
