<svg width="21" height="24" viewBox="0 0 21 24" fill="none" xmlns="http://www.w3.org/2000/svg">
<path fill-rule="evenodd" clip-rule="evenodd" d="M3.792 5.7305C3.9223 4.16832 4.63489 2.71214 5.78847 1.6507C6.94206 0.58927 8.45239 9.33442e-05 10.02 0H10.9785C14.2285 0 16.936 2.4915 17.206 5.7305L17.255 6.315C17.2578 6.35003 17.2532 6.38526 17.2415 6.41839C17.2298 6.45152 17.2113 6.48182 17.1871 6.50729C17.1629 6.53277 17.1336 6.55286 17.1011 6.56625C17.0686 6.57964 17.0336 6.58603 16.9985 6.585C15.7139 6.5486 14.429 6.52444 13.144 6.5125C13.0807 6.51185 13.0199 6.48717 12.9741 6.44345C12.9282 6.39974 12.9007 6.34024 12.897 6.277L12.896 6.26C12.8606 5.64822 12.5927 5.07311 12.1471 4.65248C11.7014 4.23185 11.1118 3.99754 10.499 3.99754C9.8862 3.99754 9.29659 4.23185 8.85094 4.65248C8.4053 5.07311 8.13736 5.64822 8.102 6.26L7.984 8.267C8.74967 8.256 9.588 8.25033 10.499 8.25C13.7275 8.25 16.0265 8.33 17.514 8.4095C19.2305 8.501 20.667 9.7585 20.829 11.54C20.9215 12.558 20.9985 13.947 20.9985 15.7495C20.9985 17.5515 20.9215 18.9405 20.8285 19.9585C20.667 21.74 19.2305 22.9975 17.5135 23.089C16.0265 23.169 13.7275 23.249 10.499 23.249C7.2705 23.249 4.9715 23.169 3.484 23.089C1.768 22.9975 0.331 21.74 0.169 19.9585C0.0775 18.94 0 17.5515 0 15.7495C0 13.9475 0.077 12.5585 0.1695 11.54C0.331 9.7585 1.768 8.501 3.4845 8.4095L3.5695 8.4045L3.792 5.7305ZM3.591 10.4065C5.0405 10.329 7.3035 10.25 10.499 10.25C13.6945 10.25 15.958 10.329 17.407 10.4065C18.202 10.449 18.7715 10.998 18.837 11.721C18.924 12.676 18.9985 14.004 18.9985 15.7495C18.9985 17.4945 18.9235 18.823 18.837 19.7775C18.7715 20.5005 18.202 21.0495 17.407 21.0925C15.958 21.1695 13.695 21.2485 10.499 21.2485C7.303 21.2485 5.0405 21.1695 3.591 21.092C2.7965 21.0495 2.227 20.5005 2.161 19.7775C2.075 18.823 2 17.495 2 15.75C2 14.005 2.075 12.676 2.161 11.7215C2.227 10.9985 2.7965 10.449 3.591 10.4065ZM10.499 11.7495C9.97079 11.7497 9.45622 11.9173 9.02911 12.228C8.60201 12.5388 8.28432 12.9769 8.12162 13.4795C7.95892 13.982 7.95958 14.5231 8.12349 15.0253C8.2874 15.5274 8.60615 15.9647 9.034 16.2745L8.433 18.528C8.3015 19.02 8.57 19.561 9.121 19.649C9.4595 19.703 9.919 19.749 10.499 19.749C11.079 19.749 11.539 19.703 11.877 19.649C12.428 19.561 12.6965 19.02 12.5655 18.528L11.9645 16.275C12.3924 15.9652 12.7111 15.5279 12.875 15.0258C13.0389 14.5236 13.0396 13.9825 12.8769 13.48C12.7142 12.9774 12.3965 12.5393 11.9694 12.2285C11.5423 11.9178 11.0277 11.7502 10.4995 11.75" fill="black"/>
</svg>
