<svg width="147" height="120" viewBox="0 0 147 120" fill="none" xmlns="http://www.w3.org/2000/svg">
<g clip-path="url(#clip0_740_4928)">
<path d="M39.4045 3.5625H35.8643V63.256H39.4045V3.5625Z" fill="#231815"/>
<path d="M103.253 3.5625H99.7129V63.256H103.253V3.5625Z" fill="#231815"/>
<path d="M98.7046 3.56379V0L39.4056 0V3.56379L98.7046 3.56379Z" fill="#231815"/>
<path d="M98.7212 66.8216V63.2578L39.4222 63.2578V66.8216H98.7212Z" fill="#231815"/>
<path d="M107.305 74.9818V71.418H48.0056V74.9818H107.305Z" fill="#231815"/>
<path d="M110.863 11.7266H107.323V71.4201H110.863V11.7266Z" fill="#231815"/>
<path d="M47.2121 9.98047H43.6719V50.0375H47.2121V9.98047Z" fill="#231815"/>
<path d="M95.094 9.98047H91.5537V50.0375H95.094V9.98047Z" fill="#231815"/>
<path d="M91.5537 53.0989V49.5352H47.2299V53.0989H91.5537Z" fill="#231815"/>
<path d="M91.7305 12.3138V8.75L47.4067 8.75V12.3138L91.7305 12.3138Z" fill="#231815"/>
<path d="M48.9811 38.8438H47.2109V40.6256H48.9811V38.8438Z" fill="#231815"/>
<path d="M50.7691 38.8438H48.999V40.6256H50.7691V38.8438Z" fill="#231815"/>
<path d="M48.9811 37.0625H47.2109V38.8444H48.9811V37.0625Z" fill="#231815"/>
<path d="M50.7691 37.0625H48.999V38.8444H50.7691V37.0625Z" fill="#231815"/>
<path d="M48.9811 40.6289H47.2109V42.4108H48.9811V40.6289Z" fill="#231815"/>
<path d="M50.7691 40.6289H48.999V42.4108H50.7691V40.6289Z" fill="#231815"/>
<path d="M52.5387 35.1914H50.7686V36.9733H52.5387V35.1914Z" fill="#231815"/>
<path d="M54.3102 35.1914H52.54V36.9733H54.3102V35.1914Z" fill="#231815"/>
<path d="M52.5387 33.4102H50.7686V35.1921H52.5387V33.4102Z" fill="#231815"/>
<path d="M54.3102 33.4102H52.54V35.1921H54.3102V33.4102Z" fill="#231815"/>
<path d="M52.5387 36.9727H50.7686V38.7546H52.5387V36.9727Z" fill="#231815"/>
<path d="M54.3102 36.9727H52.54V38.7546H54.3102V36.9727Z" fill="#231815"/>
<path d="M55.9889 31.7188H54.2188V33.5006H55.9889V31.7188Z" fill="#231815"/>
<path d="M57.7804 31.7188H56.0103V33.5006H57.7804V31.7188Z" fill="#231815"/>
<path d="M55.9889 29.9375H54.2188V31.7194H55.9889V29.9375Z" fill="#231815"/>
<path d="M57.7804 29.9375H56.0103V31.7194H57.7804V29.9375Z" fill="#231815"/>
<path d="M55.9889 33.5H54.2188V35.2819H55.9889V33.5Z" fill="#231815"/>
<path d="M57.7804 33.5H56.0103V35.2819H57.7804V33.5Z" fill="#231815"/>
<path d="M61.3203 28.2272V26.4453H59.5502V28.2272H61.3203Z" fill="#231815"/>
<path d="M61.3203 30.0241V28.2422H59.5502V30.0241H61.3203Z" fill="#231815"/>
<path d="M63.0903 28.2272V26.4453H61.3202V28.2272H63.0903Z" fill="#231815"/>
<path d="M63.0903 30.0241V28.2422H61.3202V30.0241H63.0903Z" fill="#231815"/>
<path d="M59.5508 28.2272V26.4453H57.7807V28.2272H59.5508Z" fill="#231815"/>
<path d="M59.5508 30.0241V28.2422H57.7807V30.0241H59.5508Z" fill="#231815"/>
<path d="M66.6309 28.2272V26.4453H64.8607V28.2272H66.6309Z" fill="#231815"/>
<path d="M66.6309 30.0241V28.2422H64.8607V30.0241H66.6309Z" fill="#231815"/>
<path d="M64.8613 28.2272V26.4453H63.0912V28.2272H64.8613Z" fill="#231815"/>
<path d="M64.8613 30.0241V28.2422H63.0912V30.0241H64.8613Z" fill="#231815"/>
<path d="M66.6309 31.8053V30.0234H64.8607V31.8053H66.6309Z" fill="#231815"/>
<path d="M66.6108 33.5905V31.8086H64.8407V33.5905H66.6108Z" fill="#231815"/>
<path d="M70.1719 31.8053V30.0234H68.4018V31.8053H70.1719Z" fill="#231815"/>
<path d="M70.1499 33.5905V31.8086H68.3798V33.5905H70.1499Z" fill="#231815"/>
<path d="M68.4004 31.8053V30.0234H66.6303V31.8053H68.4004Z" fill="#231815"/>
<path d="M68.3804 33.5905V31.8086H66.6103V33.5905H68.3804Z" fill="#231815"/>
<path d="M70.1499 35.3717V33.5898H68.3798V35.3717H70.1499Z" fill="#231815"/>
<path d="M70.1719 37.153V35.3711H68.4018V37.153H70.1719Z" fill="#231815"/>
<path d="M73.6909 35.3717V33.5898H71.9208V35.3717H73.6909Z" fill="#231815"/>
<path d="M73.7109 37.153V35.3711H71.9408V37.153H73.7109Z" fill="#231815"/>
<path d="M71.9214 35.3717V33.5898H70.1513V35.3717H71.9214Z" fill="#231815"/>
<path d="M71.9414 37.153V35.3711H70.1713V37.153H71.9414Z" fill="#231815"/>
<path d="M73.7109 38.8444V37.0625H71.9408V38.8444H73.7109Z" fill="#231815"/>
<path d="M73.6909 40.6256V38.8438H71.9208V40.6256H73.6909Z" fill="#231815"/>
<path d="M77.252 38.8444V37.0625H75.4818V38.8444H77.252Z" fill="#231815"/>
<path d="M77.23 40.6256V38.8438H75.4599V40.6256H77.23Z" fill="#231815"/>
<path d="M75.4805 38.8444V37.0625H73.7103V38.8444H75.4805Z" fill="#231815"/>
<path d="M75.4604 40.6256V38.8438H73.6903V40.6256H75.4604Z" fill="#231815"/>
<path d="M75.4604 42.4108V40.6289H73.6903V42.4108H75.4604Z" fill="#231815"/>
<path d="M79.0015 42.4108V40.6289H77.2313V42.4108H79.0015Z" fill="#231815"/>
<path d="M77.23 42.4108V40.6289H75.4599V42.4108H77.23Z" fill="#231815"/>
<path d="M80.771 42.4108V40.6289H79.0009V42.4108H80.771Z" fill="#231815"/>
<path d="M84.312 42.4108V40.6289H82.5419V42.4108H84.312Z" fill="#231815"/>
<path d="M82.5405 42.4108V40.6289H80.7704V42.4108H82.5405Z" fill="#231815"/>
<path d="M84.312 40.6256V38.8438H82.5419V40.6256H84.312Z" fill="#231815"/>
<path d="M82.5405 40.6256V38.8438H80.7704V40.6256H82.5405Z" fill="#231815"/>
<path d="M84.332 49.5358V47.7539H82.5619V49.5358H84.332Z" fill="#231815"/>
<path d="M82.5625 49.5358V47.7539H80.7924V49.5358H82.5625Z" fill="#231815"/>
<path d="M84.332 47.7546V45.9727H82.5619V47.7546H84.332Z" fill="#231815"/>
<path d="M82.5625 47.7546V45.9727H80.7924V47.7546H82.5625Z" fill="#231815"/>
<path d="M80.791 45.9733V44.1914H79.0209V45.9733H80.791Z" fill="#231815"/>
<path d="M79.0215 45.9733V44.1914H77.2514V45.9733H79.0215Z" fill="#231815"/>
<path d="M80.771 44.1921V42.4102H79.0009V44.1921H80.771Z" fill="#231815"/>
<path d="M79.0015 44.1921V42.4102H77.2313V44.1921H79.0015Z" fill="#231815"/>
<path d="M84.332 38.8444V37.0625H82.5619V38.8444H84.332Z" fill="#231815"/>
<path d="M82.5625 38.8444V37.0625H80.7924V38.8444H82.5625Z" fill="#231815"/>
<path d="M88.0312 37.0631V35.2812H86.2611V37.0631H88.0312Z" fill="#231815"/>
<path d="M86.2617 37.0631V35.2812H84.4916V37.0631H86.2617Z" fill="#231815"/>
<path d="M88.0312 35.2624V33.4805H86.2611V35.2624H88.0312Z" fill="#231815"/>
<path d="M86.2617 35.2624V33.4805H84.4916V35.2624H86.2617Z" fill="#231815"/>
<path d="M91.5723 37.0631V35.2812H89.8021V37.0631H91.5723Z" fill="#231815"/>
<path d="M89.8008 37.0631V35.2812H88.0307V37.0631H89.8008Z" fill="#231815"/>
<path d="M91.5723 35.2624V33.4805H89.8021V35.2624H91.5723Z" fill="#231815"/>
<path d="M89.8008 35.2624V33.4805H88.0307V35.2624H89.8008Z" fill="#231815"/>
<path d="M77.4272 26.4421V24.6602H75.6571V26.4421H77.4272Z" fill="#231815"/>
<path d="M75.6577 26.4421V24.6602H73.8876V26.4421H75.6577Z" fill="#231815"/>
<path d="M80.9678 26.4421V24.6602H79.1977V26.4421H80.9678Z" fill="#231815"/>
<path d="M79.1982 26.4421V24.6602H77.4281V26.4421H79.1982Z" fill="#231815"/>
<path d="M84.4736 26.4421V24.6602H82.7035V26.4421H84.4736Z" fill="#231815"/>
<path d="M82.7041 26.4421V24.6602H80.934V26.4421H82.7041Z" fill="#231815"/>
<path d="M88.0142 26.4421V24.6602H86.244V26.4421H88.0142Z" fill="#231815"/>
<path d="M86.2446 26.4421V24.6602H84.4745V26.4421H86.2446Z" fill="#231815"/>
<path d="M77.4272 24.6608V22.8789H75.6571V24.6608H77.4272Z" fill="#231815"/>
<path d="M75.6577 24.6608V22.8789H73.8876V24.6608H75.6577Z" fill="#231815"/>
<path d="M80.9678 24.6608V22.8789H79.1977V24.6608H80.9678Z" fill="#231815"/>
<path d="M79.1982 24.6608V22.8789H77.4281V24.6608H79.1982Z" fill="#231815"/>
<path d="M84.4736 24.6608V22.8789H82.7035V24.6608H84.4736Z" fill="#231815"/>
<path d="M82.7041 24.6608V22.8789H80.934V24.6608H82.7041Z" fill="#231815"/>
<path d="M80.9849 30.0085V28.2266H79.2147V30.0085H80.9849Z" fill="#231815"/>
<path d="M79.2153 30.0085V28.2266H77.4452V30.0085H79.2153Z" fill="#231815"/>
<path d="M84.4902 30.0085V28.2266H82.7201V30.0085H84.4902Z" fill="#231815"/>
<path d="M82.7207 30.0085V28.2266H80.9506V30.0085H82.7207Z" fill="#231815"/>
<path d="M80.9849 28.2272V26.4453H79.2147V28.2272H80.9849Z" fill="#231815"/>
<path d="M79.2153 28.2272V26.4453H77.4452V28.2272H79.2153Z" fill="#231815"/>
<path d="M84.4902 28.2272V26.4453H82.7201V28.2272H84.4902Z" fill="#231815"/>
<path d="M82.7207 28.2272V26.4453H80.9506V28.2272H82.7207Z" fill="#231815"/>
<path d="M80.9678 19.3171V17.5352H79.1977V19.3171H80.9678Z" fill="#231815"/>
<path d="M79.1982 19.3171V17.5352H77.4281V19.3171H79.1982Z" fill="#231815"/>
<path d="M84.4736 19.3171V17.5352H82.7035V19.3171H84.4736Z" fill="#231815"/>
<path d="M82.7041 19.3171V17.5352H80.934V19.3171H82.7041Z" fill="#231815"/>
<path d="M80.9678 17.5358V15.7539H79.1977V17.5358H80.9678Z" fill="#231815"/>
<path d="M79.1982 17.5358V15.7539H77.4281V17.5358H79.1982Z" fill="#231815"/>
<path d="M84.4736 17.5358V15.7539H82.7035V17.5358H84.4736Z" fill="#231815"/>
<path d="M82.7041 17.5358V15.7539H80.934V17.5358H82.7041Z" fill="#231815"/>
<path d="M88.0142 24.6608V22.8789H86.244V24.6608H88.0142Z" fill="#231815"/>
<path d="M86.2446 24.6608V22.8789H84.4745V24.6608H86.2446Z" fill="#231815"/>
<path d="M77.4272 22.8796V21.0977H75.6571V22.8796H77.4272Z" fill="#231815"/>
<path d="M75.6577 22.8796V21.0977H73.8876V22.8796H75.6577Z" fill="#231815"/>
<path d="M80.9678 22.8796V21.0977H79.1977V22.8796H80.9678Z" fill="#231815"/>
<path d="M79.1982 22.8796V21.0977H77.4281V22.8796H79.1982Z" fill="#231815"/>
<path d="M84.4736 22.8796V21.0977H82.7035V22.8796H84.4736Z" fill="#231815"/>
<path d="M82.7041 22.8796V21.0977H80.934V22.8796H82.7041Z" fill="#231815"/>
<path d="M88.0142 22.8796V21.0977H86.244V22.8796H88.0142Z" fill="#231815"/>
<path d="M86.2446 22.8796V21.0977H84.4745V22.8796H86.2446Z" fill="#231815"/>
<path d="M77.4272 21.0983V19.3164H75.6571V21.0983H77.4272Z" fill="#231815"/>
<path d="M75.6577 21.0983V19.3164H73.8876V21.0983H75.6577Z" fill="#231815"/>
<path d="M80.9678 21.0983V19.3164H79.1977V21.0983H80.9678Z" fill="#231815"/>
<path d="M79.1982 21.0983V19.3164H77.4281V21.0983H79.1982Z" fill="#231815"/>
<path d="M84.4736 21.0983V19.3164H82.7035V21.0983H84.4736Z" fill="#231815"/>
<path d="M82.7041 21.0983V19.3164H80.934V21.0983H82.7041Z" fill="#231815"/>
<path d="M88.0142 21.0983V19.3164H86.244V21.0983H88.0142Z" fill="#231815"/>
<path d="M86.2446 21.0983V19.3164H84.4745V21.0983H86.2446Z" fill="#231815"/>
</g>
<g filter="url(#filter0_d_740_4928)">
<path d="M6.11213 105.264V103.224H4.00013V91.752H6.11213V89.688H13.4081V91.752H15.5441V97.056H12.4721V92.976H7.04813V102H12.4721V97.872H15.5441V103.224H13.4081V105.264H6.11213ZM20.5731 105.264V103.224H18.4611V95.856H20.5731V93.792H27.8691V95.856H30.0051V102H32.1411V105.264H29.0691V103.224H27.8691V105.264H20.5731ZM21.5091 102H26.9331V97.056H21.5091V102ZM34.3517 105.264V89.688H37.3997V105.264H34.3517ZM41.9715 105.264V103.224H39.8595V95.856H41.9715V93.792H49.2675V95.856H51.4035V99.096H48.3315V97.056H42.9075V97.872H47.1555V101.16H42.9075V102H48.3315V99.912H51.4035V103.2H49.2675V105.264H41.9715ZM54.3204 105.264V93.792H63.7284V95.856H65.8644V105.264H62.7924V97.056H57.3684V105.264H54.3204ZM70.4246 105.264V103.224H68.3126V95.856H70.4246V93.792H76.8086V89.688H79.8806V103.224H77.7206V105.264H70.4246ZM71.3606 102H76.7846V97.056H71.3606V102ZM84.4168 105.264V103.224H82.3048V95.856H84.4168V93.792H91.7128V95.856H93.8488V99.096H90.7768V97.056H85.3528V97.872H89.6008V101.16H85.3528V102H90.7768V99.912H93.8488V103.2H91.7128V105.264H84.4168ZM96.7658 105.264V95.856H98.8778V93.792H106.174V95.856H108.31V99.096H105.238V97.056H99.8138V105.264H96.7658ZM111.227 105.264V93.792H114.275V105.264H111.227ZM111.227 92.976V89.688H114.275V92.976H111.227ZM118.847 105.264V103.224H116.735V95.856H118.847V93.792H126.143V95.856H128.279V99.096H125.207V97.056H119.783V97.872H124.031V101.16H119.783V102H125.207V99.912H128.279V103.2H126.143V105.264H118.847ZM131.195 105.264V95.856H133.307V93.792H140.603V95.856H142.739V99.096H139.667V97.056H134.243V105.264H131.195Z" fill="black"/>
</g>
<defs>
<filter id="filter0_d_740_4928" x="0" y="89.6875" width="146.739" height="23.5781" filterUnits="userSpaceOnUse" color-interpolation-filters="sRGB">
<feFlood flood-opacity="0" result="BackgroundImageFix"/>
<feColorMatrix in="SourceAlpha" type="matrix" values="0 0 0 0 0 0 0 0 0 0 0 0 0 0 0 0 0 0 127 0" result="hardAlpha"/>
<feOffset dy="4"/>
<feGaussianBlur stdDeviation="2"/>
<feComposite in2="hardAlpha" operator="out"/>
<feColorMatrix type="matrix" values="0 0 0 0 0 0 0 0 0 0 0 0 0 0 0 0 0 0 0.25 0"/>
<feBlend mode="normal" in2="BackgroundImageFix" result="effect1_dropShadow_740_4928"/>
<feBlend mode="normal" in="SourceGraphic" in2="effect1_dropShadow_740_4928" result="shape"/>
</filter>
<clipPath id="clip0_740_4928">
<rect width="75" height="75" fill="white" transform="translate(35.8643)"/>
</clipPath>
</defs>
</svg>
