<svg width="109" height="44" viewBox="0 0 109 44" fill="none" xmlns="http://www.w3.org/2000/svg">
<path d="M25.6875 24.883L27.6531 25.5063C27.3517 26.602 26.8495 27.417 26.1464 27.9512C25.4478 28.4809 24.5598 28.7457 23.4822 28.7457C22.149 28.7457 21.0532 28.2914 20.1949 27.3828C19.3365 26.4696 18.9073 25.2232 18.9073 23.6434C18.9073 21.9724 19.3388 20.6757 20.2017 19.7534C21.0647 18.8265 22.1993 18.3631 23.6055 18.3631C24.8337 18.3631 25.8313 18.7261 26.5984 19.452C27.055 19.8812 27.3974 20.4976 27.6257 21.3012L25.619 21.7806C25.5003 21.2601 25.2515 20.8492 24.8725 20.5478C24.4981 20.2465 24.0415 20.0958 23.5028 20.0958C22.7586 20.0958 22.1536 20.3629 21.6879 20.8971C21.2267 21.4313 20.9962 22.2965 20.9962 23.4928C20.9962 24.762 21.2245 25.6661 21.681 26.2048C22.1376 26.7436 22.7312 27.013 23.4617 27.013C24.0005 27.013 24.4639 26.8418 24.852 26.4993C25.2401 26.1569 25.5186 25.6181 25.6875 24.883ZM38.7339 28.5745H36.5287L35.652 26.2939H31.6387L30.81 28.5745H28.6596L32.5701 18.5343H34.7138L38.7339 28.5745ZM35.0014 24.6022L33.618 20.8766L32.262 24.6022H35.0014ZM40.0966 28.5745V18.5343H43.3497C44.5824 18.5343 45.386 18.5845 45.7604 18.685C46.3357 18.8357 46.8174 19.1644 47.2055 19.6712C47.5936 20.1734 47.7876 20.8241 47.7876 21.6231C47.7876 22.2394 47.6757 22.7577 47.452 23.1777C47.2283 23.5978 46.9429 23.9288 46.5959 24.1708C46.2535 24.4082 45.9042 24.5657 45.5481 24.6433C45.0641 24.7392 44.3633 24.7872 43.4455 24.7872H42.1238V28.5745H40.0966ZM42.1238 20.2328V23.0818H43.2332C44.0323 23.0818 44.5664 23.0293 44.8358 22.9243C45.1052 22.8193 45.3152 22.6549 45.4659 22.4312C45.6211 22.2075 45.6988 21.9472 45.6988 21.6505C45.6988 21.2852 45.5915 20.9839 45.3769 20.7464C45.1623 20.509 44.8906 20.3606 44.5619 20.3013C44.3199 20.2556 43.8336 20.2328 43.1031 20.2328H42.1238ZM51.9924 28.5745V20.2328H49.0132V18.5343H56.9919V20.2328H54.0196V28.5745H51.9924ZM65.0114 24.883L66.977 25.5063C66.6757 26.602 66.1734 27.417 65.4703 27.9512C64.7717 28.4809 63.8837 28.7457 62.8062 28.7457C61.473 28.7457 60.3772 28.2914 59.5188 27.3828C58.6605 26.4696 58.2313 25.2232 58.2313 23.6434C58.2313 21.9724 58.6627 20.6757 59.5257 19.7534C60.3886 18.8265 61.5232 18.3631 62.9295 18.3631C64.1576 18.3631 65.1553 18.7261 65.9223 19.452C66.3789 19.8812 66.7213 20.4976 66.9496 21.3012L64.943 21.7806C64.8242 21.2601 64.5754 20.8492 64.1965 20.5478C63.8221 20.2465 63.3655 20.0958 62.8267 20.0958C62.0825 20.0958 61.4775 20.3629 61.0118 20.8971C60.5507 21.4313 60.3201 22.2965 60.3201 23.4928C60.3201 24.762 60.5484 25.6661 61.005 26.2048C61.4616 26.7436 62.0551 27.013 62.7856 27.013C63.3244 27.013 63.7878 26.8418 64.1759 26.4993C64.564 26.1569 64.8425 25.6181 65.0114 24.883ZM69.0108 28.5745V18.5343H71.038V22.486H75.0102V18.5343H77.0374V28.5745H75.0102V24.1845H71.038V28.5745H69.0108ZM88.4744 28.5745H86.2692L85.3925 26.2939H81.3792L80.5505 28.5745H78.4L82.3106 18.5343H84.4543L88.4744 28.5745ZM84.7419 24.6022L83.3585 20.8766L82.0024 24.6022H84.7419Z" fill="#CB170F"/>
<path d="M87.6844 22.132V18.0246H89.0152C89.5196 18.0246 89.8483 18.0452 90.0015 18.0863C90.2368 18.1479 90.4339 18.2824 90.5926 18.4897C90.7514 18.6952 90.8308 18.9613 90.8308 19.2882C90.8308 19.5404 90.785 19.7524 90.6935 19.9242C90.602 20.096 90.4852 20.2315 90.3433 20.3304C90.2032 20.4276 90.0603 20.492 89.9146 20.5238C89.7166 20.563 89.4299 20.5826 89.0545 20.5826H88.5137V22.132H87.6844ZM88.5137 18.7195V19.885H88.9676C89.2945 19.885 89.513 19.8635 89.6232 19.8205C89.7334 19.7776 89.8193 19.7103 89.881 19.6188C89.9445 19.5273 89.9762 19.4208 89.9762 19.2994C89.9762 19.15 89.9323 19.0267 89.8446 18.9296C89.7568 18.8325 89.6456 18.7718 89.5111 18.7475C89.4122 18.7288 89.2132 18.7195 88.9144 18.7195H88.5137ZM94.9044 22.132H94.0022L93.6436 21.199H92.0018L91.6628 22.132H90.783L92.3828 18.0246H93.2597L94.9044 22.132ZM93.3774 20.507L92.8115 18.9828L92.2567 20.507H93.3774ZM95.4646 22.132V18.0246H97.2101C97.649 18.0246 97.9675 18.062 98.1655 18.1367C98.3653 18.2095 98.525 18.3403 98.6446 18.5289C98.7641 18.7176 98.8239 18.9333 98.8239 19.1761C98.8239 19.4843 98.7333 19.7393 98.5521 19.941C98.3709 20.1409 98.1001 20.2669 97.7396 20.3192C97.9189 20.4238 98.0665 20.5387 98.1823 20.6639C98.2999 20.789 98.4578 21.0113 98.6558 21.3307L99.1573 22.132H98.1655L97.5659 21.2382C97.353 20.9188 97.2073 20.718 97.1288 20.6358C97.0504 20.5518 96.9673 20.4948 96.8795 20.4649C96.7917 20.4332 96.6525 20.4173 96.462 20.4173H96.2939V22.132H95.4646ZM96.2939 19.7617H96.9075C97.3053 19.7617 97.5537 19.7449 97.6527 19.7113C97.7517 19.6776 97.8292 19.6197 97.8853 19.5376C97.9413 19.4554 97.9693 19.3526 97.9693 19.2294C97.9693 19.0912 97.932 18.98 97.8573 18.896C97.7844 18.81 97.6808 18.7559 97.5463 18.7335C97.479 18.7241 97.2773 18.7195 96.9411 18.7195H96.2939V19.7617ZM99.6979 22.132V18.0246H100.527V22.132H99.6979ZM101.225 20.7955L102.032 20.7171C102.08 20.9879 102.178 21.1868 102.326 21.3139C102.475 21.4409 102.676 21.5044 102.928 21.5044C103.195 21.5044 103.396 21.4483 103.531 21.3363C103.667 21.2223 103.735 21.0897 103.735 20.9384C103.735 20.8413 103.706 20.7591 103.648 20.6919C103.592 20.6228 103.493 20.563 103.351 20.5126C103.254 20.4789 103.033 20.4192 102.687 20.3332C102.243 20.223 101.931 20.0876 101.751 19.927C101.499 19.701 101.373 19.4255 101.373 19.1005C101.373 18.8913 101.432 18.6961 101.55 18.5149C101.669 18.3319 101.84 18.1927 102.062 18.0975C102.287 18.0022 102.556 17.9546 102.872 17.9546C103.388 17.9546 103.775 18.0676 104.035 18.2936C104.296 18.5196 104.434 18.8213 104.447 19.1986L103.617 19.235C103.582 19.0239 103.505 18.8726 103.388 18.7811C103.272 18.6877 103.097 18.641 102.864 18.641C102.623 18.641 102.434 18.6905 102.298 18.7895C102.21 18.853 102.166 18.938 102.166 19.0445C102.166 19.1416 102.207 19.2247 102.289 19.2938C102.394 19.3816 102.648 19.4731 103.051 19.5684C103.455 19.6636 103.753 19.7626 103.945 19.8654C104.139 19.9662 104.291 20.1054 104.399 20.2828C104.509 20.4584 104.564 20.676 104.564 20.9356C104.564 21.171 104.499 21.3914 104.368 21.5968C104.238 21.8023 104.053 21.9554 103.814 22.0563C103.574 22.1553 103.277 22.2048 102.92 22.2048C102.401 22.2048 102.002 22.0853 101.723 21.8462C101.445 21.6052 101.279 21.255 101.225 20.7955ZM105.878 19.9158C105.675 19.8299 105.526 19.7122 105.433 19.5628C105.341 19.4115 105.296 19.2462 105.296 19.0669C105.296 18.7605 105.402 18.5075 105.615 18.3076C105.83 18.1077 106.134 18.0078 106.528 18.0078C106.919 18.0078 107.221 18.1077 107.436 18.3076C107.653 18.5075 107.761 18.7605 107.761 19.0669C107.761 19.2574 107.712 19.4274 107.613 19.5768C107.514 19.7243 107.374 19.8373 107.195 19.9158C107.423 20.0073 107.596 20.1409 107.713 20.3164C107.833 20.492 107.893 20.6947 107.893 20.9244C107.893 21.3036 107.771 21.6118 107.528 21.849C107.288 22.0862 106.966 22.2048 106.565 22.2048C106.191 22.2048 105.88 22.1067 105.632 21.9106C105.338 21.679 105.192 21.3615 105.192 20.958C105.192 20.7358 105.247 20.5322 105.357 20.3473C105.467 20.1605 105.641 20.0167 105.878 19.9158ZM106.041 19.1229C106.041 19.2798 106.085 19.4021 106.172 19.4899C106.262 19.5777 106.381 19.6216 106.528 19.6216C106.678 19.6216 106.797 19.5777 106.887 19.4899C106.977 19.4003 107.021 19.277 107.021 19.1201C107.021 18.9725 106.977 18.8549 106.887 18.7671C106.799 18.6774 106.682 18.6326 106.537 18.6326C106.385 18.6326 106.265 18.6774 106.175 18.7671C106.086 18.8567 106.041 18.9753 106.041 19.1229ZM105.968 20.8824C105.968 21.0991 106.023 21.2681 106.133 21.3895C106.245 21.5109 106.384 21.5716 106.551 21.5716C106.713 21.5716 106.848 21.5137 106.954 21.3979C107.061 21.2802 107.114 21.1112 107.114 20.8908C107.114 20.6984 107.06 20.5443 106.951 20.4285C106.843 20.3108 106.706 20.252 106.539 20.252C106.347 20.252 106.203 20.3183 106.108 20.4509C106.015 20.5835 105.968 20.7274 105.968 20.8824Z" fill="#CB170F"/>
<path d="M31.0871 12.165C29.0376 10.1155 26.4264 8.71978 23.5837 8.15433C20.741 7.58888 17.7944 7.87909 15.1167 8.98826C12.4389 10.0974 10.1501 11.9757 8.53988 14.3857C6.92961 16.7956 6.07013 19.6289 6.07013 22.5273C6.07013 25.4258 6.92961 28.2591 8.53988 30.669C10.1501 33.0789 12.4389 34.9573 15.1167 36.0664C17.7944 37.1756 20.741 37.4658 23.5837 36.9004C26.4264 36.3349 29.0376 34.9392 31.0871 32.8897" stroke="#CB170F" stroke-width="3.1169" stroke-linecap="round"/>
<path d="M36.2218 16.1991C36.3856 16.7762 35.8633 17.3142 35.2816 17.1674L23.9765 14.3159C23.3949 14.1692 23.1902 13.4479 23.6081 13.0175L31.7301 4.65278C32.148 4.22242 32.875 4.40581 33.0388 4.98287L36.2218 16.1991Z" fill="#CB170F"/>
</svg>
