<svg width="30" height="40" viewBox="0 0 30 40" fill="none" xmlns="http://www.w3.org/2000/svg">
<path d="M17.5 20C17.5 18.6719 18.5937 17.5 20 17.5C21.3281 17.5 22.5 18.6719 22.5 20L22.5 25C22.5 26.4063 21.3281 27.5 20 27.5C18.5937 27.5 17.5 26.4063 17.5 25L17.5 20ZM13.125 21.25C13.75 21.25 14.375 21.1719 15 20.9375L15 27.5C15 28.9063 13.8281 30 12.5 30C11.0937 30 10 28.9063 10 27.5L10 21.25L13.125 21.25ZM3.125 21.25L7.5 21.25L7.5 37.5C7.5 38.9063 6.32812 40 5 40C3.59375 40 2.5 38.9063 2.5 37.5L2.5 21.25C2.65625 21.25 2.89062 21.25 3.125 21.25ZM30 22.5C30 23.9063 28.8281 25 27.5 25C26.0937 25 25 23.9063 25 22.5L25 17.5C25 16.1719 26.0937 15 27.5 15C28.8281 15 30 16.1719 30 17.5L30 22.5ZM27.5 12.5C25.3125 12.5 23.4375 13.9063 22.7344 15.8594C21.9531 15.3906 21.0156 15 20 15C19.5312 15 19.0625 15.1563 18.6719 15.2344C18.4375 12.3438 16.0156 10 13.125 10L7.42187 10C6.79687 10 6.25 10.625 6.25 11.25C6.25 11.9531 6.79687 12.5 7.42187 12.5781L12.8125 12.5781C14.0625 12.5781 16.1719 13.5156 16.1719 15.7031C16.1719 17.4219 14.8437 18.75 13.125 18.75L3.125 18.75C1.32812 18.75 -9.39721e-09 17.4219 -8.3023e-09 15.625L-5.30319e-09 10.7031C-3.73222e-09 8.125 1.25 5.70313 3.28125 4.14063L6.17187 2.10938C7.96875 0.78125 10.1563 7.71199e-09 12.4219 9.09254e-09L19.375 1.33294e-08C25.2344 1.68997e-08 30 4.76563 30 10.625L30 13.2031C29.2187 12.8125 28.3594 12.5 27.5 12.5Z" fill="black"/>
</svg>
