<svg width="1920" height="1080" viewBox="0 0 1920 1080" fill="none" xmlns="http://www.w3.org/2000/svg">
<g clip-path="url(#clip0_571_4818)">
<rect width="1920" height="1080" fill="#3D9B70"/>
<g filter="url(#filter0_f_571_4818)">
<path d="M103.5 5V1075" stroke="white" stroke-opacity="0.3"/>
<path d="M1926 100L4.00002 100" stroke="white" stroke-opacity="0.3"/>
<path d="M1926 200L4.00002 200" stroke="white" stroke-opacity="0.3"/>
<path d="M1926 300L4.00002 300" stroke="white" stroke-opacity="0.3"/>
<path d="M1926 400L4.00002 400" stroke="white" stroke-opacity="0.3"/>
<path d="M1926 500L4.00002 500" stroke="white" stroke-opacity="0.3"/>
<path d="M1926 600L4.00002 600" stroke="white" stroke-opacity="0.3"/>
<path d="M1926 700L4.00002 700" stroke="white" stroke-opacity="0.3"/>
<path d="M1926 800L4.00002 800" stroke="white" stroke-opacity="0.3"/>
<path d="M1926 900L4.00002 900" stroke="white" stroke-opacity="0.3"/>
<path d="M1926 1000L4.00002 1000" stroke="white" stroke-opacity="0.3"/>
<path d="M200 5V1075" stroke="white" stroke-opacity="0.3"/>
<path d="M300 5V1075" stroke="white" stroke-opacity="0.3"/>
<path d="M400 5V1075" stroke="white" stroke-opacity="0.3"/>
<path d="M500 5V1075" stroke="white" stroke-opacity="0.3"/>
<path d="M600 5V1075" stroke="white" stroke-opacity="0.3"/>
<path d="M700 5V1075" stroke="white" stroke-opacity="0.3"/>
<path d="M800 5V1075" stroke="white" stroke-opacity="0.3"/>
<path d="M900 5V1075" stroke="white" stroke-opacity="0.3"/>
<path d="M1000 5V1075" stroke="white" stroke-opacity="0.3"/>
<path d="M1100 5V1075" stroke="white" stroke-opacity="0.3"/>
<path d="M1200 5V1075" stroke="white" stroke-opacity="0.3"/>
<path d="M1300 5V1075" stroke="white" stroke-opacity="0.3"/>
<path d="M1400 5V1075" stroke="white" stroke-opacity="0.3"/>
<path d="M1500 5V1075" stroke="white" stroke-opacity="0.3"/>
<path d="M1600 5V1075" stroke="white" stroke-opacity="0.3"/>
<path d="M1700 5V1075" stroke="white" stroke-opacity="0.3"/>
<path d="M1800 5V1075" stroke="white" stroke-opacity="0.3"/>
<path d="M1900 5V1075" stroke="white" stroke-opacity="0.3"/>
</g>
<g filter="url(#filter1_f_571_4818)">
<path d="M2566.74 1117H-646.738V-37H2566.74V1117ZM960.001 23.9053C104.976 23.9053 -588.158 254.969 -588.158 540C-588.158 825.031 104.976 1056.09 960.001 1056.09C1815.03 1056.09 2508.16 825.031 2508.16 540C2508.16 254.969 1815.03 23.9053 960.001 23.9053Z" fill="black" fill-opacity="0.5"/>
</g>
</g>
<defs>
<filter id="filter0_f_571_4818" x="0" y="1" width="1930" height="1078" filterUnits="userSpaceOnUse" color-interpolation-filters="sRGB">
<feFlood flood-opacity="0" result="BackgroundImageFix"/>
<feBlend mode="normal" in="SourceGraphic" in2="BackgroundImageFix" result="shape"/>
<feGaussianBlur stdDeviation="2" result="effect1_foregroundBlur_571_4818"/>
</filter>
<filter id="filter1_f_571_4818" x="-696.738" y="-87" width="3313.48" height="1254" filterUnits="userSpaceOnUse" color-interpolation-filters="sRGB">
<feFlood flood-opacity="0" result="BackgroundImageFix"/>
<feBlend mode="normal" in="SourceGraphic" in2="BackgroundImageFix" result="shape"/>
<feGaussianBlur stdDeviation="25" result="effect1_foregroundBlur_571_4818"/>
</filter>
<clipPath id="clip0_571_4818">
<rect width="1920" height="1080" fill="white"/>
</clipPath>
</defs>
</svg>
