<svg width="25" height="25" viewBox="0 0 25 25" fill="none" xmlns="http://www.w3.org/2000/svg">
<path d="M23.5312 0.28125C23.9062 0.515625 24.0938 0.9375 23.9531 1.35938L20.9531 21.6094C20.9062 21.9375 20.7188 22.2656 20.3906 22.4062C20.25 22.5 20.0625 22.5938 19.875 22.5938C19.6875 22.5938 19.5469 22.5469 19.4062 22.5L14.8125 20.5312L9.60938 23.9062C9.42188 24 9.1875 24.0469 9 24.0469C8.85938 24.0469 8.67188 24 8.48438 23.9531C8.10938 23.7188 7.92188 23.3438 7.92188 22.9219V17.625L0.703125 14.625C0.328125 14.4375 0.046875 14.0625 0.046875 13.6406C0 13.2188 0.234375 12.7969 0.609375 12.6094L22.3594 0.234375C22.7344 0 23.2031 0.046875 23.5312 0.28125ZM17.3438 5.67188L3.70312 13.4062L8.57812 15.4688L17.3438 5.67188ZM10.125 20.8594L12.2812 19.5L10.125 18.5625V20.8594ZM18.9844 19.8281L21.2344 4.6875L10.7344 16.3594L18.9844 19.8281Z" fill="black"/>
</svg>
