<svg width="86" height="85" viewBox="0 0 86 85" fill="none" xmlns="http://www.w3.org/2000/svg">
<g clip-path="url(#clip0_990_4669)">
<path d="M85.9998 65.6727H79.8775V59.5507H79.7191H73.8054V53.2703H67.6831V47.1457H61.4684V41.2851H67.6699V35.1631H73.7922V28.8827H79.7191H79.8643V22.7581H85.9866V16.4777H79.8617V10.3531H79.7165V10.2739H73.7896V4.28125H67.5088V10.2739H61.2545V16.5543H55.1824V22.597H49.0733V28.8774V28.9302H43.0672V22.8109H36.9554V16.7655H30.8833V10.4851H24.6316V5.4349V4.49244H18.3509V5.4349V10.5643H12.2788V16.6863H6.15383V22.9666H12.2788V29.0886H18.3509V35.369H24.4758V41.4936H30.6774V47.3543H24.4626V53.4762H18.3377V59.7566H12.2656V65.8786H6.14062V72.159H12.2656V78.281H18.3377V79.6432V84.3528H24.6184V79.6432V78.3602H30.8727V72.0798H36.9449V65.9578H43.0672V59.886H49.0733V65.7492H55.1956V71.8712H61.2677V78.1516H67.522V84.1442H73.8027V78.1516H79.7165V78.0724H79.8749V71.9504H85.9998V65.6727Z" fill="black"/>
<path d="M61.5264 30.8786V30.7202H55.2457V36.5835H49.0442V42.8612H55.2589V49.1416H61.5396V48.9858H67.6646V55.2662H73.5783V73.8724H55.1269V67.592H55.3381V61.3116H49.2132V55.187H42.9985V49.3264H36.7178V55.3956H30.6456V61.5202H24.5233V67.8006H24.7319V74.0809H18.4776V75.364H12.1969V74.0017H6.12737V67.8798H6.28313V61.7551H12.4081V55.4748H18.4776V49.3528H24.6025V43.0724H30.8172V36.792H24.6157V30.9314H18.4908V24.8068H12.4186V18.5264H6.14057V18.6821H0.015625V12.4017H6.14057V6.27976H12.2101V1.15039H18.4908V6.20057H24.7451V12.4809H30.8172V18.5264H30.6456V24.8068H36.929V30.9314H43.2097V24.6484H42.9351V24.5982H49.2132V18.3152H49.0442V12.2724H55.1163V5.99201H73.5783V24.5982H67.6514V30.8786H61.5264Z" fill="#CE170F"/>
<path d="M24.6001 49.3537H18.4752V55.4757H12.4056V61.7561H6.28071V67.8807H0V61.6003H6.12494V55.4757H12.1944V49.1953H18.3194V43.0734H24.5341V37.2127H18.3326V31.0881H12.2076V24.8077H6.13814V18.5273H12.4162V24.8077H18.4883V30.9323H24.6133V36.793H30.8148V43.0734H24.6001V49.3537Z" fill="#CE170F"/>
<path d="M42.9301 24.6493V30.9323H36.924V24.8077H30.6406V18.5273H36.924V24.6493H42.9301Z" fill="#CE170F"/>
<path d="M36.7179 49.3262H42.9352V55.6066H36.9291V61.6784H30.8041V67.8004H24.5234V61.52H30.6457V55.3954H36.7179V49.3262Z" fill="#CE170F"/>
<path d="M43.2043 24.6484H42.9297V30.9288H43.2043V24.6484Z" fill="#CE170F"/>
<path d="M49.2104 18.3164H42.9297V24.5968H49.2104V18.3164Z" fill="#CE170F"/>
<path d="M49.2078 61.3114H55.3327V67.5918H49.052V61.4672H42.9297V49.3262H42.9931V55.1868H49.2078V61.3114Z" fill="#CE170F"/>
<path d="M61.5345 42.8617V49.1421H55.2538V42.8617H49.0391V36.584H55.2406V30.7207H61.5213V37.0011H55.3198V42.8617H61.5345Z" fill="#CE170F"/>
<path d="M18.4916 0.208984H12.2109V6.48936H18.4916V0.208984Z" fill="black"/>
<path d="M12.4213 6.2793H6.14062V12.5597H12.4213V6.2793Z" fill="black"/>
<path d="M6.29633 12.4023H0.015625V18.6827H6.29633V12.4023Z" fill="black"/>
<path d="M12.4213 18.5273H6.14062V24.8077H12.4213V18.5273Z" fill="black"/>
<path d="M18.4916 24.8066H12.2109V31.087H18.4916V24.8066Z" fill="black"/>
<path d="M24.6166 30.9316H18.3359V37.212H24.6166V30.9316Z" fill="black"/>
<path d="M30.812 36.793H24.5312V43.0734H30.812V36.793Z" fill="black"/>
<path d="M24.7416 6.20117H18.4609V12.4816H24.7416V6.20117Z" fill="black"/>
<path d="M30.812 12.4824H24.5312V18.7628H30.812V12.4824Z" fill="black"/>
<path d="M43.2104 24.6484H36.9297V30.9288H43.2104V24.6484Z" fill="black"/>
<path d="M36.9213 18.5273H30.6406V24.8077H36.9213V18.5273Z" fill="black"/>
<path d="M18.476 73.793H12.1953V80.0734H18.476V73.793Z" fill="black"/>
<path d="M12.4057 67.7227H6.125V74.003H12.4057V67.7227Z" fill="black"/>
<path d="M6.28071 61.5996H0V67.88H6.28071V61.5996Z" fill="black"/>
<path d="M12.4057 55.4746H6.125V61.755H12.4057V55.4746Z" fill="black"/>
<path d="M18.476 49.1953H12.1953V55.4757H18.476V49.1953Z" fill="black"/>
<path d="M24.601 43.0723H18.3203V49.3526H24.601V43.0723Z" fill="black"/>
<path d="M24.726 67.8008H18.4453V74.0812H24.726V67.8008Z" fill="black"/>
<path d="M30.8041 61.5215H24.5234V67.8019H30.8041V61.5215Z" fill="black"/>
<path d="M36.9213 55.3965H30.6406V61.6769H36.9213V55.3965Z" fill="black"/>
<path d="M42.9995 49.3262H36.7188V55.6066H42.9995V49.3262Z" fill="black"/>
<path d="M61.3677 6.2793L67.6484 6.2793L67.6484 -0.00108337L61.3677 -0.00108337L61.3677 6.2793Z" fill="black"/>
<path d="M67.438 12.3496L73.7188 12.3496L73.7188 6.06923L67.438 6.06923L67.438 12.3496Z" fill="black"/>
<path d="M73.5631 18.4746L79.8438 18.4746L79.8438 12.1942L73.5631 12.1942L73.5631 18.4746Z" fill="black"/>
<path d="M73.7182 18.3164H67.4375V24.5968H73.7182V18.3164Z" fill="black"/>
<path d="M67.6479 24.5977H61.3672V30.878H67.6479V24.5977Z" fill="black"/>
<path d="M61.5229 30.7207H55.2422V37.0011H61.5229V30.7207Z" fill="black"/>
<path d="M55.3198 36.584H49.0391V42.8644H55.3198V36.584Z" fill="black"/>
<path d="M61.3979 5.99219H55.1172V12.2726H61.3979V5.99219Z" fill="black"/>
<path d="M55.3198 12.2734H49.0391V18.5538H55.3198V12.2734Z" fill="black"/>
<path d="M49.2104 18.3164H42.9297V24.5968H49.2104V18.3164Z" fill="black"/>
<path d="M61.3834 79.8633L67.6641 79.8633L67.6641 73.5829L61.3834 73.5829L61.3834 79.8633Z" fill="black"/>
<path d="M67.4537 73.793L73.7344 73.793L73.7344 67.5126L67.4537 67.5126L67.4537 73.793Z" fill="black"/>
<path d="M73.5787 67.6719L79.8594 67.6719L79.8594 61.3915L73.5787 61.3915L73.5787 67.6719Z" fill="black"/>
<path d="M73.7338 55.2676H67.4531V61.548H73.7338V55.2676Z" fill="black"/>
<path d="M67.6635 48.9863H61.3828V55.2667H67.6635V48.9863Z" fill="black"/>
<path d="M61.5385 42.8613H55.2578V49.1417H61.5385V42.8613Z" fill="black"/>
<path d="M61.4057 67.5918H55.125V73.8722H61.4057V67.5918Z" fill="black"/>
<path d="M55.3354 61.3125H49.0547V67.5929H55.3354V61.3125Z" fill="black"/>
<path d="M49.2104 55.1875H42.9297V61.4679H49.2104V55.1875Z" fill="black"/>
</g>
<defs>
<clipPath id="clip0_990_4669">
<rect width="86" height="84.3588" fill="white"/>
</clipPath>
</defs>
</svg>
