<svg width="93" height="114" viewBox="0 0 93 114" fill="none" xmlns="http://www.w3.org/2000/svg">
<g clip-path="url(#clip0_569_4368)">
<path d="M12.5402 3.56445H9V63.258H12.5402V3.56445Z" fill="#231815"/>
<path d="M76.3899 3.56445H72.8496V63.258H76.3899V3.56445Z" fill="#231815"/>
<path d="M71.8398 3.56379V0L12.5408 0V3.56379L71.8398 3.56379Z" fill="#231815"/>
<path d="M71.8574 66.8216V63.2578L12.5584 63.2578V66.8216H71.8574Z" fill="#231815"/>
<path d="M80.4414 74.9818V71.418H21.1424V74.9818H80.4414Z" fill="#231815"/>
<path d="M83.9992 11.7246H80.459V71.4181H83.9992V11.7246Z" fill="#231815"/>
<path d="M20.3469 9.97852H16.8066V50.0355H20.3469V9.97852Z" fill="#231815"/>
<path d="M68.2297 9.97852H64.6895V50.0355H68.2297V9.97852Z" fill="#231815"/>
<path d="M64.6895 53.1009V49.5371H20.3656V53.1009H64.6895Z" fill="#231815"/>
<path d="M64.8652 12.3118V8.74805L20.5414 8.74805V12.3118L64.8652 12.3118Z" fill="#231815"/>
<path d="M22.1158 38.8457H20.3457V40.6276H22.1158V38.8457Z" fill="#231815"/>
<path d="M23.9049 38.8457H22.1348V40.6276H23.9049V38.8457Z" fill="#231815"/>
<path d="M22.1158 37.0645H20.3457V38.8463H22.1158V37.0645Z" fill="#231815"/>
<path d="M23.9049 37.0645H22.1348V38.8463H23.9049V37.0645Z" fill="#231815"/>
<path d="M22.1158 40.627H20.3457V42.4088H22.1158V40.627Z" fill="#231815"/>
<path d="M23.9049 40.627H22.1348V42.4088H23.9049V40.627Z" fill="#231815"/>
<path d="M25.6744 35.1934H23.9043V36.9753H25.6744V35.1934Z" fill="#231815"/>
<path d="M27.4459 35.1934H25.6758V36.9753H27.4459V35.1934Z" fill="#231815"/>
<path d="M25.6744 33.4102H23.9043V35.1921H25.6744V33.4102Z" fill="#231815"/>
<path d="M27.4459 33.4102H25.6758V35.1921H27.4459V33.4102Z" fill="#231815"/>
<path d="M25.6744 36.9746H23.9043V38.7565H25.6744V36.9746Z" fill="#231815"/>
<path d="M27.4459 36.9746H25.6758V38.7565H27.4459V36.9746Z" fill="#231815"/>
<path d="M29.1236 31.7188H27.3535V33.5006H29.1236V31.7188Z" fill="#231815"/>
<path d="M30.9166 31.7188H29.1465V33.5006H30.9166V31.7188Z" fill="#231815"/>
<path d="M29.1236 29.9355H27.3535V31.7174H29.1236V29.9355Z" fill="#231815"/>
<path d="M30.9166 29.9355H29.1465V31.7174H30.9166V29.9355Z" fill="#231815"/>
<path d="M29.1236 33.5H27.3535V35.2819H29.1236V33.5Z" fill="#231815"/>
<path d="M30.9166 33.5H29.1465V35.2819H30.9166V33.5Z" fill="#231815"/>
<path d="M34.457 28.2253V26.4434H32.6869V28.2253H34.457Z" fill="#231815"/>
<path d="M34.457 30.026V28.2441H32.6869V30.026H34.457Z" fill="#231815"/>
<path d="M36.2266 28.2253V26.4434H34.4564V28.2253H36.2266Z" fill="#231815"/>
<path d="M36.2266 30.026V28.2441H34.4564V30.026H36.2266Z" fill="#231815"/>
<path d="M32.6875 28.2253V26.4434H30.9174V28.2253H32.6875Z" fill="#231815"/>
<path d="M32.6875 30.026V28.2441H30.9174V30.026H32.6875Z" fill="#231815"/>
<path d="M39.7676 28.2253V26.4434H37.9975V28.2253H39.7676Z" fill="#231815"/>
<path d="M39.7676 30.026V28.2441H37.9975V30.026H39.7676Z" fill="#231815"/>
<path d="M37.998 28.2253V26.4434H36.2279V28.2253H37.998Z" fill="#231815"/>
<path d="M37.998 30.026V28.2441H36.2279V30.026H37.998Z" fill="#231815"/>
<path d="M39.7676 31.8073V30.0254H37.9975V31.8073H39.7676Z" fill="#231815"/>
<path d="M39.7461 33.5885V31.8066H37.976V33.5885H39.7461Z" fill="#231815"/>
<path d="M43.3086 31.8073V30.0254H41.5385V31.8073H43.3086Z" fill="#231815"/>
<path d="M43.2852 33.5885V31.8066H41.515V33.5885H43.2852Z" fill="#231815"/>
<path d="M41.5371 31.8073V30.0254H39.767V31.8073H41.5371Z" fill="#231815"/>
<path d="M41.5156 33.5885V31.8066H39.7455V33.5885H41.5156Z" fill="#231815"/>
<path d="M43.2852 35.3717V33.5898H41.515V35.3717H43.2852Z" fill="#231815"/>
<path d="M43.3086 37.153V35.3711H41.5385V37.153H43.3086Z" fill="#231815"/>
<path d="M46.8262 35.3717V33.5898H45.0561V35.3717H46.8262Z" fill="#231815"/>
<path d="M46.8477 37.153V35.3711H45.0775V37.153H46.8477Z" fill="#231815"/>
<path d="M45.0566 35.3717V33.5898H43.2865V35.3717H45.0566Z" fill="#231815"/>
<path d="M45.0781 37.153V35.3711H43.308V37.153H45.0781Z" fill="#231815"/>
<path d="M46.8477 38.8463V37.0645H45.0775V38.8463H46.8477Z" fill="#231815"/>
<path d="M46.8262 40.6276V38.8457H45.0561V40.6276H46.8262Z" fill="#231815"/>
<path d="M50.3887 38.8463V37.0645H48.6186V38.8463H50.3887Z" fill="#231815"/>
<path d="M50.3652 40.6276V38.8457H48.5951V40.6276H50.3652Z" fill="#231815"/>
<path d="M48.6172 38.8463V37.0645H46.8471V38.8463H48.6172Z" fill="#231815"/>
<path d="M48.5957 40.6276V38.8457H46.8256V40.6276H48.5957Z" fill="#231815"/>
<path d="M48.5957 42.4088V40.627H46.8256V42.4088H48.5957Z" fill="#231815"/>
<path d="M52.1367 42.4088V40.627H50.3666V42.4088H52.1367Z" fill="#231815"/>
<path d="M50.3652 42.4088V40.627H48.5951V42.4088H50.3652Z" fill="#231815"/>
<path d="M53.9062 42.4088V40.627H52.1361V42.4088H53.9062Z" fill="#231815"/>
<path d="M57.4473 42.4088V40.627H55.6771V42.4088H57.4473Z" fill="#231815"/>
<path d="M55.6758 42.4088V40.627H53.9057V42.4088H55.6758Z" fill="#231815"/>
<path d="M57.4473 40.6276V38.8457H55.6771V40.6276H57.4473Z" fill="#231815"/>
<path d="M55.6758 40.6276V38.8457H53.9057V40.6276H55.6758Z" fill="#231815"/>
<path d="M57.4688 49.5378V47.7559H55.6986V49.5378H57.4688Z" fill="#231815"/>
<path d="M55.6973 49.5378V47.7559H53.9271V49.5378H55.6973Z" fill="#231815"/>
<path d="M57.4688 47.7546V45.9727H55.6986V47.7546H57.4688Z" fill="#231815"/>
<path d="M55.6973 47.7546V45.9727H53.9271V47.7546H55.6973Z" fill="#231815"/>
<path d="M53.9277 45.9733V44.1914H52.1576V45.9733H53.9277Z" fill="#231815"/>
<path d="M52.1582 45.9733V44.1914H50.3881V45.9733H52.1582Z" fill="#231815"/>
<path d="M53.9062 44.1921V42.4102H52.1361V44.1921H53.9062Z" fill="#231815"/>
<path d="M52.1367 44.1921V42.4102H50.3666V44.1921H52.1367Z" fill="#231815"/>
<path d="M57.4688 38.8463V37.0645H55.6986V38.8463H57.4688Z" fill="#231815"/>
<path d="M55.6973 38.8463V37.0645H53.9271V38.8463H55.6973Z" fill="#231815"/>
<path d="M61.166 37.0631V35.2812H59.3959V37.0631H61.166Z" fill="#231815"/>
<path d="M59.3965 37.0631V35.2812H57.6264V37.0631H59.3965Z" fill="#231815"/>
<path d="M61.166 35.2643V33.4824H59.3959V35.2643H61.166Z" fill="#231815"/>
<path d="M59.3965 35.2643V33.4824H57.6264V35.2643H59.3965Z" fill="#231815"/>
<path d="M64.707 37.0631V35.2812H62.9369V37.0631H64.707Z" fill="#231815"/>
<path d="M62.9375 37.0631V35.2812H61.1674V37.0631H62.9375Z" fill="#231815"/>
<path d="M64.707 35.2643V33.4824H62.9369V35.2643H64.707Z" fill="#231815"/>
<path d="M62.9375 35.2643V33.4824H61.1674V35.2643H62.9375Z" fill="#231815"/>
<path d="M50.5625 26.444V24.6621H48.7924V26.444H50.5625Z" fill="#231815"/>
<path d="M48.793 26.444V24.6621H47.0228V26.444H48.793Z" fill="#231815"/>
<path d="M54.1035 26.444V24.6621H52.3334V26.444H54.1035Z" fill="#231815"/>
<path d="M52.334 26.444V24.6621H50.5639V26.444H52.334Z" fill="#231815"/>
<path d="M57.6094 26.444V24.6621H55.8393V26.444H57.6094Z" fill="#231815"/>
<path d="M55.8398 26.444V24.6621H54.0697V26.444H55.8398Z" fill="#231815"/>
<path d="M61.1504 26.444V24.6621H59.3803V26.444H61.1504Z" fill="#231815"/>
<path d="M59.3809 26.444V24.6621H57.6107V26.444H59.3809Z" fill="#231815"/>
<path d="M50.5625 24.6608V22.8789H48.7924V24.6608H50.5625Z" fill="#231815"/>
<path d="M48.793 24.6608V22.8789H47.0228V24.6608H48.793Z" fill="#231815"/>
<path d="M54.1035 24.6608V22.8789H52.3334V24.6608H54.1035Z" fill="#231815"/>
<path d="M52.334 24.6608V22.8789H50.5639V24.6608H52.334Z" fill="#231815"/>
<path d="M57.6094 24.6608V22.8789H55.8393V24.6608H57.6094Z" fill="#231815"/>
<path d="M55.8398 24.6608V22.8789H54.0697V24.6608H55.8398Z" fill="#231815"/>
<path d="M54.1211 30.0065V28.2246H52.351V30.0065H54.1211Z" fill="#231815"/>
<path d="M52.3516 30.0065V28.2246H50.5814V30.0065H52.3516Z" fill="#231815"/>
<path d="M57.627 30.0065V28.2246H55.8568V30.0065H57.627Z" fill="#231815"/>
<path d="M55.8574 30.0065V28.2246H54.0873V30.0065H55.8574Z" fill="#231815"/>
<path d="M54.1211 28.2253V26.4434H52.351V28.2253H54.1211Z" fill="#231815"/>
<path d="M52.3516 28.2253V26.4434H50.5814V28.2253H52.3516Z" fill="#231815"/>
<path d="M57.627 28.2253V26.4434H55.8568V28.2253H57.627Z" fill="#231815"/>
<path d="M55.8574 28.2253V26.4434H54.0873V28.2253H55.8574Z" fill="#231815"/>
<path d="M54.1035 19.3151V17.5332H52.3334V19.3151H54.1035Z" fill="#231815"/>
<path d="M52.334 19.3151V17.5332H50.5639V19.3151H52.334Z" fill="#231815"/>
<path d="M57.6094 19.3151V17.5332H55.8393V19.3151H57.6094Z" fill="#231815"/>
<path d="M55.8398 19.3151V17.5332H54.0697V19.3151H55.8398Z" fill="#231815"/>
<path d="M54.1035 17.5338V15.752H52.3334V17.5338H54.1035Z" fill="#231815"/>
<path d="M52.334 17.5338V15.752H50.5639V17.5338H52.334Z" fill="#231815"/>
<path d="M57.6094 17.5338V15.752H55.8393V17.5338H57.6094Z" fill="#231815"/>
<path d="M55.8398 17.5338V15.752H54.0697V17.5338H55.8398Z" fill="#231815"/>
<path d="M61.1504 24.6608V22.8789H59.3803V24.6608H61.1504Z" fill="#231815"/>
<path d="M59.3809 24.6608V22.8789H57.6107V24.6608H59.3809Z" fill="#231815"/>
<path d="M50.5625 22.8796V21.0977H48.7924V22.8796H50.5625Z" fill="#231815"/>
<path d="M48.793 22.8796V21.0977H47.0228V22.8796H48.793Z" fill="#231815"/>
<path d="M54.1035 22.8796V21.0977H52.3334V22.8796H54.1035Z" fill="#231815"/>
<path d="M52.334 22.8796V21.0977H50.5639V22.8796H52.334Z" fill="#231815"/>
<path d="M57.6094 22.8796V21.0977H55.8393V22.8796H57.6094Z" fill="#231815"/>
<path d="M55.8398 22.8796V21.0977H54.0697V22.8796H55.8398Z" fill="#231815"/>
<path d="M61.1504 22.8796V21.0977H59.3803V22.8796H61.1504Z" fill="#231815"/>
<path d="M59.3809 22.8796V21.0977H57.6107V22.8796H59.3809Z" fill="#231815"/>
<path d="M50.5625 21.0983V19.3164H48.7924V21.0983H50.5625Z" fill="#231815"/>
<path d="M48.793 21.0983V19.3164H47.0228V21.0983H48.793Z" fill="#231815"/>
<path d="M54.1035 21.0983V19.3164H52.3334V21.0983H54.1035Z" fill="#231815"/>
<path d="M52.334 21.0983V19.3164H50.5639V21.0983H52.334Z" fill="#231815"/>
<path d="M57.6094 21.0983V19.3164H55.8393V21.0983H57.6094Z" fill="#231815"/>
<path d="M55.8398 21.0983V19.3164H54.0697V21.0983H55.8398Z" fill="#231815"/>
<path d="M61.1504 21.0983V19.3164H59.3803V21.0983H61.1504Z" fill="#231815"/>
<path d="M59.3809 21.0983V19.3164H57.6107V21.0983H59.3809Z" fill="#231815"/>
</g>
<g filter="url(#filter0_d_569_4368)">
<path d="M7.701 105.264V103.224H5.589V91.752H7.701V89.688H14.997V91.752H17.133V97.056H14.061V92.976H8.637V102H14.061V101.16H11.949V99.096H9.813V95.856H12.885V97.872H17.133V103.224H14.997V105.264H7.701ZM22.1619 105.264V103.224H20.0499V95.856H22.1619V93.792H29.4579V95.856H31.5939V102H33.7299V105.264H30.6579V103.224H29.4579V105.264H22.1619ZM23.0979 102H28.5219V97.056H23.0979V102ZM35.9406 105.264V89.688H38.9886V105.264H35.9406ZM43.5604 105.264V103.224H41.4484V95.856H43.5604V93.792H50.8564V95.856H52.9924V99.096H49.9204V97.056H44.4964V97.872H48.7444V101.16H44.4964V102H49.9204V99.912H52.9924V103.2H50.8564V105.264H43.5604ZM55.9093 105.264V95.856H58.0213V93.792H65.3173V95.856H67.4533V99.096H64.3813V97.056H58.9573V105.264H55.9093ZM70.3703 105.264V93.792H73.4183V105.264H70.3703ZM70.3703 92.976V89.688H73.4183V92.976H70.3703ZM77.9901 105.264V103.224H75.8781V95.856H77.9901V93.792H85.2861V95.856H87.4221V99.096H84.3501V97.056H78.9261V97.872H83.1741V101.16H78.9261V102H84.3501V99.912H87.4221V103.2H85.2861V105.264H77.9901Z" fill="black"/>
</g>
<defs>
<filter id="filter0_d_569_4368" x="1.58984" y="89.6875" width="89.832" height="23.5762" filterUnits="userSpaceOnUse" color-interpolation-filters="sRGB">
<feFlood flood-opacity="0" result="BackgroundImageFix"/>
<feColorMatrix in="SourceAlpha" type="matrix" values="0 0 0 0 0 0 0 0 0 0 0 0 0 0 0 0 0 0 127 0" result="hardAlpha"/>
<feOffset dy="4"/>
<feGaussianBlur stdDeviation="2"/>
<feComposite in2="hardAlpha" operator="out"/>
<feColorMatrix type="matrix" values="0 0 0 0 0 0 0 0 0 0 0 0 0 0 0 0 0 0 0.25 0"/>
<feBlend mode="normal" in2="BackgroundImageFix" result="effect1_dropShadow_569_4368"/>
<feBlend mode="normal" in="SourceGraphic" in2="effect1_dropShadow_569_4368" result="shape"/>
</filter>
<clipPath id="clip0_569_4368">
<rect width="75" height="75" fill="white" transform="translate(9)"/>
</clipPath>
</defs>
</svg>
