<svg width="133" height="406" viewBox="0 0 133 406" fill="none" xmlns="http://www.w3.org/2000/svg">
<g filter="url(#filter0_d_102_1618)">
<path d="M102.209 22.9676H22.6328V64.2641H102.209V22.9676Z" fill="#E0E0E0"/>
<path d="M102.209 17.168H29.3613V22.9676H102.209V17.168Z" fill="black"/>
<path d="M102.209 64.2641H29.3613V69.8319H102.209V64.2641Z" fill="black"/>
<path d="M37.4804 22.9676H22.6328V29.2896H37.4804V22.9676Z" fill="black"/>
<path d="M37.4804 58.0648H22.6328V64.2641H37.4804V58.0648Z" fill="black"/>
<path d="M30.2883 28.7694H22.6328V64.264H30.2883V28.7694Z" fill="black"/>
<path d="M94.7852 29.2913L109.633 29.2913L109.633 22.9693L94.7852 22.9693L94.7852 29.2913Z" fill="black"/>
<path d="M94.7852 64.2631L109.633 64.2631L109.633 58.0638L94.7852 58.0638L94.7852 64.2631Z" fill="black"/>
<path d="M101.977 64.2642L109.633 64.2642L109.633 28.7696L101.977 28.7696L101.977 64.2642Z" fill="black"/>
<path d="M46.7602 29.4532H37.4805V35.8116H46.7602V29.4532Z" fill="black"/>
<path d="M51.4008 35.439H42.1211V41.7974H51.4008V35.439Z" fill="black"/>
<path d="M56.0395 41.7497H46.7598V48.1081H56.0395V41.7497Z" fill="black"/>
<path d="M60.6801 47.8968H51.4004V54.2552H60.6801V47.8968Z" fill="black"/>
<path d="M70.0786 54.078H60.7988V58.8371H70.0786V54.078Z" fill="black"/>
<path d="M85.3922 35.6488L94.6719 35.6488L94.6719 29.2904L85.3922 29.2904L85.3922 35.6488Z" fill="black"/>
<path d="M80.7515 41.6333L90.0312 41.6333L90.0313 35.2749L80.7515 35.2749L80.7515 41.6333Z" fill="black"/>
<path d="M76.1109 47.9438L85.3906 47.9438L85.3906 41.5854L76.1109 41.5854L76.1109 47.9438Z" fill="black"/>
<path d="M70.1968 54.2542L79.4766 54.2542L79.4766 47.8959L70.1968 47.8959L70.1968 54.2542Z" fill="black"/>
</g>
<g filter="url(#filter1_d_102_1618)">
<path d="M35.3234 117.264V105.792H38.3714V117.264H35.3234ZM35.3234 104.976V101.688H38.3714V104.976H35.3234ZM42.9432 117.264V115.224H40.8312V103.752H42.9432V101.688H50.2392V103.752H52.3752V109.056H49.3032V104.976H43.8792V114H49.3032V109.872H52.3752V115.224H50.2392V117.264H42.9432ZM55.2921 117.264V101.688H58.3401V107.856H59.5161V105.792H64.7001V107.856H66.8361V117.264H63.7641V109.056H60.4521V111.096H58.3401V117.264H55.2921ZM71.3963 117.264V115.224H69.2843V107.856H71.3963V105.792H78.6923V107.856H80.8283V114H82.9643V117.264H79.8923V115.224H78.6923V117.264H71.3963ZM72.3323 114H77.7563V109.056H72.3323V114ZM87.4771 117.264V115.224H85.3651V109.056H83.2531V105.792H85.3651V101.688H88.4131V105.792H94.7971V109.056H88.4131V114H93.8611V111.936H96.9331V115.224H94.7971V117.264H87.4771Z" fill="black"/>
</g>
<g filter="url(#filter2_d_102_1618)">
<path d="M102.209 162.968H22.6328V204.264H102.209V162.968Z" fill="#E0E0E0"/>
<path d="M102.209 157.168H29.3613V162.968H102.209V157.168Z" fill="black"/>
<path d="M102.209 204.264H29.3613V209.832H102.209V204.264Z" fill="black"/>
<path d="M37.4804 162.968H22.6328V169.29H37.4804V162.968Z" fill="black"/>
<path d="M37.4804 198.065H22.6328V204.264H37.4804V198.065Z" fill="black"/>
<path d="M30.2883 168.769H22.6328V204.264H30.2883V168.769Z" fill="black"/>
<path d="M94.7852 169.291L109.633 169.291L109.633 162.969L94.7852 162.969L94.7852 169.291Z" fill="black"/>
<path d="M94.7852 204.263L109.633 204.263L109.633 198.064L94.7852 198.064L94.7852 204.263Z" fill="black"/>
<path d="M101.977 204.264L109.633 204.264L109.633 168.77L101.977 168.77L101.977 204.264Z" fill="black"/>
<path d="M46.7602 169.453H37.4805V175.812H46.7602V169.453Z" fill="black"/>
<path d="M51.4008 175.439H42.1211V181.797H51.4008V175.439Z" fill="black"/>
<path d="M56.0395 181.75H46.7598V188.108H56.0395V181.75Z" fill="black"/>
<path d="M60.6801 187.897H51.4004V194.255H60.6801V187.897Z" fill="black"/>
<path d="M70.0786 194.078H60.7988V198.837H70.0786V194.078Z" fill="black"/>
<path d="M85.3922 175.649L94.6719 175.649L94.6719 169.29L85.3922 169.29L85.3922 175.649Z" fill="black"/>
<path d="M80.7515 181.633L90.0312 181.633L90.0313 175.275L80.7515 175.275L80.7515 181.633Z" fill="black"/>
<path d="M76.1109 187.944L85.3906 187.944L85.3906 181.585L76.1109 181.585L76.1109 187.944Z" fill="black"/>
<path d="M70.1968 194.254L79.4766 194.254L79.4766 187.896L70.1968 187.896L70.1968 194.254Z" fill="black"/>
</g>
<g filter="url(#filter3_d_102_1618)">
<path d="M26.6776 257.264V255.224H24.5656V243.752H26.6776V241.688H33.9736V243.752H36.1096V249.056H33.9736V249.872H36.1096V255.224H33.9736V257.264H26.6776ZM27.6136 254H33.0376V251.096H28.7896V247.856H33.0376V244.976H27.6136V254ZM40.6698 257.264V255.224H38.5578V247.856H40.6698V245.792H47.9658V247.856H50.1018V254H52.2378V257.264H49.1658V255.224H47.9658V257.264H40.6698ZM41.6058 254H47.0298V249.056H41.6058V254ZM54.4484 257.264V245.792H63.8564V247.856H65.9924V257.264H62.9204V249.056H57.4964V257.264H54.4484ZM76.6548 261.248V257.264H70.2948V255.224H68.1828V247.856H70.2948V245.792H77.5908V247.856H79.7268V261.248H76.6548ZM71.2308 254H76.6548V249.056H71.2308V254ZM84.2869 257.264V255.224H82.1749V245.792H85.2229V254H90.6469V245.792H93.7189V255.224H91.5829V257.264H84.2869ZM98.2791 257.264V255.224H96.1671V247.856H98.2791V245.792H105.575V247.856H107.711V251.096H104.639V249.056H99.2151V249.872H103.463V253.16H99.2151V254H104.639V251.912H107.711V255.2H105.575V257.264H98.2791Z" fill="black"/>
</g>
<g filter="url(#filter4_d_102_1618)">
<path d="M102.209 302.968H22.6328V344.264H102.209V302.968Z" fill="#E0E0E0"/>
<path d="M102.209 297.168H29.3613V302.968H102.209V297.168Z" fill="black"/>
<path d="M102.209 344.264H29.3613V349.832H102.209V344.264Z" fill="black"/>
<path d="M37.4804 302.968H22.6328V309.29H37.4804V302.968Z" fill="black"/>
<path d="M37.4804 338.065H22.6328V344.264H37.4804V338.065Z" fill="black"/>
<path d="M30.2883 308.769H22.6328V344.264H30.2883V308.769Z" fill="black"/>
<path d="M94.7852 309.291L109.633 309.291L109.633 302.969L94.7852 302.969L94.7852 309.291Z" fill="black"/>
<path d="M94.7852 344.263L109.633 344.263L109.633 338.064L94.7852 338.064L94.7852 344.263Z" fill="black"/>
<path d="M101.977 344.264L109.633 344.264L109.633 308.77L101.977 308.77L101.977 344.264Z" fill="black"/>
<path d="M46.7602 309.453H37.4805V315.812H46.7602V309.453Z" fill="black"/>
<path d="M51.4008 315.439H42.1211V321.797H51.4008V315.439Z" fill="black"/>
<path d="M56.0395 321.75H46.7598V328.108H56.0395V321.75Z" fill="black"/>
<path d="M60.6801 327.897H51.4004V334.255H60.6801V327.897Z" fill="black"/>
<path d="M70.0786 334.078H60.7988V338.837H70.0786V334.078Z" fill="black"/>
<path d="M85.3922 315.649L94.6719 315.649L94.6719 309.29L85.3922 309.29L85.3922 315.649Z" fill="black"/>
<path d="M80.7515 321.633L90.0312 321.633L90.0313 315.275L80.7515 315.275L80.7515 321.633Z" fill="black"/>
<path d="M76.1109 327.944L85.3906 327.944L85.3906 321.585L76.1109 321.585L76.1109 327.944Z" fill="black"/>
<path d="M70.1968 334.254L79.4766 334.254L79.4766 327.896L70.1968 327.896L70.1968 334.254Z" fill="black"/>
</g>
<g filter="url(#filter5_d_102_1618)">
<path d="M6.11116 397.264V395.224H3.99916V383.752H6.11116V381.688H13.4072V383.752H15.5432V389.056H12.4712V384.976H7.04716V394H12.4712V389.872H15.5432V395.224H13.4072V397.264H6.11116ZM20.5721 397.264V395.224H18.4601V387.856H20.5721V385.792H27.8681V387.856H30.0041V394H32.1401V397.264H29.0681V395.224H27.8681V397.264H20.5721ZM21.5081 394H26.9321V389.056H21.5081V394ZM34.3507 397.264V381.688H37.3987V397.264H34.3507ZM41.9705 397.264V395.224H39.8585V387.856H41.9705V385.792H49.2665V387.856H51.4025V391.096H48.3305V389.056H42.9065V389.872H47.1545V393.16H42.9065V394H48.3305V391.912H51.4025V395.2H49.2665V397.264H41.9705ZM54.3195 397.264V385.792H63.7275V387.856H65.8635V397.264H62.7915V389.056H57.3675V397.264H54.3195ZM70.4237 397.264V395.224H68.3117V387.856H70.4237V385.792H76.8077V381.688H79.8797V395.224H77.7197V397.264H70.4237ZM71.3597 394H76.7837V389.056H71.3597V394ZM82.3038 397.264V387.856H84.4158V385.792H91.7118V387.856H93.8478V391.096H90.7758V389.056H85.3518V397.264H82.3038ZM96.7648 397.264V385.792H99.8128V397.264H96.7648ZM96.7648 384.976V381.688H99.8128V384.976H96.7648ZM104.385 397.264V395.224H102.273V387.856H104.385V385.792H111.681V387.856H113.817V391.096H110.745V389.056H105.321V389.872H109.569V393.16H105.321V394H110.745V391.912H113.817V395.2H111.681V397.264H104.385ZM116.734 397.264V387.856H118.846V385.792H126.142V387.856H128.278V391.096H125.206V389.056H119.782V397.264H116.734Z" fill="black"/>
</g>
<defs>
<filter id="filter0_d_102_1618" x="14.6328" y="17.168" width="95" height="60.6639" filterUnits="userSpaceOnUse" color-interpolation-filters="sRGB">
<feFlood flood-opacity="0" result="BackgroundImageFix"/>
<feColorMatrix in="SourceAlpha" type="matrix" values="0 0 0 0 0 0 0 0 0 0 0 0 0 0 0 0 0 0 127 0" result="hardAlpha"/>
<feOffset dx="-4" dy="4"/>
<feGaussianBlur stdDeviation="2"/>
<feComposite in2="hardAlpha" operator="out"/>
<feColorMatrix type="matrix" values="0 0 0 0 0 0 0 0 0 0 0 0 0 0 0 0 0 0 0.5 0"/>
<feBlend mode="normal" in2="BackgroundImageFix" result="effect1_dropShadow_102_1618"/>
<feBlend mode="normal" in="SourceGraphic" in2="effect1_dropShadow_102_1618" result="shape"/>
</filter>
<filter id="filter1_d_102_1618" x="31.3242" y="101.688" width="69.6094" height="23.576" filterUnits="userSpaceOnUse" color-interpolation-filters="sRGB">
<feFlood flood-opacity="0" result="BackgroundImageFix"/>
<feColorMatrix in="SourceAlpha" type="matrix" values="0 0 0 0 0 0 0 0 0 0 0 0 0 0 0 0 0 0 127 0" result="hardAlpha"/>
<feOffset dy="4"/>
<feGaussianBlur stdDeviation="2"/>
<feComposite in2="hardAlpha" operator="out"/>
<feColorMatrix type="matrix" values="0 0 0 0 0 0 0 0 0 0 0 0 0 0 0 0 0 0 0.25 0"/>
<feBlend mode="normal" in2="BackgroundImageFix" result="effect1_dropShadow_102_1618"/>
<feBlend mode="normal" in="SourceGraphic" in2="effect1_dropShadow_102_1618" result="shape"/>
</filter>
<filter id="filter2_d_102_1618" x="14.6328" y="157.168" width="95" height="60.6639" filterUnits="userSpaceOnUse" color-interpolation-filters="sRGB">
<feFlood flood-opacity="0" result="BackgroundImageFix"/>
<feColorMatrix in="SourceAlpha" type="matrix" values="0 0 0 0 0 0 0 0 0 0 0 0 0 0 0 0 0 0 127 0" result="hardAlpha"/>
<feOffset dx="-4" dy="4"/>
<feGaussianBlur stdDeviation="2"/>
<feComposite in2="hardAlpha" operator="out"/>
<feColorMatrix type="matrix" values="0 0 0 0 0 0 0 0 0 0 0 0 0 0 0 0 0 0 0.5 0"/>
<feBlend mode="normal" in2="BackgroundImageFix" result="effect1_dropShadow_102_1618"/>
<feBlend mode="normal" in="SourceGraphic" in2="effect1_dropShadow_102_1618" result="shape"/>
</filter>
<filter id="filter3_d_102_1618" x="20.5664" y="241.688" width="91.1445" height="27.56" filterUnits="userSpaceOnUse" color-interpolation-filters="sRGB">
<feFlood flood-opacity="0" result="BackgroundImageFix"/>
<feColorMatrix in="SourceAlpha" type="matrix" values="0 0 0 0 0 0 0 0 0 0 0 0 0 0 0 0 0 0 127 0" result="hardAlpha"/>
<feOffset dy="4"/>
<feGaussianBlur stdDeviation="2"/>
<feComposite in2="hardAlpha" operator="out"/>
<feColorMatrix type="matrix" values="0 0 0 0 0 0 0 0 0 0 0 0 0 0 0 0 0 0 0.25 0"/>
<feBlend mode="normal" in2="BackgroundImageFix" result="effect1_dropShadow_102_1618"/>
<feBlend mode="normal" in="SourceGraphic" in2="effect1_dropShadow_102_1618" result="shape"/>
</filter>
<filter id="filter4_d_102_1618" x="14.6328" y="297.168" width="95" height="60.6639" filterUnits="userSpaceOnUse" color-interpolation-filters="sRGB">
<feFlood flood-opacity="0" result="BackgroundImageFix"/>
<feColorMatrix in="SourceAlpha" type="matrix" values="0 0 0 0 0 0 0 0 0 0 0 0 0 0 0 0 0 0 127 0" result="hardAlpha"/>
<feOffset dx="-4" dy="4"/>
<feGaussianBlur stdDeviation="2"/>
<feComposite in2="hardAlpha" operator="out"/>
<feColorMatrix type="matrix" values="0 0 0 0 0 0 0 0 0 0 0 0 0 0 0 0 0 0 0.5 0"/>
<feBlend mode="normal" in2="BackgroundImageFix" result="effect1_dropShadow_102_1618"/>
<feBlend mode="normal" in="SourceGraphic" in2="effect1_dropShadow_102_1618" result="shape"/>
</filter>
<filter id="filter5_d_102_1618" x="0" y="381.688" width="132.277" height="23.576" filterUnits="userSpaceOnUse" color-interpolation-filters="sRGB">
<feFlood flood-opacity="0" result="BackgroundImageFix"/>
<feColorMatrix in="SourceAlpha" type="matrix" values="0 0 0 0 0 0 0 0 0 0 0 0 0 0 0 0 0 0 127 0" result="hardAlpha"/>
<feOffset dy="4"/>
<feGaussianBlur stdDeviation="2"/>
<feComposite in2="hardAlpha" operator="out"/>
<feColorMatrix type="matrix" values="0 0 0 0 0 0 0 0 0 0 0 0 0 0 0 0 0 0 0.25 0"/>
<feBlend mode="normal" in2="BackgroundImageFix" result="effect1_dropShadow_102_1618"/>
<feBlend mode="normal" in="SourceGraphic" in2="effect1_dropShadow_102_1618" result="shape"/>
</filter>
</defs>
</svg>
