<svg width="764" height="513" viewBox="0 0 764 513" fill="none" xmlns="http://www.w3.org/2000/svg">
<g clip-path="url(#clip0_252_1421)">
<path d="M714.709 147.53L52.0723 137.93L49.9996 281L712.636 290.6L714.709 147.53Z" fill="#231815" fill-opacity="0.5"/>
<path d="M719.539 141.41L60.6875 131.865L58.653 272.301L717.505 281.846L719.539 141.41Z" fill="#FFF8E9"/>
<path d="M592.447 142.203L573.008 264.211L605.279 278.859L677.811 253.503L689.822 167.335L681.976 142.203H592.447Z" fill="#2B74CC"/>
<path d="M485.492 144.647L460.73 230.992L459.154 269.373L516.846 265.819L567.592 270.418L581.757 155.662L485.492 144.647Z" fill="#FDE35C"/>
<path d="M386.46 140.402L342.451 205.892L382.649 277.058L451.13 262.394L470.859 149.374L386.46 140.402Z" fill="#FF4D87"/>
<path d="M301.675 176.436L288.088 272.396H328.398L345.924 140.402L301.675 176.436Z" fill="#FF4D6D"/>
<path d="M313.734 138.071L297.559 149.745L301.675 179.973H338.207L345.924 140.403L313.734 138.071Z" fill="#FF4D6D"/>
<path d="M204.236 144.004L172.287 267.701L225.847 274.132V247.811L235.237 274.132L280.628 277.059L276.061 206.134L284.069 151.947L204.236 144.004Z" fill="#45D16F"/>
<path d="M180.054 129.807L93.2266 156.996L113.534 287.639L164.393 277.445L158.09 219.11L183.044 206.005L180.054 129.807Z" fill="#F07063"/>
<path d="M138.789 300.589L4.67383 349.1L18.341 474.404L136.892 504.906L180.627 389.04L138.789 300.589Z" fill="#231815" fill-opacity="0.5"/>
<path d="M145.58 294.167L11.4648 342.677L25.1321 467.997L143.683 498.499L187.418 382.618L145.58 294.167Z" fill="#FF4D6D"/>
<path d="M149.408 436.531L126.833 356.971C121.993 339.896 104.226 329.975 87.1497 334.831L85.5418 335.297C68.4658 340.137 58.545 357.904 63.4009 374.98L85.976 454.539C90.8158 471.615 108.583 481.536 125.659 476.68L127.267 476.23C144.343 471.39 154.264 453.623 149.408 436.547V436.531ZM122.363 461.067L121.864 461.212C116.526 462.724 110.963 459.62 109.451 454.282L83.5159 362.856C82.0044 357.518 85.1077 351.955 90.4459 350.443L90.9444 350.299C96.2826 348.787 101.846 351.891 103.357 357.229L129.293 448.654C130.804 453.993 127.701 459.556 122.363 461.067Z" fill="#231815" fill-opacity="0.5"/>
<path d="M142.461 436.531L119.886 356.971C115.046 339.896 97.2784 329.975 80.2025 334.831L78.5946 335.297C61.5186 340.137 51.5978 357.904 56.4537 374.98L79.0287 454.539C83.8685 471.615 101.636 481.536 118.712 476.68L120.32 476.23C137.396 471.39 147.317 453.623 142.461 436.547V436.531ZM115.4 461.067L114.901 461.212C109.563 462.724 104 459.62 102.488 454.282L76.5525 362.856C75.0411 357.518 78.1443 351.955 83.4826 350.443L83.981 350.299C89.3193 348.787 94.8827 351.891 96.3941 357.229L122.33 448.654C123.841 453.993 120.738 459.556 115.4 461.067Z" fill="#FFF3B0"/>
<path d="M209.235 314.604L151.592 469.075L294.326 492.165L317.126 321.743L209.235 314.604Z" fill="#231815" fill-opacity="0.5"/>
<path d="M440.004 336.375L401.688 461.164L445.905 498.5H501.908L549.068 377.65L484.221 336.375H440.004Z" fill="#231815" fill-opacity="0.5"/>
<path d="M529.095 326.164L504.543 379.225L529.095 393.953L495.699 485.331L619.492 473.545V335.988L529.095 326.164Z" fill="#231815" fill-opacity="0.5"/>
<path d="M296.705 301.627L287.861 500.108H410.673L417.555 419.535L389.176 395.465L424.437 315.391L296.705 301.627Z" fill="#231815" fill-opacity="0.5"/>
<path d="M196.63 305.277L138.986 459.765L281.72 482.855L304.52 312.433L196.63 305.277Z" fill="#FDE35C"/>
<path d="M292.623 296.161L283.779 494.641H406.607L413.473 414.069L385.094 389.998L420.355 309.924L292.623 296.161Z" fill="#42A5F5"/>
<path d="M427.238 332.516L388.922 457.305L433.123 494.641H489.127L536.303 373.791L471.456 332.516H427.238Z" fill="#FF4D87"/>
<path d="M520.576 318.768L496.008 371.812L520.576 386.557L487.164 477.934L610.973 466.148V328.592L520.576 318.768Z" fill="#00E5FF"/>
<path d="M202.002 339.638L181.26 427.912L204.028 431.144L215.878 381.251L250.898 437.479L267.202 437.721L286.835 355.991L263.552 350.685L247.055 399.517L218.837 342.227L202.002 339.638Z" fill="#010101"/>
<path d="M382.279 417.188C382.279 417.188 377.536 453.012 355.99 450.825C334.428 448.654 332.225 448.429 332.225 448.429L342.853 343.288L354.494 344.462L355.009 339.333L308.508 334.638L307.994 339.767L319.506 340.925L308.878 446.066L297.365 444.908L296.529 453.205L384.45 462.097L388.92 417.879L382.279 417.204V417.188Z" fill="#EFE80C"/>
<path d="M453.766 388.599C462.682 388.599 469.91 381.372 469.91 372.456C469.91 363.54 462.682 356.312 453.766 356.312C444.851 356.312 437.623 363.54 437.623 372.456C437.623 381.372 444.851 388.599 453.766 388.599Z" fill="#F9DA10"/>
<path d="M443.895 399.678L469.894 393.407V470.506L443.895 477.677V399.678Z" fill="#F9DA10"/>
<path d="M524.883 446.677L530.896 376.845L524.883 364.834L544.403 355.074L572.187 407.621L575.194 359.576L593.959 355.074V436.161L575.934 446.677L545.159 407.621L543.647 441.419L524.883 446.677Z" fill="#003366"/>
<path d="M197.787 335.345L177.029 423.619L199.813 426.851L211.648 376.942L246.668 433.17L262.972 433.428L282.605 351.698L259.322 346.375L242.825 395.224L214.622 337.934L197.787 335.345Z" fill="#1365D1"/>
<path opacity="0.8" d="M101.972 122.346C101.972 122.346 53.9595 185.697 45.7109 191.582L70.7139 206.375L120.527 140.033C120.527 140.033 107.728 129.147 101.972 122.362V122.346Z" fill="#FFE680"/>
<path d="M108.889 159.07L119.629 274.132L155.727 267.717L140.243 208.063L168.896 203.497L167.674 184.282L139.278 187.45L138.458 174.41L174.829 166.595L173.43 144.647L108.889 159.07Z" fill="#73D2B2"/>
<path d="M307.494 184.363L293.746 267.701H324.232L336.79 184.363H307.494Z" fill="#F9C3D3"/>
<path d="M321.984 176.452C330.944 176.452 338.207 169.188 338.207 160.228C338.207 151.268 330.944 144.004 321.984 144.004C313.023 144.004 305.76 151.268 305.76 160.228C305.76 169.188 313.023 176.452 321.984 176.452Z" fill="#F9C3D3"/>
<path d="M321.983 172.545C328.785 172.545 334.299 167.03 334.299 160.228C334.299 153.426 328.785 147.912 321.983 147.912C315.18 147.912 309.666 153.426 309.666 160.228C309.666 167.03 315.18 172.545 321.983 172.545Z" stroke="#FFF3D7" stroke-width="1.72046" stroke-miterlimit="10"/>
<path d="M321.982 168.509C326.555 168.509 330.263 164.801 330.263 160.228C330.263 155.655 326.555 151.947 321.982 151.947C317.409 151.947 313.701 155.655 313.701 160.228C313.701 164.801 317.409 168.509 321.982 168.509Z" stroke="#FFF3D7" stroke-width="1.72046" stroke-miterlimit="10"/>
<path d="M321.982 164.36C324.264 164.36 326.114 162.51 326.114 160.228C326.114 157.946 324.264 156.096 321.982 156.096C319.7 156.096 317.85 157.946 317.85 160.228C317.85 162.51 319.7 164.36 321.982 164.36Z" stroke="#FFF3D7" stroke-width="1.72046" stroke-miterlimit="10"/>
<path d="M442.801 216.296C440.469 215.556 437.945 216.665 436.867 218.868C433.201 226.393 423.779 243.228 411.607 246.798C395.817 251.445 389.788 237.97 390.704 218.933C390.704 218.933 443.46 205.491 449.682 187.82C455.519 171.242 445.743 156.337 428.908 152.96C409.967 149.182 388.373 156.112 375.638 170.631C361.569 186.662 357.035 211.279 362.823 231.571C363.868 235.221 365.122 238.855 367.004 242.167C379.754 264.404 405.883 266.72 423.859 257.748C435.034 252.152 446.788 240.366 454.796 229.255C456.291 227.181 455.969 224.319 454.056 222.615C451.757 220.557 448.074 218 442.784 216.312L442.801 216.296ZM416.125 165.775C419.582 164.746 431.851 166.37 428.056 183.655C425.081 197.145 406.333 201.792 398.229 203.175C396.654 203.448 395.448 201.825 396.155 200.377C400.834 190.923 413.295 166.611 416.125 165.759V165.775Z" fill="#A1CFE6"/>
<path d="M481.761 174.297L467.21 249.322C466.004 255.497 470.747 261.237 477.034 261.237H496.538C496.538 261.237 503.388 210.266 507.713 202.243C507.713 202.243 523.438 224.207 529.211 246.444C531.462 255.143 539.276 261.237 548.248 261.237C557.253 261.237 564.778 254.339 565.549 245.367L571.643 174.876C572.319 167.03 566.546 160.116 558.716 159.376L546.801 158.234L539.357 217.18C539.357 217.18 531.413 195.522 523.149 169.457C520.544 161.257 512.955 155.662 504.352 155.662C493.338 155.662 483.868 163.476 481.761 174.297Z" fill="#F07063"/>
<path d="M639.546 334.236L589.105 493.451L715.825 500.638L756.714 342.099L639.546 334.236Z" fill="#231815" fill-opacity="0.5"/>
<path d="M633.547 328.222L583.107 487.453L709.811 494.641L750.7 336.085L633.547 328.222Z" fill="#FF0054"/>
<path d="M713.926 420.259C713.926 420.259 673.681 441.885 665.126 415.725L696.191 411.512C702.333 410.676 707.784 407.171 711.08 401.913C715.325 395.159 715.341 386.589 711.161 379.788C705.147 369.98 693.779 358.515 674.179 360.879C640.976 364.899 631.923 398.102 632.422 410.177C632.92 422.253 640.477 455.167 680.514 450.423C712.994 446.58 720.969 434.827 720.969 434.827L713.926 420.243V420.259ZM663.326 389.773C662.57 384.29 666.413 379.241 671.896 378.485L672.925 378.341C678.408 377.585 683.457 381.428 684.212 386.911L685.434 395.835L664.564 398.697L663.342 389.773H663.326Z" fill="#231815" fill-opacity="0.5"/>
<path d="M228.756 210.829C228.756 210.829 229.897 210.781 229.946 210.781C249.916 210.057 274.758 208.337 271.333 173.799C267.908 139.261 208.287 155.244 208.287 155.244L180.068 265.836H216.938L223.241 232.825C223.594 230.944 225.411 231.25 226.923 232.439C232.808 237.038 235.766 245.383 237.664 265.836H270.497C270.497 265.836 276.237 208.498 228.756 210.845V210.829ZM219.092 193.206L224.302 170.76C224.302 170.76 246.234 167.062 243.356 180.038C240.477 193.014 219.092 193.206 219.092 193.206Z" fill="#FFD447"/>
<path d="M709.762 425.951C709.762 425.951 669.516 447.577 660.962 421.417L692.027 417.204C698.169 416.368 703.62 412.862 706.916 407.605C711.161 400.851 711.177 392.281 706.997 385.48C700.983 375.672 689.615 364.207 670.015 366.571C636.812 370.591 627.759 403.794 628.258 415.869C628.756 427.945 636.313 460.859 676.35 456.115C708.83 452.272 716.805 440.518 716.805 440.518L709.762 425.935V425.951ZM659.145 395.449C658.39 389.966 662.233 384.917 667.716 384.161L668.745 384.017C674.228 383.261 679.276 387.104 680.032 392.587L681.254 401.511L660.384 404.373L659.162 395.449H659.145Z" fill="#FFF59D"/>
<path d="M633.53 149.439C623.577 149.149 616.052 150.162 610.634 151.449C604.073 153.025 599.137 158.427 598.172 165.1L586.145 248.759C585.213 255.255 589.924 261.172 596.452 261.767C617.676 263.681 660.736 263.327 671.429 230.863C684.903 189.958 673.117 150.613 633.514 149.439H633.53ZM652.568 210.073C649.497 240.591 608.511 237.054 608.511 237.054L615.972 178.88C636.071 176.58 655.639 179.555 652.568 210.073Z" fill="#FFCEDD"/>
<path d="M127.409 269.244C129.301 269.244 130.834 267.711 130.834 265.819C130.834 263.928 129.301 262.395 127.409 262.395C125.518 262.395 123.984 263.928 123.984 265.819C123.984 267.711 125.518 269.244 127.409 269.244Z" fill="#FFF3D7"/>
<path d="M139.663 254.66C141.555 254.66 143.088 253.127 143.088 251.235C143.088 249.344 141.555 247.811 139.663 247.811C137.772 247.811 136.238 249.344 136.238 251.235C136.238 253.127 137.772 254.66 139.663 254.66Z" fill="#FFF3D7"/>
<path d="M125.319 242.923C127.211 242.923 128.744 241.39 128.744 239.498C128.744 237.607 127.211 236.073 125.319 236.073C123.428 236.073 121.895 237.607 121.895 239.498C121.895 241.39 123.428 242.923 125.319 242.923Z" fill="#FFF3D7"/>
<path d="M134.276 225.96C136.168 225.96 137.701 224.426 137.701 222.535C137.701 220.643 136.168 219.11 134.276 219.11C132.385 219.11 130.852 220.643 130.852 222.535C130.852 224.426 132.385 225.96 134.276 225.96Z" fill="#FFF3D7"/>
<path d="M121.878 213C123.769 213 125.303 211.466 125.303 209.575C125.303 207.683 123.769 206.15 121.878 206.15C119.986 206.15 118.453 207.683 118.453 209.575C118.453 211.466 119.986 213 121.878 213Z" fill="#FFF3D7"/>
<path d="M140.034 203.4C141.926 203.4 143.459 201.867 143.459 199.976C143.459 198.084 141.926 196.551 140.034 196.551C138.143 196.551 136.609 198.084 136.609 199.976C136.609 201.867 138.143 203.4 140.034 203.4Z" fill="#FFF3D7"/>
<path d="M158.087 196.937C159.978 196.937 161.512 195.403 161.512 193.512C161.512 191.62 159.978 190.087 158.087 190.087C156.195 190.087 154.662 191.62 154.662 193.512C154.662 195.403 156.195 196.937 158.087 196.937Z" fill="#FFF3D7"/>
<path d="M128.743 193.496C130.635 193.496 132.168 191.962 132.168 190.071C132.168 188.179 130.635 186.646 128.743 186.646C126.852 186.646 125.318 188.179 125.318 190.071C125.318 191.962 126.852 193.496 128.743 193.496Z" fill="#FFF3D7"/>
<path d="M118.663 179.957C120.555 179.957 122.088 178.424 122.088 176.532C122.088 174.641 120.555 173.107 118.663 173.107C116.772 173.107 115.238 174.641 115.238 176.532C115.238 178.424 116.772 179.957 118.663 179.957Z" fill="#FFF3D7"/>
<path d="M130.835 167.817C132.726 167.817 134.26 166.284 134.26 164.393C134.26 162.501 132.726 160.968 130.835 160.968C128.944 160.968 127.41 162.501 127.41 164.393C127.41 166.284 128.944 167.817 130.835 167.817Z" fill="#FFF3D7"/>
<path d="M148.167 160.421C150.059 160.421 151.592 158.888 151.592 156.996C151.592 155.105 150.059 153.571 148.167 153.571C146.276 153.571 144.742 155.105 144.742 156.996C144.742 158.888 146.276 160.421 148.167 160.421Z" fill="#FFF3D7"/>
<path d="M164.39 165.18C166.281 165.18 167.815 163.647 167.815 161.755C167.815 159.864 166.281 158.331 164.39 158.331C162.498 158.331 160.965 159.864 160.965 161.755C160.965 163.647 162.498 165.18 164.39 165.18Z" fill="#FFF3D7"/>
<path d="M313.733 186.501L299.938 265.562H301.674L315.47 186.501H313.733Z" fill="#FFF3D7"/>
<path d="M321.308 186.501L307.496 265.562H309.233L323.045 186.501H321.308Z" fill="#FFF3D7"/>
<path d="M330.007 186.501L316.195 265.562H317.948L331.744 186.501H330.007Z" fill="#FFF3D7"/>
<path d="M488.9 174.683C488.9 174.683 492.132 161.579 504.931 163.573" stroke="#FFD4D2" stroke-width="4.27704" stroke-linecap="round" stroke-linejoin="round"/>
<path d="M558.652 240.382C558.652 240.382 555.42 253.487 542.621 251.493" stroke="#FFD4D2" stroke-width="4.27704" stroke-linecap="round" stroke-linejoin="round"/>
<path d="M374.705 181.742C374.705 181.742 383.645 160.646 408.069 159.022" stroke="#D4FDFF" stroke-width="4.27704" stroke-linecap="round" stroke-linejoin="round"/>
<path opacity="0.8" d="M719.506 221.811C719.506 221.811 654.739 263.199 645.301 265.771L663.02 287.558L730.423 244.064C730.423 244.064 722.464 229.915 719.506 221.827V221.811Z" fill="#FFE680"/>
<path opacity="0.8" d="M437.365 345.009C437.365 345.009 374.014 296.997 368.129 288.748L353.336 313.751L419.678 363.564C419.678 363.564 430.564 350.765 437.349 345.009H437.365Z" fill="#FFE680"/>
<path opacity="0.8" d="M605.087 453.061C605.087 453.061 533.005 486.553 522.955 487.872L538.118 512.65L613.207 477.372C613.207 477.372 607 461.775 605.087 453.061Z" fill="#FFE680"/>
<path opacity="0.8" d="M70.8283 486.971C70.8283 486.971 24.7135 422.221 21.5781 412.589L0 432.029L48.4302 499.4C48.4302 499.4 62.628 490.444 70.8444 486.971H70.8283Z" fill="#FFE680"/>
<path opacity="0.8" d="M697.43 330.763C697.43 330.763 744.976 375.398 749.076 382.634L763.29 363.516L713.461 317.144C713.461 317.144 703.475 326.646 697.446 330.763H697.43Z" fill="#FFE680"/>
<path d="M541.783 5.96406L246.969 31.7051L257.321 150.271L552.135 124.53L541.783 5.96406Z" fill="#231815" fill-opacity="0.5"/>
<path d="M533.927 0.0104428L239.113 25.7515L249.466 144.318L544.279 118.577L533.927 0.0104428Z" fill="#FFFCF0"/>
<path d="M281.446 112.763C281.414 114.339 281.108 115.448 280.53 116.124C279.951 116.783 279.002 117.169 277.651 117.297C276.188 117.426 275.079 117.088 274.291 116.3C273.503 115.513 272.972 114.178 272.715 112.281L270.979 100.286L270.898 99.3531C270.753 97.6809 270.962 96.4911 271.557 95.7353C272.136 94.9796 273.165 94.5455 274.661 94.4169C276.735 94.24 278.359 95.5906 279.517 98.5009C280.063 99.948 280.562 101.041 281.012 101.781C282.443 104.096 284.517 105.801 287.251 106.894C289.984 107.988 293.168 108.373 296.802 108.052C301.272 107.666 304.809 106.283 307.414 103.936C310.019 101.572 311.176 98.7582 310.887 95.462C310.646 92.7285 309.6 90.6061 307.735 89.0786C305.87 87.5672 303.281 86.715 299.937 86.5059L292.155 86.1361C284.887 85.7502 279.5 84.3192 275.963 81.843C272.426 79.3668 270.448 75.6043 269.998 70.5877C269.531 65.2816 271.332 60.6347 275.4 56.6471C279.468 52.6595 284.774 50.3762 291.335 49.8135C293.232 49.6527 295.274 49.717 297.429 50.0386C299.583 50.3602 302.043 50.939 304.809 51.7751C304.793 50.7621 305.002 50.0547 305.452 49.6205C305.902 49.2025 306.722 48.9291 307.896 48.8327C309.424 48.704 310.501 48.8327 311.128 49.2346C311.755 49.6366 312.221 50.6818 312.495 52.354L314.167 63.1591L314.215 63.6736C314.328 64.8957 314.054 65.8604 313.427 66.6C312.784 67.3397 311.852 67.7577 310.597 67.8703C308.764 68.0311 307.221 66.8734 305.999 64.3972C305.388 62.9822 304.809 61.9371 304.262 61.2457C302.96 59.6217 301.207 58.4158 298.972 57.6761C296.737 56.9204 294.261 56.6792 291.512 56.9044C287.315 57.2742 284.003 58.6087 281.575 60.908C279.147 63.2074 278.069 66.0533 278.359 69.4139C278.584 72.0508 279.742 74.0447 281.848 75.3953C283.938 76.7459 287.025 77.5338 291.093 77.7268L299.503 78.0323C305.597 78.3056 310.308 79.7527 313.604 82.3736C316.9 84.9945 318.766 88.7731 319.2 93.6933C319.714 99.5139 317.946 104.37 313.926 108.277C309.906 112.168 304.262 114.435 297.027 115.078C294.534 115.304 292.026 115.223 289.518 114.837C287.009 114.467 284.308 113.776 281.43 112.763H281.446Z" fill="#BC2626"/>
<path d="M347.886 54.2192L340.297 54.8784C338.175 55.0714 336.679 54.9106 335.779 54.4121C334.878 53.9137 334.364 52.9811 334.251 51.6305C334.123 50.2155 334.412 49.2025 335.12 48.5915C335.827 47.9805 337.837 47.5464 341.165 47.2569L355.99 45.9706C357.887 45.8098 359.206 45.9385 359.93 46.3887C360.653 46.8389 361.345 47.7072 362.02 49.0096L386.782 98.0186L387.666 97.9382C389.531 97.7774 390.85 97.9382 391.573 98.3884C392.297 98.8386 392.747 99.7551 392.86 101.106C392.988 102.521 392.731 103.534 392.12 104.129C391.509 104.724 390.303 105.093 388.502 105.254L374.369 106.492C371.732 106.717 370.027 106.605 369.223 106.122C368.435 105.656 367.969 104.708 367.857 103.276C367.744 101.958 368.066 100.993 368.837 100.382C369.609 99.7712 371.121 99.3692 373.372 99.1763L378.211 98.7582L372.085 86.8276L345.683 89.1269L342.291 101.894L347.34 101.46C349.623 101.267 351.215 101.395 352.083 101.861C352.967 102.328 353.466 103.212 353.578 104.531C353.707 105.946 353.418 106.959 352.71 107.57C352.003 108.181 350.395 108.583 347.87 108.808L334.203 109.998C331.984 110.19 330.489 110.046 329.717 109.579C328.945 109.113 328.495 108.164 328.366 106.733C328.254 105.383 328.527 104.418 329.219 103.839C329.894 103.26 331.277 102.874 333.367 102.698L334.348 102.617L347.935 54.2353L347.886 54.2192ZM347.645 82.0038L368.902 80.1387L355.315 53.5599L347.629 81.9878L347.645 82.0038Z" fill="#BC2626"/>
<path d="M394.097 50.1833L393.421 50.2476C391.685 50.3923 390.431 50.2155 389.659 49.717C388.887 49.2185 388.437 48.2699 388.308 46.9353C388.196 45.7294 388.437 44.7646 389 44.0732C389.562 43.3818 390.447 42.9799 391.621 42.8834L407.378 41.5006C409.42 41.3237 410.819 41.4845 411.591 41.9669C412.346 42.4653 412.797 43.3979 412.909 44.7807C413.022 46.0671 412.716 47.0479 412.009 47.7071C411.301 48.3664 410.111 48.7844 408.455 48.9291L402.731 49.4276L424.358 93.2109L437.607 46.3726L430.693 46.9836C429.069 47.1283 427.831 46.9192 426.995 46.3886C426.158 45.858 425.692 44.9415 425.58 43.6552C425.451 42.2724 425.74 41.2594 426.416 40.6484C427.091 40.0213 428.442 39.6354 430.451 39.4585L446.772 38.0275C447.946 37.931 448.878 38.1722 449.537 38.7511C450.197 39.346 450.582 40.2464 450.695 41.4524C450.808 42.803 450.534 43.7999 449.859 44.427C449.184 45.0541 447.946 45.456 446.145 45.6168L445.518 45.6651L431.079 96.2659C430.226 98.9672 429.519 100.656 428.956 101.347C428.393 102.038 427.622 102.44 426.641 102.521L423.682 102.778C421.399 102.971 419.373 101.299 417.636 97.7613L417.508 97.4558L394.097 50.1511V50.1833Z" fill="#BC2626"/>
<path d="M466.211 98.4686L463.767 98.6776C462.513 98.7902 461.548 98.549 460.857 97.9862C460.166 97.4234 459.764 96.5069 459.651 95.2688C459.522 93.886 459.828 92.9052 460.519 92.3424C461.227 91.7797 462.899 91.3777 465.568 91.1365L468.896 90.8471L464.812 44.0087L461.484 44.2982C458.879 44.5233 457.175 44.4107 456.339 43.9283C455.519 43.462 455.036 42.5134 454.908 41.0984C454.795 39.8121 455.036 38.8473 455.631 38.1881C456.21 37.5289 457.175 37.143 458.493 37.0143L460.825 36.8053L503.772 33.0589C504.946 32.9624 505.878 33.2357 506.538 33.895C507.213 34.5542 507.599 35.5511 507.711 36.9018L508.789 49.1701C508.949 50.971 508.789 52.2412 508.338 52.9809C507.888 53.7205 506.972 54.1546 505.621 54.2672C504.206 54.3958 503.193 54.0903 502.582 53.3828C501.971 52.6754 501.553 50.971 501.328 48.3018L500.685 40.8733L473.029 43.2852L474.556 60.7953L488.175 59.6054L487.934 56.8559C487.773 54.9907 487.902 53.6562 488.352 52.8844C488.786 52.1126 489.639 51.6785 490.877 51.5659C492.083 51.4533 492.967 51.7749 493.498 52.5146C494.028 53.2542 494.414 54.9104 494.639 57.4669L495.491 67.1305C495.716 69.7353 495.62 71.4075 495.202 72.1793C494.784 72.9511 493.948 73.3852 492.694 73.4978C491.439 73.6103 490.555 73.2727 490.008 72.4687C489.462 71.6808 489.092 70.089 488.883 67.6932L488.722 65.8763L475.103 67.0661L477.113 90.0914L504.769 87.6795L504.029 79.2541C503.788 76.5849 503.917 74.8484 504.383 74.0445C504.849 73.2405 505.798 72.7742 507.213 72.6456C508.531 72.533 509.48 72.8064 510.091 73.4656C510.686 74.1248 511.072 75.4433 511.249 77.4211L512.39 90.5255C512.503 91.7797 512.262 92.7605 511.699 93.468C511.136 94.1755 510.284 94.5935 509.126 94.69L466.179 98.4364L466.211 98.4686Z" fill="#BC2626"/>
<path d="M386.699 28.444C392.96 28.444 398.035 23.3688 398.035 17.1082C398.035 10.8477 392.96 5.77246 386.699 5.77246C380.438 5.77246 375.363 10.8477 375.363 17.1082C375.363 23.3688 380.438 28.444 386.699 28.444Z" fill="#9B1F1F"/>
<path d="M389.805 22.9127C394.858 22.9127 398.954 18.8166 398.954 13.7637C398.954 8.71089 394.858 4.61475 389.805 4.61475C384.752 4.61475 380.656 8.71089 380.656 13.7637C380.656 18.8166 384.752 22.9127 389.805 22.9127Z" fill="#B33A3A"/>
</g>
<defs>
<clipPath id="clip0_252_1421">
<rect width="763.29" height="512.649" fill="white"/>
</clipPath>
</defs>
</svg>
