<svg width="642" height="429" viewBox="0 0 642 429" fill="none" xmlns="http://www.w3.org/2000/svg">
<g clip-path="url(#clip0_191_576)">
<path d="M114.633 254.419L0 295.797L11.6897 402.687L113.022 428.711L150.406 329.861L114.633 254.419Z" fill="#231815" fill-opacity="0.65"/>
<path d="M119.582 246.378L4.94922 287.756L16.6261 394.659L117.971 420.67L155.355 321.833L119.582 246.378Z" fill="#0C60D4"/>
<path d="M185.82 261.438L128.715 380.454L241.072 409.056L271.485 274.84L185.82 261.438Z" fill="#231815" fill-opacity="0.65"/>
<path d="M371.27 282.382L338.516 388.826L376.309 420.67H424.193L464.506 317.583L409.076 282.382H371.27Z" fill="#231815" fill-opacity="0.65"/>
<path d="M447.815 263.787L426.815 309.044L447.815 321.616L419.256 399.56L525.09 389.503V272.159L447.815 263.787Z" fill="#231815" fill-opacity="0.65"/>
<path d="M251.215 246.378L243.656 415.68H348.633L354.517 346.951L330.255 326.415L360.4 258.107L251.215 246.378Z" fill="#231815" fill-opacity="0.65"/>
<path d="M582.607 122.053H65.8809V241.873H582.607V122.053Z" fill="#231815" fill-opacity="0.65"/>
<path d="M586.314 116.769H69.5879V236.589H586.314V116.769Z" fill="#FFFAEE"/>
<path d="M122.871 367.818L103.585 299.944C99.4409 285.382 84.2596 276.92 69.6539 281.055L68.2726 281.451C53.6796 285.586 45.2001 300.736 49.344 315.311L68.6307 383.185C72.7745 397.748 87.9558 406.21 102.562 402.074L103.943 401.679C118.536 397.544 127.015 382.394 122.871 367.818ZM99.7478 388.75L99.313 388.877C94.7471 390.167 90.0021 387.525 88.6976 382.968L66.5332 304.973C65.2414 300.417 67.8889 295.682 72.4548 294.38L72.8896 294.252C77.4555 292.963 82.2005 295.605 83.505 300.161L105.669 378.156C106.961 382.713 104.314 387.448 99.7478 388.75Z" fill="#231815"/>
<path d="M176.42 253.104L119.314 372.119L231.671 400.734L262.085 266.518L176.42 253.104Z" fill="#FDE35C"/>
<path d="M245.293 248.075L237.734 417.39H342.724L348.595 348.661L324.333 328.125L354.478 259.817L245.293 248.075Z" fill="#4EA25C"/>
<path d="M360.36 279.09L327.605 385.534L365.399 417.39H413.27L453.583 314.29L398.153 279.09H360.36Z" fill="#FF4D87"/>
<path d="M440.142 267.36L419.154 312.618L440.142 325.19L411.596 403.134L517.417 393.076V275.746L440.142 267.36Z" fill="#FFAF3C"/>
<path d="M541.846 280.558L498.732 416.369L607.048 422.508L642.002 287.258L541.846 280.558Z" fill="#231815" fill-opacity="0.65"/>
<path d="M536.715 275.427L493.602 411.251L601.917 417.39L636.871 282.14L536.715 275.427Z" fill="#FF0054"/>
<path d="M178.262 280.889L155.355 349.759L173.312 353.97L186.357 315.043L210.3 362.369L223.294 363.734L244.844 299.983L226.619 294.086L209.942 331.826L191.524 284.144L178.262 280.889Z" fill="#010101"/>
<path d="M116.922 367.818L97.6355 299.944C93.4916 285.382 78.3104 276.92 63.7046 281.055L62.3234 281.451C47.7304 285.586 39.2509 300.736 43.3947 315.311L62.6815 383.185C66.8253 397.748 82.0066 406.21 96.6123 402.074L97.9936 401.679C112.587 397.544 121.066 382.394 116.922 367.818ZM93.7986 388.75L93.3637 388.877C88.7979 390.167 84.0529 387.525 82.7484 382.968L60.584 304.973C59.2922 300.417 61.9397 295.682 66.5056 294.38L66.9404 294.252C71.5063 292.963 76.2513 295.605 77.5558 300.161L99.7202 378.156C101.012 382.713 98.3645 387.448 93.7986 388.75Z" fill="#F44C9A"/>
<path d="M321.928 351.316C321.928 351.316 317.874 381.87 299.444 380.02C281.014 378.156 279.121 377.965 279.121 377.965L288.202 288.266L298.152 289.274L298.6 284.897L258.85 280.889L258.402 285.267L268.238 286.262L259.157 375.961L249.322 374.966L248.605 382.036L323.77 389.618L327.594 351.89L321.928 351.316Z" fill="#EFE80C"/>
<path d="M383.036 326.925C390.658 326.925 396.836 320.76 396.836 313.154C396.836 305.548 390.658 299.383 383.036 299.383C375.415 299.383 369.236 305.548 369.236 313.154C369.236 320.76 375.415 326.925 383.036 326.925Z" fill="#F9DA10"/>
<path d="M374.607 336.383L396.823 331.035V396.803L374.607 402.929V336.383Z" fill="#F9DA10"/>
<path d="M603.824 355.796C603.824 355.796 569.42 374.251 562.104 351.928L588.655 348.329C593.899 347.614 598.567 344.615 601.381 340.148C605.013 334.379 605.026 327.079 601.458 321.271C596.316 312.912 586.596 303.122 569.842 305.152C541.462 308.585 533.711 336.906 534.146 347.206C534.581 357.506 541.027 385.585 575.265 381.539C603.031 378.259 609.848 368.24 609.848 368.24L603.824 355.796ZM560.557 329.784C559.917 325.113 563.191 320.799 567.872 320.161L568.755 320.046C573.436 319.408 577.759 322.675 578.398 327.347L579.447 334.966L561.605 337.404L560.557 329.784Z" fill="#231815"/>
<path d="M432.366 346.402L517.417 326.926V393.077L411.596 403.134L432.366 346.402Z" fill="#FFAF3C"/>
<path d="M443.824 376.472L448.966 316.907L443.824 306.658L460.515 298.324L484.265 343.16L486.836 302.165L502.887 298.324V367.499L487.475 376.472L461.154 343.16L459.875 371.992L443.824 376.472Z" fill="#71FFE4"/>
<path d="M175.191 277.163L152.285 346.032L170.255 350.244L183.287 311.304L207.229 358.629L220.224 360.008L241.774 296.256L223.562 290.347L206.884 328.1L188.454 280.417L175.191 277.163Z" fill="#1365D1"/>
<path d="M124.406 143.584L132.413 229.288L159.373 224.502L147.811 180.087L169.183 176.679L168.275 162.372L147.095 164.733L146.481 155.02L173.621 149.2L172.585 132.851L124.406 143.584Z" fill="#161616"/>
<path d="M216.694 183.648C216.694 183.648 217.525 183.354 217.563 183.354C219.763 183.073 249.704 175.441 248.463 156.067C247.171 135.901 201.41 142.244 201.41 142.244L180.346 224.617H207.856L212.563 200.023C212.831 198.619 214.75 198.414 215.313 199.729C218.177 206.481 223.332 219.346 223.332 224.604H247.836C247.836 224.604 255.907 185.779 216.694 183.648ZM208.726 169.698L214.097 153.399C214.097 153.399 230.647 152.11 227.642 161.555C224.636 170.987 208.726 169.71 208.726 169.71V169.698Z" fill="#161616"/>
<path d="M359.528 188.727C359.528 188.727 351.471 208.178 340.037 211.522C328.616 214.879 324.242 205.153 324.919 191.408C324.919 191.408 363.096 181.695 367.586 168.945C371.806 156.973 364.733 146.214 352.558 143.776C338.86 141.045 323.231 146.06 314.023 156.526C303.842 168.102 300.568 185.868 304.75 200.52C305.505 203.162 306.515 205.728 307.781 208.165C317.194 226.276 337.568 225.23 349.655 217.176C361.753 209.135 366.076 203.43 372.957 196.423C372.957 196.423 369.044 190.527 359.515 188.715L359.528 188.727ZM343.311 153.029C345.818 152.276 354.694 153.463 351.944 165.932C349.795 175.671 336.225 179.027 330.368 180.023C329.229 180.214 328.347 179.04 328.859 178.006C332.248 171.178 341.252 153.642 343.298 153.016L343.311 153.029Z" fill="#161616"/>
<path opacity="0.8" d="M96.2667 98.0332C96.2667 98.0332 55.2248 152.085 48.1777 157.088L69.5492 169.698L112.139 113.106C112.139 113.106 101.203 103.828 96.2795 98.0332H96.2667Z" fill="#FFE680"/>
<path opacity="0.8" d="M597.018 197.955C597.018 197.955 541.665 233.258 533.582 235.453L548.725 254.036L606.342 216.934C606.342 216.934 599.538 204.86 597.018 197.955Z" fill="#FFE680"/>
<path d="M277.29 163.916L267.033 225.996H289.786L299.148 163.916H277.29Z" fill="#161616"/>
<path d="M288.097 158.019C294.779 158.019 300.196 152.614 300.196 145.945C300.196 139.277 294.779 133.872 288.097 133.872C281.415 133.872 275.998 139.277 275.998 145.945C275.998 152.614 281.415 158.019 288.097 158.019Z" fill="#161616"/>
<path d="M391.797 143.942L376.514 222.575H400.136C400.136 222.575 405.252 184.618 408.475 178.645C408.475 178.645 426.073 203.175 426.073 222.575H450.617L457.101 147.707L437.648 145.856L432.085 189.761C432.085 189.761 423.925 167.579 416.801 143.942H391.797Z" fill="#161616"/>
<path d="M508.642 138.798C487.053 137.152 483.472 142.678 483.472 142.678L472.256 220.494C472.256 220.494 527.2 225.204 537.905 192.773C547.958 162.308 530.218 140.444 508.642 138.798ZM523.043 183.175C520.754 205.906 490.161 203.264 490.161 203.264L495.725 159.934C510.727 158.223 525.333 160.444 523.043 183.175Z" fill="#161616"/>
<path d="M601.865 358.795C601.865 358.795 567.461 377.25 560.145 354.928L586.696 351.329C591.94 350.614 596.608 347.615 599.422 343.148C603.054 337.379 603.067 330.078 599.499 324.271C594.357 315.911 584.637 306.122 567.883 308.151C539.503 311.585 531.752 339.906 532.187 350.206C532.622 360.505 539.068 388.584 573.306 384.538C601.072 381.258 607.889 371.239 607.889 371.239L601.865 358.795ZM558.598 332.771C557.958 328.1 561.232 323.786 565.913 323.148L566.796 323.033C571.477 322.395 575.8 325.662 576.439 330.333L577.488 337.953L559.646 340.391L558.598 332.771Z" fill="#FFD05C"/>
<path d="M463.764 5.25286L211.799 27.8262L220.896 128.95L472.861 106.376L463.764 5.25286Z" fill="#231815" fill-opacity="0.65"/>
<path d="M457.672 -0.0195952L205.707 22.5537L214.804 123.677L466.769 101.104L457.672 -0.0195952Z" fill="#FFFCF0"/>
<path d="M242.081 96.7057C242.055 98.0458 241.799 99.0031 241.313 99.5646C240.827 100.126 240.009 100.458 238.845 100.573C237.604 100.688 236.645 100.407 235.967 99.7305C235.29 99.0541 234.842 97.9182 234.612 96.2973L233.115 86.0613L233.039 85.27C232.911 83.8533 233.09 82.8195 233.588 82.1813C234.087 81.5432 234.97 81.1603 236.236 81.0454C238.014 80.8923 239.395 82.041 240.393 84.517C240.866 85.755 241.288 86.6867 241.672 87.3121C242.899 89.2904 244.677 90.7326 247.005 91.6643C249.345 92.5832 252.069 92.9151 255.177 92.6343C259.001 92.2897 262.02 91.1155 264.245 89.0989C266.471 87.0824 267.455 84.6701 267.2 81.8623C266.995 79.5266 266.087 77.7143 264.488 76.4252C262.889 75.1361 260.677 74.4086 257.825 74.2555L251.174 73.9619C244.971 73.6556 240.341 72.4431 237.323 70.3245C234.292 68.2186 232.591 65.015 232.207 60.7267C231.798 56.2085 233.333 52.2392 236.799 48.8315C240.265 45.4237 244.805 43.471 250.407 42.9605C252.031 42.8201 253.771 42.8711 255.612 43.1392C257.454 43.4072 259.564 43.8922 261.93 44.6069C261.917 43.739 262.097 43.1264 262.48 42.769C262.864 42.4117 263.567 42.1819 264.565 42.0926C265.869 41.9777 266.79 42.0926 267.327 42.4244C267.865 42.7563 268.261 43.6497 268.504 45.0919L269.962 54.3068L270.001 54.7535C270.09 55.7874 269.873 56.6169 269.323 57.2551C268.786 57.8805 267.98 58.2506 266.918 58.34C265.345 58.4804 264.041 57.4976 262.979 55.3917C262.455 54.192 261.956 53.2986 261.483 52.7115C260.37 51.3203 258.861 50.312 256.955 49.6738C255.049 49.0357 252.926 48.8315 250.586 49.0357C247.005 49.3548 244.178 50.5034 242.094 52.4817C240.022 54.46 239.114 56.8722 239.369 59.7439C239.574 61.9902 240.572 63.6877 242.362 64.8364C244.153 65.985 246.787 66.6487 250.266 66.8146L257.454 67.0699C262.672 67.2869 266.688 68.5121 269.515 70.7456C272.341 72.9792 273.94 76.1955 274.323 80.3945C274.771 85.3593 273.275 89.5073 269.847 92.8385C266.407 96.1696 261.598 98.1096 255.408 98.6712C253.272 98.8627 251.136 98.7988 248.987 98.4798C246.839 98.1607 244.536 97.5864 242.068 96.7312L242.081 96.7057Z" fill="#BC2626"/>
<path d="M298.753 46.6232L292.268 47.2103C290.465 47.3762 289.173 47.2358 288.406 46.8147C287.639 46.3935 287.204 45.6022 287.101 44.4535C286.986 43.241 287.229 42.3731 287.83 41.8626C288.432 41.3521 290.145 40.9564 292.985 40.7011L305.646 39.5652C307.271 39.4248 308.396 39.5397 309.01 39.9098C309.624 40.2927 310.225 41.033 310.801 42.1434L332.07 83.9041L332.824 83.8403C334.423 83.6999 335.536 83.8147 336.175 84.2104C336.815 84.6061 337.173 85.3718 337.275 86.5205C337.377 87.733 337.173 88.5881 336.661 89.0986C336.137 89.6092 335.114 89.9282 333.566 90.0686L321.48 91.1535C319.229 91.3577 317.758 91.2556 317.08 90.8472C316.402 90.4515 316.006 89.6347 315.904 88.4222C315.801 87.2991 316.083 86.4822 316.735 85.9589C317.387 85.4356 318.679 85.091 320.61 84.9124L324.741 84.5422L319.485 74.3828L296.911 76.3994L294.033 87.2991L298.344 86.9162C300.3 86.7375 301.656 86.8524 302.398 87.248C303.152 87.6437 303.574 88.3967 303.677 89.5198C303.779 90.7323 303.536 91.6002 302.948 92.1107C302.347 92.6212 300.978 92.9786 298.817 93.1701L287.127 94.2166C285.234 94.3826 283.955 94.2677 283.29 93.872C282.625 93.4764 282.241 92.6595 282.126 91.4471C282.024 90.2984 282.267 89.4688 282.843 88.971C283.431 88.4733 284.607 88.1414 286.385 87.9883L287.229 87.9117L298.74 46.6104L298.753 46.6232ZM298.599 70.3242L316.773 68.6905L305.109 46.0489L298.599 70.3242Z" fill="#BC2626"/>
<path d="M338.248 43.0881L337.673 43.1392C336.189 43.2668 335.115 43.1264 334.45 42.6925C333.785 42.2586 333.401 41.4672 333.299 40.3186C333.209 39.2848 333.401 38.4679 333.887 37.8681C334.373 37.2682 335.115 36.9364 336.125 36.847L349.593 35.6345C351.345 35.4814 352.534 35.609 353.186 36.0302C353.839 36.4514 354.21 37.2554 354.325 38.4296C354.427 39.5273 354.171 40.3569 353.557 40.9312C352.943 41.5055 351.933 41.8629 350.513 41.9905L345.628 42.4245L364.211 79.7309L375.44 39.757L369.532 40.2803C368.138 40.4079 367.089 40.242 366.373 39.7825C365.656 39.323 365.247 38.5445 365.158 37.4596C365.055 36.2727 365.285 35.4176 365.861 34.8943C366.437 34.3582 367.588 34.0264 369.314 33.8732L383.268 32.6224C384.278 32.5331 385.058 32.7373 385.634 33.2351C386.196 33.7328 386.529 34.4986 386.619 35.5324C386.721 36.6811 386.491 37.5362 385.902 38.0723C385.314 38.6083 384.265 38.9529 382.718 39.0933L382.181 39.1444L369.941 82.3473C369.225 84.6446 368.624 86.0996 368.138 86.6867C367.652 87.2738 366.999 87.6184 366.168 87.695L363.636 87.9248C361.679 88.1034 359.952 86.674 358.456 83.6491L358.341 83.3939L338.235 43.0881H338.248Z" fill="#BC2626"/>
<path d="M399.981 84.1341L397.897 84.3255C396.835 84.4149 396.004 84.2234 395.403 83.7384C394.802 83.2534 394.456 82.4876 394.367 81.4155C394.264 80.2286 394.507 79.399 395.109 78.914C395.71 78.429 397.142 78.0844 399.431 77.8802L402.271 77.6249L398.677 37.6766L395.838 37.9318C393.612 38.136 392.154 38.0339 391.451 37.6383C390.747 37.2426 390.338 36.4385 390.223 35.2261C390.121 34.1284 390.325 33.2988 390.824 32.7373C391.323 32.1757 392.141 31.8311 393.267 31.729L395.262 31.5503L431.955 28.2702C432.966 28.1809 433.759 28.4106 434.321 28.9722C434.897 29.5337 435.23 30.3889 435.332 31.5375L436.278 42.0032C436.419 43.5476 436.278 44.6197 435.895 45.2578C435.511 45.896 434.731 46.2533 433.58 46.3554C432.365 46.4575 431.495 46.215 430.983 45.6024C430.472 44.9898 430.101 43.5476 429.896 41.2757L429.321 34.9325L405.686 37.0512L407.028 51.9967L418.667 50.9501L418.45 48.6017C418.309 47.0064 418.424 45.8832 418.795 45.2195C419.166 44.5558 419.895 44.1857 420.956 44.0836C421.992 43.9943 422.747 44.2623 423.195 44.8877C423.655 45.5131 423.987 46.9298 424.179 49.1123L424.921 57.3572C425.126 59.578 425.036 61.0074 424.678 61.6711C424.32 62.3348 423.604 62.7049 422.542 62.807C421.481 62.9091 420.713 62.6156 420.253 61.9391C419.792 61.2627 419.46 59.9098 419.281 57.8677L419.14 56.3106L407.502 57.3572L409.267 76.9995L432.902 74.8809L432.262 67.6953C432.058 65.4234 432.16 63.9302 432.557 63.241C432.953 62.5518 433.772 62.1561 434.974 62.0412C436.099 61.9391 436.918 62.1689 437.429 62.7304C437.941 63.292 438.273 64.4152 438.427 66.0999L439.437 77.2676C439.527 78.3269 439.335 79.1692 438.862 79.7819C438.376 80.3945 437.647 80.7391 436.675 80.8284L399.981 84.1086V84.1341Z" fill="#BC2626"/>
<path d="M336.915 24.5563C342.269 24.5563 346.61 20.2249 346.61 14.8819C346.61 9.53889 342.269 5.20752 336.915 5.20752C331.561 5.20752 327.221 9.53889 327.221 14.8819C327.221 20.2249 331.561 24.5563 336.915 24.5563Z" fill="#9B1F1F"/>
<path d="M339.552 19.8466C343.875 19.8466 347.379 16.3495 347.379 12.0356C347.379 7.72171 343.875 4.22461 339.552 4.22461C335.229 4.22461 331.725 7.72171 331.725 12.0356C331.725 16.3495 335.229 19.8466 339.552 19.8466Z" fill="#BC2626"/>
<path d="M120.451 141.797L128.457 227.488L155.405 222.715L143.843 178.287L165.228 174.879L164.32 160.572L143.127 162.933L142.513 153.233L169.653 147.413L168.617 131.051L120.451 141.797Z" fill="#73D2B2" stroke="#231815" stroke-width="2.13289" stroke-miterlimit="10"/>
<path d="M214.315 179.768C214.315 179.768 215.146 179.474 215.185 179.474C217.384 179.193 247.325 171.561 246.084 152.187C244.844 132.812 199.031 138.364 199.031 138.364L177.967 220.737H205.477L210.184 196.143C210.452 194.739 212.371 194.535 212.934 195.849C215.798 202.601 220.953 215.466 220.953 220.724H245.458C245.458 220.724 251.865 186.43 214.315 179.768ZM206.347 165.818L211.719 149.519C211.719 149.519 228.268 148.23 225.263 157.675C222.257 167.107 206.347 165.83 206.347 165.83V165.818Z" fill="#FFD447" stroke="#161616" stroke-width="2.13289" stroke-linecap="round" stroke-linejoin="round"/>
<path d="M272.802 161.567L262.545 223.647H285.298L294.672 161.567H272.802Z" fill="#F9C3D3" stroke="#231815" stroke-width="2.13289" stroke-miterlimit="10"/>
<path d="M283.622 155.671C290.304 155.671 295.721 150.265 295.721 143.597C295.721 136.929 290.304 131.523 283.622 131.523C276.94 131.523 271.523 136.929 271.523 143.597C271.523 150.265 276.94 155.671 283.622 155.671Z" fill="#F9C3D3" stroke="#231815" stroke-width="2.13289" stroke-miterlimit="10"/>
<path d="M363.071 183.533C363.071 183.533 355.014 202.984 343.58 206.328C332.159 209.684 327.784 199.959 328.462 186.213C328.462 186.213 366.639 176.501 371.128 163.75C375.349 151.778 368.276 141.019 356.101 138.581C342.403 135.85 326.774 140.866 317.566 151.332C307.385 162.908 304.111 180.674 308.293 195.326C309.048 197.968 309.956 200.584 311.324 202.971C320.546 219.027 339.449 220.699 352.456 214.215C361.357 209.774 370.758 199.895 376.5 191.242C376.5 191.242 372.586 185.345 363.058 183.533H363.071ZM346.854 147.835C349.361 147.082 358.237 148.269 355.487 160.738C353.338 170.476 339.768 173.833 333.911 174.829C332.772 175.02 331.89 173.846 332.402 172.812C335.791 165.984 344.795 148.447 346.841 147.822L346.854 147.835Z" fill="#A1CFE6" stroke="#231815" stroke-width="2.13289" stroke-miterlimit="10"/>
<path d="M397.565 140.98L382.281 219.614H405.904C405.904 219.614 411.02 181.656 414.243 175.683C414.243 175.683 431.841 200.214 431.841 219.614H456.384L462.869 144.746L443.416 142.895L437.852 186.8C437.852 186.8 429.692 164.618 422.569 140.98H397.565Z" fill="#F07063" stroke="#161616" stroke-width="2.13289" stroke-linecap="round" stroke-linejoin="round"/>
<path d="M506.521 132.825C488.5 132.136 481.146 137.497 481.146 137.497L469.93 215.313C469.93 215.313 524.874 220.023 535.579 187.592C545.631 157.126 530.463 133.744 506.508 132.825H506.521ZM520.73 177.981C518.441 200.712 487.848 198.07 487.848 198.07L493.411 154.74C508.414 153.029 523.019 155.25 520.73 177.981Z" fill="#FFCEDD" stroke="#231815" stroke-width="2.13289" stroke-miterlimit="10"/>
</g>
<defs>
<clipPath id="clip0_191_576">
<rect width="642" height="428.711" fill="white"/>
</clipPath>
</defs>
</svg>
