<svg width="448" height="691" viewBox="0 0 448 691" fill="none" xmlns="http://www.w3.org/2000/svg">
<g filter="url(#filter0_d_607_4530)">
<mask id="path-1-inside-1_607_4530" fill="white">
<path d="M10 24C10 10.7452 20.7452 0 34 0H397V51H10V24Z"/>
</mask>
<path d="M10 24C10 10.7452 20.7452 0 34 0H397V51H10V24Z" fill="white"/>
<path d="M5 24C5 7.98374 17.9837 -5 34 -5H397V5H34C23.5066 5 15 13.5066 15 24H5ZM397 51H10H397ZM5 51V24C5 7.98374 17.9837 -5 34 -5V5C23.5066 5 15 13.5066 15 24V51H5ZM397 0V51V0Z" fill="black" mask="url(#path-1-inside-1_607_4530)"/>
<path d="M48.0898 33.4062C48.3555 33.4062 48.543 33.4688 48.6523 33.5938C48.7695 33.7109 48.8281 33.9141 48.8281 34.2031C48.8281 34.4922 48.7695 34.6992 48.6523 34.8242C48.543 34.9414 48.3555 35 48.0898 35H46.3438C46.0781 35 45.8867 34.9414 45.7695 34.8242C45.6602 34.6992 45.6055 34.4922 45.6055 34.2031V27.2656C45.6055 26.7266 45.5156 26.3242 45.3359 26.0586C45.1641 25.7852 44.8828 25.6484 44.4922 25.6484C44.125 25.6484 43.7852 25.8203 43.4727 26.1641C43.1602 26.5 42.9102 26.9727 42.7227 27.582C42.543 28.1836 42.4531 28.8711 42.4531 29.6445V33.4062H43.1211C43.3867 33.4062 43.5742 33.4688 43.6836 33.5938C43.8008 33.7109 43.8594 33.9141 43.8594 34.2031C43.8594 34.4922 43.8008 34.6992 43.6836 34.8242C43.5742 34.9414 43.3867 35 43.1211 35H41.4336C41.168 35 40.9766 34.9414 40.8594 34.8242C40.75 34.6992 40.6953 34.4922 40.6953 34.2031V27.2656C40.6953 26.7266 40.6055 26.3242 40.4258 26.0586C40.2539 25.7852 39.9727 25.6484 39.582 25.6484C39.2148 25.6484 38.875 25.8203 38.5625 26.1641C38.25 26.5 38 26.9727 37.8125 27.582C37.6328 28.1836 37.543 28.8711 37.543 29.6445V33.4062H38.1523C38.418 33.4062 38.6055 33.4688 38.7148 33.5938C38.832 33.7109 38.8906 33.9141 38.8906 34.2031C38.8906 34.4922 38.832 34.6992 38.7148 34.8242C38.6055 34.9414 38.418 35 38.1523 35H34.8242C34.5586 35 34.3672 34.9414 34.25 34.8242C34.1406 34.6992 34.0859 34.4922 34.0859 34.2031C34.0859 33.9141 34.1406 33.7109 34.25 33.5938C34.3672 33.4688 34.5586 33.4062 34.8242 33.4062H35.7852V25.7656H34.8242C34.5586 25.7656 34.3672 25.707 34.25 25.5898C34.1406 25.4648 34.0859 25.2578 34.0859 24.9688C34.0859 24.6797 34.1406 24.4766 34.25 24.3594C34.3672 24.2344 34.5586 24.1719 34.8242 24.1719H36.5703C36.8359 24.1719 37.0234 24.2344 37.1328 24.3594C37.25 24.4766 37.3086 24.6797 37.3086 24.9688V26.1289C37.6445 25.3945 38.0469 24.8438 38.5156 24.4766C38.9844 24.1016 39.4922 23.9141 40.0391 23.9141C40.5703 23.9141 41.0352 24.0938 41.4336 24.4531C41.832 24.8125 42.1016 25.3398 42.2422 26.0352C42.9375 24.6211 43.8359 23.9141 44.9375 23.9141C45.3984 23.9141 45.8086 24.0312 46.168 24.2656C46.5352 24.4922 46.8242 24.8438 47.0352 25.3203C47.2539 25.7891 47.3633 26.3672 47.3633 27.0547V33.4062H48.0898ZM55.8242 23.9141C56.957 23.9141 57.9219 24.1445 58.7188 24.6055C59.5234 25.0586 60.1406 25.6914 60.5703 26.5039C61 27.3086 61.2461 28.2383 61.3086 29.293C61.3086 29.5586 61.25 29.7461 61.1328 29.8555C61.0234 29.9648 60.8359 30.0195 60.5703 30.0195H52.0859C52.1406 31.1836 52.4844 32.0664 53.1172 32.668C53.7578 33.2617 54.6602 33.5586 55.8242 33.5586C56.543 33.5586 57.2539 33.4688 57.957 33.2891C58.6602 33.1016 59.2773 32.8555 59.8086 32.5508C59.9414 32.4805 60.0625 32.4453 60.1719 32.4453C60.4453 32.4453 60.668 32.6523 60.8398 33.0664C60.9102 33.2305 60.9453 33.3789 60.9453 33.5117C60.9453 33.8242 60.7734 34.0664 60.4297 34.2383C59.8281 34.543 59.1172 34.7891 58.2969 34.9766C57.4766 35.1641 56.6523 35.2578 55.8242 35.2578C54.6445 35.2578 53.6367 35.0312 52.8008 34.5781C51.9648 34.125 51.3281 33.4727 50.8906 32.6211C50.4531 31.7695 50.2344 30.7578 50.2344 29.5859C50.2344 28.4688 50.4727 27.4805 50.9492 26.6211C51.4258 25.7617 52.0859 25.0977 52.9297 24.6289C53.7734 24.1523 54.7383 23.9141 55.8242 23.9141ZM55.8242 25.6133C54.8633 25.6133 54.0664 25.8594 53.4336 26.3516C52.8086 26.8359 52.3984 27.5117 52.2031 28.3789H59.3633C59.1992 27.4805 58.8203 26.7969 58.2266 26.3281C57.6406 25.8516 56.8398 25.6133 55.8242 25.6133ZM73.8008 23.9141C74.1211 23.9141 74.3477 23.9727 74.4805 24.0898C74.6133 24.207 74.6797 24.4023 74.6797 24.6758V26.9023C74.6797 27.1758 74.6133 27.3711 74.4805 27.4883C74.3477 27.6055 74.1211 27.6641 73.8008 27.6641C73.5352 27.6641 73.3477 27.5625 73.2383 27.3594C72.9023 26.7188 72.4141 26.2695 71.7734 26.0117C71.1328 25.7461 70.3203 25.6133 69.3359 25.6133C68.5781 25.6133 67.9844 25.75 67.5547 26.0234C67.1328 26.2891 66.9219 26.6641 66.9219 27.1484C66.9219 27.3984 67 27.6016 67.1562 27.7578C67.3203 27.9141 67.5586 28.043 67.8711 28.1445C68.1289 28.2305 68.4258 28.2969 68.7617 28.3438C69.1055 28.3906 69.5469 28.4414 70.0859 28.4961C70.8438 28.582 71.4531 28.6641 71.9141 28.7422C72.3828 28.8125 72.8242 28.9219 73.2383 29.0703C73.8633 29.2969 74.3477 29.625 74.6914 30.0547C75.043 30.4844 75.2188 31.0508 75.2188 31.7539C75.2188 32.457 75.0391 33.0742 74.6797 33.6055C74.3281 34.1289 73.8086 34.5352 73.1211 34.8242C72.4414 35.1133 71.625 35.2578 70.6719 35.2578C69.8281 35.2578 69.0859 35.1406 68.4453 34.9062C67.8047 34.6719 67.2461 34.3164 66.7695 33.8398V34.4961C66.7695 34.7695 66.7031 34.9648 66.5703 35.082C66.4375 35.1992 66.2109 35.2578 65.8906 35.2578C65.5703 35.2578 65.3438 35.1992 65.2109 35.082C65.0781 34.9648 65.0117 34.7695 65.0117 34.4961V31.6836C65.0117 31.4102 65.0781 31.2148 65.2109 31.0977C65.3438 30.9805 65.5703 30.9219 65.8906 30.9219C66.0547 30.9219 66.1836 30.9609 66.2773 31.0391C66.3711 31.1094 66.4531 31.2305 66.5234 31.4023C66.8047 32.1523 67.2734 32.6992 67.9297 33.043C68.5859 33.3867 69.4609 33.5586 70.5547 33.5586C71.4609 33.5586 72.1562 33.3945 72.6406 33.0664C73.125 32.7383 73.3672 32.3008 73.3672 31.7539C73.3672 31.4883 73.2812 31.2695 73.1094 31.0977C72.9375 30.9258 72.6914 30.7852 72.3711 30.6758C72.0977 30.5898 71.7812 30.5195 71.4219 30.4648C71.0703 30.4023 70.6211 30.3438 70.0742 30.2891C69.3398 30.2109 68.7266 30.1289 68.2344 30.043C67.7422 29.957 67.2891 29.832 66.875 29.668C66.3047 29.4414 65.8594 29.1289 65.5391 28.7305C65.2266 28.3242 65.0703 27.7969 65.0703 27.1484C65.0703 26.4688 65.2461 25.8867 65.5977 25.4023C65.957 24.9102 66.4492 24.5391 67.0742 24.2891C67.707 24.0391 68.4219 23.9141 69.2188 23.9141C69.9766 23.9141 70.668 24.0273 71.293 24.2539C71.9258 24.4805 72.4688 24.7969 72.9219 25.2031V24.6758C72.9219 24.4023 72.9883 24.207 73.1211 24.0898C73.2539 23.9727 73.4805 23.9141 73.8008 23.9141ZM88.1914 23.9141C88.5117 23.9141 88.7383 23.9727 88.8711 24.0898C89.0039 24.207 89.0703 24.4023 89.0703 24.6758V26.9023C89.0703 27.1758 89.0039 27.3711 88.8711 27.4883C88.7383 27.6055 88.5117 27.6641 88.1914 27.6641C87.9258 27.6641 87.7383 27.5625 87.6289 27.3594C87.293 26.7188 86.8047 26.2695 86.1641 26.0117C85.5234 25.7461 84.7109 25.6133 83.7266 25.6133C82.9688 25.6133 82.375 25.75 81.9453 26.0234C81.5234 26.2891 81.3125 26.6641 81.3125 27.1484C81.3125 27.3984 81.3906 27.6016 81.5469 27.7578C81.7109 27.9141 81.9492 28.043 82.2617 28.1445C82.5195 28.2305 82.8164 28.2969 83.1523 28.3438C83.4961 28.3906 83.9375 28.4414 84.4766 28.4961C85.2344 28.582 85.8438 28.6641 86.3047 28.7422C86.7734 28.8125 87.2148 28.9219 87.6289 29.0703C88.2539 29.2969 88.7383 29.625 89.082 30.0547C89.4336 30.4844 89.6094 31.0508 89.6094 31.7539C89.6094 32.457 89.4297 33.0742 89.0703 33.6055C88.7188 34.1289 88.1992 34.5352 87.5117 34.8242C86.832 35.1133 86.0156 35.2578 85.0625 35.2578C84.2188 35.2578 83.4766 35.1406 82.8359 34.9062C82.1953 34.6719 81.6367 34.3164 81.1602 33.8398V34.4961C81.1602 34.7695 81.0938 34.9648 80.9609 35.082C80.8281 35.1992 80.6016 35.2578 80.2812 35.2578C79.9609 35.2578 79.7344 35.1992 79.6016 35.082C79.4688 34.9648 79.4023 34.7695 79.4023 34.4961V31.6836C79.4023 31.4102 79.4688 31.2148 79.6016 31.0977C79.7344 30.9805 79.9609 30.9219 80.2812 30.9219C80.4453 30.9219 80.5742 30.9609 80.668 31.0391C80.7617 31.1094 80.8438 31.2305 80.9141 31.4023C81.1953 32.1523 81.6641 32.6992 82.3203 33.043C82.9766 33.3867 83.8516 33.5586 84.9453 33.5586C85.8516 33.5586 86.5469 33.3945 87.0312 33.0664C87.5156 32.7383 87.7578 32.3008 87.7578 31.7539C87.7578 31.4883 87.6719 31.2695 87.5 31.0977C87.3281 30.9258 87.082 30.7852 86.7617 30.6758C86.4883 30.5898 86.1719 30.5195 85.8125 30.4648C85.4609 30.4023 85.0117 30.3438 84.4648 30.2891C83.7305 30.2109 83.1172 30.1289 82.625 30.043C82.1328 29.957 81.6797 29.832 81.2656 29.668C80.6953 29.4414 80.25 29.1289 79.9297 28.7305C79.6172 28.3242 79.4609 27.7969 79.4609 27.1484C79.4609 26.4688 79.6367 25.8867 79.9883 25.4023C80.3477 24.9102 80.8398 24.5391 81.4648 24.2891C82.0977 24.0391 82.8125 23.9141 83.6094 23.9141C84.3672 23.9141 85.0586 24.0273 85.6836 24.2539C86.3164 24.4805 86.8594 24.7969 87.3125 25.2031V24.6758C87.3125 24.4023 87.3789 24.207 87.5117 24.0898C87.6445 23.9727 87.8711 23.9141 88.1914 23.9141ZM98.9375 23.9141C100.406 23.9141 101.508 24.2422 102.242 24.8984C102.977 25.5547 103.344 26.5273 103.344 27.8164V32.4805C103.344 33.0977 103.602 33.4062 104.117 33.4062H104.527C104.793 33.4062 104.98 33.4688 105.09 33.5938C105.207 33.7109 105.266 33.9141 105.266 34.2031C105.266 34.4922 105.207 34.6992 105.09 34.8242C104.98 34.9414 104.793 35 104.527 35H103.777C103.27 35 102.832 34.875 102.465 34.625C102.105 34.3672 101.871 33.9922 101.762 33.5C101.121 34.0625 100.426 34.4961 99.6758 34.8008C98.9336 35.1055 98.1445 35.2578 97.3086 35.2578C96.5195 35.2578 95.8203 35.125 95.2109 34.8594C94.6094 34.5859 94.1367 34.1914 93.793 33.6758C93.4492 33.1602 93.2773 32.5469 93.2773 31.8359C93.2773 30.6016 93.7188 29.6914 94.6016 29.1055C95.4844 28.5117 96.625 28.2148 98.0234 28.2148C99.2656 28.2148 100.453 28.4141 101.586 28.8125V27.8164C101.586 27.0586 101.371 26.5039 100.941 26.1523C100.52 25.793 99.8359 25.6133 98.8906 25.6133C98.3047 25.6133 97.6953 25.6953 97.0625 25.8594C96.4297 26.0234 95.8281 26.25 95.2578 26.5391C95.125 26.6094 95.0039 26.6445 94.8945 26.6445C94.6367 26.6445 94.4219 26.457 94.25 26.082C94.1641 25.8945 94.1211 25.7383 94.1211 25.6133C94.1211 25.3398 94.2656 25.1289 94.5547 24.9805C95.2109 24.6367 95.9141 24.375 96.6641 24.1953C97.4219 24.0078 98.1797 23.9141 98.9375 23.9141ZM98.0352 29.8672C97.1367 29.8672 96.4258 30.0234 95.9023 30.3359C95.3867 30.6406 95.1289 31.1289 95.1289 31.8008C95.1289 32.3711 95.3242 32.8164 95.7148 33.1367C96.1133 33.4492 96.668 33.6055 97.3789 33.6055C98.9336 33.6055 100.336 32.9609 101.586 31.6719V30.3945C101.055 30.2227 100.484 30.0938 99.875 30.0078C99.2656 29.9141 98.6523 29.8672 98.0352 29.8672ZM112.637 23.9141C113.402 23.9141 114.109 24.0859 114.758 24.4297C115.406 24.7734 115.977 25.2656 116.469 25.9062V24.9688C116.469 24.6797 116.523 24.4766 116.633 24.3594C116.75 24.2344 116.941 24.1719 117.207 24.1719H119.07C119.336 24.1719 119.523 24.2344 119.633 24.3594C119.75 24.4766 119.809 24.6797 119.809 24.9688C119.809 25.2578 119.75 25.4648 119.633 25.5898C119.523 25.707 119.336 25.7656 119.07 25.7656H118.109V35.3516C118.109 36.2812 117.91 37.0781 117.512 37.7422C117.121 38.4141 116.551 38.9258 115.801 39.2773C115.051 39.6289 114.148 39.8047 113.094 39.8047C112.344 39.8047 111.586 39.7383 110.82 39.6055C110.055 39.4805 109.34 39.2969 108.676 39.0547C108.371 38.9453 108.219 38.7383 108.219 38.4336C108.219 38.3086 108.25 38.1523 108.312 37.9648C108.453 37.5352 108.676 37.3203 108.98 37.3203C109.066 37.3203 109.152 37.3359 109.238 37.3672C109.848 37.5859 110.488 37.7578 111.16 37.8828C111.832 38.0078 112.477 38.0703 113.094 38.0703C114.172 38.0703 114.984 37.8125 115.531 37.2969C116.078 36.7891 116.352 36.0898 116.352 35.1992V32.8438C115.383 34.0625 114.145 34.6719 112.637 34.6719C111.668 34.6719 110.801 34.457 110.035 34.0273C109.27 33.5898 108.668 32.9648 108.23 32.1523C107.793 31.3398 107.574 30.3867 107.574 29.293C107.574 28.1992 107.793 27.2461 108.23 26.4336C108.668 25.6211 109.27 25 110.035 24.5703C110.801 24.1328 111.668 23.9141 112.637 23.9141ZM112.754 25.6484C112.059 25.6484 111.461 25.8047 110.961 26.1172C110.461 26.4219 110.078 26.8516 109.812 27.4062C109.555 27.9531 109.426 28.582 109.426 29.293C109.426 30.0039 109.555 30.6367 109.812 31.1914C110.078 31.7383 110.461 32.168 110.961 32.4805C111.461 32.7852 112.059 32.9375 112.754 32.9375C113.449 32.9375 114.066 32.793 114.605 32.5039C115.152 32.2148 115.578 31.7969 115.883 31.25C116.195 30.6953 116.352 30.043 116.352 29.293C116.352 28.543 116.195 27.8945 115.883 27.3477C115.578 26.793 115.152 26.3711 114.605 26.082C114.066 25.793 113.449 25.6484 112.754 25.6484ZM127.777 23.9141C128.91 23.9141 129.875 24.1445 130.672 24.6055C131.477 25.0586 132.094 25.6914 132.523 26.5039C132.953 27.3086 133.199 28.2383 133.262 29.293C133.262 29.5586 133.203 29.7461 133.086 29.8555C132.977 29.9648 132.789 30.0195 132.523 30.0195H124.039C124.094 31.1836 124.438 32.0664 125.07 32.668C125.711 33.2617 126.613 33.5586 127.777 33.5586C128.496 33.5586 129.207 33.4688 129.91 33.2891C130.613 33.1016 131.23 32.8555 131.762 32.5508C131.895 32.4805 132.016 32.4453 132.125 32.4453C132.398 32.4453 132.621 32.6523 132.793 33.0664C132.863 33.2305 132.898 33.3789 132.898 33.5117C132.898 33.8242 132.727 34.0664 132.383 34.2383C131.781 34.543 131.07 34.7891 130.25 34.9766C129.43 35.1641 128.605 35.2578 127.777 35.2578C126.598 35.2578 125.59 35.0312 124.754 34.5781C123.918 34.125 123.281 33.4727 122.844 32.6211C122.406 31.7695 122.188 30.7578 122.188 29.5859C122.188 28.4688 122.426 27.4805 122.902 26.6211C123.379 25.7617 124.039 25.0977 124.883 24.6289C125.727 24.1523 126.691 23.9141 127.777 23.9141ZM127.777 25.6133C126.816 25.6133 126.02 25.8594 125.387 26.3516C124.762 26.8359 124.352 27.5117 124.156 28.3789H131.316C131.152 27.4805 130.773 26.7969 130.18 26.3281C129.594 25.8516 128.793 25.6133 127.777 25.6133Z" fill="black"/>
<mask id="path-4-inside-2_607_4530" fill="white">
<path d="M397 0H424C437.255 0 448 10.7452 448 24V51H397V0Z"/>
</mask>
<path d="M397 0H424C437.255 0 448 10.7452 448 24V51H397V0Z" fill="white"/>
<path d="M395 -5H424C440.016 -5 453 7.98374 453 24H443C443 13.5066 434.493 5 424 5H399L395 -5ZM448 51H397H448ZM395 51V-5L399 5V51H395ZM424 -5C440.016 -5 453 7.98374 453 24V51H443V24C443 13.5066 434.493 5 424 5V-5Z" fill="black" mask="url(#path-4-inside-2_607_4530)"/>
<g filter="url(#filter1_d_607_4530)">
<path d="M415 20.0625C416.862 21.0386 420.797 24.4084 424.756 28.16C425.768 29.1201 426.585 29.8862 427.258 30.5075C427.932 31.1287 428.436 31.582 430 33.1833" stroke="black" stroke-width="2" stroke-linecap="round"/>
<path d="M416.388 34.0195C416.409 33.7527 416.872 32.5403 418.647 29.7894C419.975 27.7325 422.276 24.4044 423.548 22.5592C425.638 19.7537 426.677 18.5309 427.022 17.8029C427.131 17.573 427.282 17.2964 427.548 16.9766" stroke="black" stroke-width="3" stroke-linecap="round"/>
</g>
<mask id="path-8-inside-3_607_4530" fill="white">
<path d="M10 51H448V679H10V51Z"/>
</mask>
<path d="M10 51H448V679H10V51Z" fill="white"/>
<path d="M10 51V49H5V51H10ZM448 51H453V49H448V51ZM448 679V684H453V679H448ZM10 679H5V684H10V679ZM10 51V53H448V51V49H10V51ZM448 51H443V679H448H453V51H448ZM448 679V674H10V679V684H448V679ZM10 679H15V51H10H5V679H10Z" fill="black" mask="url(#path-8-inside-3_607_4530)"/>
<g clip-path="url(#clip0_607_4530)">
<g filter="url(#filter2_d_607_4530)">
<mask id="path-10-inside-4_607_4530" fill="white">
<path d="M196 129C196 115.745 206.745 105 220 105H408V135C408 148.255 397.255 159 384 159H212C203.163 159 196 151.837 196 143V129Z"/>
</mask>
<path d="M196 129C196 115.745 206.745 105 220 105H408V135C408 148.255 397.255 159 384 159H212C203.163 159 196 151.837 196 143V129Z" fill="#85C37A" shape-rendering="crispEdges"/>
<path d="M408 105H410V103H408V105ZM220 105V107H408V105V103H220V105ZM408 105H406V135H408H410V105H408ZM384 159V157H212V159V161H384V159ZM196 143H198V129H196H194V143H196ZM212 159V157C204.268 157 198 150.732 198 143H196H194C194 152.941 202.059 161 212 161V159ZM408 135H406C406 147.15 396.15 157 384 157V159V161C398.359 161 410 149.359 410 135H408ZM220 105V103C205.641 103 194 114.641 194 129H196H198C198 116.85 207.85 107 220 107V105Z" fill="black" mask="url(#path-10-inside-4_607_4530)"/>
<path d="M218.289 124.408C219.051 124.408 219.699 124.538 220.232 124.799C220.766 125.059 221.167 125.427 221.434 125.902C221.707 126.371 221.844 126.921 221.844 127.553C221.844 128.048 221.73 128.487 221.502 128.871C221.281 129.249 220.962 129.558 220.545 129.799C221.235 130.02 221.762 130.378 222.127 130.873C222.498 131.361 222.684 131.967 222.684 132.689C222.684 133.373 222.537 133.962 222.244 134.457C221.951 134.952 221.525 135.333 220.965 135.6C220.405 135.867 219.728 136 218.934 136H213.396C213.175 136 213.016 135.951 212.918 135.854C212.827 135.749 212.781 135.577 212.781 135.336C212.781 135.095 212.827 134.926 212.918 134.828C213.016 134.724 213.175 134.672 213.396 134.672H214.588V125.736H213.396C213.175 125.736 213.016 125.688 212.918 125.59C212.827 125.486 212.781 125.313 212.781 125.072C212.781 124.831 212.827 124.662 212.918 124.564C213.016 124.46 213.175 124.408 213.396 124.408H218.289ZM216.053 129.35H218.074C218.823 129.35 219.389 129.193 219.773 128.881C220.158 128.568 220.35 128.126 220.35 127.553C220.35 126.954 220.161 126.501 219.783 126.195C219.406 125.889 218.836 125.736 218.074 125.736H216.053V129.35ZM216.053 134.672H218.641C219.441 134.672 220.057 134.499 220.486 134.154C220.923 133.809 221.141 133.321 221.141 132.689C221.141 131.348 220.324 130.678 218.689 130.678H216.053V134.672ZM229.988 126.762C230.88 126.762 231.684 126.964 232.4 127.367C233.117 127.771 233.676 128.334 234.08 129.057C234.49 129.773 234.695 130.583 234.695 131.488C234.695 132.393 234.49 133.207 234.08 133.93C233.676 134.646 233.117 135.206 232.4 135.609C231.684 136.013 230.88 136.215 229.988 136.215C229.096 136.215 228.292 136.013 227.576 135.609C226.86 135.206 226.297 134.646 225.887 133.93C225.483 133.207 225.281 132.393 225.281 131.488C225.281 130.583 225.483 129.773 225.887 129.057C226.297 128.334 226.86 127.771 227.576 127.367C228.292 126.964 229.096 126.762 229.988 126.762ZM229.988 128.207C229.357 128.207 228.8 128.347 228.318 128.627C227.843 128.9 227.475 129.288 227.215 129.789C226.954 130.284 226.824 130.85 226.824 131.488C226.824 132.126 226.954 132.696 227.215 133.197C227.475 133.692 227.843 134.079 228.318 134.359C228.8 134.633 229.357 134.77 229.988 134.77C230.62 134.77 231.173 134.633 231.648 134.359C232.13 134.079 232.501 133.692 232.762 133.197C233.022 132.696 233.152 132.126 233.152 131.488C233.152 130.85 233.022 130.284 232.762 129.789C232.501 129.288 232.13 128.9 231.648 128.627C231.173 128.347 230.62 128.207 229.988 128.207ZM243.084 126.762C243.676 126.762 244.191 126.892 244.627 127.152C245.063 127.406 245.398 127.774 245.633 128.256C245.867 128.738 245.984 129.301 245.984 129.945V134.672H246.785C247.007 134.672 247.163 134.724 247.254 134.828C247.352 134.926 247.4 135.095 247.4 135.336C247.4 135.577 247.352 135.749 247.254 135.854C247.163 135.951 247.007 136 246.785 136H243.621C243.4 136 243.24 135.951 243.143 135.854C243.051 135.749 243.006 135.577 243.006 135.336C243.006 135.095 243.051 134.926 243.143 134.828C243.24 134.724 243.4 134.672 243.621 134.672H244.52V130.092C244.52 129.512 244.386 129.053 244.119 128.715C243.852 128.376 243.458 128.207 242.938 128.207C242.384 128.207 241.867 128.367 241.385 128.686C240.91 129.005 240.529 129.444 240.242 130.004C239.956 130.564 239.812 131.189 239.812 131.879V134.672H240.711C240.932 134.672 241.089 134.724 241.18 134.828C241.277 134.926 241.326 135.095 241.326 135.336C241.326 135.577 241.277 135.749 241.18 135.854C241.089 135.951 240.932 136 240.711 136H237.547C237.326 136 237.166 135.951 237.068 135.854C236.977 135.749 236.932 135.577 236.932 135.336C236.932 135.095 236.977 134.926 237.068 134.828C237.166 134.724 237.326 134.672 237.547 134.672H238.348V128.305H237.352C237.13 128.305 236.971 128.256 236.873 128.158C236.782 128.054 236.736 127.882 236.736 127.641C236.736 127.4 236.782 127.23 236.873 127.133C236.971 127.029 237.13 126.977 237.352 126.977H239.1C239.321 126.977 239.477 127.029 239.568 127.133C239.666 127.23 239.715 127.4 239.715 127.641V128.812C240.145 128.148 240.646 127.641 241.219 127.289C241.798 126.938 242.42 126.762 243.084 126.762ZM256.18 126.977C256.401 126.977 256.557 127.029 256.648 127.133C256.746 127.23 256.795 127.4 256.795 127.641V136.557C256.795 137.702 256.538 138.562 256.023 139.135C255.516 139.714 254.708 140.004 253.602 140.004C253.061 140.004 252.479 139.9 251.854 139.691C251.229 139.49 250.662 139.229 250.154 138.91C249.939 138.78 249.832 138.611 249.832 138.402C249.832 138.279 249.874 138.132 249.959 137.963C250.115 137.663 250.304 137.514 250.525 137.514C250.636 137.514 250.737 137.546 250.828 137.611C251.277 137.904 251.743 138.139 252.225 138.314C252.706 138.49 253.165 138.578 253.602 138.578C254.24 138.578 254.686 138.406 254.939 138.061C255.2 137.715 255.33 137.172 255.33 136.43V128.305H251.199C250.978 128.305 250.818 128.256 250.721 128.158C250.63 128.054 250.584 127.882 250.584 127.641C250.584 127.4 250.63 127.23 250.721 127.133C250.818 127.029 250.978 126.977 251.199 126.977H256.18ZM255.867 122.689C256.225 122.689 256.469 122.738 256.6 122.836C256.73 122.927 256.795 123.09 256.795 123.324V124.594C256.795 124.828 256.73 124.994 256.6 125.092C256.469 125.183 256.225 125.229 255.867 125.229C255.509 125.229 255.265 125.183 255.135 125.092C255.005 124.994 254.939 124.828 254.939 124.594V123.324C254.939 123.09 255.005 122.927 255.135 122.836C255.265 122.738 255.509 122.689 255.867 122.689ZM265.965 126.762C266.857 126.762 267.661 126.964 268.377 127.367C269.093 127.771 269.653 128.334 270.057 129.057C270.467 129.773 270.672 130.583 270.672 131.488C270.672 132.393 270.467 133.207 270.057 133.93C269.653 134.646 269.093 135.206 268.377 135.609C267.661 136.013 266.857 136.215 265.965 136.215C265.073 136.215 264.269 136.013 263.553 135.609C262.837 135.206 262.273 134.646 261.863 133.93C261.46 133.207 261.258 132.393 261.258 131.488C261.258 130.583 261.46 129.773 261.863 129.057C262.273 128.334 262.837 127.771 263.553 127.367C264.269 126.964 265.073 126.762 265.965 126.762ZM265.965 128.207C265.333 128.207 264.777 128.347 264.295 128.627C263.82 128.9 263.452 129.288 263.191 129.789C262.931 130.284 262.801 130.85 262.801 131.488C262.801 132.126 262.931 132.696 263.191 133.197C263.452 133.692 263.82 134.079 264.295 134.359C264.777 134.633 265.333 134.77 265.965 134.77C266.596 134.77 267.15 134.633 267.625 134.359C268.107 134.079 268.478 133.692 268.738 133.197C268.999 132.696 269.129 132.126 269.129 131.488C269.129 130.85 268.999 130.284 268.738 129.789C268.478 129.288 268.107 128.9 267.625 128.627C267.15 128.347 266.596 128.207 265.965 128.207ZM281.102 126.977C281.323 126.977 281.479 127.029 281.57 127.133C281.668 127.23 281.717 127.4 281.717 127.641V134.672H282.518C282.739 134.672 282.895 134.724 282.986 134.828C283.084 134.926 283.133 135.095 283.133 135.336C283.133 135.577 283.084 135.749 282.986 135.854C282.895 135.951 282.739 136 282.518 136H280.965C280.743 136 280.584 135.951 280.486 135.854C280.395 135.756 280.35 135.587 280.35 135.346V134.164C279.92 134.828 279.415 135.336 278.836 135.688C278.263 136.039 277.645 136.215 276.98 136.215C276.388 136.215 275.874 136.088 275.438 135.834C275.001 135.574 274.666 135.202 274.432 134.721C274.197 134.239 274.08 133.676 274.08 133.031V128.305H273.279C273.058 128.305 272.898 128.256 272.801 128.158C272.71 128.054 272.664 127.882 272.664 127.641C272.664 127.4 272.71 127.23 272.801 127.133C272.898 127.029 273.058 126.977 273.279 126.977H274.93C275.151 126.977 275.307 127.029 275.398 127.133C275.496 127.23 275.545 127.4 275.545 127.641V132.885C275.545 133.464 275.678 133.923 275.945 134.262C276.212 134.6 276.606 134.77 277.127 134.77C277.68 134.77 278.195 134.61 278.67 134.291C279.152 133.972 279.536 133.533 279.822 132.973C280.109 132.413 280.252 131.788 280.252 131.098V128.305H278.865C278.644 128.305 278.484 128.256 278.387 128.158C278.296 128.054 278.25 127.882 278.25 127.641C278.25 127.4 278.296 127.23 278.387 127.133C278.484 127.029 278.644 126.977 278.865 126.977H281.102ZM292.938 126.762C293.445 126.762 293.921 126.892 294.363 127.152C294.624 127.309 294.754 127.51 294.754 127.758C294.754 127.875 294.725 128.012 294.666 128.168C294.529 128.539 294.34 128.725 294.1 128.725C294.002 128.725 293.911 128.699 293.826 128.646C293.507 128.471 293.165 128.383 292.801 128.383C292.215 128.383 291.626 128.588 291.033 128.998C290.441 129.402 289.952 129.942 289.568 130.619C289.191 131.296 289.002 132.016 289.002 132.777V134.672H292.293C292.514 134.672 292.671 134.724 292.762 134.828C292.859 134.926 292.908 135.095 292.908 135.336C292.908 135.577 292.859 135.749 292.762 135.854C292.671 135.951 292.514 136 292.293 136H286.004C285.783 136 285.623 135.951 285.525 135.854C285.434 135.749 285.389 135.577 285.389 135.336C285.389 135.095 285.434 134.926 285.525 134.828C285.623 134.724 285.783 134.672 286.004 134.672H287.537V128.305H286.297C286.076 128.305 285.916 128.256 285.818 128.158C285.727 128.054 285.682 127.882 285.682 127.641C285.682 127.4 285.727 127.23 285.818 127.133C285.916 127.029 286.076 126.977 286.297 126.977H288.289C288.51 126.977 288.667 127.029 288.758 127.133C288.855 127.23 288.904 127.4 288.904 127.641V129.613C289.217 129.04 289.594 128.539 290.037 128.109C290.48 127.68 290.952 127.348 291.453 127.113C291.954 126.879 292.449 126.762 292.938 126.762ZM314.744 124.408C314.965 124.408 315.122 124.46 315.213 124.564C315.311 124.662 315.359 124.831 315.359 125.072C315.359 125.313 315.311 125.486 315.213 125.59C315.122 125.688 314.965 125.736 314.744 125.736H312.381V134.672H317.215V131.459C317.215 131.231 317.27 131.068 317.381 130.971C317.492 130.873 317.68 130.824 317.947 130.824C318.214 130.824 318.403 130.873 318.514 130.971C318.624 131.068 318.68 131.231 318.68 131.459V135.336C318.68 135.577 318.631 135.749 318.533 135.854C318.442 135.951 318.286 136 318.064 136H309.334C309.113 136 308.953 135.951 308.855 135.854C308.764 135.749 308.719 135.577 308.719 135.336C308.719 135.095 308.764 134.926 308.855 134.828C308.953 134.724 309.113 134.672 309.334 134.672H310.916V125.736H309.334C309.113 125.736 308.953 125.688 308.855 125.59C308.764 125.486 308.719 125.313 308.719 125.072C308.719 124.831 308.764 124.662 308.855 124.564C308.953 124.46 309.113 124.408 309.334 124.408H314.744ZM325.965 126.762C327.189 126.762 328.107 127.035 328.719 127.582C329.331 128.129 329.637 128.939 329.637 130.014V133.9C329.637 134.415 329.852 134.672 330.281 134.672H330.623C330.844 134.672 331.001 134.724 331.092 134.828C331.189 134.926 331.238 135.095 331.238 135.336C331.238 135.577 331.189 135.749 331.092 135.854C331.001 135.951 330.844 136 330.623 136H329.998C329.575 136 329.21 135.896 328.904 135.688C328.605 135.473 328.41 135.16 328.318 134.75C327.785 135.219 327.205 135.58 326.58 135.834C325.962 136.088 325.304 136.215 324.607 136.215C323.95 136.215 323.367 136.104 322.859 135.883C322.358 135.655 321.964 135.326 321.678 134.896C321.391 134.467 321.248 133.956 321.248 133.363C321.248 132.335 321.616 131.576 322.352 131.088C323.087 130.593 324.038 130.346 325.203 130.346C326.238 130.346 327.228 130.512 328.172 130.844V130.014C328.172 129.382 327.993 128.92 327.635 128.627C327.283 128.327 326.714 128.178 325.926 128.178C325.438 128.178 324.93 128.246 324.402 128.383C323.875 128.52 323.374 128.708 322.898 128.949C322.788 129.008 322.687 129.037 322.596 129.037C322.381 129.037 322.202 128.881 322.059 128.568C321.987 128.412 321.951 128.282 321.951 128.178C321.951 127.95 322.072 127.774 322.312 127.65C322.859 127.364 323.445 127.146 324.07 126.996C324.702 126.84 325.333 126.762 325.965 126.762ZM325.213 131.723C324.464 131.723 323.872 131.853 323.436 132.113C323.006 132.367 322.791 132.774 322.791 133.334C322.791 133.809 322.954 134.18 323.279 134.447C323.611 134.708 324.074 134.838 324.666 134.838C325.962 134.838 327.13 134.301 328.172 133.227V132.162C327.729 132.019 327.254 131.911 326.746 131.84C326.238 131.762 325.727 131.723 325.213 131.723ZM342.811 126.977C343.032 126.977 343.188 127.029 343.279 127.133C343.377 127.23 343.426 127.4 343.426 127.641C343.426 127.882 343.377 128.054 343.279 128.158C343.188 128.256 343.032 128.305 342.811 128.305H342.205L338.211 136.488C337.788 137.354 337.374 138.035 336.971 138.529C336.567 139.024 336.111 139.385 335.604 139.613C335.102 139.848 334.49 139.978 333.768 140.004C333.54 140.01 333.364 139.952 333.24 139.828C333.117 139.711 333.055 139.499 333.055 139.193C333.055 138.77 333.227 138.549 333.572 138.529C334.197 138.497 334.692 138.393 335.057 138.217C335.428 138.041 335.766 137.738 336.072 137.309C336.385 136.885 336.766 136.221 337.215 135.316L333.641 128.305H333.025C332.804 128.305 332.645 128.256 332.547 128.158C332.456 128.054 332.41 127.882 332.41 127.641C332.41 127.4 332.456 127.23 332.547 127.133C332.645 127.029 332.804 126.977 333.025 126.977H336.482C336.704 126.977 336.86 127.029 336.951 127.133C337.049 127.23 337.098 127.4 337.098 127.641C337.098 127.882 337.049 128.054 336.951 128.158C336.86 128.256 336.704 128.305 336.482 128.305H335.232L337.986 133.793L340.613 128.305H339.744C339.523 128.305 339.363 128.256 339.266 128.158C339.174 128.054 339.129 127.882 339.129 127.641C339.129 127.4 339.174 127.23 339.266 127.133C339.363 127.029 339.523 126.977 339.744 126.977H342.811ZM350.164 123.188C350.385 123.188 350.542 123.24 350.633 123.344C350.73 123.441 350.779 123.611 350.779 123.852V134.672H353.914C354.135 134.672 354.292 134.724 354.383 134.828C354.48 134.926 354.529 135.095 354.529 135.336C354.529 135.577 354.48 135.749 354.383 135.854C354.292 135.951 354.135 136 353.914 136H346.258C346.036 136 345.877 135.951 345.779 135.854C345.688 135.749 345.643 135.577 345.643 135.336C345.643 135.095 345.688 134.926 345.779 134.828C345.877 134.724 346.036 134.672 346.258 134.672H349.314V124.516H346.648C346.427 124.516 346.268 124.467 346.17 124.369C346.079 124.265 346.033 124.092 346.033 123.852C346.033 123.611 346.079 123.441 346.17 123.344C346.268 123.24 346.427 123.188 346.648 123.188H350.164ZM361.941 126.762C363.165 126.762 364.083 127.035 364.695 127.582C365.307 128.129 365.613 128.939 365.613 130.014V133.9C365.613 134.415 365.828 134.672 366.258 134.672H366.6C366.821 134.672 366.977 134.724 367.068 134.828C367.166 134.926 367.215 135.095 367.215 135.336C367.215 135.577 367.166 135.749 367.068 135.854C366.977 135.951 366.821 136 366.6 136H365.975C365.551 136 365.187 135.896 364.881 135.688C364.581 135.473 364.386 135.16 364.295 134.75C363.761 135.219 363.182 135.58 362.557 135.834C361.938 136.088 361.281 136.215 360.584 136.215C359.926 136.215 359.344 136.104 358.836 135.883C358.335 135.655 357.941 135.326 357.654 134.896C357.368 134.467 357.225 133.956 357.225 133.363C357.225 132.335 357.592 131.576 358.328 131.088C359.064 130.593 360.014 130.346 361.18 130.346C362.215 130.346 363.204 130.512 364.148 130.844V130.014C364.148 129.382 363.969 128.92 363.611 128.627C363.26 128.327 362.69 128.178 361.902 128.178C361.414 128.178 360.906 128.246 360.379 128.383C359.852 128.52 359.35 128.708 358.875 128.949C358.764 129.008 358.663 129.037 358.572 129.037C358.357 129.037 358.178 128.881 358.035 128.568C357.964 128.412 357.928 128.282 357.928 128.178C357.928 127.95 358.048 127.774 358.289 127.65C358.836 127.364 359.422 127.146 360.047 126.996C360.678 126.84 361.31 126.762 361.941 126.762ZM361.189 131.723C360.441 131.723 359.848 131.853 359.412 132.113C358.982 132.367 358.768 132.774 358.768 133.334C358.768 133.809 358.93 134.18 359.256 134.447C359.588 134.708 360.05 134.838 360.643 134.838C361.938 134.838 363.107 134.301 364.148 133.227V132.162C363.706 132.019 363.23 131.911 362.723 131.84C362.215 131.762 361.704 131.723 361.189 131.723ZM386.521 123.607C386.671 123.607 386.779 123.646 386.844 123.725C386.909 123.803 386.935 123.926 386.922 124.096L386.443 131C386.43 131.15 386.375 131.267 386.277 131.352C386.186 131.43 386.056 131.469 385.887 131.469C385.717 131.469 385.581 131.43 385.477 131.352C385.379 131.267 385.327 131.15 385.32 131L384.852 124.096C384.839 123.926 384.865 123.803 384.93 123.725C384.995 123.646 385.102 123.607 385.252 123.607H386.521ZM385.887 133.363C386.316 133.363 386.626 133.412 386.814 133.51C387.01 133.601 387.107 133.757 387.107 133.979V135.482C387.107 135.704 387.01 135.863 386.814 135.961C386.626 136.052 386.316 136.098 385.887 136.098C385.457 136.098 385.145 136.052 384.949 135.961C384.76 135.863 384.666 135.704 384.666 135.482V133.979C384.666 133.757 384.76 133.601 384.949 133.51C385.145 133.412 385.457 133.363 385.887 133.363Z" fill="black"/>
</g>
<g filter="url(#filter3_d_607_4530)">
<mask id="path-13-inside-5_607_4530" fill="white">
<path d="M50 183H222C235.255 183 246 193.745 246 207V223C246 231.837 238.837 239 230 239H66C57.1634 239 50 231.837 50 223V183Z"/>
</mask>
<path d="M50 183H222C235.255 183 246 193.745 246 207V223C246 231.837 238.837 239 230 239H66C57.1634 239 50 231.837 50 223V183Z" fill="#8D8D8D" shape-rendering="crispEdges"/>
<path d="M50 183V181H48V183H50ZM50 183V185H222V183V181H50V183ZM246 207H244V223H246H248V207H246ZM230 239V237H66V239V241H230V239ZM50 223H52V183H50H48V223H50ZM66 239V237C58.268 237 52 230.732 52 223H50H48C48 232.941 56.0589 241 66 241V239ZM246 223H244C244 230.732 237.732 237 230 237V239V241C239.941 241 248 232.941 248 223H246ZM222 183V185C234.15 185 244 194.85 244 207H246H248C248 192.641 236.359 181 222 181V183Z" fill="black" mask="url(#path-13-inside-5_607_4530)"/>
<path d="M69 217.24V215.46H67.2V206.12H69V204.34H74.8V206.12H76.62V210.12H74.8V211.42H76.62V215.46H74.8V217.24H69ZM69.4 215H74.4V211.9H70.8V209.68H74.4V206.6H69.4V215ZM80.4453 217.24V215.46H78.6453V209.68H80.4453V207.88H86.2453V209.68H88.0653V215.46H86.2453V217.24H80.4453ZM80.8453 215H85.8453V210.12H80.8453V215ZM90.4813 217.24V207.88H98.0813V209.68H99.9013V217.24H97.6813V210.12H92.6813V217.24H90.4813ZM103.727 217.26V215.46H101.927V213.2H104.127V215H107.347V207.88H109.547V215.46H107.727V217.26H103.727ZM113.766 217.24V215.46H111.966V209.68H113.766V207.88H119.566V209.68H121.386V215.46H119.566V217.24H113.766ZM114.166 215H119.166V210.12H114.166V215ZM125.602 217.24V215.46H123.802V207.88H126.002V215H131.002V207.88H133.222V215.46H131.402V217.24H125.602ZM135.442 217.24V209.68H137.242V207.88H143.042V209.68H144.862V211.9H142.642V210.12H137.642V217.24H135.442ZM153.082 217.24V215.46H151.282V211.42H153.482V215H158.482V206.6H153.082V204.34H158.882V206.12H160.702V215.46H158.882V217.24H153.082ZM164.918 217.24V215.46H163.118V209.68H164.918V207.88H170.718V209.68H172.538V215.46H170.718V217.24H164.918ZM165.318 215H170.318V210.12H165.318V215ZM176.754 217.24V215.46H174.954V207.88H177.154V215H182.154V207.88H184.374V215.46H182.554V217.24H176.754ZM188.199 217.24V215.46H186.399V209.68H188.199V207.88H193.999V209.68H195.819V211.9H193.599V210.12H188.599V211.42H192.199V213.68H188.599V215H193.599V213.18H195.819V215.44H193.999V217.24H188.199ZM200.035 217.24V215.46H198.235V207.88H200.435V215H205.435V207.88H207.655V215.46H205.835V217.24H200.035ZM209.876 217.24V209.68H211.676V207.88H217.476V209.68H219.296V211.9H217.076V210.12H212.076V217.24H209.876ZM225.716 213.68V204.34H227.916V213.68H225.716ZM225.716 217.24V215H227.916V217.24H225.716Z" fill="black"/>
</g>
<g filter="url(#filter4_d_607_4530)">
<mask id="path-16-inside-6_607_4530" fill="white">
<path d="M220 287C220 273.745 230.745 263 244 263H408V293C408 306.255 397.255 317 384 317H236C227.163 317 220 309.837 220 301V287Z"/>
</mask>
<path d="M220 287C220 273.745 230.745 263 244 263H408V293C408 306.255 397.255 317 384 317H236C227.163 317 220 309.837 220 301V287Z" fill="#85C37A" shape-rendering="crispEdges"/>
<path d="M408 263H410V261H408V263ZM244 263V265H408V263V261H244V263ZM408 263H406V293H408H410V263H408ZM384 317V315H236V317V319H384V317ZM220 301H222V287H220H218V301H220ZM236 317V315C228.268 315 222 308.732 222 301H220H218C218 310.941 226.059 319 236 319V317ZM408 293H406C406 305.15 396.15 315 384 315V317V319C398.359 319 410 307.359 410 293H408ZM244 263V261C229.641 261 218 272.641 218 287H220H222C222 274.85 231.85 265 244 265V263Z" fill="black" mask="url(#path-16-inside-6_607_4530)"/>
<path d="M246.186 282.408C246.407 282.408 246.563 282.46 246.654 282.564C246.752 282.662 246.801 282.831 246.801 283.072V286.754C246.801 286.982 246.745 287.145 246.635 287.242C246.524 287.34 246.335 287.389 246.068 287.389C245.801 287.389 245.613 287.34 245.502 287.242C245.391 287.145 245.336 286.982 245.336 286.754V283.736H242.729V292.672H245.033C245.255 292.672 245.411 292.724 245.502 292.828C245.6 292.926 245.648 293.095 245.648 293.336C245.648 293.577 245.6 293.749 245.502 293.854C245.411 293.951 245.255 294 245.033 294H238.959C238.738 294 238.578 293.951 238.48 293.854C238.389 293.749 238.344 293.577 238.344 293.336C238.344 293.095 238.389 292.926 238.48 292.828C238.578 292.724 238.738 292.672 238.959 292.672H241.264V283.736H238.656V286.754C238.656 286.982 238.601 287.145 238.49 287.242C238.38 287.34 238.191 287.389 237.924 287.389C237.657 287.389 237.468 287.34 237.357 287.242C237.247 287.145 237.191 286.982 237.191 286.754V283.072C237.191 282.831 237.237 282.662 237.328 282.564C237.426 282.46 237.585 282.408 237.807 282.408H246.186ZM257.133 284.977C257.354 284.977 257.51 285.029 257.602 285.133C257.699 285.23 257.748 285.4 257.748 285.641V292.672H258.549C258.77 292.672 258.926 292.724 259.018 292.828C259.115 292.926 259.164 293.095 259.164 293.336C259.164 293.577 259.115 293.749 259.018 293.854C258.926 293.951 258.77 294 258.549 294H256.996C256.775 294 256.615 293.951 256.518 293.854C256.426 293.756 256.381 293.587 256.381 293.346V292.164C255.951 292.828 255.447 293.336 254.867 293.688C254.294 294.039 253.676 294.215 253.012 294.215C252.419 294.215 251.905 294.088 251.469 293.834C251.033 293.574 250.697 293.202 250.463 292.721C250.229 292.239 250.111 291.676 250.111 291.031V286.305H249.311C249.089 286.305 248.93 286.256 248.832 286.158C248.741 286.054 248.695 285.882 248.695 285.641C248.695 285.4 248.741 285.23 248.832 285.133C248.93 285.029 249.089 284.977 249.311 284.977H250.961C251.182 284.977 251.339 285.029 251.43 285.133C251.527 285.23 251.576 285.4 251.576 285.641V290.885C251.576 291.464 251.71 291.923 251.977 292.262C252.243 292.6 252.637 292.77 253.158 292.77C253.712 292.77 254.226 292.61 254.701 292.291C255.183 291.972 255.567 291.533 255.854 290.973C256.14 290.413 256.283 289.788 256.283 289.098V286.305H254.896C254.675 286.305 254.516 286.256 254.418 286.158C254.327 286.054 254.281 285.882 254.281 285.641C254.281 285.4 254.327 285.23 254.418 285.133C254.516 285.029 254.675 284.977 254.896 284.977H257.133ZM282.865 284.977C283.087 284.977 283.243 285.029 283.334 285.133C283.432 285.23 283.48 285.4 283.48 285.641C283.48 285.882 283.432 286.054 283.334 286.158C283.243 286.256 283.087 286.305 282.865 286.305H282.25L279.096 293.58C279.005 293.801 278.868 293.961 278.686 294.059C278.51 294.163 278.262 294.215 277.943 294.215C277.631 294.215 277.387 294.163 277.211 294.059C277.042 293.961 276.908 293.801 276.811 293.58L273.686 286.305H273.08C272.859 286.305 272.699 286.256 272.602 286.158C272.51 286.054 272.465 285.882 272.465 285.641C272.465 285.4 272.51 285.23 272.602 285.133C272.699 285.029 272.859 284.977 273.08 284.977H276.537C276.758 284.977 276.915 285.029 277.006 285.133C277.104 285.23 277.152 285.4 277.152 285.641C277.152 285.882 277.104 286.054 277.006 286.158C276.915 286.256 276.758 286.305 276.537 286.305H275.287L277.953 292.672L280.648 286.305H279.799C279.577 286.305 279.418 286.256 279.32 286.158C279.229 286.054 279.184 285.882 279.184 285.641C279.184 285.4 279.229 285.23 279.32 285.133C279.418 285.029 279.577 284.977 279.799 284.977H282.865ZM290.004 284.762C291.228 284.762 292.146 285.035 292.758 285.582C293.37 286.129 293.676 286.939 293.676 288.014V291.9C293.676 292.415 293.891 292.672 294.32 292.672H294.662C294.883 292.672 295.04 292.724 295.131 292.828C295.229 292.926 295.277 293.095 295.277 293.336C295.277 293.577 295.229 293.749 295.131 293.854C295.04 293.951 294.883 294 294.662 294H294.037C293.614 294 293.249 293.896 292.943 293.688C292.644 293.473 292.449 293.16 292.357 292.75C291.824 293.219 291.244 293.58 290.619 293.834C290.001 294.088 289.343 294.215 288.646 294.215C287.989 294.215 287.406 294.104 286.898 293.883C286.397 293.655 286.003 293.326 285.717 292.896C285.43 292.467 285.287 291.956 285.287 291.363C285.287 290.335 285.655 289.576 286.391 289.088C287.126 288.593 288.077 288.346 289.242 288.346C290.277 288.346 291.267 288.512 292.211 288.844V288.014C292.211 287.382 292.032 286.92 291.674 286.627C291.322 286.327 290.753 286.178 289.965 286.178C289.477 286.178 288.969 286.246 288.441 286.383C287.914 286.52 287.413 286.708 286.938 286.949C286.827 287.008 286.726 287.037 286.635 287.037C286.42 287.037 286.241 286.881 286.098 286.568C286.026 286.412 285.99 286.282 285.99 286.178C285.99 285.95 286.111 285.774 286.352 285.65C286.898 285.364 287.484 285.146 288.109 284.996C288.741 284.84 289.372 284.762 290.004 284.762ZM289.252 289.723C288.503 289.723 287.911 289.853 287.475 290.113C287.045 290.367 286.83 290.774 286.83 291.334C286.83 291.809 286.993 292.18 287.318 292.447C287.65 292.708 288.113 292.838 288.705 292.838C290.001 292.838 291.169 292.301 292.211 291.227V290.162C291.768 290.019 291.293 289.911 290.785 289.84C290.277 289.762 289.766 289.723 289.252 289.723ZM305.033 284.762C305.3 284.762 305.489 284.811 305.6 284.908C305.71 285.006 305.766 285.169 305.766 285.396V287.252C305.766 287.48 305.71 287.643 305.6 287.74C305.489 287.838 305.3 287.887 305.033 287.887C304.812 287.887 304.656 287.802 304.564 287.633C304.285 287.099 303.878 286.725 303.344 286.51C302.81 286.288 302.133 286.178 301.312 286.178C300.681 286.178 300.186 286.292 299.828 286.52C299.477 286.741 299.301 287.053 299.301 287.457C299.301 287.665 299.366 287.835 299.496 287.965C299.633 288.095 299.831 288.202 300.092 288.287C300.307 288.359 300.554 288.414 300.834 288.453C301.12 288.492 301.488 288.535 301.938 288.58C302.569 288.652 303.077 288.72 303.461 288.785C303.852 288.844 304.219 288.935 304.564 289.059C305.085 289.247 305.489 289.521 305.775 289.879C306.068 290.237 306.215 290.709 306.215 291.295C306.215 291.881 306.065 292.395 305.766 292.838C305.473 293.274 305.04 293.613 304.467 293.854C303.9 294.094 303.22 294.215 302.426 294.215C301.723 294.215 301.104 294.117 300.57 293.922C300.036 293.727 299.571 293.43 299.174 293.033V293.58C299.174 293.808 299.118 293.971 299.008 294.068C298.897 294.166 298.708 294.215 298.441 294.215C298.174 294.215 297.986 294.166 297.875 294.068C297.764 293.971 297.709 293.808 297.709 293.58V291.236C297.709 291.008 297.764 290.846 297.875 290.748C297.986 290.65 298.174 290.602 298.441 290.602C298.578 290.602 298.686 290.634 298.764 290.699C298.842 290.758 298.91 290.859 298.969 291.002C299.203 291.627 299.594 292.083 300.141 292.369C300.688 292.656 301.417 292.799 302.328 292.799C303.083 292.799 303.663 292.662 304.066 292.389C304.47 292.115 304.672 291.751 304.672 291.295C304.672 291.074 304.6 290.891 304.457 290.748C304.314 290.605 304.109 290.488 303.842 290.396C303.614 290.325 303.35 290.266 303.051 290.221C302.758 290.169 302.383 290.12 301.928 290.074C301.316 290.009 300.805 289.941 300.395 289.869C299.984 289.798 299.607 289.693 299.262 289.557C298.786 289.368 298.415 289.107 298.148 288.775C297.888 288.437 297.758 287.997 297.758 287.457C297.758 286.891 297.904 286.406 298.197 286.002C298.497 285.592 298.907 285.283 299.428 285.074C299.955 284.866 300.551 284.762 301.215 284.762C301.846 284.762 302.423 284.856 302.943 285.045C303.471 285.234 303.923 285.497 304.301 285.836V285.396C304.301 285.169 304.356 285.006 304.467 284.908C304.577 284.811 304.766 284.762 305.033 284.762ZM322.768 281.188C322.989 281.188 323.145 281.24 323.236 281.344C323.334 281.441 323.383 281.611 323.383 281.852V286.373C324.223 285.299 325.255 284.762 326.479 284.762C327.286 284.762 328.008 284.954 328.646 285.338C329.285 285.715 329.786 286.262 330.15 286.979C330.515 287.688 330.697 288.525 330.697 289.488C330.697 290.452 330.515 291.292 330.15 292.008C329.786 292.717 329.285 293.264 328.646 293.648C328.008 294.026 327.286 294.215 326.479 294.215C325.84 294.215 325.251 294.072 324.711 293.785C324.171 293.499 323.695 293.089 323.285 292.555V293.336C323.285 293.577 323.236 293.749 323.139 293.854C323.048 293.951 322.891 294 322.67 294H321.117C320.896 294 320.736 293.951 320.639 293.854C320.548 293.749 320.502 293.577 320.502 293.336C320.502 293.095 320.548 292.926 320.639 292.828C320.736 292.724 320.896 292.672 321.117 292.672H321.918V282.516H320.922C320.701 282.516 320.541 282.467 320.443 282.369C320.352 282.265 320.307 282.092 320.307 281.852C320.307 281.611 320.352 281.441 320.443 281.344C320.541 281.24 320.701 281.188 320.922 281.188H322.768ZM326.381 286.207C325.801 286.207 325.284 286.337 324.828 286.598C324.379 286.858 324.024 287.236 323.764 287.73C323.51 288.225 323.383 288.811 323.383 289.488C323.383 290.165 323.51 290.751 323.764 291.246C324.024 291.741 324.379 292.118 324.828 292.379C325.284 292.639 325.801 292.77 326.381 292.77C326.96 292.77 327.458 292.633 327.875 292.359C328.292 292.079 328.607 291.692 328.822 291.197C329.044 290.702 329.154 290.133 329.154 289.488C329.154 288.844 329.044 288.274 328.822 287.779C328.607 287.285 328.292 286.9 327.875 286.627C327.458 286.347 326.96 286.207 326.381 286.207ZM338.285 284.977C338.507 284.977 338.663 285.029 338.754 285.133C338.852 285.23 338.9 285.4 338.9 285.641V292.672H342.035C342.257 292.672 342.413 292.724 342.504 292.828C342.602 292.926 342.65 293.095 342.65 293.336C342.65 293.577 342.602 293.749 342.504 293.854C342.413 293.951 342.257 294 342.035 294H334.379C334.158 294 333.998 293.951 333.9 293.854C333.809 293.749 333.764 293.577 333.764 293.336C333.764 293.095 333.809 292.926 333.9 292.828C333.998 292.724 334.158 292.672 334.379 292.672H337.436V286.305H334.965C334.743 286.305 334.584 286.256 334.486 286.158C334.395 286.054 334.35 285.882 334.35 285.641C334.35 285.4 334.395 285.23 334.486 285.133C334.584 285.029 334.743 284.977 334.965 284.977H338.285ZM337.973 280.689C338.331 280.689 338.575 280.738 338.705 280.836C338.835 280.927 338.9 281.09 338.9 281.324V282.594C338.9 282.828 338.835 282.994 338.705 283.092C338.575 283.183 338.331 283.229 337.973 283.229C337.615 283.229 337.37 283.183 337.24 283.092C337.11 282.994 337.045 282.828 337.045 282.594V281.324C337.045 281.09 337.11 280.927 337.24 280.836C337.37 280.738 337.615 280.689 337.973 280.689ZM350.014 284.762C350.958 284.762 351.762 284.954 352.426 285.338C353.096 285.715 353.611 286.243 353.969 286.92C354.327 287.59 354.532 288.365 354.584 289.244C354.584 289.465 354.535 289.622 354.438 289.713C354.346 289.804 354.19 289.85 353.969 289.85H346.898C346.944 290.82 347.23 291.555 347.758 292.057C348.292 292.551 349.044 292.799 350.014 292.799C350.613 292.799 351.205 292.724 351.791 292.574C352.377 292.418 352.891 292.213 353.334 291.959C353.445 291.9 353.546 291.871 353.637 291.871C353.865 291.871 354.05 292.044 354.193 292.389C354.252 292.525 354.281 292.649 354.281 292.76C354.281 293.02 354.138 293.222 353.852 293.365C353.35 293.619 352.758 293.824 352.074 293.98C351.391 294.137 350.704 294.215 350.014 294.215C349.031 294.215 348.191 294.026 347.494 293.648C346.798 293.271 346.267 292.727 345.902 292.018C345.538 291.308 345.355 290.465 345.355 289.488C345.355 288.557 345.554 287.734 345.951 287.018C346.348 286.301 346.898 285.748 347.602 285.357C348.305 284.96 349.109 284.762 350.014 284.762ZM350.014 286.178C349.213 286.178 348.549 286.383 348.021 286.793C347.501 287.197 347.159 287.76 346.996 288.482H352.963C352.826 287.734 352.51 287.164 352.016 286.773C351.527 286.376 350.86 286.178 350.014 286.178ZM363.021 284.762C363.614 284.762 364.128 284.892 364.564 285.152C365.001 285.406 365.336 285.774 365.57 286.256C365.805 286.738 365.922 287.301 365.922 287.945V292.672H366.723C366.944 292.672 367.1 292.724 367.191 292.828C367.289 292.926 367.338 293.095 367.338 293.336C367.338 293.577 367.289 293.749 367.191 293.854C367.1 293.951 366.944 294 366.723 294H363.559C363.337 294 363.178 293.951 363.08 293.854C362.989 293.749 362.943 293.577 362.943 293.336C362.943 293.095 362.989 292.926 363.08 292.828C363.178 292.724 363.337 292.672 363.559 292.672H364.457V288.092C364.457 287.512 364.324 287.053 364.057 286.715C363.79 286.376 363.396 286.207 362.875 286.207C362.322 286.207 361.804 286.367 361.322 286.686C360.847 287.005 360.466 287.444 360.18 288.004C359.893 288.564 359.75 289.189 359.75 289.879V292.672H360.648C360.87 292.672 361.026 292.724 361.117 292.828C361.215 292.926 361.264 293.095 361.264 293.336C361.264 293.577 361.215 293.749 361.117 293.854C361.026 293.951 360.87 294 360.648 294H357.484C357.263 294 357.104 293.951 357.006 293.854C356.915 293.749 356.869 293.577 356.869 293.336C356.869 293.095 356.915 292.926 357.006 292.828C357.104 292.724 357.263 292.672 357.484 292.672H358.285V286.305H357.289C357.068 286.305 356.908 286.256 356.811 286.158C356.719 286.054 356.674 285.882 356.674 285.641C356.674 285.4 356.719 285.23 356.811 285.133C356.908 285.029 357.068 284.977 357.289 284.977H359.037C359.258 284.977 359.415 285.029 359.506 285.133C359.604 285.23 359.652 285.4 359.652 285.641V286.812C360.082 286.148 360.583 285.641 361.156 285.289C361.736 284.938 362.357 284.762 363.021 284.762ZM385.941 281.607C386.645 281.607 387.25 281.738 387.758 281.998C388.272 282.252 388.663 282.61 388.93 283.072C389.203 283.528 389.34 284.059 389.34 284.664C389.34 285.224 389.226 285.706 388.998 286.109C388.777 286.507 388.445 286.855 388.002 287.154C387.566 287.447 386.993 287.74 386.283 288.033L386.156 289.439C386.124 289.752 385.909 289.908 385.512 289.908C385.102 289.908 384.887 289.752 384.867 289.439L384.74 287.506C384.727 287.376 384.743 287.271 384.789 287.193C384.841 287.115 384.923 287.053 385.033 287.008L385.707 286.734C386.228 286.52 386.638 286.318 386.938 286.129C387.243 285.94 387.468 285.729 387.611 285.494C387.761 285.26 387.836 284.983 387.836 284.664C387.836 284.176 387.67 283.785 387.338 283.492C387.012 283.199 386.55 283.053 385.951 283.053C385.124 283.053 384.424 283.173 383.852 283.414V284.283C383.852 284.511 383.796 284.674 383.686 284.771C383.575 284.869 383.386 284.918 383.119 284.918C382.852 284.918 382.663 284.869 382.553 284.771C382.442 284.674 382.387 284.511 382.387 284.283V283.043C382.387 282.906 382.406 282.796 382.445 282.711C382.484 282.62 382.546 282.548 382.631 282.496C383.614 281.904 384.717 281.607 385.941 281.607ZM385.512 291.754C385.909 291.754 386.195 291.803 386.371 291.9C386.547 291.992 386.635 292.148 386.635 292.369V293.482C386.635 293.704 386.547 293.863 386.371 293.961C386.195 294.052 385.909 294.098 385.512 294.098C385.115 294.098 384.828 294.052 384.652 293.961C384.477 293.863 384.389 293.704 384.389 293.482V292.369C384.389 292.148 384.477 291.992 384.652 291.9C384.828 291.803 385.115 291.754 385.512 291.754Z" fill="black"/>
</g>
<rect x="50" y="352" width="56.5" height="2" fill="#C1C1C1"/>
<path d="M140.122 359.24V349.88H141.922V348.12H143.722V346.34H145.922V348.12H147.722V349.88H149.542V359.24H147.322V355.68H142.322V359.24H140.122ZM142.322 353.42H147.322V350.36H145.542V348.6H144.102V350.36H142.322V353.42ZM153.367 359.24V357.46H151.567V349.88H153.767V357H158.767V349.88H160.987V357.46H159.167V359.24H153.367ZM165.203 359.26V357.46H163.403V355.2H165.603V357H168.823V349.88H171.023V357.46H169.203V359.26H165.203ZM175.242 359.24V357.46H173.442V351.68H175.242V349.88H181.042V351.68H182.862V357.46H181.042V359.24H175.242ZM175.642 357H180.642V352.12H175.642V357ZM187.078 359.24V357.46H185.278V349.88H187.478V357H192.478V349.88H194.698V357.46H192.878V359.24H187.078ZM196.919 359.24V351.68H198.719V349.88H204.519V351.68H206.339V353.9H204.119V352.12H199.119V359.24H196.919ZM209.949 359.24V357.46H208.149V351.68H209.949V349.88H215.369V346.34H217.569V357.46H215.749V359.24H209.949ZM210.349 357H215.349V352.12H210.349V357ZM220.885 350.36V349.32L221.505 349.18V348.6H219.985V346.34H222.185V348.12H223.085V349.46H222.185V350.36H220.885ZM225.513 359.24V346.34H227.713V351.68H229.113V349.88H233.113V351.68H234.933V359.24H232.713V352.12H229.493V353.9H227.713V359.24H225.513ZM238.758 359.24V357.46H236.958V349.88H239.158V357H244.158V349.88H246.378V357.46H244.558V359.24H238.758ZM248.794 359.24V349.88H250.994V359.24H248.794ZM248.794 348.6V346.34H250.994V348.6H248.794ZM256.727 355.12V352.86H262.507V355.12H256.727ZM270.105 359.24V357.46H268.305V353.42H270.105V351.68H275.505V348.6H270.505V350.36H268.305V348.12H270.105V346.34H275.905V348.12H277.725V352.12H275.905V353.9H270.505V357H275.505V355.2H277.725V357.46H275.905V359.24H270.105ZM281.941 359.24V357.46H280.141V355.2H282.341V357H287.341V353.9H281.941V351.68H287.341V348.6H282.341V350.36H280.141V348.12H281.941V346.34H287.741V348.12H289.561V352.12H287.741V353.42H289.561V357.46H287.741V359.24H281.941ZM291.977 357.4V355.14H294.177V357.4H291.977ZM291.977 353.92V351.68H294.177V353.92H291.977ZM303.806 359.24V355.68H296.606V351.68H298.406V349.88H300.206V348.12H302.026V346.34H306.026V359.24H303.806ZM298.806 353.42H303.806V348.6H302.406V350.36H300.586V352.12H298.806V353.42ZM310.242 359.24V357.46H308.442V348.12H310.242V346.34H316.042V348.12H317.862V350.36H315.642V348.6H310.642V351.68H316.042V353.42H317.862V357.46H316.042V359.24H310.242ZM310.642 357H315.642V353.9H310.642V357Z" fill="#C1C1C1"/>
<rect x="351.5" y="352" width="56.5" height="2" fill="#C1C1C1"/>
<g filter="url(#filter5_d_607_4530)">
<mask id="path-22-inside-7_607_4530" fill="white">
<path d="M304 413C304 399.745 314.745 389 328 389H408V419C408 432.255 397.255 443 384 443H320C311.163 443 304 435.837 304 427V413Z"/>
</mask>
<path d="M304 413C304 399.745 314.745 389 328 389H408V419C408 432.255 397.255 443 384 443H320C311.163 443 304 435.837 304 427V413Z" fill="#85C37A" shape-rendering="crispEdges"/>
<path d="M408 389H410V387H408V389ZM328 389V391H408V389V387H328V389ZM408 389H406V419H408H410V389H408ZM384 443V441H320V443V445H384V443ZM304 427H306V413H304H302V427H304ZM320 443V441C312.268 441 306 434.732 306 427H304H302C302 436.941 310.059 445 320 445V443ZM408 419H406C406 431.15 396.15 441 384 441V443V445C398.359 445 410 433.359 410 419H408ZM328 389V387C313.641 387 302 398.641 302 413H304H306C306 400.85 315.85 391 328 391V389Z" fill="black" mask="url(#path-22-inside-7_607_4530)"/>
<path d="M326.807 408.408C327.028 408.408 327.184 408.46 327.275 408.564C327.373 408.662 327.422 408.831 327.422 409.072C327.422 409.313 327.373 409.486 327.275 409.59C327.184 409.688 327.028 409.736 326.807 409.736H324.443V418.672H329.277V415.459C329.277 415.231 329.333 415.068 329.443 414.971C329.554 414.873 329.743 414.824 330.01 414.824C330.277 414.824 330.465 414.873 330.576 414.971C330.687 415.068 330.742 415.231 330.742 415.459V419.336C330.742 419.577 330.693 419.749 330.596 419.854C330.505 419.951 330.348 420 330.127 420H321.396C321.175 420 321.016 419.951 320.918 419.854C320.827 419.749 320.781 419.577 320.781 419.336C320.781 419.095 320.827 418.926 320.918 418.828C321.016 418.724 321.175 418.672 321.396 418.672H322.979V409.736H321.396C321.175 409.736 321.016 409.688 320.918 409.59C320.827 409.486 320.781 409.313 320.781 409.072C320.781 408.831 320.827 408.662 320.918 408.564C321.016 408.46 321.175 408.408 321.396 408.408H326.807ZM338.027 410.762C339.251 410.762 340.169 411.035 340.781 411.582C341.393 412.129 341.699 412.939 341.699 414.014V417.9C341.699 418.415 341.914 418.672 342.344 418.672H342.686C342.907 418.672 343.063 418.724 343.154 418.828C343.252 418.926 343.301 419.095 343.301 419.336C343.301 419.577 343.252 419.749 343.154 419.854C343.063 419.951 342.907 420 342.686 420H342.061C341.637 420 341.273 419.896 340.967 419.688C340.667 419.473 340.472 419.16 340.381 418.75C339.847 419.219 339.268 419.58 338.643 419.834C338.024 420.088 337.367 420.215 336.67 420.215C336.012 420.215 335.43 420.104 334.922 419.883C334.421 419.655 334.027 419.326 333.74 418.896C333.454 418.467 333.311 417.956 333.311 417.363C333.311 416.335 333.678 415.576 334.414 415.088C335.15 414.593 336.1 414.346 337.266 414.346C338.301 414.346 339.29 414.512 340.234 414.844V414.014C340.234 413.382 340.055 412.92 339.697 412.627C339.346 412.327 338.776 412.178 337.988 412.178C337.5 412.178 336.992 412.246 336.465 412.383C335.938 412.52 335.436 412.708 334.961 412.949C334.85 413.008 334.749 413.037 334.658 413.037C334.443 413.037 334.264 412.881 334.121 412.568C334.049 412.412 334.014 412.282 334.014 412.178C334.014 411.95 334.134 411.774 334.375 411.65C334.922 411.364 335.508 411.146 336.133 410.996C336.764 410.84 337.396 410.762 338.027 410.762ZM337.275 415.723C336.527 415.723 335.934 415.853 335.498 416.113C335.068 416.367 334.854 416.774 334.854 417.334C334.854 417.809 335.016 418.18 335.342 418.447C335.674 418.708 336.136 418.838 336.729 418.838C338.024 418.838 339.193 418.301 340.234 417.227V416.162C339.792 416.019 339.316 415.911 338.809 415.84C338.301 415.762 337.79 415.723 337.275 415.723ZM354.873 410.977C355.094 410.977 355.251 411.029 355.342 411.133C355.439 411.23 355.488 411.4 355.488 411.641C355.488 411.882 355.439 412.054 355.342 412.158C355.251 412.256 355.094 412.305 354.873 412.305H354.268L350.273 420.488C349.85 421.354 349.437 422.035 349.033 422.529C348.63 423.024 348.174 423.385 347.666 423.613C347.165 423.848 346.553 423.978 345.83 424.004C345.602 424.01 345.426 423.952 345.303 423.828C345.179 423.711 345.117 423.499 345.117 423.193C345.117 422.77 345.29 422.549 345.635 422.529C346.26 422.497 346.755 422.393 347.119 422.217C347.49 422.041 347.829 421.738 348.135 421.309C348.447 420.885 348.828 420.221 349.277 419.316L345.703 412.305H345.088C344.867 412.305 344.707 412.256 344.609 412.158C344.518 412.054 344.473 411.882 344.473 411.641C344.473 411.4 344.518 411.23 344.609 411.133C344.707 411.029 344.867 410.977 345.088 410.977H348.545C348.766 410.977 348.923 411.029 349.014 411.133C349.111 411.23 349.16 411.4 349.16 411.641C349.16 411.882 349.111 412.054 349.014 412.158C348.923 412.256 348.766 412.305 348.545 412.305H347.295L350.049 417.793L352.676 412.305H351.807C351.585 412.305 351.426 412.256 351.328 412.158C351.237 412.054 351.191 411.882 351.191 411.641C351.191 411.4 351.237 411.23 351.328 411.133C351.426 411.029 351.585 410.977 351.807 410.977H354.873ZM362.227 407.188C362.448 407.188 362.604 407.24 362.695 407.344C362.793 407.441 362.842 407.611 362.842 407.852V418.672H365.977C366.198 418.672 366.354 418.724 366.445 418.828C366.543 418.926 366.592 419.095 366.592 419.336C366.592 419.577 366.543 419.749 366.445 419.854C366.354 419.951 366.198 420 365.977 420H358.32C358.099 420 357.939 419.951 357.842 419.854C357.751 419.749 357.705 419.577 357.705 419.336C357.705 419.095 357.751 418.926 357.842 418.828C357.939 418.724 358.099 418.672 358.32 418.672H361.377V408.516H358.711C358.49 408.516 358.33 408.467 358.232 408.369C358.141 408.265 358.096 408.092 358.096 407.852C358.096 407.611 358.141 407.441 358.232 407.344C358.33 407.24 358.49 407.188 358.711 407.188H362.227ZM374.004 410.762C375.228 410.762 376.146 411.035 376.758 411.582C377.37 412.129 377.676 412.939 377.676 414.014V417.9C377.676 418.415 377.891 418.672 378.32 418.672H378.662C378.883 418.672 379.04 418.724 379.131 418.828C379.229 418.926 379.277 419.095 379.277 419.336C379.277 419.577 379.229 419.749 379.131 419.854C379.04 419.951 378.883 420 378.662 420H378.037C377.614 420 377.249 419.896 376.943 419.688C376.644 419.473 376.449 419.16 376.357 418.75C375.824 419.219 375.244 419.58 374.619 419.834C374.001 420.088 373.343 420.215 372.646 420.215C371.989 420.215 371.406 420.104 370.898 419.883C370.397 419.655 370.003 419.326 369.717 418.896C369.43 418.467 369.287 417.956 369.287 417.363C369.287 416.335 369.655 415.576 370.391 415.088C371.126 414.593 372.077 414.346 373.242 414.346C374.277 414.346 375.267 414.512 376.211 414.844V414.014C376.211 413.382 376.032 412.92 375.674 412.627C375.322 412.327 374.753 412.178 373.965 412.178C373.477 412.178 372.969 412.246 372.441 412.383C371.914 412.52 371.413 412.708 370.938 412.949C370.827 413.008 370.726 413.037 370.635 413.037C370.42 413.037 370.241 412.881 370.098 412.568C370.026 412.412 369.99 412.282 369.99 412.178C369.99 411.95 370.111 411.774 370.352 411.65C370.898 411.364 371.484 411.146 372.109 410.996C372.741 410.84 373.372 410.762 374.004 410.762ZM373.252 415.723C372.503 415.723 371.911 415.853 371.475 416.113C371.045 416.367 370.83 416.774 370.83 417.334C370.83 417.809 370.993 418.18 371.318 418.447C371.65 418.708 372.113 418.838 372.705 418.838C374.001 418.838 375.169 418.301 376.211 417.227V416.162C375.768 416.019 375.293 415.911 374.785 415.84C374.277 415.762 373.766 415.723 373.252 415.723ZM385.996 407.607C386.699 407.607 387.305 407.738 387.812 407.998C388.327 408.252 388.717 408.61 388.984 409.072C389.258 409.528 389.395 410.059 389.395 410.664C389.395 411.224 389.281 411.706 389.053 412.109C388.831 412.507 388.499 412.855 388.057 413.154C387.62 413.447 387.048 413.74 386.338 414.033L386.211 415.439C386.178 415.752 385.964 415.908 385.566 415.908C385.156 415.908 384.941 415.752 384.922 415.439L384.795 413.506C384.782 413.376 384.798 413.271 384.844 413.193C384.896 413.115 384.977 413.053 385.088 413.008L385.762 412.734C386.283 412.52 386.693 412.318 386.992 412.129C387.298 411.94 387.523 411.729 387.666 411.494C387.816 411.26 387.891 410.983 387.891 410.664C387.891 410.176 387.725 409.785 387.393 409.492C387.067 409.199 386.605 409.053 386.006 409.053C385.179 409.053 384.479 409.173 383.906 409.414V410.283C383.906 410.511 383.851 410.674 383.74 410.771C383.63 410.869 383.441 410.918 383.174 410.918C382.907 410.918 382.718 410.869 382.607 410.771C382.497 410.674 382.441 410.511 382.441 410.283V409.043C382.441 408.906 382.461 408.796 382.5 408.711C382.539 408.62 382.601 408.548 382.686 408.496C383.669 407.904 384.772 407.607 385.996 407.607ZM385.566 417.754C385.964 417.754 386.25 417.803 386.426 417.9C386.602 417.992 386.689 418.148 386.689 418.369V419.482C386.689 419.704 386.602 419.863 386.426 419.961C386.25 420.052 385.964 420.098 385.566 420.098C385.169 420.098 384.883 420.052 384.707 419.961C384.531 419.863 384.443 419.704 384.443 419.482V418.369C384.443 418.148 384.531 417.992 384.707 417.9C384.883 417.803 385.169 417.754 385.566 417.754Z" fill="black"/>
</g>
<g filter="url(#filter6_d_607_4530)">
<mask id="path-25-inside-8_607_4530" fill="white">
<path d="M50 467H384C397.255 467 408 477.745 408 491V531C408 539.837 400.837 547 392 547H66C57.1635 547 50 539.837 50 531V467Z"/>
</mask>
<path d="M50 467H384C397.255 467 408 477.745 408 491V531C408 539.837 400.837 547 392 547H66C57.1635 547 50 539.837 50 531V467Z" fill="#8D8D8D" shape-rendering="crispEdges"/>
<path d="M50 467V465H48V467H50ZM50 467V469H384V467V465H50V467ZM408 491H406V531H408H410V491H408ZM392 547V545H66V547V549H392V547ZM50 531H52V467H50H48V531H50ZM66 547V545C58.268 545 52 538.732 52 531H50H48C48 540.941 56.0589 549 66 549V547ZM408 531H406C406 538.732 399.732 545 392 545V547V549C401.941 549 410 540.941 410 531H408ZM384 467V469C396.15 469 406 478.85 406 491H408H410C410 476.641 398.359 465 384 465V467Z" fill="black" mask="url(#path-25-inside-8_607_4530)"/>
<path d="M67.2 501.24V491.88H69V490.12H70.8V488.34H73V490.12H74.8V491.88H76.62V501.24H74.4V497.68H69.4V501.24H67.2ZM69.4 495.42H74.4V492.36H72.62V490.6H71.18V492.36H69.4V495.42ZM79.0359 501.24V488.34H81.2359V493.68H82.6359V491.88H86.6359V493.68H88.4559V501.24H86.2359V494.12H83.0159V495.9H81.2359V501.24H79.0359ZM91.7719 502.76V501.72L92.3919 501.6V501H90.8719V498.74H93.0719V500.52H93.9719V501.86H93.0719V502.76H91.7719ZM102.203 501.24V499.46H100.403V493.68H102.203V491.88H108.003V493.68H109.823V495.9H107.603V494.12H102.603V495.42H106.203V497.68H102.603V499H107.603V497.18H109.823V499.44H108.003V501.24H102.203ZM112.239 501.24V499H114.039V497.2H115.839V495.9H114.039V494.12H112.239V491.88H114.439V493.68H116.219V495.42H117.659V493.68H119.439V491.88H121.659V494.12H119.839V495.9H118.039V497.2H119.839V499H121.659V501.24H119.439V499.46H117.659V497.68H116.219V499.46H114.439V501.24H112.239ZM124.879 501.24V499.46H123.079V493.68H124.879V491.88H130.679V493.68H132.499V495.9H130.279V494.12H125.279V499H130.279V497.2H132.499V499.46H130.679V501.24H124.879ZM136.324 501.24V499.46H134.524V491.88H136.724V499H141.724V491.88H143.944V499.46H142.124V501.24H136.324ZM146.165 501.24V499H153.365V497.68H147.965V495.9H146.165V493.68H147.965V491.88H155.585V494.12H148.365V495.42H153.765V497.2H155.585V499.46H153.765V501.24H146.165ZM159.41 501.24V499.46H157.61V493.68H159.41V491.88H165.21V493.68H167.03V495.9H164.81V494.12H159.81V495.42H163.41V497.68H159.81V499H164.81V497.18H167.03V499.44H165.21V501.24H159.41ZM168.746 497.12V494.86H174.526V497.12H168.746ZM176.321 501.24V491.88H182.121V493.68H183.521V491.88H187.541V493.68H189.321V501.24H187.141V494.12H183.921V501.24H181.741V494.12H178.521V501.24H176.321ZM193.355 501.24V499.46H191.555V493.68H193.355V491.88H199.155V493.68H200.975V499.46H199.155V501.24H193.355ZM193.755 499H198.755V494.12H193.755V499ZM203.391 501.24V491.88H205.591V501.24H203.391ZM203.391 490.6V488.34H205.591V490.6H203.391ZM212.024 501.24V491.88H219.624V493.68H221.444V501.24H219.224V494.12H214.224V501.24H212.024ZM225.055 501.24V499.46H223.255V493.68H225.055V491.88H230.855V493.68H232.675V499.46H230.855V501.24H225.055ZM225.455 499H230.455V494.12H225.455V499ZM235.091 501.24V491.88H240.891V493.68H242.291V491.88H246.311V493.68H248.091V501.24H245.911V494.12H242.691V501.24H240.511V494.12H237.291V501.24H235.091ZM252.32 501.24V499.46H250.52V495.42H252.72V499H257.72V490.6H252.32V488.34H258.12V490.12H259.94V499.46H258.12V501.24H252.32ZM264.156 501.24V499.46H262.356V493.68H264.156V491.88H269.956V493.68H271.776V499.46H269.956V501.24H264.156ZM264.556 499H269.556V494.12H264.556V499ZM275.992 501.24V499.46H274.192V491.88H276.392V499H281.392V491.88H283.612V499.46H281.792V501.24H275.992ZM287.438 501.24V499.46H285.638V493.68H287.438V491.88H293.238V493.68H295.058V495.9H292.838V494.12H287.838V495.42H291.438V497.68H287.838V499H292.838V497.18H295.058V499.44H293.238V501.24H287.438ZM299.273 501.24V499.46H297.473V491.88H299.673V499H304.673V491.88H306.893V499.46H305.073V501.24H299.273ZM309.114 501.24V493.68H310.914V491.88H316.714V493.68H318.534V495.9H316.314V494.12H311.314V501.24H309.114ZM326.754 501.26V499.46H324.954V497.2H327.154V499H330.374V491.88H332.574V499.46H330.754V501.26H326.754ZM335.893 492.36V491.32L336.513 491.18V490.6H334.993V488.34H337.193V490.12H338.093V491.46H337.193V492.36H335.893ZM342.32 501.24V499.46H340.52V493.68H342.32V491.88H348.12V493.68H349.94V499H351.74V501.24H349.54V499.46H348.12V501.24H342.32ZM342.72 499H347.72V494.12H342.72V499ZM353.548 501.24V491.88H355.748V501.24H353.548ZM353.548 490.6V488.34H355.748V490.6H353.548ZM69 525.24V523.46H67.2V517.68H69V515.88H74.8V517.68H76.62V523.46H74.8V525.24H69ZM69.4 523H74.4V518.12H69.4V523ZM80.8359 525.24V523.46H79.0359V515.88H81.2359V523H86.2359V515.88H88.4559V523.46H86.6359V525.24H80.8359ZM92.6719 525.24V523.46H90.8719V512.34H93.0719V515.88H98.4719V517.68H100.292V523.46H98.4719V525.24H92.6719ZM93.0719 523H98.0719V518.12H93.0719V523ZM102.317 525.24V512.34H104.517V525.24H102.317ZM106.946 525.24V515.88H109.146V525.24H106.946ZM106.946 514.6V512.34H109.146V514.6H106.946ZM113.375 525.24V523.46H111.575V517.68H113.375V515.88H119.175V517.68H120.995V519.9H118.775V518.12H113.775V519.42H117.375V521.68H113.775V523H118.775V521.18H120.995V523.44H119.175V525.24H113.375ZM114.535 514.62V513.28H115.435V512.4H116.335V511.48H117.615V512.84H116.735V513.74H115.815V514.62H114.535ZM129.215 525.24V523.46H127.415V517.68H129.215V515.88H134.635V512.34H136.835V523.46H135.015V525.24H129.215ZM129.615 523H134.615V518.12H129.615V523ZM140.66 525.24V523.46H138.86V517.68H140.66V515.88H146.46V517.68H148.28V519.9H146.06V518.12H141.06V519.42H144.66V521.68H141.06V523H146.06V521.18H148.28V523.44H146.46V525.24H140.66ZM154.7 525.24V517.68H156.5V515.88H162.3V517.68H164.12V519.9H161.9V518.12H156.9V525.24H154.7ZM168.336 525.24V523.46H166.536V517.68H168.336V515.88H174.136V517.68H175.956V519.9H173.736V518.12H168.736V519.42H172.336V521.68H168.736V523H173.736V521.18H175.956V523.44H174.136V525.24H168.336ZM169.496 514.62V513.28H170.396V512.4H171.296V511.48H172.576V512.84H171.696V513.74H170.776V514.62H169.496ZM178.372 528.68V517.68H180.172V515.88H185.972V517.68H187.792V523.46H185.972V525.24H180.572V528.68H178.372ZM180.572 523H185.572V518.12H180.572V523ZM192.008 525.24V523.46H190.208V517.68H192.008V515.88H197.808V517.68H199.628V523.46H197.808V525.24H192.008ZM192.408 523H197.408V518.12H192.408V523ZM202.044 525.24V515.88H209.644V517.68H211.464V525.24H209.244V518.12H204.244V525.24H202.044ZM215.289 525.24V523.46H213.489V517.68H215.289V515.88H220.709V512.34H222.909V523.46H221.089V525.24H215.289ZM215.689 523H220.689V518.12H215.689V523ZM224.934 525.24V517.68H226.734V515.88H232.534V517.68H234.354V519.9H232.134V518.12H227.134V525.24H224.934ZM237.965 525.24V523.46H236.165V517.68H237.965V515.88H243.765V517.68H245.585V519.9H243.365V518.12H238.365V519.42H241.965V521.68H238.365V523H243.365V521.18H245.585V523.44H243.765V525.24H237.965ZM248.001 525V522.74H250.201V525H248.001ZM252.63 525V522.74H254.83V525H252.63ZM257.259 525V522.74H259.459V525H257.259Z" fill="black"/>
</g>
</g>
<g filter="url(#filter7_d_607_4530)">
<mask id="path-28-inside-9_607_4530" fill="white">
<path d="M50 591C50 586.582 53.5817 583 58 583H408V631C408 635.418 404.418 639 400 639H58C53.5817 639 50 635.418 50 631V591Z"/>
</mask>
<path d="M50 591C50 586.582 53.5817 583 58 583H408V631C408 635.418 404.418 639 400 639H58C53.5817 639 50 635.418 50 631V591Z" fill="white" shape-rendering="crispEdges"/>
<path d="M408 583H410V581H408V583ZM58 583V585H408V583V581H58V583ZM408 583H406V631H408H410V583H408ZM400 639V637H58V639V641H400V639ZM50 631H52V591H50H48V631H50ZM58 639V637C54.6863 637 52 634.314 52 631H50H48C48 636.523 52.4772 641 58 641V639ZM408 631H406C406 634.314 403.314 637 400 637V639V641C405.523 641 410 636.523 410 631H408ZM58 583V581C52.4772 581 48 585.477 48 591H50H52C52 587.686 54.6863 585 58 585V583Z" fill="black" mask="url(#path-28-inside-9_607_4530)"/>
<path d="M145 617.24V615.46H143.2V606.12H145V604.34H150.8V606.12H152.62V610.12H150.4V606.6H145.4V615H150.4V611.42H152.62V615.46H150.8V617.24H145ZM155.036 617.24V604.34H157.236V617.24H155.036ZM159.665 617.24V607.88H161.865V617.24H159.665ZM159.665 606.6V604.34H161.865V606.6H159.665ZM171.103 620.68V617.24H165.703V615.46H163.903V609.68H165.703V607.88H171.503V609.68H173.323V620.68H171.103ZM166.103 615H171.103V610.12H166.103V615ZM177.148 617.24V615.46H175.348V607.88H177.548V615H182.548V607.88H184.768V615.46H182.948V617.24H177.148ZM188.594 617.24V615.46H186.794V609.68H188.594V607.88H194.394V609.68H196.214V611.9H193.994V610.12H188.994V611.42H192.594V613.68H188.994V615H193.994V613.18H196.214V615.44H194.394V617.24H188.594ZM198.63 617.24V609.68H200.43V607.88H206.23V609.68H208.05V611.9H205.83V610.12H200.83V617.24H198.63ZM214.47 620.68V609.68H216.27V607.88H222.07V609.68H223.89V615.46H222.07V617.24H216.67V620.68H214.47ZM216.67 615H221.67V610.12H216.67V615ZM228.105 617.24V615.46H226.305V609.68H228.105V607.88H233.905V609.68H235.725V615.46H233.905V617.24H228.105ZM228.505 615H233.505V610.12H228.505V615ZM239.941 617.24V615.46H238.141V607.88H240.341V615H245.341V607.88H247.561V615.46H245.741V617.24H239.941ZM249.782 617.24V609.68H251.582V607.88H257.382V609.68H259.202V611.9H256.982V610.12H251.982V617.24H249.782ZM265.622 617.24V609.68H267.422V607.88H273.222V609.68H275.042V611.9H272.822V610.12H267.822V617.24H265.622ZM279.258 617.24V615.46H277.458V609.68H279.258V607.88H285.058V609.68H286.878V611.9H284.658V610.12H279.658V611.42H283.258V613.68H279.658V615H284.658V613.18H286.878V615.44H285.058V617.24H279.258ZM280.418 606.62V605.28H281.318V604.4H282.218V603.48H283.498V604.84H282.618V605.74H281.698V606.62H280.418ZM289.294 620.68V609.68H291.094V607.88H296.894V609.68H298.714V615.46H296.894V617.24H291.494V620.68H289.294ZM291.494 615H296.494V610.12H291.494V615ZM302.93 617.24V615.46H301.13V609.68H302.93V607.88H308.73V609.68H310.55V615.46H308.73V617.24H302.93ZM303.33 615H308.33V610.12H303.33V615ZM312.966 617.24V607.88H320.566V609.68H322.386V617.24H320.166V610.12H315.166V617.24H312.966ZM326.211 617.24V615.46H324.411V609.68H326.211V607.88H331.631V604.34H333.831V615.46H332.011V617.24H326.211ZM326.611 615H331.611V610.12H326.611V615ZM335.856 617.24V609.68H337.656V607.88H343.456V609.68H345.276V611.9H343.056V610.12H338.056V617.24H335.856ZM348.887 617.24V615.46H347.087V609.68H348.887V607.88H354.687V609.68H356.507V611.9H354.287V610.12H349.287V611.42H352.887V613.68H349.287V615H354.287V613.18H356.507V615.44H354.687V617.24H348.887Z" fill="black"/>
<path d="M391.484 599.234C391.859 599.469 392.047 599.891 391.906 600.312L388.906 620.562C388.859 620.891 388.672 621.219 388.344 621.359C388.203 621.453 388.016 621.547 387.828 621.547C387.641 621.547 387.5 621.5 387.359 621.453L382.766 619.484L377.562 622.859C377.375 622.953 377.141 623 376.953 623C376.812 623 376.625 622.953 376.438 622.906C376.062 622.672 375.875 622.297 375.875 621.875V616.578L368.656 613.578C368.281 613.391 368 613.016 368 612.594C367.953 612.172 368.188 611.75 368.562 611.562L390.312 599.188C390.688 598.953 391.156 599 391.484 599.234ZM385.297 604.625L371.656 612.359L376.531 614.422L385.297 604.625ZM378.078 619.812L380.234 618.453L378.078 617.516V619.812ZM386.938 618.781L389.188 603.641L378.688 615.312L386.938 618.781Z" fill="black"/>
</g>
</g>
<defs>
<filter id="filter0_d_607_4530" x="0" y="0" width="448" height="691" filterUnits="userSpaceOnUse" color-interpolation-filters="sRGB">
<feFlood flood-opacity="0" result="BackgroundImageFix"/>
<feColorMatrix in="SourceAlpha" type="matrix" values="0 0 0 0 0 0 0 0 0 0 0 0 0 0 0 0 0 0 127 0" result="hardAlpha"/>
<feOffset dx="-6" dy="8"/>
<feGaussianBlur stdDeviation="2"/>
<feComposite in2="hardAlpha" operator="out"/>
<feColorMatrix type="matrix" values="0 0 0 0 0 0 0 0 0 0 0 0 0 0 0 0 0 0 1 0"/>
<feBlend mode="normal" in2="BackgroundImageFix" result="effect1_dropShadow_607_4530"/>
<feBlend mode="normal" in="SourceGraphic" in2="effect1_dropShadow_607_4530" result="shape"/>
</filter>
<filter id="filter1_d_607_4530" x="410" y="15.4766" width="25" height="28.043" filterUnits="userSpaceOnUse" color-interpolation-filters="sRGB">
<feFlood flood-opacity="0" result="BackgroundImageFix"/>
<feColorMatrix in="SourceAlpha" type="matrix" values="0 0 0 0 0 0 0 0 0 0 0 0 0 0 0 0 0 0 127 0" result="hardAlpha"/>
<feOffset dy="4"/>
<feGaussianBlur stdDeviation="2"/>
<feComposite in2="hardAlpha" operator="out"/>
<feColorMatrix type="matrix" values="0 0 0 0 0 0 0 0 0 0 0 0 0 0 0 0 0 0 0.5 0"/>
<feBlend mode="normal" in2="BackgroundImageFix" result="effect1_dropShadow_607_4530"/>
<feBlend mode="normal" in="SourceGraphic" in2="effect1_dropShadow_607_4530" result="shape"/>
</filter>
<filter id="filter2_d_607_4530" x="192" y="105" width="216" height="58" filterUnits="userSpaceOnUse" color-interpolation-filters="sRGB">
<feFlood flood-opacity="0" result="BackgroundImageFix"/>
<feColorMatrix in="SourceAlpha" type="matrix" values="0 0 0 0 0 0 0 0 0 0 0 0 0 0 0 0 0 0 127 0" result="hardAlpha"/>
<feOffset dx="-4" dy="4"/>
<feComposite in2="hardAlpha" operator="out"/>
<feColorMatrix type="matrix" values="0 0 0 0 0 0 0 0 0 0 0 0 0 0 0 0 0 0 1 0"/>
<feBlend mode="normal" in2="BackgroundImageFix" result="effect1_dropShadow_607_4530"/>
<feBlend mode="normal" in="SourceGraphic" in2="effect1_dropShadow_607_4530" result="shape"/>
</filter>
<filter id="filter3_d_607_4530" x="46" y="183" width="200" height="60" filterUnits="userSpaceOnUse" color-interpolation-filters="sRGB">
<feFlood flood-opacity="0" result="BackgroundImageFix"/>
<feColorMatrix in="SourceAlpha" type="matrix" values="0 0 0 0 0 0 0 0 0 0 0 0 0 0 0 0 0 0 127 0" result="hardAlpha"/>
<feOffset dx="-4" dy="4"/>
<feComposite in2="hardAlpha" operator="out"/>
<feColorMatrix type="matrix" values="0 0 0 0 0 0 0 0 0 0 0 0 0 0 0 0 0 0 1 0"/>
<feBlend mode="normal" in2="BackgroundImageFix" result="effect1_dropShadow_607_4530"/>
<feBlend mode="normal" in="SourceGraphic" in2="effect1_dropShadow_607_4530" result="shape"/>
</filter>
<filter id="filter4_d_607_4530" x="216" y="263" width="192" height="58" filterUnits="userSpaceOnUse" color-interpolation-filters="sRGB">
<feFlood flood-opacity="0" result="BackgroundImageFix"/>
<feColorMatrix in="SourceAlpha" type="matrix" values="0 0 0 0 0 0 0 0 0 0 0 0 0 0 0 0 0 0 127 0" result="hardAlpha"/>
<feOffset dx="-4" dy="4"/>
<feComposite in2="hardAlpha" operator="out"/>
<feColorMatrix type="matrix" values="0 0 0 0 0 0 0 0 0 0 0 0 0 0 0 0 0 0 1 0"/>
<feBlend mode="normal" in2="BackgroundImageFix" result="effect1_dropShadow_607_4530"/>
<feBlend mode="normal" in="SourceGraphic" in2="effect1_dropShadow_607_4530" result="shape"/>
</filter>
<filter id="filter5_d_607_4530" x="300" y="389" width="108" height="58" filterUnits="userSpaceOnUse" color-interpolation-filters="sRGB">
<feFlood flood-opacity="0" result="BackgroundImageFix"/>
<feColorMatrix in="SourceAlpha" type="matrix" values="0 0 0 0 0 0 0 0 0 0 0 0 0 0 0 0 0 0 127 0" result="hardAlpha"/>
<feOffset dx="-4" dy="4"/>
<feComposite in2="hardAlpha" operator="out"/>
<feColorMatrix type="matrix" values="0 0 0 0 0 0 0 0 0 0 0 0 0 0 0 0 0 0 1 0"/>
<feBlend mode="normal" in2="BackgroundImageFix" result="effect1_dropShadow_607_4530"/>
<feBlend mode="normal" in="SourceGraphic" in2="effect1_dropShadow_607_4530" result="shape"/>
</filter>
<filter id="filter6_d_607_4530" x="46" y="467" width="362" height="84" filterUnits="userSpaceOnUse" color-interpolation-filters="sRGB">
<feFlood flood-opacity="0" result="BackgroundImageFix"/>
<feColorMatrix in="SourceAlpha" type="matrix" values="0 0 0 0 0 0 0 0 0 0 0 0 0 0 0 0 0 0 127 0" result="hardAlpha"/>
<feOffset dx="-4" dy="4"/>
<feComposite in2="hardAlpha" operator="out"/>
<feColorMatrix type="matrix" values="0 0 0 0 0 0 0 0 0 0 0 0 0 0 0 0 0 0 1 0"/>
<feBlend mode="normal" in2="BackgroundImageFix" result="effect1_dropShadow_607_4530"/>
<feBlend mode="normal" in="SourceGraphic" in2="effect1_dropShadow_607_4530" result="shape"/>
</filter>
<filter id="filter7_d_607_4530" x="46" y="583" width="362" height="60" filterUnits="userSpaceOnUse" color-interpolation-filters="sRGB">
<feFlood flood-opacity="0" result="BackgroundImageFix"/>
<feColorMatrix in="SourceAlpha" type="matrix" values="0 0 0 0 0 0 0 0 0 0 0 0 0 0 0 0 0 0 127 0" result="hardAlpha"/>
<feOffset dx="-4" dy="4"/>
<feComposite in2="hardAlpha" operator="out"/>
<feColorMatrix type="matrix" values="0 0 0 0 0 0 0 0 0 0 0 0 0 0 0 0 0 0 1 0"/>
<feBlend mode="normal" in2="BackgroundImageFix" result="effect1_dropShadow_607_4530"/>
<feBlend mode="normal" in="SourceGraphic" in2="effect1_dropShadow_607_4530" result="shape"/>
</filter>
<clipPath id="clip0_607_4530">
<rect width="358" height="460" fill="white" transform="translate(50 91)"/>
</clipPath>
</defs>
</svg>
