<svg width="374" height="369" viewBox="0 0 374 369" fill="none" xmlns="http://www.w3.org/2000/svg">
<g filter="url(#filter0_d_102_1614)">
<mask id="path-1-inside-1_102_1614" fill="white">
<path d="M10 8C10 3.58172 13.5817 0 18 0H366C370.418 0 374 3.58172 374 8V101C374 105.418 370.418 109 366 109H18C13.5817 109 10 105.418 10 101V8Z"/>
</mask>
<path d="M10 8C10 3.58172 13.5817 0 18 0H366C370.418 0 374 3.58172 374 8V101C374 105.418 370.418 109 366 109H18C13.5817 109 10 105.418 10 101V8Z" fill="#8ECEE9" fill-opacity="0.5" shape-rendering="crispEdges"/>
<path d="M18 0V3H366V0V-3H18V0ZM374 8H371V101H374H377V8H374ZM366 109V106H18V109V112H366V109ZM10 101H13V8H10H7V101H10ZM18 109V106C15.2386 106 13 103.761 13 101H10H7C7 107.075 11.9249 112 18 112V109ZM374 101H371C371 103.761 368.761 106 366 106V109V112C372.075 112 377 107.075 377 101H374ZM366 0V3C368.761 3 371 5.23858 371 8H374H377C377 1.92487 372.075 -3 366 -3V0ZM18 0V-3C11.9249 -3 7 1.92486 7 8H10H13C13 5.23858 15.2386 3 18 3V0Z" fill="#8EB2FF" mask="url(#path-1-inside-1_102_1614)"/>
<rect x="26" y="16" width="77" height="77" fill="#D9D9D9"/>
<path d="M121.327 45.352V27.336H124.143V24.584H133.871V27.336H136.719V37.128H133.871V39.88H132.495V41H135.279V45.352H131.247V42.632H128.367V39.88H125.391V45.352H121.327ZM125.391 35.496H132.623V28.968H125.391V35.496ZM143.424 45.352V42.632H140.608V32.808H143.424V30.056H153.152V32.808H156V41H158.848V45.352H154.752V42.632H153.152V45.352H143.424ZM144.672 41H151.904V34.408H144.672V41ZM162.765 50.664V32.808H165.581V30.056H175.309V32.808H178.157V42.632H175.309V45.352H166.829V50.664H162.765ZM166.829 41H174.061V34.408H166.829V41ZM182.046 50.664V32.808H184.862V30.056H194.59V32.808H197.438V42.632H194.59V45.352H186.11V50.664H182.046ZM186.11 41H193.342V34.408H186.11V41ZM204.143 45.352V42.632H201.327V32.808H204.143V30.056H213.871V32.808H216.719V37.128H212.623V34.408H205.391V35.496H211.055V39.88H205.391V41H212.623V38.216H216.719V42.6H213.871V45.352H204.143ZM220.608 45.352V24.584H224.672V45.352H220.608Z" fill="#333333"/>
<path d="M120.464 86.264V72.752H122.576V70.688H125.624V72.752H127.76V76.856H128.936V72.752H131.072V70.688H134.144V72.752H136.232V86.264H133.208V73.976H132.008V78.056H129.872V84.224H126.824V78.056H124.688V73.976H123.512V86.264H120.464ZM141.279 86.264V84.224H139.167V76.856H141.279V74.792H148.575V76.856H150.711V80.096H147.639V78.056H142.215V78.872H146.463V82.16H142.215V83H147.639V80.912H150.711V84.2H148.575V86.264H141.279ZM153.628 86.264V83H162.1V82.16H155.74V80.096H153.628V76.856H155.74V74.792H165.172V78.056H156.676V78.872H163.036V80.936H165.172V84.224H163.036V86.264H153.628ZM167.62 86.264V83H176.092V82.16H169.732V80.096H167.62V76.856H169.732V74.792H179.164V78.056H170.668V78.872H177.028V80.936H179.164V84.224H177.028V86.264H167.62ZM183.724 86.264V84.224H181.612V76.856H183.724V74.792H191.02V76.856H193.156V83H195.292V86.264H192.22V84.224H191.02V86.264H183.724ZM184.66 83H190.084V78.056H184.66V83ZM199.146 90.368V88.328H197.034V85.064H200.082V87.104H205.53V84.224H199.146V82.16H197.034V76.856H199.146V74.792H206.466V76.856H208.578V88.328H206.466V90.368H199.146ZM200.082 80.936H205.53V78.056H200.082V80.936ZM212.881 86.264V84.224H210.769V76.856H212.881V74.792H220.177V76.856H222.313V80.096H219.241V78.056H213.817V78.872H218.065V82.16H213.817V83H219.241V80.912H222.313V84.2H220.177V86.264H212.881ZM232.146 86.264V84.224H230.034V76.856H232.146V74.792H238.53V70.688H241.602V84.224H239.442V86.264H232.146ZM233.082 83H238.506V78.056H233.082V83ZM246.139 86.264V84.224H244.027V76.856H246.139V74.792H253.435V76.856H255.571V80.096H252.499V78.056H247.075V78.872H251.323V82.16H247.075V83H252.499V80.912H255.571V84.2H253.435V86.264H246.139ZM263.292 86.264V70.688H266.34V86.264H263.292ZM270.912 86.264V84.224H268.8V76.856H270.912V74.792H278.208V76.856H280.344V83H282.48V86.264H279.408V84.224H278.208V86.264H270.912ZM271.848 83H277.272V78.056H271.848V83ZM290.222 86.264V74.792H299.63V76.856H301.766V86.264H298.694V78.056H293.27V86.264H290.222ZM306.068 86.264V84.224H303.956V76.856H306.068V74.792H313.364V76.856H315.5V84.224H313.364V86.264H306.068ZM307.004 83H312.428V78.056H307.004V83ZM322.641 86.264V84.224H320.529V78.056H318.417V74.792H320.529V70.688H323.577V74.792H329.961V78.056H323.577V83H329.025V80.936H332.097V84.224H329.961V86.264H322.641ZM335.034 86.264V74.792H338.082V86.264H335.034ZM335.034 73.976V70.688H338.082V73.976H335.034ZM345.907 86V82.712H348.979V86H345.907ZM341.011 86V82.712H344.059V86H341.011ZM350.827 86V82.712H353.875V86H350.827Z" fill="#686868"/>
</g>
<g filter="url(#filter1_d_102_1614)">
<mask id="path-6-inside-2_102_1614" fill="white">
<path d="M10 133C10 128.582 13.5817 125 18 125H366C370.418 125 374 128.582 374 133V226C374 230.418 370.418 234 366 234H18C13.5817 234 10 230.418 10 226V133Z"/>
</mask>
<path d="M10 133C10 128.582 13.5817 125 18 125H366C370.418 125 374 128.582 374 133V226C374 230.418 370.418 234 366 234H18C13.5817 234 10 230.418 10 226V133Z" fill="#8ECEE9" fill-opacity="0.5" shape-rendering="crispEdges"/>
<path d="M18 125V128H366V125V122H18V125ZM374 133H371V226H374H377V133H374ZM366 234V231H18V234V237H366V234ZM10 226H13V133H10H7V226H10ZM18 234V231C15.2386 231 13 228.761 13 226H10H7C7 232.075 11.9249 237 18 237V234ZM374 226H371C371 228.761 368.761 231 366 231V234V237C372.075 237 377 232.075 377 226H374ZM366 125V128C368.761 128 371 130.239 371 133H374H377C377 126.925 372.075 122 366 122V125ZM18 125V122C11.9249 122 7 126.925 7 133H10H13C13 130.239 15.2386 128 18 128V125Z" fill="#8EB2FF" mask="url(#path-6-inside-2_102_1614)"/>
<rect x="26" y="141" width="77" height="77" fill="#D9D9D9"/>
<path d="M121.327 170.352V152.336H124.143V149.584H133.871V152.336H136.719V162.128H133.871V164.88H132.495V166H135.279V170.352H131.247V167.632H128.367V164.88H125.391V170.352H121.327ZM125.391 160.496H132.623V153.968H125.391V160.496ZM143.424 170.352V167.632H140.608V157.808H143.424V155.056H153.152V157.808H156V166H158.848V170.352H154.752V167.632H153.152V170.352H143.424ZM144.672 166H151.904V159.408H144.672V166ZM162.765 175.664V157.808H165.581V155.056H175.309V157.808H178.157V167.632H175.309V170.352H166.829V175.664H162.765ZM166.829 166H174.061V159.408H166.829V166ZM182.046 175.664V157.808H184.862V155.056H194.59V157.808H197.438V167.632H194.59V170.352H186.11V175.664H182.046ZM186.11 166H193.342V159.408H186.11V166ZM204.143 170.352V167.632H201.327V157.808H204.143V155.056H213.871V157.808H216.719V162.128H212.623V159.408H205.391V160.496H211.055V164.88H205.391V166H212.623V163.216H216.719V167.6H213.871V170.352H204.143ZM220.608 170.352V149.584H224.672V170.352H220.608Z" fill="#333333"/>
<path d="M120.464 211.264V197.752H122.576V195.688H125.624V197.752H127.76V201.856H128.936V197.752H131.072V195.688H134.144V197.752H136.232V211.264H133.208V198.976H132.008V203.056H129.872V209.224H126.824V203.056H124.688V198.976H123.512V211.264H120.464ZM141.279 211.264V209.224H139.167V201.856H141.279V199.792H148.575V201.856H150.711V205.096H147.639V203.056H142.215V203.872H146.463V207.16H142.215V208H147.639V205.912H150.711V209.2H148.575V211.264H141.279ZM153.628 211.264V208H162.1V207.16H155.74V205.096H153.628V201.856H155.74V199.792H165.172V203.056H156.676V203.872H163.036V205.936H165.172V209.224H163.036V211.264H153.628ZM167.62 211.264V208H176.092V207.16H169.732V205.096H167.62V201.856H169.732V199.792H179.164V203.056H170.668V203.872H177.028V205.936H179.164V209.224H177.028V211.264H167.62ZM183.724 211.264V209.224H181.612V201.856H183.724V199.792H191.02V201.856H193.156V208H195.292V211.264H192.22V209.224H191.02V211.264H183.724ZM184.66 208H190.084V203.056H184.66V208ZM199.146 215.368V213.328H197.034V210.064H200.082V212.104H205.53V209.224H199.146V207.16H197.034V201.856H199.146V199.792H206.466V201.856H208.578V213.328H206.466V215.368H199.146ZM200.082 205.936H205.53V203.056H200.082V205.936ZM212.881 211.264V209.224H210.769V201.856H212.881V199.792H220.177V201.856H222.313V205.096H219.241V203.056H213.817V203.872H218.065V207.16H213.817V208H219.241V205.912H222.313V209.2H220.177V211.264H212.881ZM232.146 211.264V209.224H230.034V201.856H232.146V199.792H238.53V195.688H241.602V209.224H239.442V211.264H232.146ZM233.082 208H238.506V203.056H233.082V208ZM246.139 211.264V209.224H244.027V201.856H246.139V199.792H253.435V201.856H255.571V205.096H252.499V203.056H247.075V203.872H251.323V207.16H247.075V208H252.499V205.912H255.571V209.2H253.435V211.264H246.139ZM263.292 211.264V195.688H266.34V211.264H263.292ZM270.912 211.264V209.224H268.8V201.856H270.912V199.792H278.208V201.856H280.344V208H282.48V211.264H279.408V209.224H278.208V211.264H270.912ZM271.848 208H277.272V203.056H271.848V208ZM290.222 211.264V199.792H299.63V201.856H301.766V211.264H298.694V203.056H293.27V211.264H290.222ZM306.068 211.264V209.224H303.956V201.856H306.068V199.792H313.364V201.856H315.5V209.224H313.364V211.264H306.068ZM307.004 208H312.428V203.056H307.004V208ZM322.641 211.264V209.224H320.529V203.056H318.417V199.792H320.529V195.688H323.577V199.792H329.961V203.056H323.577V208H329.025V205.936H332.097V209.224H329.961V211.264H322.641ZM335.034 211.264V199.792H338.082V211.264H335.034ZM335.034 198.976V195.688H338.082V198.976H335.034ZM345.907 211V207.712H348.979V211H345.907ZM341.011 211V207.712H344.059V211H341.011ZM350.827 211V207.712H353.875V211H350.827Z" fill="#686868"/>
</g>
<g filter="url(#filter2_d_102_1614)">
<mask id="path-11-inside-3_102_1614" fill="white">
<path d="M10 258C10 253.582 13.5817 250 18 250H366C370.418 250 374 253.582 374 258V351C374 355.418 370.418 359 366 359H18C13.5817 359 10 355.418 10 351V258Z"/>
</mask>
<path d="M10 258C10 253.582 13.5817 250 18 250H366C370.418 250 374 253.582 374 258V351C374 355.418 370.418 359 366 359H18C13.5817 359 10 355.418 10 351V258Z" fill="#8ECEE9" fill-opacity="0.5" shape-rendering="crispEdges"/>
<path d="M18 250V253H366V250V247H18V250ZM374 258H371V351H374H377V258H374ZM366 359V356H18V359V362H366V359ZM10 351H13V258H10H7V351H10ZM18 359V356C15.2386 356 13 353.761 13 351H10H7C7 357.075 11.9249 362 18 362V359ZM374 351H371C371 353.761 368.761 356 366 356V359V362C372.075 362 377 357.075 377 351H374ZM366 250V253C368.761 253 371 255.239 371 258H374H377C377 251.925 372.075 247 366 247V250ZM18 250V247C11.9249 247 7 251.925 7 258H10H13C13 255.239 15.2386 253 18 253V250Z" fill="#8EB2FF" mask="url(#path-11-inside-3_102_1614)"/>
<rect x="26" y="266" width="77" height="77" fill="#D9D9D9"/>
<path d="M121.327 295.352V277.336H124.143V274.584H133.871V277.336H136.719V287.128H133.871V289.88H132.495V291H135.279V295.352H131.247V292.632H128.367V289.88H125.391V295.352H121.327ZM125.391 285.496H132.623V278.968H125.391V285.496ZM143.424 295.352V292.632H140.608V282.808H143.424V280.056H153.152V282.808H156V291H158.848V295.352H154.752V292.632H153.152V295.352H143.424ZM144.672 291H151.904V284.408H144.672V291ZM162.765 300.664V282.808H165.581V280.056H175.309V282.808H178.157V292.632H175.309V295.352H166.829V300.664H162.765ZM166.829 291H174.061V284.408H166.829V291ZM182.046 300.664V282.808H184.862V280.056H194.59V282.808H197.438V292.632H194.59V295.352H186.11V300.664H182.046ZM186.11 291H193.342V284.408H186.11V291ZM204.143 295.352V292.632H201.327V282.808H204.143V280.056H213.871V282.808H216.719V287.128H212.623V284.408H205.391V285.496H211.055V289.88H205.391V291H212.623V288.216H216.719V292.6H213.871V295.352H204.143ZM220.608 295.352V274.584H224.672V295.352H220.608Z" fill="#333333"/>
<path d="M120.464 336.264V322.752H122.576V320.688H125.624V322.752H127.76V326.856H128.936V322.752H131.072V320.688H134.144V322.752H136.232V336.264H133.208V323.976H132.008V328.056H129.872V334.224H126.824V328.056H124.688V323.976H123.512V336.264H120.464ZM141.279 336.264V334.224H139.167V326.856H141.279V324.792H148.575V326.856H150.711V330.096H147.639V328.056H142.215V328.872H146.463V332.16H142.215V333H147.639V330.912H150.711V334.2H148.575V336.264H141.279ZM153.628 336.264V333H162.1V332.16H155.74V330.096H153.628V326.856H155.74V324.792H165.172V328.056H156.676V328.872H163.036V330.936H165.172V334.224H163.036V336.264H153.628ZM167.62 336.264V333H176.092V332.16H169.732V330.096H167.62V326.856H169.732V324.792H179.164V328.056H170.668V328.872H177.028V330.936H179.164V334.224H177.028V336.264H167.62ZM183.724 336.264V334.224H181.612V326.856H183.724V324.792H191.02V326.856H193.156V333H195.292V336.264H192.22V334.224H191.02V336.264H183.724ZM184.66 333H190.084V328.056H184.66V333ZM199.146 340.368V338.328H197.034V335.064H200.082V337.104H205.53V334.224H199.146V332.16H197.034V326.856H199.146V324.792H206.466V326.856H208.578V338.328H206.466V340.368H199.146ZM200.082 330.936H205.53V328.056H200.082V330.936ZM212.881 336.264V334.224H210.769V326.856H212.881V324.792H220.177V326.856H222.313V330.096H219.241V328.056H213.817V328.872H218.065V332.16H213.817V333H219.241V330.912H222.313V334.2H220.177V336.264H212.881ZM232.146 336.264V334.224H230.034V326.856H232.146V324.792H238.53V320.688H241.602V334.224H239.442V336.264H232.146ZM233.082 333H238.506V328.056H233.082V333ZM246.139 336.264V334.224H244.027V326.856H246.139V324.792H253.435V326.856H255.571V330.096H252.499V328.056H247.075V328.872H251.323V332.16H247.075V333H252.499V330.912H255.571V334.2H253.435V336.264H246.139ZM263.292 336.264V320.688H266.34V336.264H263.292ZM270.912 336.264V334.224H268.8V326.856H270.912V324.792H278.208V326.856H280.344V333H282.48V336.264H279.408V334.224H278.208V336.264H270.912ZM271.848 333H277.272V328.056H271.848V333ZM290.222 336.264V324.792H299.63V326.856H301.766V336.264H298.694V328.056H293.27V336.264H290.222ZM306.068 336.264V334.224H303.956V326.856H306.068V324.792H313.364V326.856H315.5V334.224H313.364V336.264H306.068ZM307.004 333H312.428V328.056H307.004V333ZM322.641 336.264V334.224H320.529V328.056H318.417V324.792H320.529V320.688H323.577V324.792H329.961V328.056H323.577V333H329.025V330.936H332.097V334.224H329.961V336.264H322.641ZM335.034 336.264V324.792H338.082V336.264H335.034ZM335.034 323.976V320.688H338.082V323.976H335.034ZM345.907 336V332.712H348.979V336H345.907ZM341.011 336V332.712H344.059V336H341.011ZM350.827 336V332.712H353.875V336H350.827Z" fill="#686868"/>
</g>
<defs>
<filter id="filter0_d_102_1614" x="0" y="0" width="374" height="119" filterUnits="userSpaceOnUse" color-interpolation-filters="sRGB">
<feFlood flood-opacity="0" result="BackgroundImageFix"/>
<feColorMatrix in="SourceAlpha" type="matrix" values="0 0 0 0 0 0 0 0 0 0 0 0 0 0 0 0 0 0 127 0" result="hardAlpha"/>
<feOffset dx="-6" dy="6"/>
<feGaussianBlur stdDeviation="2"/>
<feComposite in2="hardAlpha" operator="out"/>
<feColorMatrix type="matrix" values="0 0 0 0 0 0 0 0 0 0 0 0 0 0 0 0 0 0 1 0"/>
<feBlend mode="normal" in2="BackgroundImageFix" result="effect1_dropShadow_102_1614"/>
<feBlend mode="normal" in="SourceGraphic" in2="effect1_dropShadow_102_1614" result="shape"/>
</filter>
<filter id="filter1_d_102_1614" x="0" y="125" width="374" height="119" filterUnits="userSpaceOnUse" color-interpolation-filters="sRGB">
<feFlood flood-opacity="0" result="BackgroundImageFix"/>
<feColorMatrix in="SourceAlpha" type="matrix" values="0 0 0 0 0 0 0 0 0 0 0 0 0 0 0 0 0 0 127 0" result="hardAlpha"/>
<feOffset dx="-6" dy="6"/>
<feGaussianBlur stdDeviation="2"/>
<feComposite in2="hardAlpha" operator="out"/>
<feColorMatrix type="matrix" values="0 0 0 0 0 0 0 0 0 0 0 0 0 0 0 0 0 0 1 0"/>
<feBlend mode="normal" in2="BackgroundImageFix" result="effect1_dropShadow_102_1614"/>
<feBlend mode="normal" in="SourceGraphic" in2="effect1_dropShadow_102_1614" result="shape"/>
</filter>
<filter id="filter2_d_102_1614" x="0" y="250" width="374" height="119" filterUnits="userSpaceOnUse" color-interpolation-filters="sRGB">
<feFlood flood-opacity="0" result="BackgroundImageFix"/>
<feColorMatrix in="SourceAlpha" type="matrix" values="0 0 0 0 0 0 0 0 0 0 0 0 0 0 0 0 0 0 127 0" result="hardAlpha"/>
<feOffset dx="-6" dy="6"/>
<feGaussianBlur stdDeviation="2"/>
<feComposite in2="hardAlpha" operator="out"/>
<feColorMatrix type="matrix" values="0 0 0 0 0 0 0 0 0 0 0 0 0 0 0 0 0 0 1 0"/>
<feBlend mode="normal" in2="BackgroundImageFix" result="effect1_dropShadow_102_1614"/>
<feBlend mode="normal" in="SourceGraphic" in2="effect1_dropShadow_102_1614" result="shape"/>
</filter>
</defs>
</svg>
