<svg width="412" height="108" viewBox="0 0 412 108" fill="none" xmlns="http://www.w3.org/2000/svg">
<mask id="path-1-inside-1_914_7991" fill="white">
<path d="M0 16C0 7.16344 7.16344 0 16 0H396C404.837 0 412 7.16344 412 16V92C412 100.837 404.837 108 396 108H16C7.16344 108 0 100.837 0 92V16Z"/>
</mask>
<path d="M0 16C0 7.16344 7.16344 0 16 0H396C404.837 0 412 7.16344 412 16V92C412 100.837 404.837 108 396 108H16C7.16344 108 0 100.837 0 92V16Z" fill="white"/>
<path d="M16 0V2H396V0V-2H16V0ZM412 16H410V92H412H414V16H412ZM396 108V106H16V108V110H396V108ZM0 92H2V16H0H-2V92H0ZM16 108V106C8.26801 106 2 99.732 2 92H0H-2C-2 101.941 6.05886 110 16 110V108ZM412 92H410C410 99.732 403.732 106 396 106V108V110C405.941 110 414 101.941 414 92H412ZM396 0V2C403.732 2 410 8.26801 410 16H412H414C414 6.05888 405.941 -2 396 -2V0ZM16 0V-2C6.05888 -2 -2 6.05887 -2 16H0H2C2 8.26801 8.26801 2 16 2V0Z" fill="black" mask="url(#path-1-inside-1_914_7991)"/>
<g clip-path="url(#clip0_914_7991)">
<path d="M19.5402 19.5645H16V79.258H19.5402V19.5645Z" fill="#231815"/>
<path d="M83.3918 19.5645H79.8516V79.258H83.3918V19.5645Z" fill="#231815"/>
<path d="M78.8438 19.5638V16L19.5447 16V19.5638L78.8438 19.5638Z" fill="#231815"/>
<path d="M78.8594 82.8216V79.2578H19.5603V82.8216H78.8594Z" fill="#231815"/>
<path d="M87.4375 90.9818V87.418H28.1385V90.9818H87.4375Z" fill="#231815"/>
<path d="M91.0012 27.7246H87.4609V87.4181H91.0012V27.7246Z" fill="#231815"/>
<path d="M27.3449 25.9785H23.8047V66.0355H27.3449V25.9785Z" fill="#231815"/>
<path d="M75.2277 25.9785H71.6875V66.0355H75.2277V25.9785Z" fill="#231815"/>
<path d="M71.6875 69.1009V65.5371H27.3637V69.1009H71.6875Z" fill="#231815"/>
<path d="M71.8672 28.3118V24.748L27.5434 24.748V28.3118L71.8672 28.3118Z" fill="#231815"/>
<path d="M29.1139 54.8457H27.3438V56.6276H29.1139V54.8457Z" fill="#231815"/>
<path d="M30.9029 54.8457H29.1328V56.6276H30.9029V54.8457Z" fill="#231815"/>
<path d="M29.1139 53.0645H27.3438V54.8463H29.1139V53.0645Z" fill="#231815"/>
<path d="M30.9029 53.0645H29.1328V54.8463H30.9029V53.0645Z" fill="#231815"/>
<path d="M29.1139 56.627H27.3438V58.4088H29.1139V56.627Z" fill="#231815"/>
<path d="M30.9029 56.627H29.1328V58.4088H30.9029V56.627Z" fill="#231815"/>
<path d="M32.6764 51.1934H30.9062V52.9753H32.6764V51.1934Z" fill="#231815"/>
<path d="M34.442 51.1934H32.6719V52.9753H34.442V51.1934Z" fill="#231815"/>
<path d="M32.6764 49.4102H30.9062V51.1921H32.6764V49.4102Z" fill="#231815"/>
<path d="M34.442 49.4102H32.6719V51.1921H34.442V49.4102Z" fill="#231815"/>
<path d="M32.6764 52.9746H30.9062V54.7565H32.6764V52.9746Z" fill="#231815"/>
<path d="M34.442 52.9746H32.6719V54.7565H34.442V52.9746Z" fill="#231815"/>
<path d="M36.1217 47.7188H34.3516V49.5006H36.1217V47.7188Z" fill="#231815"/>
<path d="M37.9186 47.7188H36.1484V49.5006H37.9186V47.7188Z" fill="#231815"/>
<path d="M36.1217 45.9355H34.3516V47.7174H36.1217V45.9355Z" fill="#231815"/>
<path d="M37.9186 45.9355H36.1484V47.7174H37.9186V45.9355Z" fill="#231815"/>
<path d="M36.1217 49.5H34.3516V51.2819H36.1217V49.5Z" fill="#231815"/>
<path d="M37.9186 49.5H36.1484V51.2819H37.9186V49.5Z" fill="#231815"/>
<path d="M41.4531 44.2253V42.4434H39.683V44.2253H41.4531Z" fill="#231815"/>
<path d="M41.4531 46.026V44.2441H39.683V46.026H41.4531Z" fill="#231815"/>
<path d="M43.2266 44.2253V42.4434H41.4564V44.2253H43.2266Z" fill="#231815"/>
<path d="M43.2266 46.026V44.2441H41.4564V46.026H43.2266Z" fill="#231815"/>
<path d="M39.6875 44.2253V42.4434H37.9174V44.2253H39.6875Z" fill="#231815"/>
<path d="M39.6875 46.026V44.2441H37.9174V46.026H39.6875Z" fill="#231815"/>
<path d="M46.7656 44.2253V42.4434H44.9955V44.2253H46.7656Z" fill="#231815"/>
<path d="M46.7656 46.026V44.2441H44.9955V46.026H46.7656Z" fill="#231815"/>
<path d="M45 44.2253V42.4434H43.2299V44.2253H45Z" fill="#231815"/>
<path d="M45 46.026V44.2441H43.2299V46.026H45Z" fill="#231815"/>
<path d="M46.7656 47.8073V46.0254H44.9955V47.8073H46.7656Z" fill="#231815"/>
<path d="M46.75 49.5885V47.8066H44.9799V49.5885H46.75Z" fill="#231815"/>
<path d="M50.3047 47.8073V46.0254H48.5346V47.8073H50.3047Z" fill="#231815"/>
<path d="M50.2891 49.5885V47.8066H48.5189V49.5885H50.2891Z" fill="#231815"/>
<path d="M48.5391 47.8073V46.0254H46.7689V47.8073H48.5391Z" fill="#231815"/>
<path d="M48.5156 49.5885V47.8066H46.7455V49.5885H48.5156Z" fill="#231815"/>
<path d="M50.2891 51.3717V49.5898H48.5189V51.3717H50.2891Z" fill="#231815"/>
<path d="M50.3047 53.153V51.3711H48.5346V53.153H50.3047Z" fill="#231815"/>
<path d="M53.8281 51.3717V49.5898H52.058V51.3717H53.8281Z" fill="#231815"/>
<path d="M53.8438 53.153V51.3711H52.0736V53.153H53.8438Z" fill="#231815"/>
<path d="M52.0547 51.3717V49.5898H50.2846V51.3717H52.0547Z" fill="#231815"/>
<path d="M52.0781 53.153V51.3711H50.308V53.153H52.0781Z" fill="#231815"/>
<path d="M53.8438 54.8463V53.0645H52.0736V54.8463H53.8438Z" fill="#231815"/>
<path d="M53.8281 56.6276V54.8457H52.058V56.6276H53.8281Z" fill="#231815"/>
<path d="M57.3906 54.8463V53.0645H55.6205V54.8463H57.3906Z" fill="#231815"/>
<path d="M57.3672 56.6276V54.8457H55.5971V56.6276H57.3672Z" fill="#231815"/>
<path d="M55.6172 54.8463V53.0645H53.8471V54.8463H55.6172Z" fill="#231815"/>
<path d="M55.5938 56.6276V54.8457H53.8236V56.6276H55.5938Z" fill="#231815"/>
<path d="M55.5938 58.4088V56.627H53.8236V58.4088H55.5938Z" fill="#231815"/>
<path d="M59.1406 58.4088V56.627H57.3705V58.4088H59.1406Z" fill="#231815"/>
<path d="M57.3672 58.4088V56.627H55.5971V58.4088H57.3672Z" fill="#231815"/>
<path d="M60.9062 58.4088V56.627H59.1361V58.4088H60.9062Z" fill="#231815"/>
<path d="M64.4453 58.4088V56.627H62.6752V58.4088H64.4453Z" fill="#231815"/>
<path d="M62.6797 58.4088V56.627H60.9096V58.4088H62.6797Z" fill="#231815"/>
<path d="M64.4453 56.6276V54.8457H62.6752V56.6276H64.4453Z" fill="#231815"/>
<path d="M62.6797 56.6276V54.8457H60.9096V56.6276H62.6797Z" fill="#231815"/>
<path d="M64.4688 65.5378V63.7559H62.6986V65.5378H64.4688Z" fill="#231815"/>
<path d="M62.6953 65.5378V63.7559H60.9252V65.5378H62.6953Z" fill="#231815"/>
<path d="M64.4688 63.7546V61.9727H62.6986V63.7546H64.4688Z" fill="#231815"/>
<path d="M62.6953 63.7546V61.9727H60.9252V63.7546H62.6953Z" fill="#231815"/>
<path d="M60.9297 61.9733V60.1914H59.1596V61.9733H60.9297Z" fill="#231815"/>
<path d="M59.1562 61.9733V60.1914H57.3861V61.9733H59.1562Z" fill="#231815"/>
<path d="M60.9062 60.1921V58.4102H59.1361V60.1921H60.9062Z" fill="#231815"/>
<path d="M59.1406 60.1921V58.4102H57.3705V60.1921H59.1406Z" fill="#231815"/>
<path d="M64.4688 54.8463V53.0645H62.6986V54.8463H64.4688Z" fill="#231815"/>
<path d="M62.6953 54.8463V53.0645H60.9252V54.8463H62.6953Z" fill="#231815"/>
<path d="M68.1641 53.0631V51.2812H66.3939V53.0631H68.1641Z" fill="#231815"/>
<path d="M66.3984 53.0631V51.2812H64.6283V53.0631H66.3984Z" fill="#231815"/>
<path d="M68.1641 51.2643V49.4824H66.3939V51.2643H68.1641Z" fill="#231815"/>
<path d="M66.3984 51.2643V49.4824H64.6283V51.2643H66.3984Z" fill="#231815"/>
<path d="M71.7109 53.0631V51.2812H69.9408V53.0631H71.7109Z" fill="#231815"/>
<path d="M69.9375 53.0631V51.2812H68.1674V53.0631H69.9375Z" fill="#231815"/>
<path d="M71.7109 51.2643V49.4824H69.9408V51.2643H71.7109Z" fill="#231815"/>
<path d="M69.9375 51.2643V49.4824H68.1674V51.2643H69.9375Z" fill="#231815"/>
<path d="M57.5625 42.444V40.6621H55.7924V42.444H57.5625Z" fill="#231815"/>
<path d="M55.7969 42.444V40.6621H54.0268V42.444H55.7969Z" fill="#231815"/>
<path d="M61.1016 42.444V40.6621H59.3314V42.444H61.1016Z" fill="#231815"/>
<path d="M59.3359 42.444V40.6621H57.5658V42.444H59.3359Z" fill="#231815"/>
<path d="M64.6094 42.444V40.6621H62.8393V42.444H64.6094Z" fill="#231815"/>
<path d="M62.8359 42.444V40.6621H61.0658V42.444H62.8359Z" fill="#231815"/>
<path d="M68.1484 42.444V40.6621H66.3783V42.444H68.1484Z" fill="#231815"/>
<path d="M66.3828 42.444V40.6621H64.6127V42.444H66.3828Z" fill="#231815"/>
<path d="M57.5625 40.6608V38.8789H55.7924V40.6608H57.5625Z" fill="#231815"/>
<path d="M55.7969 40.6608V38.8789H54.0268V40.6608H55.7969Z" fill="#231815"/>
<path d="M61.1016 40.6608V38.8789H59.3314V40.6608H61.1016Z" fill="#231815"/>
<path d="M59.3359 40.6608V38.8789H57.5658V40.6608H59.3359Z" fill="#231815"/>
<path d="M64.6094 40.6608V38.8789H62.8393V40.6608H64.6094Z" fill="#231815"/>
<path d="M62.8359 40.6608V38.8789H61.0658V40.6608H62.8359Z" fill="#231815"/>
<path d="M61.1172 46.0065V44.2246H59.3471V46.0065H61.1172Z" fill="#231815"/>
<path d="M59.3516 46.0065V44.2246H57.5814V46.0065H59.3516Z" fill="#231815"/>
<path d="M64.625 46.0065V44.2246H62.8549V46.0065H64.625Z" fill="#231815"/>
<path d="M62.8594 46.0065V44.2246H61.0893V46.0065H62.8594Z" fill="#231815"/>
<path d="M61.1172 44.2253V42.4434H59.3471V44.2253H61.1172Z" fill="#231815"/>
<path d="M59.3516 44.2253V42.4434H57.5814V44.2253H59.3516Z" fill="#231815"/>
<path d="M64.625 44.2253V42.4434H62.8549V44.2253H64.625Z" fill="#231815"/>
<path d="M62.8594 44.2253V42.4434H61.0893V44.2253H62.8594Z" fill="#231815"/>
<path d="M61.1016 35.3151V33.5332H59.3314V35.3151H61.1016Z" fill="#231815"/>
<path d="M59.3359 35.3151V33.5332H57.5658V35.3151H59.3359Z" fill="#231815"/>
<path d="M64.6094 35.3151V33.5332H62.8393V35.3151H64.6094Z" fill="#231815"/>
<path d="M62.8359 35.3151V33.5332H61.0658V35.3151H62.8359Z" fill="#231815"/>
<path d="M61.1016 33.5338V31.752H59.3314V33.5338H61.1016Z" fill="#231815"/>
<path d="M59.3359 33.5338V31.752H57.5658V33.5338H59.3359Z" fill="#231815"/>
<path d="M64.6094 33.5338V31.752H62.8393V33.5338H64.6094Z" fill="#231815"/>
<path d="M62.8359 33.5338V31.752H61.0658V33.5338H62.8359Z" fill="#231815"/>
<path d="M68.1484 40.6608V38.8789H66.3783V40.6608H68.1484Z" fill="#231815"/>
<path d="M66.3828 40.6608V38.8789H64.6127V40.6608H66.3828Z" fill="#231815"/>
<path d="M57.5625 38.8796V37.0977H55.7924V38.8796H57.5625Z" fill="#231815"/>
<path d="M55.7969 38.8796V37.0977H54.0268V38.8796H55.7969Z" fill="#231815"/>
<path d="M61.1016 38.8796V37.0977H59.3314V38.8796H61.1016Z" fill="#231815"/>
<path d="M59.3359 38.8796V37.0977H57.5658V38.8796H59.3359Z" fill="#231815"/>
<path d="M64.6094 38.8796V37.0977H62.8393V38.8796H64.6094Z" fill="#231815"/>
<path d="M62.8359 38.8796V37.0977H61.0658V38.8796H62.8359Z" fill="#231815"/>
<path d="M68.1484 38.8796V37.0977H66.3783V38.8796H68.1484Z" fill="#231815"/>
<path d="M66.3828 38.8796V37.0977H64.6127V38.8796H66.3828Z" fill="#231815"/>
<path d="M57.5625 37.0983V35.3164H55.7924V37.0983H57.5625Z" fill="#231815"/>
<path d="M55.7969 37.0983V35.3164H54.0268V37.0983H55.7969Z" fill="#231815"/>
<path d="M61.1016 37.0983V35.3164H59.3314V37.0983H61.1016Z" fill="#231815"/>
<path d="M59.3359 37.0983V35.3164H57.5658V37.0983H59.3359Z" fill="#231815"/>
<path d="M64.6094 37.0983V35.3164H62.8393V37.0983H64.6094Z" fill="#231815"/>
<path d="M62.8359 37.0983V35.3164H61.0658V37.0983H62.8359Z" fill="#231815"/>
<path d="M68.1484 37.0983V35.3164H66.3783V37.0983H68.1484Z" fill="#231815"/>
<path d="M66.3828 37.0983V35.3164H64.6127V37.0983H66.3828Z" fill="#231815"/>
</g>
<path d="M120.754 21.4707C121.319 21.4707 121.706 21.5345 121.916 21.6621C122.126 21.7897 122.23 22.013 122.23 22.332V27.582C122.23 27.8919 122.089 28.1152 121.807 28.252C121.533 28.3796 121.073 28.4434 120.426 28.4434C119.997 28.4434 119.665 28.416 119.428 28.3613C119.2 28.2975 119.04 28.2064 118.949 28.0879C118.858 27.9694 118.812 27.8008 118.812 27.582C118.812 26.6706 118.562 25.9414 118.061 25.3945C117.568 24.8477 116.862 24.5742 115.941 24.5742C114.674 24.5742 113.713 25.0299 113.057 25.9414C112.4 26.8529 112.072 28.1654 112.072 29.8789C112.072 31.5742 112.419 32.8867 113.111 33.8164C113.813 34.737 114.802 35.1973 116.078 35.1973C116.871 35.1973 117.632 35.0924 118.361 34.8828C119.09 34.6641 119.883 34.3359 120.74 33.8984C120.886 33.8255 121.023 33.7891 121.15 33.7891C121.579 33.7891 121.934 34.1673 122.217 34.9238C122.344 35.2702 122.408 35.5801 122.408 35.8535C122.408 36.3184 122.199 36.651 121.779 36.8516C119.829 37.8177 117.883 38.3008 115.941 38.3008C114.447 38.3008 113.13 37.959 111.99 37.2754C110.851 36.5918 109.967 35.6165 109.338 34.3496C108.718 33.0736 108.408 31.5833 108.408 29.8789C108.408 28.1836 108.714 26.7025 109.324 25.4355C109.935 24.1595 110.778 23.1797 111.854 22.4961C112.938 21.8125 114.164 21.4707 115.531 21.4707C117.126 21.4707 118.311 22.0449 119.086 23.1934V22.332C119.086 22.0221 119.218 21.8034 119.482 21.6758C119.747 21.5391 120.171 21.4707 120.754 21.4707ZM132.744 25.0664C134.129 25.0664 135.341 25.349 136.38 25.9141C137.419 26.4792 138.217 27.263 138.773 28.2656C139.338 29.2682 139.621 30.4076 139.621 31.6836C139.621 32.9596 139.338 34.099 138.773 35.1016C138.217 36.1042 137.419 36.888 136.38 37.4531C135.341 38.0182 134.129 38.3008 132.744 38.3008C131.358 38.3008 130.146 38.0182 129.107 37.4531C128.068 36.888 127.266 36.1042 126.701 35.1016C126.145 34.099 125.867 32.9596 125.867 31.6836C125.867 30.4076 126.145 29.2682 126.701 28.2656C127.266 27.263 128.068 26.4792 129.107 25.9141C130.146 25.349 131.358 25.0664 132.744 25.0664ZM132.744 28.1699C132.087 28.1699 131.518 28.3158 131.035 28.6074C130.552 28.89 130.178 29.2956 129.914 29.8242C129.658 30.3529 129.531 30.9727 129.531 31.6836C129.531 32.3945 129.658 33.0143 129.914 33.543C130.178 34.0716 130.552 34.4818 131.035 34.7734C131.518 35.056 132.087 35.1973 132.744 35.1973C133.4 35.1973 133.97 35.056 134.453 34.7734C134.936 34.4818 135.305 34.0716 135.56 33.543C135.824 33.0143 135.956 32.3945 135.956 31.6836C135.956 30.9727 135.824 30.3529 135.56 29.8242C135.305 29.2956 134.936 28.89 134.453 28.6074C133.97 28.3158 133.4 28.1699 132.744 28.1699ZM152.048 25.0664C152.877 25.0664 153.602 25.2487 154.222 25.6133C154.85 25.9779 155.334 26.4974 155.671 27.1719C156.008 27.8372 156.177 28.6211 156.177 29.5234V35.1973H157.229C157.448 35.1973 157.617 35.2383 157.735 35.3203C157.854 35.3932 157.94 35.5299 157.995 35.7305C158.059 35.931 158.091 36.2227 158.091 36.6055C158.091 36.9883 158.059 37.2799 157.995 37.4805C157.94 37.681 157.854 37.8177 157.735 37.8906C157.617 37.9635 157.448 38 157.229 38H152.116C151.897 38 151.729 37.9635 151.61 37.8906C151.492 37.8177 151.401 37.681 151.337 37.4805C151.282 37.2799 151.255 36.9883 151.255 36.6055C151.255 36.2227 151.282 35.931 151.337 35.7305C151.401 35.5299 151.492 35.3932 151.61 35.3203C151.729 35.2383 151.897 35.1973 152.116 35.1973H152.759V30.3301C152.759 29.6191 152.636 29.0814 152.39 28.7168C152.143 28.3522 151.733 28.1699 151.159 28.1699C150.63 28.1699 150.129 28.3932 149.655 28.8398C149.181 29.2773 148.798 29.8652 148.507 30.6035C148.224 31.3418 148.083 32.1302 148.083 32.9688V35.1973H148.725C148.944 35.1973 149.113 35.2383 149.231 35.3203C149.35 35.3932 149.436 35.5299 149.491 35.7305C149.555 35.931 149.587 36.2227 149.587 36.6055C149.587 36.9883 149.555 37.2799 149.491 37.4805C149.436 37.681 149.35 37.8177 149.231 37.8906C149.113 37.9635 148.944 38 148.725 38H143.612C143.393 38 143.225 37.9635 143.106 37.8906C142.988 37.8177 142.897 37.681 142.833 37.4805C142.778 37.2799 142.751 36.9883 142.751 36.6055C142.751 36.2227 142.778 35.931 142.833 35.7305C142.897 35.5299 142.988 35.3932 143.106 35.3203C143.225 35.2383 143.393 35.1973 143.612 35.1973H144.665V28.1699H143.339C143.12 28.1699 142.951 28.1335 142.833 28.0605C142.714 27.9876 142.623 27.8509 142.559 27.6504C142.505 27.4499 142.477 27.1582 142.477 26.7754C142.477 26.3926 142.505 26.1009 142.559 25.9004C142.623 25.6999 142.714 25.5632 142.833 25.4902C142.951 25.4082 143.12 25.3672 143.339 25.3672H146.675C146.985 25.3672 147.203 25.4355 147.331 25.5723C147.468 25.6999 147.536 25.9186 147.536 26.2285V28.2109C148.739 26.1146 150.243 25.0664 152.048 25.0664ZM165.678 21.4707C166.106 21.4707 166.435 21.5026 166.662 21.5664C166.899 21.6211 167.063 21.7077 167.155 21.8262C167.246 21.9447 167.291 22.1133 167.291 22.332V26.1875H172.364C172.683 26.1875 172.906 26.2923 173.034 26.502C173.161 26.7116 173.225 27.099 173.225 27.6641C173.225 28.2292 173.161 28.6165 173.034 28.8262C172.906 29.0267 172.683 29.127 172.364 29.127H167.291V32.9277C167.291 34.4408 167.879 35.1973 169.055 35.1973C169.474 35.1973 169.962 35.1061 170.518 34.9238C171.083 34.7324 171.739 34.4681 172.487 34.1309C172.687 34.0488 172.847 34.0078 172.965 34.0078C173.157 34.0078 173.334 34.0898 173.498 34.2539C173.662 34.4089 173.817 34.6686 173.963 35.0332C174.127 35.4434 174.209 35.776 174.209 36.0312C174.209 36.2318 174.159 36.4004 174.059 36.5371C173.968 36.6647 173.826 36.7786 173.635 36.8789C171.757 37.8268 170.131 38.3008 168.754 38.3008C167.168 38.3008 165.956 37.8587 165.118 36.9746C164.288 36.0905 163.873 34.8008 163.873 33.1055V29.127H161.235C160.916 29.127 160.692 29.0267 160.565 28.8262C160.437 28.6165 160.373 28.2292 160.373 27.6641C160.373 27.099 160.437 26.7116 160.565 26.502C160.692 26.2923 160.916 26.1875 161.235 26.1875H163.873V22.332C163.873 22.0221 164.01 21.8034 164.284 21.6758C164.566 21.5391 165.031 21.4707 165.678 21.4707ZM184.64 25.0664C186.646 25.0664 188.095 25.4993 188.988 26.3652C189.881 27.2311 190.328 28.4707 190.328 30.084V34.0352C190.328 34.3997 190.405 34.6868 190.56 34.8965C190.715 35.097 190.939 35.1973 191.23 35.1973H191.654C191.873 35.1973 192.041 35.2383 192.16 35.3203C192.278 35.3932 192.365 35.5299 192.42 35.7305C192.483 35.931 192.515 36.2227 192.515 36.6055C192.515 36.9883 192.483 37.2799 192.42 37.4805C192.365 37.681 192.278 37.8177 192.16 37.8906C192.041 37.9635 191.873 38 191.654 38H190.123C189.558 38 189.056 37.8861 188.619 37.6582C188.191 37.4212 187.862 37.0521 187.635 36.5508C186.914 37.1068 186.153 37.5397 185.351 37.8496C184.549 38.1504 183.724 38.3008 182.877 38.3008C181.847 38.3008 180.958 38.1276 180.211 37.7812C179.463 37.4258 178.889 36.9245 178.488 36.2773C178.096 35.6211 177.9 34.8509 177.9 33.9668C177.9 32.6908 178.351 31.7018 179.254 31C180.156 30.2982 181.418 29.9473 183.041 29.9473C184.253 29.9473 185.543 30.084 186.91 30.3574V29.9609C186.91 29.3503 186.719 28.8991 186.336 28.6074C185.953 28.3158 185.278 28.1699 184.312 28.1699C183.775 28.1699 183.173 28.2383 182.508 28.375C181.851 28.5026 181.2 28.6758 180.552 28.8945C180.398 28.9401 180.265 28.9629 180.156 28.9629C179.928 28.9629 179.723 28.8809 179.541 28.7168C179.368 28.5436 179.208 28.2565 179.062 27.8555C178.926 27.4544 178.857 27.1263 178.857 26.8711C178.857 26.4062 179.067 26.0964 179.486 25.9414C180.297 25.6497 181.159 25.431 182.07 25.2852C182.982 25.1393 183.838 25.0664 184.64 25.0664ZM183.383 32.7637C182.745 32.7637 182.257 32.8776 181.92 33.1055C181.592 33.3333 181.427 33.666 181.427 34.1035C181.427 34.5319 181.587 34.86 181.906 35.0879C182.234 35.3066 182.704 35.416 183.314 35.416C183.943 35.416 184.563 35.293 185.174 35.0469C185.793 34.7917 186.372 34.4453 186.91 34.0078V33.1328C185.707 32.8867 184.531 32.7637 183.383 32.7637ZM206.802 25.0664C207.367 25.0664 207.754 25.1302 207.964 25.2578C208.174 25.3854 208.279 25.6087 208.279 25.9277V30.3164C208.279 30.6263 208.137 30.8496 207.855 30.9863C207.581 31.1139 207.121 31.1777 206.474 31.1777C206.045 31.1777 205.713 31.1504 205.476 31.0957C205.248 31.0319 205.088 30.9408 204.997 30.8223C204.906 30.7038 204.861 30.5352 204.861 30.3164C204.861 29.9336 204.765 29.5781 204.573 29.25C204.391 28.9219 204.113 28.6621 203.739 28.4707C203.375 28.2702 202.933 28.1699 202.413 28.1699C201.757 28.1699 201.183 28.3158 200.691 28.6074C200.198 28.89 199.816 29.3001 199.542 29.8379C199.278 30.3665 199.146 30.9818 199.146 31.6836C199.146 32.3854 199.278 33.0052 199.542 33.543C199.816 34.0716 200.198 34.4818 200.691 34.7734C201.183 35.056 201.757 35.1973 202.413 35.1973C203.115 35.1973 203.831 35.0833 204.56 34.8555C205.298 34.6276 206.014 34.3132 206.706 33.9121C206.87 33.821 207.021 33.7754 207.157 33.7754C207.568 33.7754 207.928 34.1354 208.238 34.8555C208.402 35.2474 208.484 35.5801 208.484 35.8535C208.484 36.2637 208.288 36.5781 207.896 36.7969C207.048 37.2708 206.155 37.64 205.216 37.9043C204.286 38.1686 203.352 38.3008 202.413 38.3008C201.028 38.3008 199.811 38.0182 198.763 37.4531C197.715 36.888 196.904 36.1042 196.329 35.1016C195.764 34.099 195.482 32.9596 195.482 31.6836C195.482 30.4076 195.769 29.2682 196.343 28.2656C196.917 27.2539 197.696 26.4701 198.681 25.9141C199.674 25.349 200.782 25.0664 202.003 25.0664C203.48 25.0664 204.523 25.5996 205.134 26.666V25.9277C205.134 25.6178 205.266 25.3991 205.53 25.2715C205.795 25.1348 206.219 25.0664 206.802 25.0664ZM217.725 21.4707C218.154 21.4707 218.482 21.5026 218.71 21.5664C218.947 21.6211 219.111 21.7077 219.202 21.8262C219.293 21.9447 219.339 22.1133 219.339 22.332V26.1875H224.411C224.73 26.1875 224.953 26.2923 225.081 26.502C225.208 26.7116 225.272 27.099 225.272 27.6641C225.272 28.2292 225.208 28.6165 225.081 28.8262C224.953 29.0267 224.73 29.127 224.411 29.127H219.339V32.9277C219.339 34.4408 219.926 35.1973 221.102 35.1973C221.521 35.1973 222.009 35.1061 222.565 34.9238C223.13 34.7324 223.786 34.4681 224.534 34.1309C224.734 34.0488 224.894 34.0078 225.012 34.0078C225.204 34.0078 225.381 34.0898 225.546 34.2539C225.71 34.4089 225.865 34.6686 226.01 35.0332C226.174 35.4434 226.256 35.776 226.256 36.0312C226.256 36.2318 226.206 36.4004 226.106 36.5371C226.015 36.6647 225.874 36.7786 225.682 36.8789C223.805 37.8268 222.178 38.3008 220.801 38.3008C219.215 38.3008 218.003 37.8587 217.165 36.9746C216.335 36.0905 215.921 34.8008 215.921 33.1055V29.127H213.282C212.963 29.127 212.74 29.0267 212.612 28.8262C212.484 28.6165 212.421 28.2292 212.421 27.6641C212.421 27.099 212.484 26.7116 212.612 26.502C212.74 26.2923 212.963 26.1875 213.282 26.1875H215.921V22.332C215.921 22.0221 216.057 21.8034 216.331 21.6758C216.613 21.5391 217.078 21.4707 217.725 21.4707ZM255.226 25.3672C255.536 25.3672 255.755 25.4355 255.882 25.5723C256.019 25.6999 256.087 25.9186 256.087 26.2285V35.1973H259.929C260.148 35.1973 260.317 35.2383 260.435 35.3203C260.554 35.3932 260.64 35.5299 260.695 35.7305C260.759 35.931 260.791 36.2227 260.791 36.6055C260.791 36.9883 260.759 37.2799 260.695 37.4805C260.64 37.681 260.554 37.8177 260.435 37.8906C260.317 37.9635 260.148 38 259.929 38H248.937C248.718 38 248.55 37.9635 248.431 37.8906C248.313 37.8177 248.222 37.681 248.158 37.4805C248.103 37.2799 248.076 36.9883 248.076 36.6055C248.076 36.2227 248.103 35.931 248.158 35.7305C248.222 35.5299 248.313 35.3932 248.431 35.3203C248.55 35.2383 248.718 35.1973 248.937 35.1973H252.669V28.1699H249.757C249.539 28.1699 249.37 28.1335 249.251 28.0605C249.133 27.9876 249.042 27.8509 248.978 27.6504C248.923 27.4499 248.896 27.1582 248.896 26.7754C248.896 26.3926 248.923 26.1009 248.978 25.9004C249.042 25.6999 249.133 25.5632 249.251 25.4902C249.37 25.4082 249.539 25.3672 249.757 25.3672H255.226ZM254.337 19.3652C254.985 19.3652 255.436 19.4336 255.691 19.5703C255.955 19.6979 256.087 19.9167 256.087 20.2266V22.4688C256.087 22.7786 255.964 23.002 255.718 23.1387C255.481 23.2663 255.044 23.3301 254.406 23.3301C253.768 23.3301 253.317 23.2663 253.052 23.1387C252.797 23.002 252.669 22.7786 252.669 22.4688V20.2266C252.669 19.9076 252.788 19.6842 253.025 19.5566C253.262 19.429 253.699 19.3652 254.337 19.3652ZM273.491 25.0664C274.321 25.0664 275.045 25.2487 275.665 25.6133C276.294 25.9779 276.777 26.4974 277.114 27.1719C277.451 27.8372 277.62 28.6211 277.62 29.5234V35.1973H278.673C278.892 35.1973 279.06 35.2383 279.179 35.3203C279.297 35.3932 279.384 35.5299 279.438 35.7305C279.502 35.931 279.534 36.2227 279.534 36.6055C279.534 36.9883 279.502 37.2799 279.438 37.4805C279.384 37.681 279.297 37.8177 279.179 37.8906C279.06 37.9635 278.892 38 278.673 38H273.56C273.341 38 273.172 37.9635 273.054 37.8906C272.935 37.8177 272.844 37.681 272.78 37.4805C272.726 37.2799 272.698 36.9883 272.698 36.6055C272.698 36.2227 272.726 35.931 272.78 35.7305C272.844 35.5299 272.935 35.3932 273.054 35.3203C273.172 35.2383 273.341 35.1973 273.56 35.1973H274.202V30.3301C274.202 29.6191 274.079 29.0814 273.833 28.7168C273.587 28.3522 273.177 28.1699 272.602 28.1699C272.074 28.1699 271.573 28.3932 271.099 28.8398C270.625 29.2773 270.242 29.8652 269.95 30.6035C269.668 31.3418 269.526 32.1302 269.526 32.9688V35.1973H270.169C270.388 35.1973 270.556 35.2383 270.675 35.3203C270.793 35.3932 270.88 35.5299 270.935 35.7305C270.998 35.931 271.03 36.2227 271.03 36.6055C271.03 36.9883 270.998 37.2799 270.935 37.4805C270.88 37.681 270.793 37.8177 270.675 37.8906C270.556 37.9635 270.388 38 270.169 38H265.056C264.837 38 264.668 37.9635 264.55 37.8906C264.431 37.8177 264.34 37.681 264.276 37.4805C264.222 37.2799 264.194 36.9883 264.194 36.6055C264.194 36.2227 264.222 35.931 264.276 35.7305C264.34 35.5299 264.431 35.3932 264.55 35.3203C264.668 35.2383 264.837 35.1973 265.056 35.1973H266.108V28.1699H264.782C264.563 28.1699 264.395 28.1335 264.276 28.0605C264.158 27.9876 264.067 27.8509 264.003 27.6504C263.948 27.4499 263.921 27.1582 263.921 26.7754C263.921 26.3926 263.948 26.1009 264.003 25.9004C264.067 25.6999 264.158 25.5632 264.276 25.4902C264.395 25.4082 264.563 25.3672 264.782 25.3672H268.118C268.428 25.3672 268.647 25.4355 268.774 25.5723C268.911 25.6999 268.979 25.9186 268.979 26.2285V28.2109C270.183 26.1146 271.686 25.0664 273.491 25.0664ZM293.547 25.0664C294.112 25.0664 294.5 25.1302 294.709 25.2578C294.919 25.3854 295.024 25.6087 295.024 25.9277V30.3164C295.024 30.6263 294.883 30.8496 294.6 30.9863C294.327 31.1139 293.866 31.1777 293.219 31.1777C292.791 31.1777 292.458 31.1504 292.221 31.0957C291.993 31.0319 291.834 30.9408 291.743 30.8223C291.651 30.7038 291.606 30.5352 291.606 30.3164C291.606 29.9336 291.51 29.5781 291.319 29.25C291.136 28.9219 290.858 28.6621 290.485 28.4707C290.12 28.2702 289.678 28.1699 289.159 28.1699C288.502 28.1699 287.928 28.3158 287.436 28.6074C286.944 28.89 286.561 29.3001 286.288 29.8379C286.023 30.3665 285.891 30.9818 285.891 31.6836C285.891 32.3854 286.023 33.0052 286.288 33.543C286.561 34.0716 286.944 34.4818 287.436 34.7734C287.928 35.056 288.502 35.1973 289.159 35.1973C289.86 35.1973 290.576 35.0833 291.305 34.8555C292.043 34.6276 292.759 34.3132 293.452 33.9121C293.616 33.821 293.766 33.7754 293.903 33.7754C294.313 33.7754 294.673 34.1354 294.983 34.8555C295.147 35.2474 295.229 35.5801 295.229 35.8535C295.229 36.2637 295.033 36.5781 294.641 36.7969C293.793 37.2708 292.9 37.64 291.961 37.9043C291.032 38.1686 290.097 38.3008 289.159 38.3008C287.773 38.3008 286.556 38.0182 285.508 37.4531C284.46 36.888 283.649 36.1042 283.075 35.1016C282.51 34.099 282.227 32.9596 282.227 31.6836C282.227 30.4076 282.514 29.2682 283.088 28.2656C283.663 27.2539 284.442 26.4701 285.426 25.9141C286.42 25.349 287.527 25.0664 288.748 25.0664C290.225 25.0664 291.269 25.5996 291.879 26.666V25.9277C291.879 25.6178 292.011 25.3991 292.276 25.2715C292.54 25.1348 292.964 25.0664 293.547 25.0664ZM306.234 25.0664C307.62 25.0664 308.832 25.349 309.871 25.9141C310.91 26.4792 311.708 27.263 312.264 28.2656C312.829 29.2682 313.111 30.4076 313.111 31.6836C313.111 32.9596 312.829 34.099 312.264 35.1016C311.708 36.1042 310.91 36.888 309.871 37.4531C308.832 38.0182 307.62 38.3008 306.234 38.3008C304.849 38.3008 303.637 38.0182 302.598 37.4531C301.558 36.888 300.756 36.1042 300.191 35.1016C299.635 34.099 299.357 32.9596 299.357 31.6836C299.357 30.4076 299.635 29.2682 300.191 28.2656C300.756 27.263 301.558 26.4792 302.598 25.9141C303.637 25.349 304.849 25.0664 306.234 25.0664ZM306.234 28.1699C305.578 28.1699 305.008 28.3158 304.525 28.6074C304.042 28.89 303.668 29.2956 303.404 29.8242C303.149 30.3529 303.021 30.9727 303.021 31.6836C303.021 32.3945 303.149 33.0143 303.404 33.543C303.668 34.0716 304.042 34.4818 304.525 34.7734C305.008 35.056 305.578 35.1973 306.234 35.1973C306.89 35.1973 307.46 35.056 307.943 34.7734C308.426 34.4818 308.795 34.0716 309.051 33.543C309.315 33.0143 309.447 32.3945 309.447 31.6836C309.447 30.9727 309.315 30.3529 309.051 29.8242C308.795 29.2956 308.426 28.89 307.943 28.6074C307.46 28.3158 306.89 28.1699 306.234 28.1699ZM325.538 25.0664C326.368 25.0664 327.092 25.2487 327.712 25.6133C328.341 25.9779 328.824 26.4974 329.161 27.1719C329.499 27.8372 329.667 28.6211 329.667 29.5234V35.1973H330.72C330.939 35.1973 331.107 35.2383 331.226 35.3203C331.344 35.3932 331.431 35.5299 331.486 35.7305C331.549 35.931 331.581 36.2227 331.581 36.6055C331.581 36.9883 331.549 37.2799 331.486 37.4805C331.431 37.681 331.344 37.8177 331.226 37.8906C331.107 37.9635 330.939 38 330.72 38H325.607C325.388 38 325.219 37.9635 325.101 37.8906C324.982 37.8177 324.891 37.681 324.827 37.4805C324.773 37.2799 324.745 36.9883 324.745 36.6055C324.745 36.2227 324.773 35.931 324.827 35.7305C324.891 35.5299 324.982 35.3932 325.101 35.3203C325.219 35.2383 325.388 35.1973 325.607 35.1973H326.249V30.3301C326.249 29.6191 326.126 29.0814 325.88 28.7168C325.634 28.3522 325.224 28.1699 324.65 28.1699C324.121 28.1699 323.62 28.3932 323.146 28.8398C322.672 29.2773 322.289 29.8652 321.997 30.6035C321.715 31.3418 321.574 32.1302 321.574 32.9688V35.1973H322.216C322.435 35.1973 322.603 35.2383 322.722 35.3203C322.84 35.3932 322.927 35.5299 322.982 35.7305C323.046 35.931 323.077 36.2227 323.077 36.6055C323.077 36.9883 323.046 37.2799 322.982 37.4805C322.927 37.681 322.84 37.8177 322.722 37.8906C322.603 37.9635 322.435 38 322.216 38H317.103C316.884 38 316.715 37.9635 316.597 37.8906C316.478 37.8177 316.387 37.681 316.324 37.4805C316.269 37.2799 316.241 36.9883 316.241 36.6055C316.241 36.2227 316.269 35.931 316.324 35.7305C316.387 35.5299 316.478 35.3932 316.597 35.3203C316.715 35.2383 316.884 35.1973 317.103 35.1973H318.156V28.1699H316.829C316.611 28.1699 316.442 28.1335 316.324 28.0605C316.205 27.9876 316.114 27.8509 316.05 27.6504C315.995 27.4499 315.968 27.1582 315.968 26.7754C315.968 26.3926 315.995 26.1009 316.05 25.9004C316.114 25.6999 316.205 25.5632 316.324 25.4902C316.442 25.4082 316.611 25.3672 316.829 25.3672H320.165C320.475 25.3672 320.694 25.4355 320.822 25.5723C320.958 25.6999 321.027 25.9186 321.027 26.2285V28.2109C322.23 26.1146 323.734 25.0664 325.538 25.0664ZM342.887 25.0664C343.717 25.0664 344.441 25.2487 345.061 25.6133C345.69 25.9779 346.173 26.4974 346.51 27.1719C346.848 27.8372 347.016 28.6211 347.016 29.5234V35.1973H348.069C348.288 35.1973 348.456 35.2383 348.575 35.3203C348.693 35.3932 348.78 35.5299 348.835 35.7305C348.898 35.931 348.93 36.2227 348.93 36.6055C348.93 36.9883 348.898 37.2799 348.835 37.4805C348.78 37.681 348.693 37.8177 348.575 37.8906C348.456 37.9635 348.288 38 348.069 38H342.956C342.737 38 342.568 37.9635 342.45 37.8906C342.331 37.8177 342.24 37.681 342.176 37.4805C342.122 37.2799 342.094 36.9883 342.094 36.6055C342.094 36.2227 342.122 35.931 342.176 35.7305C342.24 35.5299 342.331 35.3932 342.45 35.3203C342.568 35.2383 342.737 35.1973 342.956 35.1973H343.598V30.3301C343.598 29.6191 343.475 29.0814 343.229 28.7168C342.983 28.3522 342.573 28.1699 341.999 28.1699C341.47 28.1699 340.969 28.3932 340.495 28.8398C340.021 29.2773 339.638 29.8652 339.346 30.6035C339.064 31.3418 338.923 32.1302 338.923 32.9688V35.1973H339.565C339.784 35.1973 339.953 35.2383 340.071 35.3203C340.19 35.3932 340.276 35.5299 340.331 35.7305C340.395 35.931 340.426 36.2227 340.426 36.6055C340.426 36.9883 340.395 37.2799 340.331 37.4805C340.276 37.681 340.19 37.8177 340.071 37.8906C339.953 37.9635 339.784 38 339.565 38H334.452C334.233 38 334.065 37.9635 333.946 37.8906C333.828 37.8177 333.736 37.681 333.673 37.4805C333.618 37.2799 333.591 36.9883 333.591 36.6055C333.591 36.2227 333.618 35.931 333.673 35.7305C333.736 35.5299 333.828 35.3932 333.946 35.3203C334.065 35.2383 334.233 35.1973 334.452 35.1973H335.505V28.1699H334.178C333.96 28.1699 333.791 28.1335 333.673 28.0605C333.554 27.9876 333.463 27.8509 333.399 27.6504C333.344 27.4499 333.317 27.1582 333.317 26.7754C333.317 26.3926 333.344 26.1009 333.399 25.9004C333.463 25.6999 333.554 25.5632 333.673 25.4902C333.791 25.4082 333.96 25.3672 334.178 25.3672H337.514C337.824 25.3672 338.043 25.4355 338.171 25.5723C338.307 25.6999 338.376 25.9186 338.376 26.2285V28.2109C339.579 26.1146 341.083 25.0664 342.887 25.0664ZM363.135 25.3672C363.445 25.3672 363.664 25.4355 363.791 25.5723C363.928 25.6999 363.996 25.9186 363.996 26.2285V35.1973H365.049C365.268 35.1973 365.436 35.2337 365.555 35.3066C365.673 35.3796 365.76 35.5163 365.815 35.7168C365.878 35.9173 365.91 36.209 365.91 36.5918C365.91 36.9746 365.878 37.2663 365.815 37.4668C365.76 37.6673 365.673 37.8086 365.555 37.8906C365.436 37.9635 365.268 38 365.049 38H361.986C361.677 38 361.453 37.9362 361.317 37.8086C361.189 37.6719 361.125 37.4486 361.125 37.1387V35.1562C359.922 37.2526 358.418 38.3008 356.613 38.3008C355.784 38.3008 355.055 38.1185 354.426 37.7539C353.806 37.3893 353.328 36.8743 352.99 36.209C352.653 35.5345 352.485 34.7461 352.485 33.8438V28.1699H351.432C351.213 28.1699 351.044 28.1335 350.926 28.0605C350.807 27.9785 350.716 27.8372 350.652 27.6367C350.598 27.4362 350.57 27.1445 350.57 26.7617C350.57 26.3789 350.598 26.0872 350.652 25.8867C350.716 25.6862 350.807 25.5495 350.926 25.4766C351.044 25.4036 351.213 25.3672 351.432 25.3672H355.041C355.351 25.3672 355.57 25.4355 355.697 25.5723C355.834 25.6999 355.902 25.9186 355.902 26.2285V33.0371C355.902 33.748 356.026 34.2858 356.272 34.6504C356.518 35.015 356.928 35.1973 357.502 35.1973C358.031 35.1973 358.532 34.9785 359.006 34.541C359.48 34.0944 359.858 33.502 360.141 32.7637C360.432 32.0254 360.578 31.237 360.578 30.3984V28.1699H359.115C358.897 28.1699 358.728 28.1335 358.61 28.0605C358.491 27.9785 358.4 27.8372 358.336 27.6367C358.281 27.4362 358.254 27.1445 358.254 26.7617C358.254 26.3789 358.281 26.0872 358.336 25.8867C358.4 25.6862 358.491 25.5495 358.61 25.4766C358.728 25.4036 358.897 25.3672 359.115 25.3672H363.135Z" fill="black"/>
<path d="M115.477 58.7266C115.654 58.7266 115.779 58.7682 115.852 58.8516C115.93 58.9297 115.969 59.0651 115.969 59.2578C115.969 59.4505 115.93 59.5885 115.852 59.6719C115.779 59.75 115.654 59.7891 115.477 59.7891H114.914V66.9375H115.477C115.654 66.9375 115.779 66.9792 115.852 67.0625C115.93 67.1406 115.969 67.276 115.969 67.4688C115.969 67.6615 115.93 67.7995 115.852 67.8828C115.779 67.9609 115.654 68 115.477 68H113.023C112.846 68 112.719 67.9609 112.641 67.8828C112.568 67.7995 112.531 67.6615 112.531 67.4688C112.531 67.276 112.568 67.1406 112.641 67.0625C112.719 66.9792 112.846 66.9375 113.023 66.9375H113.742V63.75H109.852V66.9375H110.57C110.747 66.9375 110.872 66.9792 110.945 67.0625C111.023 67.1406 111.062 67.276 111.062 67.4688C111.062 67.6615 111.023 67.7995 110.945 67.8828C110.872 67.9609 110.747 68 110.57 68H108.117C107.94 68 107.812 67.9609 107.734 67.8828C107.661 67.7995 107.625 67.6615 107.625 67.4688C107.625 67.276 107.661 67.1406 107.734 67.0625C107.812 66.9792 107.94 66.9375 108.117 66.9375H108.68V59.7891H108.117C107.94 59.7891 107.812 59.75 107.734 59.6719C107.661 59.5885 107.625 59.4505 107.625 59.2578C107.625 59.0651 107.661 58.9297 107.734 58.8516C107.812 58.7682 107.94 58.7266 108.117 58.7266H110.57C110.747 58.7266 110.872 58.7682 110.945 58.8516C111.023 58.9297 111.062 59.0651 111.062 59.2578C111.062 59.4505 111.023 59.5885 110.945 59.6719C110.872 59.75 110.747 59.7891 110.57 59.7891H109.852V62.6875H113.742V59.7891H113.023C112.846 59.7891 112.719 59.75 112.641 59.6719C112.568 59.5885 112.531 59.4505 112.531 59.2578C112.531 59.0651 112.568 58.9297 112.641 58.8516C112.719 58.7682 112.846 58.7266 113.023 58.7266H115.477ZM121.781 60.6094C122.536 60.6094 123.179 60.763 123.711 61.0703C124.247 61.3724 124.659 61.7943 124.945 62.3359C125.231 62.8724 125.396 63.4922 125.437 64.1953C125.437 64.3724 125.398 64.4974 125.32 64.5703C125.247 64.6432 125.122 64.6797 124.945 64.6797H119.289C119.325 65.4557 119.554 66.0443 119.976 66.4453C120.403 66.8411 121.005 67.0391 121.781 67.0391C122.26 67.0391 122.734 66.9792 123.203 66.8594C123.672 66.7344 124.083 66.5703 124.437 66.3672C124.526 66.3203 124.606 66.2969 124.679 66.2969C124.862 66.2969 125.01 66.4349 125.125 66.7109C125.172 66.8203 125.195 66.9193 125.195 67.0078C125.195 67.2161 125.08 67.3776 124.851 67.4922C124.45 67.6953 123.976 67.8594 123.429 67.9844C122.882 68.1094 122.333 68.1719 121.781 68.1719C120.994 68.1719 120.323 68.0208 119.765 67.7188C119.208 67.4167 118.784 66.9818 118.492 66.4141C118.2 65.8464 118.054 65.1719 118.054 64.3906C118.054 63.6458 118.213 62.987 118.531 62.4141C118.849 61.8411 119.289 61.3984 119.851 61.0859C120.414 60.7682 121.057 60.6094 121.781 60.6094ZM121.781 61.7422C121.14 61.7422 120.609 61.9062 120.187 62.2344C119.771 62.5573 119.497 63.0078 119.367 63.5859H124.14C124.031 62.987 123.778 62.5312 123.382 62.2188C122.992 61.901 122.458 61.7422 121.781 61.7422ZM135.538 60.7812C135.716 60.7812 135.841 60.8229 135.913 60.9062C135.992 60.9844 136.031 61.1198 136.031 61.3125C136.031 61.5052 135.992 61.6432 135.913 61.7266C135.841 61.8047 135.716 61.8438 135.538 61.8438H135.054L131.859 68.3906C131.52 69.0833 131.189 69.6276 130.867 70.0234C130.544 70.4193 130.179 70.7083 129.773 70.8906C129.372 71.0781 128.882 71.1823 128.304 71.2031C128.122 71.2083 127.981 71.1615 127.882 71.0625C127.783 70.9688 127.734 70.7995 127.734 70.5547C127.734 70.2161 127.872 70.0391 128.148 70.0234C128.648 69.9974 129.044 69.9141 129.335 69.7734C129.632 69.6328 129.903 69.3906 130.148 69.0469C130.398 68.7083 130.702 68.1771 131.062 67.4531L128.202 61.8438H127.71C127.533 61.8438 127.406 61.8047 127.327 61.7266C127.255 61.6432 127.218 61.5052 127.218 61.3125C127.218 61.1198 127.255 60.9844 127.327 60.9062C127.406 60.8229 127.533 60.7812 127.71 60.7812H130.476C130.653 60.7812 130.778 60.8229 130.851 60.9062C130.929 60.9844 130.968 61.1198 130.968 61.3125C130.968 61.5052 130.929 61.6432 130.851 61.7266C130.778 61.8047 130.653 61.8438 130.476 61.8438H129.476L131.679 66.2344L133.781 61.8438H133.085C132.908 61.8438 132.781 61.8047 132.702 61.7266C132.63 61.6432 132.593 61.5052 132.593 61.3125C132.593 61.1198 132.63 60.9844 132.702 60.9062C132.781 60.8229 132.908 60.7812 133.085 60.7812H135.538Z" fill="black"/>
<defs>
<clipPath id="clip0_914_7991">
<rect width="75" height="75" fill="white" transform="translate(16 16)"/>
</clipPath>
</defs>
</svg>
