<svg width="412" height="108" viewBox="0 0 412 108" fill="none" xmlns="http://www.w3.org/2000/svg">
<mask id="path-1-inside-1_796_4947" fill="white">
<path d="M0 16C0 7.16344 7.16344 0 16 0H396C404.837 0 412 7.16344 412 16V92C412 100.837 404.837 108 396 108H16C7.16344 108 0 100.837 0 92V16Z"/>
</mask>
<path d="M0 16C0 7.16344 7.16344 0 16 0H396C404.837 0 412 7.16344 412 16V92C412 100.837 404.837 108 396 108H16C7.16344 108 0 100.837 0 92V16Z" fill="white"/>
<path d="M16 0V2H396V0V-2H16V0ZM412 16H410V92H412H414V16H412ZM396 108V106H16V108V110H396V108ZM0 92H2V16H0H-2V92H0ZM16 108V106C8.26801 106 2 99.732 2 92H0H-2C-2 101.941 6.05886 110 16 110V108ZM412 92H410C410 99.732 403.732 106 396 106V108V110C405.941 110 414 101.941 414 92H412ZM396 0V2C403.732 2 410 8.26801 410 16H412H414C414 6.05888 405.941 -2 396 -2V0ZM16 0V-2C6.05888 -2 -2 6.05887 -2 16H0H2C2 8.26801 8.26801 2 16 2V0Z" fill="black" mask="url(#path-1-inside-1_796_4947)"/>
<g clip-path="url(#clip0_796_4947)">
<path d="M19.5402 19.5625H16V79.256H19.5402V19.5625Z" fill="#231815"/>
<path d="M83.3889 19.5625H79.8486V79.256H83.3889V19.5625Z" fill="#231815"/>
<path d="M78.8403 19.5638V16L19.5413 16V19.5638L78.8403 19.5638Z" fill="#231815"/>
<path d="M78.8569 82.8216V79.2578H19.5579V82.8216H78.8569Z" fill="#231815"/>
<path d="M87.4404 90.9818V87.418H28.1414V90.9818H87.4404Z" fill="#231815"/>
<path d="M90.9992 27.7266H87.459V87.4201H90.9992V27.7266Z" fill="#231815"/>
<path d="M27.3479 25.9805H23.8076V66.0375H27.3479V25.9805Z" fill="#231815"/>
<path d="M75.2297 25.9805H71.6895V66.0375H75.2297V25.9805Z" fill="#231815"/>
<path d="M71.6895 69.0989V65.5352H27.3656V69.0989H71.6895Z" fill="#231815"/>
<path d="M71.8662 28.3138V24.75L27.5424 24.75V28.3138L71.8662 28.3138Z" fill="#231815"/>
<path d="M29.1168 54.8438H27.3467V56.6256H29.1168V54.8438Z" fill="#231815"/>
<path d="M30.9049 54.8438H29.1348V56.6256H30.9049V54.8438Z" fill="#231815"/>
<path d="M29.1168 53.0625H27.3467V54.8444H29.1168V53.0625Z" fill="#231815"/>
<path d="M30.9049 53.0625H29.1348V54.8444H30.9049V53.0625Z" fill="#231815"/>
<path d="M29.1168 56.6289H27.3467V58.4108H29.1168V56.6289Z" fill="#231815"/>
<path d="M30.9049 56.6289H29.1348V58.4108H30.9049V56.6289Z" fill="#231815"/>
<path d="M32.6744 51.1914H30.9043V52.9733H32.6744V51.1914Z" fill="#231815"/>
<path d="M34.4459 51.1914H32.6758V52.9733H34.4459V51.1914Z" fill="#231815"/>
<path d="M32.6744 49.4102H30.9043V51.1921H32.6744V49.4102Z" fill="#231815"/>
<path d="M34.4459 49.4102H32.6758V51.1921H34.4459V49.4102Z" fill="#231815"/>
<path d="M32.6744 52.9727H30.9043V54.7546H32.6744V52.9727Z" fill="#231815"/>
<path d="M34.4459 52.9727H32.6758V54.7546H34.4459V52.9727Z" fill="#231815"/>
<path d="M36.1246 47.7188H34.3545V49.5006H36.1246V47.7188Z" fill="#231815"/>
<path d="M37.9161 47.7188H36.146V49.5006H37.9161V47.7188Z" fill="#231815"/>
<path d="M36.1246 45.9375H34.3545V47.7194H36.1246V45.9375Z" fill="#231815"/>
<path d="M37.9161 45.9375H36.146V47.7194H37.9161V45.9375Z" fill="#231815"/>
<path d="M36.1246 49.5H34.3545V51.2819H36.1246V49.5Z" fill="#231815"/>
<path d="M37.9161 49.5H36.146V51.2819H37.9161V49.5Z" fill="#231815"/>
<path d="M41.4561 44.2272V42.4453H39.6859V44.2272H41.4561Z" fill="#231815"/>
<path d="M41.4561 46.0241V44.2422H39.6859V46.0241H41.4561Z" fill="#231815"/>
<path d="M43.2261 44.2272V42.4453H41.456V44.2272H43.2261Z" fill="#231815"/>
<path d="M43.2261 46.0241V44.2422H41.456V46.0241H43.2261Z" fill="#231815"/>
<path d="M39.6865 44.2272V42.4453H37.9164V44.2272H39.6865Z" fill="#231815"/>
<path d="M39.6865 46.0241V44.2422H37.9164V46.0241H39.6865Z" fill="#231815"/>
<path d="M46.7666 44.2272V42.4453H44.9965V44.2272H46.7666Z" fill="#231815"/>
<path d="M46.7666 46.0241V44.2422H44.9965V46.0241H46.7666Z" fill="#231815"/>
<path d="M44.9971 44.2272V42.4453H43.2269V44.2272H44.9971Z" fill="#231815"/>
<path d="M44.9971 46.0241V44.2422H43.2269V46.0241H44.9971Z" fill="#231815"/>
<path d="M46.7666 47.8053V46.0234H44.9965V47.8053H46.7666Z" fill="#231815"/>
<path d="M46.7466 49.5905V47.8086H44.9765V49.5905H46.7466Z" fill="#231815"/>
<path d="M50.3076 47.8053V46.0234H48.5375V47.8053H50.3076Z" fill="#231815"/>
<path d="M50.2856 49.5905V47.8086H48.5155V49.5905H50.2856Z" fill="#231815"/>
<path d="M48.5361 47.8053V46.0234H46.766V47.8053H48.5361Z" fill="#231815"/>
<path d="M48.5161 49.5905V47.8086H46.746V49.5905H48.5161Z" fill="#231815"/>
<path d="M50.2856 51.3717V49.5898H48.5155V51.3717H50.2856Z" fill="#231815"/>
<path d="M50.3076 53.153V51.3711H48.5375V53.153H50.3076Z" fill="#231815"/>
<path d="M53.8267 51.3717V49.5898H52.0565V51.3717H53.8267Z" fill="#231815"/>
<path d="M53.8467 53.153V51.3711H52.0766V53.153H53.8467Z" fill="#231815"/>
<path d="M52.0571 51.3717V49.5898H50.287V51.3717H52.0571Z" fill="#231815"/>
<path d="M52.0771 53.153V51.3711H50.307V53.153H52.0771Z" fill="#231815"/>
<path d="M53.8467 54.8444V53.0625H52.0766V54.8444H53.8467Z" fill="#231815"/>
<path d="M53.8267 56.6256V54.8438H52.0565V56.6256H53.8267Z" fill="#231815"/>
<path d="M57.3877 54.8444V53.0625H55.6176V54.8444H57.3877Z" fill="#231815"/>
<path d="M57.3657 56.6256V54.8438H55.5956V56.6256H57.3657Z" fill="#231815"/>
<path d="M55.6162 54.8444V53.0625H53.8461V54.8444H55.6162Z" fill="#231815"/>
<path d="M55.5962 56.6256V54.8438H53.8261V56.6256H55.5962Z" fill="#231815"/>
<path d="M55.5962 58.4108V56.6289H53.8261V58.4108H55.5962Z" fill="#231815"/>
<path d="M59.1372 58.4108V56.6289H57.3671V58.4108H59.1372Z" fill="#231815"/>
<path d="M57.3657 58.4108V56.6289H55.5956V58.4108H57.3657Z" fill="#231815"/>
<path d="M60.9067 58.4108V56.6289H59.1366V58.4108H60.9067Z" fill="#231815"/>
<path d="M64.4478 58.4108V56.6289H62.6776V58.4108H64.4478Z" fill="#231815"/>
<path d="M62.6763 58.4108V56.6289H60.9061V58.4108H62.6763Z" fill="#231815"/>
<path d="M64.4478 56.6256V54.8438H62.6776V56.6256H64.4478Z" fill="#231815"/>
<path d="M62.6763 56.6256V54.8438H60.9061V56.6256H62.6763Z" fill="#231815"/>
<path d="M64.4678 65.5358V63.7539H62.6977V65.5358H64.4678Z" fill="#231815"/>
<path d="M62.6982 65.5358V63.7539H60.9281V65.5358H62.6982Z" fill="#231815"/>
<path d="M64.4678 63.7546V61.9727H62.6977V63.7546H64.4678Z" fill="#231815"/>
<path d="M62.6982 63.7546V61.9727H60.9281V63.7546H62.6982Z" fill="#231815"/>
<path d="M60.9268 61.9733V60.1914H59.1566V61.9733H60.9268Z" fill="#231815"/>
<path d="M59.1572 61.9733V60.1914H57.3871V61.9733H59.1572Z" fill="#231815"/>
<path d="M60.9067 60.1921V58.4102H59.1366V60.1921H60.9067Z" fill="#231815"/>
<path d="M59.1372 60.1921V58.4102H57.3671V60.1921H59.1372Z" fill="#231815"/>
<path d="M64.4678 54.8444V53.0625H62.6977V54.8444H64.4678Z" fill="#231815"/>
<path d="M62.6982 54.8444V53.0625H60.9281V54.8444H62.6982Z" fill="#231815"/>
<path d="M68.167 53.0631V51.2812H66.3969V53.0631H68.167Z" fill="#231815"/>
<path d="M66.3975 53.0631V51.2812H64.6273V53.0631H66.3975Z" fill="#231815"/>
<path d="M68.167 51.2624V49.4805H66.3969V51.2624H68.167Z" fill="#231815"/>
<path d="M66.3975 51.2624V49.4805H64.6273V51.2624H66.3975Z" fill="#231815"/>
<path d="M71.708 53.0631V51.2812H69.9379V53.0631H71.708Z" fill="#231815"/>
<path d="M69.9365 53.0631V51.2812H68.1664V53.0631H69.9365Z" fill="#231815"/>
<path d="M71.708 51.2624V49.4805H69.9379V51.2624H71.708Z" fill="#231815"/>
<path d="M69.9365 51.2624V49.4805H68.1664V51.2624H69.9365Z" fill="#231815"/>
<path d="M57.563 42.4421V40.6602H55.7929V42.4421H57.563Z" fill="#231815"/>
<path d="M55.7935 42.4421V40.6602H54.0233V42.4421H55.7935Z" fill="#231815"/>
<path d="M61.1035 42.4421V40.6602H59.3334V42.4421H61.1035Z" fill="#231815"/>
<path d="M59.334 42.4421V40.6602H57.5639V42.4421H59.334Z" fill="#231815"/>
<path d="M64.6094 42.4421V40.6602H62.8393V42.4421H64.6094Z" fill="#231815"/>
<path d="M62.8398 42.4421V40.6602H61.0697V42.4421H62.8398Z" fill="#231815"/>
<path d="M68.1499 42.4421V40.6602H66.3798V42.4421H68.1499Z" fill="#231815"/>
<path d="M66.3804 42.4421V40.6602H64.6103V42.4421H66.3804Z" fill="#231815"/>
<path d="M57.563 40.6608V38.8789H55.7929V40.6608H57.563Z" fill="#231815"/>
<path d="M55.7935 40.6608V38.8789H54.0233V40.6608H55.7935Z" fill="#231815"/>
<path d="M61.1035 40.6608V38.8789H59.3334V40.6608H61.1035Z" fill="#231815"/>
<path d="M59.334 40.6608V38.8789H57.5639V40.6608H59.334Z" fill="#231815"/>
<path d="M64.6094 40.6608V38.8789H62.8393V40.6608H64.6094Z" fill="#231815"/>
<path d="M62.8398 40.6608V38.8789H61.0697V40.6608H62.8398Z" fill="#231815"/>
<path d="M61.1206 46.0085V44.2266H59.3505V46.0085H61.1206Z" fill="#231815"/>
<path d="M59.3511 46.0085V44.2266H57.581V46.0085H59.3511Z" fill="#231815"/>
<path d="M64.626 46.0085V44.2266H62.8559V46.0085H64.626Z" fill="#231815"/>
<path d="M62.8564 46.0085V44.2266H61.0863V46.0085H62.8564Z" fill="#231815"/>
<path d="M61.1206 44.2272V42.4453H59.3505V44.2272H61.1206Z" fill="#231815"/>
<path d="M59.3511 44.2272V42.4453H57.581V44.2272H59.3511Z" fill="#231815"/>
<path d="M64.626 44.2272V42.4453H62.8559V44.2272H64.626Z" fill="#231815"/>
<path d="M62.8564 44.2272V42.4453H61.0863V44.2272H62.8564Z" fill="#231815"/>
<path d="M61.1035 35.3171V33.5352H59.3334V35.3171H61.1035Z" fill="#231815"/>
<path d="M59.334 35.3171V33.5352H57.5639V35.3171H59.334Z" fill="#231815"/>
<path d="M64.6094 35.3171V33.5352H62.8393V35.3171H64.6094Z" fill="#231815"/>
<path d="M62.8398 35.3171V33.5352H61.0697V35.3171H62.8398Z" fill="#231815"/>
<path d="M61.1035 33.5358V31.7539H59.3334V33.5358H61.1035Z" fill="#231815"/>
<path d="M59.334 33.5358V31.7539H57.5639V33.5358H59.334Z" fill="#231815"/>
<path d="M64.6094 33.5358V31.7539H62.8393V33.5358H64.6094Z" fill="#231815"/>
<path d="M62.8398 33.5358V31.7539H61.0697V33.5358H62.8398Z" fill="#231815"/>
<path d="M68.1499 40.6608V38.8789H66.3798V40.6608H68.1499Z" fill="#231815"/>
<path d="M66.3804 40.6608V38.8789H64.6103V40.6608H66.3804Z" fill="#231815"/>
<path d="M57.563 38.8796V37.0977H55.7929V38.8796H57.563Z" fill="#231815"/>
<path d="M55.7935 38.8796V37.0977H54.0233V38.8796H55.7935Z" fill="#231815"/>
<path d="M61.1035 38.8796V37.0977H59.3334V38.8796H61.1035Z" fill="#231815"/>
<path d="M59.334 38.8796V37.0977H57.5639V38.8796H59.334Z" fill="#231815"/>
<path d="M64.6094 38.8796V37.0977H62.8393V38.8796H64.6094Z" fill="#231815"/>
<path d="M62.8398 38.8796V37.0977H61.0697V38.8796H62.8398Z" fill="#231815"/>
<path d="M68.1499 38.8796V37.0977H66.3798V38.8796H68.1499Z" fill="#231815"/>
<path d="M66.3804 38.8796V37.0977H64.6103V38.8796H66.3804Z" fill="#231815"/>
<path d="M57.563 37.0983V35.3164H55.7929V37.0983H57.563Z" fill="#231815"/>
<path d="M55.7935 37.0983V35.3164H54.0233V37.0983H55.7935Z" fill="#231815"/>
<path d="M61.1035 37.0983V35.3164H59.3334V37.0983H61.1035Z" fill="#231815"/>
<path d="M59.334 37.0983V35.3164H57.5639V37.0983H59.334Z" fill="#231815"/>
<path d="M64.6094 37.0983V35.3164H62.8393V37.0983H64.6094Z" fill="#231815"/>
<path d="M62.8398 37.0983V35.3164H61.0697V37.0983H62.8398Z" fill="#231815"/>
<path d="M68.1499 37.0983V35.3164H66.3798V37.0983H68.1499Z" fill="#231815"/>
<path d="M66.3804 37.0983V35.3164H64.6103V37.0983H66.3804Z" fill="#231815"/>
</g>
<path d="M120.344 21.4707C120.909 21.4707 121.296 21.5345 121.506 21.6621C121.715 21.7897 121.82 22.013 121.82 22.332V27.0352C121.82 27.3451 121.679 27.5684 121.396 27.7051C121.123 27.8327 120.663 27.8965 120.016 27.8965C119.587 27.8965 119.255 27.8691 119.018 27.8145C118.79 27.7507 118.63 27.6595 118.539 27.541C118.448 27.4225 118.402 27.2539 118.402 27.0352C118.402 26.2513 118.165 25.6452 117.691 25.2168C117.217 24.7884 116.497 24.5742 115.531 24.5742C114.264 24.5742 113.303 25.0299 112.646 25.9414C111.99 26.8529 111.662 28.1654 111.662 29.8789C111.662 31.5742 112.008 32.8867 112.701 33.8164C113.403 34.737 114.392 35.1973 115.668 35.1973C116.68 35.1973 117.637 35.0605 118.539 34.7871V32.5039H115.9C115.682 32.5039 115.513 32.4674 115.395 32.3945C115.276 32.3216 115.185 32.1849 115.121 31.9844C115.066 31.7839 115.039 31.4922 115.039 31.1094C115.039 30.7266 115.066 30.4349 115.121 30.2344C115.185 30.0339 115.276 29.8971 115.395 29.8242C115.513 29.7422 115.682 29.7012 115.9 29.7012H122.381C122.6 29.7012 122.768 29.7422 122.887 29.8242C123.005 29.8971 123.092 30.0339 123.146 30.2344C123.21 30.4349 123.242 30.7266 123.242 31.1094C123.242 31.4922 123.21 31.7839 123.146 31.9844C123.092 32.1849 123.005 32.3216 122.887 32.3945C122.768 32.4674 122.6 32.5039 122.381 32.5039H121.957V36.0449C121.957 36.2637 121.911 36.4551 121.82 36.6191C121.738 36.7832 121.62 36.9062 121.465 36.9883C120.617 37.4258 119.688 37.7539 118.676 37.9727C117.664 38.1914 116.616 38.3008 115.531 38.3008C114.036 38.3008 112.719 37.959 111.58 37.2754C110.441 36.5918 109.557 35.6165 108.928 34.3496C108.308 33.0736 107.998 31.5833 107.998 29.8789C107.998 28.1836 108.303 26.7025 108.914 25.4355C109.525 24.1595 110.368 23.1797 111.443 22.4961C112.528 21.8125 113.754 21.4707 115.121 21.4707C116.725 21.4707 117.91 22.0085 118.676 23.084V22.332C118.676 22.0221 118.808 21.8034 119.072 21.6758C119.337 21.5391 119.76 21.4707 120.344 21.4707ZM132.593 25.0664C134.598 25.0664 136.048 25.4993 136.941 26.3652C137.834 27.2311 138.281 28.4707 138.281 30.084V34.0352C138.281 34.3997 138.358 34.6868 138.513 34.8965C138.668 35.097 138.891 35.1973 139.183 35.1973H139.607C139.826 35.1973 139.994 35.2383 140.113 35.3203C140.231 35.3932 140.318 35.5299 140.372 35.7305C140.436 35.931 140.468 36.2227 140.468 36.6055C140.468 36.9883 140.436 37.2799 140.372 37.4805C140.318 37.681 140.231 37.8177 140.113 37.8906C139.994 37.9635 139.826 38 139.607 38H138.076C137.511 38 137.009 37.8861 136.572 37.6582C136.143 37.4212 135.815 37.0521 135.587 36.5508C134.867 37.1068 134.106 37.5397 133.304 37.8496C132.502 38.1504 131.677 38.3008 130.83 38.3008C129.8 38.3008 128.911 38.1276 128.164 37.7812C127.416 37.4258 126.842 36.9245 126.441 36.2773C126.049 35.6211 125.853 34.8509 125.853 33.9668C125.853 32.6908 126.304 31.7018 127.206 31C128.109 30.2982 129.371 29.9473 130.994 29.9473C132.206 29.9473 133.496 30.084 134.863 30.3574V29.9609C134.863 29.3503 134.671 28.8991 134.289 28.6074C133.906 28.3158 133.231 28.1699 132.265 28.1699C131.727 28.1699 131.126 28.2383 130.46 28.375C129.804 28.5026 129.152 28.6758 128.505 28.8945C128.35 28.9401 128.218 28.9629 128.109 28.9629C127.881 28.9629 127.676 28.8809 127.494 28.7168C127.32 28.5436 127.161 28.2565 127.015 27.8555C126.878 27.4544 126.81 27.1263 126.81 26.8711C126.81 26.4062 127.02 26.0964 127.439 25.9414C128.25 25.6497 129.111 25.431 130.023 25.2852C130.934 25.1393 131.791 25.0664 132.593 25.0664ZM131.335 32.7637C130.697 32.7637 130.21 32.8776 129.872 33.1055C129.544 33.3333 129.38 33.666 129.38 34.1035C129.38 34.5319 129.54 34.86 129.859 35.0879C130.187 35.3066 130.656 35.416 131.267 35.416C131.896 35.416 132.516 35.293 133.126 35.0469C133.746 34.7917 134.325 34.4453 134.863 34.0078V33.1328C133.66 32.8867 132.484 32.7637 131.335 32.7637ZM150.995 20.0625C151.305 20.0625 151.524 20.1309 151.651 20.2676C151.788 20.3952 151.856 20.6139 151.856 20.9238V35.1973H155.698C155.917 35.1973 156.085 35.2383 156.204 35.3203C156.322 35.3932 156.409 35.5299 156.464 35.7305C156.528 35.931 156.559 36.2227 156.559 36.6055C156.559 36.9883 156.528 37.2799 156.464 37.4805C156.409 37.681 156.322 37.8177 156.204 37.8906C156.085 37.9635 155.917 38 155.698 38H144.706C144.487 38 144.319 37.9635 144.2 37.8906C144.082 37.8177 143.99 37.681 143.927 37.4805C143.872 37.2799 143.845 36.9883 143.845 36.6055C143.845 36.2227 143.872 35.931 143.927 35.7305C143.99 35.5299 144.082 35.3932 144.2 35.3203C144.319 35.2383 144.487 35.1973 144.706 35.1973H148.438V22.8652H145.253C145.034 22.8652 144.865 22.8288 144.747 22.7559C144.628 22.6829 144.537 22.5462 144.474 22.3457C144.419 22.1452 144.391 21.8535 144.391 21.4707C144.391 21.0879 144.419 20.7962 144.474 20.5957C144.537 20.3952 144.628 20.2585 144.747 20.1855C144.865 20.1035 145.034 20.0625 145.253 20.0625H150.995ZM167.633 25.0664C169.019 25.0664 170.199 25.3672 171.174 25.9688C172.149 26.5612 172.883 27.3906 173.375 28.457C173.877 29.5143 174.127 30.7266 174.127 32.0938C174.127 32.4036 174.059 32.6224 173.922 32.75C173.795 32.8776 173.576 32.9414 173.266 32.9414H164.489C164.662 33.6706 165.031 34.2311 165.596 34.623C166.17 35.0059 166.895 35.1973 167.77 35.1973C169.183 35.1973 170.714 34.9466 172.364 34.4453C172.473 34.4089 172.582 34.3906 172.692 34.3906C172.892 34.3906 173.065 34.4818 173.211 34.6641C173.357 34.8464 173.489 35.1562 173.608 35.5938C173.699 35.931 173.744 36.2181 173.744 36.4551C173.744 36.6921 173.69 36.8789 173.58 37.0156C173.48 37.1432 173.312 37.248 173.075 37.3301C172.163 37.6309 171.233 37.8678 170.285 38.041C169.338 38.2142 168.408 38.3008 167.496 38.3008C166.111 38.3008 164.917 38.0182 163.914 37.4531C162.912 36.888 162.146 36.1087 161.618 35.1152C161.098 34.1126 160.838 32.9688 160.838 31.6836C160.838 30.4076 161.112 29.2682 161.659 28.2656C162.205 27.263 162.994 26.4792 164.024 25.9141C165.054 25.349 166.257 25.0664 167.633 25.0664ZM167.633 28.1699C165.965 28.1699 164.935 28.8717 164.543 30.2754H170.559C170.404 29.61 170.071 29.0951 169.561 28.7305C169.06 28.3568 168.417 28.1699 167.633 28.1699ZM189.07 25.0664C189.845 25.0664 190.574 25.3216 191.258 25.832C191.659 26.1237 191.859 26.5065 191.859 26.9805C191.859 27.2812 191.777 27.6367 191.613 28.0469C191.449 28.457 191.262 28.7669 191.052 28.9766C190.852 29.1862 190.638 29.291 190.41 29.291C190.282 29.291 190.146 29.2546 190 29.1816C189.489 28.8991 188.961 28.7578 188.414 28.7578C187.712 28.7578 187.056 28.9811 186.445 29.4277C185.834 29.8743 185.342 30.4896 184.969 31.2734C184.604 32.0573 184.422 32.9323 184.422 33.8984V35.1973H188.345C188.564 35.1973 188.733 35.2383 188.851 35.3203C188.97 35.3932 189.056 35.5299 189.111 35.7305C189.175 35.931 189.207 36.2227 189.207 36.6055C189.207 36.9883 189.175 37.2799 189.111 37.4805C189.056 37.681 188.97 37.8177 188.851 37.8906C188.733 37.9635 188.564 38 188.345 38H178.994C178.775 38 178.607 37.9635 178.488 37.8906C178.37 37.8177 178.278 37.681 178.215 37.4805C178.16 37.2799 178.133 36.9883 178.133 36.6055C178.133 36.2227 178.16 35.931 178.215 35.7305C178.278 35.5299 178.37 35.3932 178.488 35.3203C178.607 35.2383 178.775 35.1973 178.994 35.1973H181.004V28.1699H179.404C179.185 28.1699 179.017 28.1335 178.898 28.0605C178.78 27.9876 178.689 27.8509 178.625 27.6504C178.57 27.4499 178.543 27.1582 178.543 26.7754C178.543 26.3926 178.57 26.1009 178.625 25.9004C178.689 25.6999 178.78 25.5632 178.898 25.4902C179.017 25.4082 179.185 25.3672 179.404 25.3672H183.15C183.46 25.3672 183.679 25.4355 183.806 25.5723C183.943 25.6999 184.011 25.9186 184.011 26.2285V29.1953C184.695 27.8737 185.479 26.8574 186.363 26.1465C187.256 25.4264 188.159 25.0664 189.07 25.0664ZM203.179 25.3672C203.489 25.3672 203.708 25.4355 203.835 25.5723C203.972 25.6999 204.04 25.9186 204.04 26.2285V35.1973H207.882C208.101 35.1973 208.269 35.2383 208.388 35.3203C208.506 35.3932 208.593 35.5299 208.648 35.7305C208.711 35.931 208.743 36.2227 208.743 36.6055C208.743 36.9883 208.711 37.2799 208.648 37.4805C208.593 37.681 208.506 37.8177 208.388 37.8906C208.269 37.9635 208.101 38 207.882 38H196.89C196.671 38 196.502 37.9635 196.384 37.8906C196.265 37.8177 196.174 37.681 196.111 37.4805C196.056 37.2799 196.029 36.9883 196.029 36.6055C196.029 36.2227 196.056 35.931 196.111 35.7305C196.174 35.5299 196.265 35.3932 196.384 35.3203C196.502 35.2383 196.671 35.1973 196.89 35.1973H200.622V28.1699H197.71C197.491 28.1699 197.323 28.1335 197.204 28.0605C197.086 27.9876 196.995 27.8509 196.931 27.6504C196.876 27.4499 196.849 27.1582 196.849 26.7754C196.849 26.3926 196.876 26.1009 196.931 25.9004C196.995 25.6999 197.086 25.5632 197.204 25.4902C197.323 25.4082 197.491 25.3672 197.71 25.3672H203.179ZM202.29 19.3652C202.937 19.3652 203.389 19.4336 203.644 19.5703C203.908 19.6979 204.04 19.9167 204.04 20.2266V22.4688C204.04 22.7786 203.917 23.002 203.671 23.1387C203.434 23.2663 202.997 23.3301 202.359 23.3301C201.721 23.3301 201.269 23.2663 201.005 23.1387C200.75 23.002 200.622 22.7786 200.622 22.4688V20.2266C200.622 19.9076 200.741 19.6842 200.978 19.5566C201.215 19.429 201.652 19.3652 202.29 19.3652ZM219.68 25.0664C221.066 25.0664 222.246 25.3672 223.221 25.9688C224.197 26.5612 224.93 27.3906 225.423 28.457C225.924 29.5143 226.174 30.7266 226.174 32.0938C226.174 32.4036 226.106 32.6224 225.969 32.75C225.842 32.8776 225.623 32.9414 225.313 32.9414H216.536C216.709 33.6706 217.078 34.2311 217.643 34.623C218.217 35.0059 218.942 35.1973 219.817 35.1973C221.23 35.1973 222.761 34.9466 224.411 34.4453C224.52 34.4089 224.63 34.3906 224.739 34.3906C224.939 34.3906 225.113 34.4818 225.258 34.6641C225.404 34.8464 225.536 35.1562 225.655 35.5938C225.746 35.931 225.792 36.2181 225.792 36.4551C225.792 36.6921 225.737 36.8789 225.628 37.0156C225.527 37.1432 225.359 37.248 225.122 37.3301C224.21 37.6309 223.281 37.8678 222.333 38.041C221.385 38.2142 220.455 38.3008 219.544 38.3008C218.158 38.3008 216.964 38.0182 215.962 37.4531C214.959 36.888 214.193 36.1087 213.665 35.1152C213.145 34.1126 212.885 32.9688 212.885 31.6836C212.885 30.4076 213.159 29.2682 213.706 28.2656C214.253 27.263 215.041 26.4792 216.071 25.9141C217.101 25.349 218.304 25.0664 219.68 25.0664ZM219.68 28.1699C218.012 28.1699 216.982 28.8717 216.59 30.2754H222.606C222.451 29.61 222.118 29.0951 221.608 28.7305C221.107 28.3568 220.464 28.1699 219.68 28.1699Z" fill="black"/>
<path d="M114.383 58.7266C114.56 58.7266 114.685 58.7682 114.758 58.8516C114.836 58.9297 114.875 59.0651 114.875 59.2578C114.875 59.4505 114.836 59.5885 114.758 59.6719C114.685 59.75 114.56 59.7891 114.383 59.7891H112.383V66.9375H114.539C114.716 66.9375 114.841 66.9792 114.914 67.0625C114.992 67.1406 115.031 67.276 115.031 67.4688C115.031 67.6615 114.992 67.7995 114.914 67.8828C114.841 67.9609 114.716 68 114.539 68H109.055C108.878 68 108.75 67.9609 108.672 67.8828C108.599 67.7995 108.562 67.6615 108.562 67.4688C108.562 67.276 108.599 67.1406 108.672 67.0625C108.75 66.9792 108.878 66.9375 109.055 66.9375H111.211V59.7891H109.211C109.034 59.7891 108.906 59.75 108.828 59.6719C108.755 59.5885 108.719 59.4505 108.719 59.2578C108.719 59.0651 108.755 58.9297 108.828 58.8516C108.906 58.7682 109.034 58.7266 109.211 58.7266H114.383ZM121.914 57.75C122.091 57.75 122.216 57.7917 122.289 57.875C122.367 57.9531 122.406 58.0885 122.406 58.2812V66.9375H124.914C125.091 66.9375 125.216 66.9792 125.289 67.0625C125.367 67.1406 125.406 67.276 125.406 67.4688C125.406 67.6615 125.367 67.7995 125.289 67.8828C125.216 67.9609 125.091 68 124.914 68H118.789C118.612 68 118.484 67.9609 118.406 67.8828C118.333 67.7995 118.297 67.6615 118.297 67.4688C118.297 67.276 118.333 67.1406 118.406 67.0625C118.484 66.9792 118.612 66.9375 118.789 66.9375H121.234V58.8125H119.101C118.924 58.8125 118.797 58.7734 118.718 58.6953C118.646 58.612 118.609 58.474 118.609 58.2812C118.609 58.0885 118.646 57.9531 118.718 57.875C118.797 57.7917 118.924 57.75 119.101 57.75H121.914ZM145.452 60.7812C145.629 60.7812 145.754 60.8229 145.827 60.9062C145.905 60.9844 145.944 61.1198 145.944 61.3125C145.944 61.5052 145.905 61.6432 145.827 61.7266C145.754 61.8047 145.629 61.8438 145.452 61.8438H144.968L141.772 68.3906C141.434 69.0833 141.103 69.6276 140.78 70.0234C140.457 70.4193 140.093 70.7083 139.687 70.8906C139.286 71.0781 138.796 71.1823 138.218 71.2031C138.036 71.2083 137.895 71.1615 137.796 71.0625C137.697 70.9688 137.647 70.7995 137.647 70.5547C137.647 70.2161 137.786 70.0391 138.062 70.0234C138.562 69.9974 138.957 69.9141 139.249 69.7734C139.546 69.6328 139.817 69.3906 140.062 69.0469C140.312 68.7083 140.616 68.1771 140.976 67.4531L138.116 61.8438H137.624C137.447 61.8438 137.319 61.8047 137.241 61.7266C137.168 61.6432 137.132 61.5052 137.132 61.3125C137.132 61.1198 137.168 60.9844 137.241 60.9062C137.319 60.8229 137.447 60.7812 137.624 60.7812H140.39C140.567 60.7812 140.692 60.8229 140.765 60.9062C140.843 60.9844 140.882 61.1198 140.882 61.3125C140.882 61.5052 140.843 61.6432 140.765 61.7266C140.692 61.8047 140.567 61.8438 140.39 61.8438H139.39L141.593 66.2344L143.694 61.8438H142.999C142.822 61.8438 142.694 61.8047 142.616 61.7266C142.543 61.6432 142.507 61.5052 142.507 61.3125C142.507 61.1198 142.543 60.9844 142.616 60.9062C142.694 60.8229 142.822 60.7812 142.999 60.7812H145.452ZM161.397 60.6094C162.376 60.6094 163.11 60.8281 163.6 61.2656C164.09 61.7031 164.334 62.3516 164.334 63.2109V66.3203C164.334 66.7318 164.506 66.9375 164.85 66.9375H165.123C165.301 66.9375 165.426 66.9792 165.498 67.0625C165.577 67.1406 165.616 67.276 165.616 67.4688C165.616 67.6615 165.577 67.7995 165.498 67.8828C165.426 67.9609 165.301 68 165.123 68H164.623C164.285 68 163.993 67.9167 163.748 67.75C163.509 67.5781 163.353 67.3281 163.28 67C162.853 67.375 162.389 67.6641 161.889 67.8672C161.394 68.0703 160.868 68.1719 160.311 68.1719C159.785 68.1719 159.319 68.0833 158.912 67.9062C158.511 67.724 158.196 67.4609 157.967 67.1172C157.738 66.7734 157.623 66.3646 157.623 65.8906C157.623 65.0677 157.918 64.4609 158.506 64.0703C159.095 63.6745 159.855 63.4766 160.787 63.4766C161.616 63.4766 162.407 63.6094 163.162 63.875V63.2109C163.162 62.7057 163.019 62.3359 162.733 62.1016C162.452 61.862 161.996 61.7422 161.366 61.7422C160.975 61.7422 160.569 61.7969 160.147 61.9062C159.725 62.0156 159.324 62.1667 158.944 62.3594C158.855 62.4062 158.774 62.4297 158.702 62.4297C158.53 62.4297 158.386 62.3047 158.272 62.0547C158.215 61.9297 158.186 61.8255 158.186 61.7422C158.186 61.5599 158.282 61.4193 158.475 61.3203C158.912 61.0911 159.381 60.9167 159.881 60.7969C160.386 60.6719 160.892 60.6094 161.397 60.6094ZM160.795 64.5781C160.196 64.5781 159.722 64.6823 159.373 64.8906C159.03 65.0938 158.858 65.4193 158.858 65.8672C158.858 66.2474 158.988 66.5443 159.248 66.7578C159.514 66.9661 159.884 67.0703 160.358 67.0703C161.394 67.0703 162.329 66.6406 163.162 65.7812V64.9297C162.808 64.8151 162.428 64.7292 162.022 64.6719C161.616 64.6094 161.207 64.5781 160.795 64.5781ZM184.006 66.9375C184.183 66.9375 184.308 66.9792 184.381 67.0625C184.459 67.1406 184.498 67.276 184.498 67.4688C184.498 67.6615 184.459 67.7995 184.381 67.8828C184.308 67.9609 184.183 68 184.006 68H178.74C178.563 68 178.435 67.9609 178.357 67.8828C178.284 67.7995 178.248 67.6615 178.248 67.4688C178.248 67.276 178.284 67.1406 178.357 67.0625C178.435 66.9792 178.563 66.9375 178.74 66.9375H180.842V60.2344L178.896 61.4453C178.808 61.4974 178.727 61.5234 178.654 61.5234C178.487 61.5234 178.344 61.4167 178.224 61.2031C178.151 61.0781 178.115 60.9583 178.115 60.8438C178.115 60.6667 178.196 60.5312 178.357 60.4375L181.302 58.625C181.407 58.5625 181.511 58.5312 181.615 58.5312C181.73 58.5312 181.823 58.5703 181.896 58.6484C181.974 58.7214 182.013 58.8255 182.013 58.9609V66.9375H184.006ZM201.052 60.6094C202.031 60.6094 202.765 60.8281 203.255 61.2656C203.745 61.7031 203.989 62.3516 203.989 63.2109V66.3203C203.989 66.7318 204.161 66.9375 204.505 66.9375H204.778C204.956 66.9375 205.081 66.9792 205.153 67.0625C205.232 67.1406 205.271 67.276 205.271 67.4688C205.271 67.6615 205.232 67.7995 205.153 67.8828C205.081 67.9609 204.956 68 204.778 68H204.278C203.94 68 203.648 67.9167 203.403 67.75C203.164 67.5781 203.008 67.3281 202.935 67C202.508 67.375 202.044 67.6641 201.544 67.8672C201.049 68.0703 200.523 68.1719 199.966 68.1719C199.44 68.1719 198.974 68.0833 198.567 67.9062C198.166 67.724 197.851 67.4609 197.622 67.1172C197.393 66.7734 197.278 66.3646 197.278 65.8906C197.278 65.0677 197.573 64.4609 198.161 64.0703C198.75 63.6745 199.51 63.4766 200.442 63.4766C201.271 63.4766 202.062 63.6094 202.817 63.875V63.2109C202.817 62.7057 202.674 62.3359 202.388 62.1016C202.107 61.862 201.651 61.7422 201.021 61.7422C200.63 61.7422 200.224 61.7969 199.802 61.9062C199.38 62.0156 198.979 62.1667 198.599 62.3594C198.51 62.4062 198.429 62.4297 198.357 62.4297C198.185 62.4297 198.041 62.3047 197.927 62.0547C197.87 61.9297 197.841 61.8255 197.841 61.7422C197.841 61.5599 197.937 61.4193 198.13 61.3203C198.567 61.0911 199.036 60.9167 199.536 60.7969C200.041 60.6719 200.547 60.6094 201.052 60.6094ZM200.45 64.5781C199.851 64.5781 199.377 64.6823 199.028 64.8906C198.685 65.0938 198.513 65.4193 198.513 65.8672C198.513 66.2474 198.643 66.5443 198.903 66.7578C199.169 66.9661 199.539 67.0703 200.013 67.0703C201.049 67.0703 201.984 66.6406 202.817 65.7812V64.9297C202.463 64.8151 202.083 64.7292 201.677 64.6719C201.271 64.6094 200.862 64.5781 200.45 64.5781ZM211.817 60.6094C212.291 60.6094 212.703 60.7135 213.052 60.9219C213.401 61.125 213.669 61.4193 213.856 61.8047C214.044 62.1901 214.137 62.6406 214.137 63.1562V66.9375H214.778C214.955 66.9375 215.08 66.9792 215.153 67.0625C215.231 67.1406 215.27 67.276 215.27 67.4688C215.27 67.6615 215.231 67.7995 215.153 67.8828C215.08 67.9609 214.955 68 214.778 68H212.247C212.07 68 211.942 67.9609 211.864 67.8828C211.791 67.7995 211.755 67.6615 211.755 67.4688C211.755 67.276 211.791 67.1406 211.864 67.0625C211.942 66.9792 212.07 66.9375 212.247 66.9375H212.966V63.2734C212.966 62.8099 212.859 62.4427 212.645 62.1719C212.432 61.901 212.117 61.7656 211.7 61.7656C211.257 61.7656 210.843 61.8932 210.458 62.1484C210.078 62.4036 209.773 62.7552 209.544 63.2031C209.315 63.651 209.2 64.151 209.2 64.7031V66.9375H209.919C210.096 66.9375 210.221 66.9792 210.294 67.0625C210.372 67.1406 210.411 67.276 210.411 67.4688C210.411 67.6615 210.372 67.7995 210.294 67.8828C210.221 67.9609 210.096 68 209.919 68H207.387C207.21 68 207.083 67.9609 207.005 67.8828C206.932 67.7995 206.895 67.6615 206.895 67.4688C206.895 67.276 206.932 67.1406 207.005 67.0625C207.083 66.9792 207.21 66.9375 207.387 66.9375H208.028V61.8438H207.231C207.054 61.8438 206.927 61.8047 206.848 61.7266C206.776 61.6432 206.739 61.5052 206.739 61.3125C206.739 61.1198 206.776 60.9844 206.848 60.9062C206.927 60.8229 207.054 60.7812 207.231 60.7812H208.63C208.807 60.7812 208.932 60.8229 209.005 60.9062C209.083 60.9844 209.122 61.1198 209.122 61.3125V62.25C209.466 61.7188 209.867 61.3125 210.325 61.0312C210.789 60.75 211.286 60.6094 211.817 60.6094ZM230.762 63.125C230.387 63.125 230.116 63.0885 229.949 63.0156C229.788 62.9375 229.707 62.8099 229.707 62.6328V61.1953C229.707 61.0182 229.788 60.8932 229.949 60.8203C230.116 60.7422 230.387 60.7031 230.762 60.7031C231.137 60.7031 231.405 60.7422 231.567 60.8203C231.733 60.8932 231.817 61.0182 231.817 61.1953V62.6328C231.817 62.8099 231.733 62.9375 231.567 63.0156C231.405 63.0885 231.137 63.125 230.762 63.125ZM230.762 68.0781C230.387 68.0781 230.116 68.0417 229.949 67.9688C229.788 67.8906 229.707 67.763 229.707 67.5859V66.1484C229.707 65.9714 229.788 65.8464 229.949 65.7734C230.116 65.6953 230.387 65.6562 230.762 65.6562C231.137 65.6562 231.405 65.6953 231.567 65.7734C231.733 65.8464 231.817 65.9714 231.817 66.1484V67.5859C231.817 67.763 231.733 67.8906 231.567 67.9688C231.405 68.0417 231.137 68.0781 230.762 68.0781ZM254.347 58.7266C254.524 58.7266 254.649 58.7682 254.722 58.8516C254.8 58.9297 254.839 59.0651 254.839 59.2578C254.839 59.4505 254.8 59.5885 254.722 59.6719C254.649 59.75 254.524 59.7891 254.347 59.7891H252.777V65.3984C252.777 66.3099 252.511 67 251.98 67.4688C251.449 67.9375 250.673 68.1719 249.652 68.1719C249.058 68.1719 248.519 68.0677 248.035 67.8594C247.556 67.6458 247.149 67.3568 246.816 66.9922C246.733 66.8932 246.691 66.7604 246.691 66.5938V64.3672C246.691 64.1849 246.735 64.0547 246.824 63.9766C246.912 63.8984 247.063 63.8594 247.277 63.8594C247.49 63.8594 247.641 63.8984 247.73 63.9766C247.819 64.0547 247.863 64.1849 247.863 64.3672V66.4297C248.3 66.8203 248.899 67.0156 249.66 67.0156C250.342 67.0156 250.837 66.8646 251.144 66.5625C251.451 66.2604 251.605 65.7943 251.605 65.1641V59.7891H248.941C248.764 59.7891 248.636 59.75 248.558 59.6719C248.485 59.5885 248.449 59.4505 248.449 59.2578C248.449 59.0651 248.485 58.9297 248.558 58.8516C248.636 58.7682 248.764 58.7266 248.941 58.7266H254.347ZM260.573 60.6094C261.329 60.6094 261.972 60.763 262.503 61.0703C263.04 61.3724 263.451 61.7943 263.738 62.3359C264.024 62.8724 264.188 63.4922 264.23 64.1953C264.23 64.3724 264.191 64.4974 264.113 64.5703C264.04 64.6432 263.915 64.6797 263.738 64.6797H258.081C258.118 65.4557 258.347 66.0443 258.769 66.4453C259.196 66.8411 259.797 67.0391 260.573 67.0391C261.053 67.0391 261.527 66.9792 261.995 66.8594C262.464 66.7344 262.876 66.5703 263.23 66.3672C263.318 66.3203 263.399 66.2969 263.472 66.2969C263.654 66.2969 263.803 66.4349 263.917 66.7109C263.964 66.8203 263.988 66.9193 263.988 67.0078C263.988 67.2161 263.873 67.3776 263.644 67.4922C263.243 67.6953 262.769 67.8594 262.222 67.9844C261.675 68.1094 261.126 68.1719 260.573 68.1719C259.787 68.1719 259.115 68.0208 258.558 67.7188C258.001 67.4167 257.576 66.9818 257.284 66.4141C256.993 65.8464 256.847 65.1719 256.847 64.3906C256.847 63.6458 257.006 62.987 257.323 62.4141C257.641 61.8411 258.081 61.3984 258.644 61.0859C259.206 60.7682 259.849 60.6094 260.573 60.6094ZM260.573 61.7422C259.933 61.7422 259.402 61.9062 258.98 62.2344C258.563 62.5573 258.29 63.0078 258.159 63.5859H262.933C262.823 62.987 262.571 62.5312 262.175 62.2188C261.784 61.901 261.251 61.7422 260.573 61.7422ZM269.198 58.5547C269.412 58.5547 269.563 58.5938 269.651 58.6719C269.74 58.75 269.784 58.8802 269.784 59.0625V61.4062H272.995C273.172 61.4062 273.297 61.4479 273.37 61.5312C273.448 61.6094 273.487 61.7448 273.487 61.9375C273.487 62.1302 273.448 62.2682 273.37 62.3516C273.297 62.4297 273.172 62.4688 272.995 62.4688H269.784V65.3125C269.784 65.9062 269.886 66.3411 270.089 66.6172C270.297 66.8932 270.656 67.0312 271.167 67.0312C271.516 67.0312 271.883 66.9609 272.268 66.8203C272.654 66.6797 273.026 66.4922 273.386 66.2578C273.459 66.2057 273.539 66.1797 273.628 66.1797C273.805 66.1797 273.956 66.2995 274.081 66.5391C274.149 66.6745 274.182 66.7917 274.182 66.8906C274.182 67.0573 274.097 67.1927 273.925 67.2969C273.518 67.5521 273.065 67.763 272.565 67.9297C272.065 68.0911 271.599 68.1719 271.167 68.1719C270.281 68.1719 269.633 67.9427 269.222 67.4844C268.815 67.0208 268.612 66.3307 268.612 65.4141V62.4688H267.026C266.849 62.4688 266.722 62.4297 266.643 62.3516C266.571 62.2682 266.534 62.1302 266.534 61.9375C266.534 61.7448 266.571 61.6094 266.643 61.5312C266.722 61.4479 266.849 61.4062 267.026 61.4062H268.612V59.0625C268.612 58.8802 268.656 58.75 268.745 58.6719C268.834 58.5938 268.985 58.5547 269.198 58.5547ZM280.401 60.6094C281.156 60.6094 281.799 60.763 282.331 61.0703C282.867 61.3724 283.279 61.7943 283.565 62.3359C283.851 62.8724 284.016 63.4922 284.057 64.1953C284.057 64.3724 284.018 64.4974 283.94 64.5703C283.867 64.6432 283.742 64.6797 283.565 64.6797H277.909C277.945 65.4557 278.174 66.0443 278.596 66.4453C279.023 66.8411 279.625 67.0391 280.401 67.0391C280.88 67.0391 281.354 66.9792 281.823 66.8594C282.292 66.7344 282.703 66.5703 283.057 66.3672C283.146 66.3203 283.226 66.2969 283.299 66.2969C283.482 66.2969 283.63 66.4349 283.745 66.7109C283.792 66.8203 283.815 66.9193 283.815 67.0078C283.815 67.2161 283.7 67.3776 283.471 67.4922C283.07 67.6953 282.596 67.8594 282.049 67.9844C281.503 68.1094 280.953 68.1719 280.401 68.1719C279.614 68.1719 278.943 68.0208 278.385 67.7188C277.828 67.4167 277.404 66.9818 277.112 66.4141C276.82 65.8464 276.674 65.1719 276.674 64.3906C276.674 63.6458 276.833 62.987 277.151 62.4141C277.469 61.8411 277.909 61.3984 278.471 61.0859C279.034 60.7682 279.677 60.6094 280.401 60.6094ZM280.401 61.7422C279.76 61.7422 279.229 61.9062 278.807 62.2344C278.391 62.5573 278.117 63.0078 277.987 63.5859H282.76C282.651 62.987 282.398 62.5312 282.003 62.2188C281.612 61.901 281.078 61.7422 280.401 61.7422ZM293.08 60.7812C293.257 60.7812 293.382 60.8229 293.455 60.9062C293.533 60.9844 293.572 61.1198 293.572 61.3125C293.572 61.4635 293.533 61.5833 293.455 61.6719L288.69 66.9375H292.479V65.5938C292.479 65.4115 292.523 65.2812 292.612 65.2031C292.7 65.125 292.851 65.0859 293.065 65.0859C293.278 65.0859 293.429 65.125 293.518 65.2031C293.606 65.2812 293.651 65.4115 293.651 65.5938V67.4688C293.651 67.6615 293.612 67.7995 293.533 67.8828C293.461 67.9609 293.336 68 293.158 68H287.33C287.153 68 287.026 67.9609 286.947 67.8828C286.875 67.7995 286.838 67.6615 286.838 67.4688C286.838 67.3125 286.875 67.1953 286.947 67.1172L291.721 61.8438H288.166V63.0078C288.166 63.1901 288.122 63.3203 288.033 63.3984C287.945 63.4766 287.794 63.5156 287.58 63.5156C287.367 63.5156 287.216 63.4766 287.127 63.3984C287.039 63.3203 286.994 63.1901 286.994 63.0078V61.3125C286.994 61.1198 287.031 60.9844 287.104 60.9062C287.182 60.8229 287.309 60.7812 287.487 60.7812H293.08ZM312.587 60.7812C312.765 60.7812 312.89 60.8229 312.962 60.9062C313.041 60.9844 313.08 61.1198 313.08 61.3125V66.9375H313.72C313.897 66.9375 314.022 66.9792 314.095 67.0625C314.173 67.1406 314.212 67.276 314.212 67.4688C314.212 67.6615 314.173 67.7995 314.095 67.8828C314.022 67.9609 313.897 68 313.72 68H312.478C312.301 68 312.173 67.9609 312.095 67.8828C312.022 67.8047 311.986 67.6693 311.986 67.4766V66.5312C311.642 67.0625 311.239 67.4688 310.775 67.75C310.317 68.0312 309.822 68.1719 309.291 68.1719C308.817 68.1719 308.405 68.0703 308.056 67.8672C307.707 67.6589 307.439 67.362 307.252 66.9766C307.064 66.5911 306.97 66.1406 306.97 65.625V61.8438H306.33C306.153 61.8438 306.025 61.8047 305.947 61.7266C305.874 61.6432 305.837 61.5052 305.837 61.3125C305.837 61.1198 305.874 60.9844 305.947 60.9062C306.025 60.8229 306.153 60.7812 306.33 60.7812H307.65C307.827 60.7812 307.952 60.8229 308.025 60.9062C308.103 60.9844 308.142 61.1198 308.142 61.3125V65.5078C308.142 65.9714 308.249 66.3385 308.462 66.6094C308.676 66.8802 308.991 67.0156 309.408 67.0156C309.851 67.0156 310.262 66.888 310.642 66.6328C311.028 66.3776 311.335 66.026 311.564 65.5781C311.793 65.1302 311.908 64.6302 311.908 64.0781V61.8438H310.798C310.621 61.8438 310.494 61.8047 310.416 61.7266C310.343 61.6432 310.306 61.5052 310.306 61.3125C310.306 61.1198 310.343 60.9844 310.416 60.9062C310.494 60.8229 310.621 60.7812 310.798 60.7812H312.587ZM320.868 60.6094C321.342 60.6094 321.754 60.7135 322.103 60.9219C322.452 61.125 322.72 61.4193 322.908 61.8047C323.095 62.1901 323.189 62.6406 323.189 63.1562V66.9375H323.829C324.006 66.9375 324.131 66.9792 324.204 67.0625C324.283 67.1406 324.322 67.276 324.322 67.4688C324.322 67.6615 324.283 67.7995 324.204 67.8828C324.131 67.9609 324.006 68 323.829 68H321.298C321.121 68 320.993 67.9609 320.915 67.8828C320.842 67.7995 320.806 67.6615 320.806 67.4688C320.806 67.276 320.842 67.1406 320.915 67.0625C320.993 66.9792 321.121 66.9375 321.298 66.9375H322.017V63.2734C322.017 62.8099 321.91 62.4427 321.697 62.1719C321.483 61.901 321.168 61.7656 320.751 61.7656C320.309 61.7656 319.894 61.8932 319.509 62.1484C319.129 62.4036 318.824 62.7552 318.595 63.2031C318.366 63.651 318.251 64.151 318.251 64.7031V66.9375H318.97C319.147 66.9375 319.272 66.9792 319.345 67.0625C319.423 67.1406 319.462 67.276 319.462 67.4688C319.462 67.6615 319.423 67.7995 319.345 67.8828C319.272 67.9609 319.147 68 318.97 68H316.439C316.262 68 316.134 67.9609 316.056 67.8828C315.983 67.7995 315.947 67.6615 315.947 67.4688C315.947 67.276 315.983 67.1406 316.056 67.0625C316.134 66.9792 316.262 66.9375 316.439 66.9375H317.079V61.8438H316.283C316.105 61.8438 315.978 61.8047 315.9 61.7266C315.827 61.6432 315.79 61.5052 315.79 61.3125C315.79 61.1198 315.827 60.9844 315.9 60.9062C315.978 60.8229 316.105 60.7812 316.283 60.7812H317.681C317.858 60.7812 317.983 60.8229 318.056 60.9062C318.134 60.9844 318.173 61.1198 318.173 61.3125V62.25C318.517 61.7188 318.918 61.3125 319.376 61.0312C319.84 60.75 320.337 60.6094 320.868 60.6094ZM342.626 60.6094C342.839 60.6094 342.99 60.6484 343.079 60.7266C343.167 60.8047 343.212 60.9349 343.212 61.1172V63.3828C343.212 63.5651 343.167 63.6953 343.079 63.7734C342.99 63.8516 342.839 63.8906 342.626 63.8906C342.412 63.8906 342.261 63.8516 342.173 63.7734C342.084 63.6953 342.04 63.5651 342.04 63.3828C342.04 63.0651 341.956 62.7839 341.79 62.5391C341.623 62.2943 341.373 62.1042 341.04 61.9688C340.712 61.8333 340.316 61.7656 339.852 61.7656C339.352 61.7656 338.904 61.8776 338.508 62.1016C338.113 62.3255 337.803 62.638 337.579 63.0391C337.355 63.4401 337.243 63.8906 337.243 64.3906C337.243 64.8958 337.347 65.349 337.555 65.75C337.769 66.1458 338.066 66.4557 338.446 66.6797C338.831 66.9036 339.274 67.0156 339.774 67.0156C340.253 67.0156 340.717 66.9427 341.165 66.7969C341.618 66.6458 342.029 66.4297 342.399 66.1484C342.508 66.0651 342.61 66.0234 342.704 66.0234C342.855 66.0234 342.995 66.1302 343.126 66.3438C343.204 66.474 343.243 66.599 343.243 66.7188C343.243 66.901 343.159 67.0521 342.993 67.1719C342.576 67.4844 342.084 67.7292 341.516 67.9062C340.949 68.0833 340.368 68.1719 339.774 68.1719C339.029 68.1719 338.37 68.0078 337.798 67.6797C337.23 67.3516 336.79 66.901 336.477 66.3281C336.165 65.7552 336.008 65.1094 336.008 64.3906C336.008 63.6719 336.167 63.026 336.485 62.4531C336.803 61.8802 337.245 61.4297 337.813 61.1016C338.386 60.7734 339.04 60.6094 339.774 60.6094C340.238 60.6094 340.662 60.6953 341.048 60.8672C341.438 61.0339 341.769 61.2734 342.04 61.5859V61.1172C342.04 60.9349 342.084 60.8047 342.173 60.7266C342.261 60.6484 342.412 60.6094 342.626 60.6094ZM349.727 60.6094C350.44 60.6094 351.084 60.7708 351.657 61.0938C352.229 61.4167 352.677 61.8672 353 62.4453C353.328 63.0182 353.492 63.6667 353.492 64.3906C353.492 65.1146 353.328 65.7656 353 66.3438C352.677 66.9167 352.229 67.3646 351.657 67.6875C351.084 68.0104 350.44 68.1719 349.727 68.1719C349.013 68.1719 348.37 68.0104 347.797 67.6875C347.224 67.3646 346.774 66.9167 346.446 66.3438C346.123 65.7656 345.961 65.1146 345.961 64.3906C345.961 63.6667 346.123 63.0182 346.446 62.4453C346.774 61.8672 347.224 61.4167 347.797 61.0938C348.37 60.7708 349.013 60.6094 349.727 60.6094ZM349.727 61.7656C349.222 61.7656 348.776 61.8776 348.391 62.1016C348.011 62.3203 347.716 62.6302 347.508 63.0312C347.3 63.4271 347.196 63.8802 347.196 64.3906C347.196 64.901 347.3 65.3568 347.508 65.7578C347.716 66.1536 348.011 66.4635 348.391 66.6875C348.776 66.9062 349.222 67.0156 349.727 67.0156C350.232 67.0156 350.675 66.9062 351.055 66.6875C351.44 66.4635 351.737 66.1536 351.946 65.7578C352.154 65.3568 352.258 64.901 352.258 64.3906C352.258 63.8802 352.154 63.4271 351.946 63.0312C351.737 62.6302 351.44 62.3203 351.055 62.1016C350.675 61.8776 350.232 61.7656 349.727 61.7656ZM362.156 60.7812C362.333 60.7812 362.458 60.8229 362.531 60.9062C362.609 60.9844 362.648 61.1198 362.648 61.3125V66.9375H363.289C363.466 66.9375 363.591 66.9792 363.664 67.0625C363.742 67.1406 363.781 67.276 363.781 67.4688C363.781 67.6615 363.742 67.7995 363.664 67.8828C363.591 67.9609 363.466 68 363.289 68H362.047C361.87 68 361.742 67.9609 361.664 67.8828C361.591 67.8047 361.555 67.6693 361.555 67.4766V66.5312C361.211 67.0625 360.807 67.4688 360.344 67.75C359.885 68.0312 359.391 68.1719 358.859 68.1719C358.385 68.1719 357.974 68.0703 357.625 67.8672C357.276 67.6589 357.008 67.362 356.82 66.9766C356.633 66.5911 356.539 66.1406 356.539 65.625V61.8438H355.898C355.721 61.8438 355.594 61.8047 355.516 61.7266C355.443 61.6432 355.406 61.5052 355.406 61.3125C355.406 61.1198 355.443 60.9844 355.516 60.9062C355.594 60.8229 355.721 60.7812 355.898 60.7812H357.219C357.396 60.7812 357.521 60.8229 357.594 60.9062C357.672 60.9844 357.711 61.1198 357.711 61.3125V65.5078C357.711 65.9714 357.818 66.3385 358.031 66.6094C358.245 66.8802 358.56 67.0156 358.977 67.0156C359.419 67.0156 359.831 66.888 360.211 66.6328C360.596 66.3776 360.904 66.026 361.133 65.5781C361.362 65.1302 361.477 64.6302 361.477 64.0781V61.8438H360.367C360.19 61.8438 360.062 61.8047 359.984 61.7266C359.911 61.6432 359.875 61.5052 359.875 61.3125C359.875 61.1198 359.911 60.9844 359.984 60.9062C360.062 60.8229 360.19 60.7812 360.367 60.7812H362.156ZM369.984 60.6094C370.63 60.6094 371.208 60.763 371.718 61.0703C372.229 61.3724 372.63 61.8099 372.922 62.3828C373.213 62.9505 373.359 63.6198 373.359 64.3906C373.359 65.1615 373.213 65.8333 372.922 66.4062C372.63 66.974 372.229 67.4115 371.718 67.7188C371.208 68.0208 370.63 68.1719 369.984 68.1719C369.005 68.1719 368.179 67.7422 367.508 66.8828V69.9688H368.851C369.028 69.9688 369.153 70.0078 369.226 70.0859C369.304 70.1693 369.343 70.3073 369.343 70.5C369.343 70.6927 369.304 70.8281 369.226 70.9062C369.153 70.9896 369.028 71.0312 368.851 71.0312H365.539C365.362 71.0312 365.234 70.9896 365.156 70.9062C365.083 70.8281 365.047 70.6927 365.047 70.5C365.047 70.3073 365.083 70.1693 365.156 70.0859C365.234 70.0078 365.362 69.9688 365.539 69.9688H366.336V61.8438H365.695C365.518 61.8438 365.39 61.8047 365.312 61.7266C365.239 61.6432 365.203 61.5052 365.203 61.3125C365.203 61.1198 365.239 60.9844 365.312 60.9062C365.39 60.8229 365.518 60.7812 365.695 60.7812H366.937C367.114 60.7812 367.239 60.8229 367.312 60.9062C367.39 60.9844 367.429 61.1198 367.429 61.3125V61.9375C367.758 61.5104 368.138 61.1823 368.57 60.9531C369.002 60.724 369.474 60.6094 369.984 60.6094ZM369.906 61.7656C369.442 61.7656 369.028 61.8698 368.664 62.0781C368.304 62.2865 368.021 62.5885 367.812 62.9844C367.609 63.3802 367.508 63.849 367.508 64.3906C367.508 64.9323 367.609 65.401 367.812 65.7969C368.021 66.1927 368.304 66.4948 368.664 66.7031C369.028 66.9115 369.442 67.0156 369.906 67.0156C370.369 67.0156 370.768 66.9062 371.101 66.6875C371.435 66.4635 371.687 66.1536 371.859 65.7578C372.036 65.362 372.125 64.9062 372.125 64.3906C372.125 63.875 372.036 63.4193 371.859 63.0234C371.687 62.6276 371.435 62.3203 371.101 62.1016C370.768 61.8776 370.369 61.7656 369.906 61.7656ZM114.523 75.75C114.701 75.75 114.826 75.7917 114.898 75.875C114.977 75.9531 115.016 76.0885 115.016 76.2812V84.9375H115.656C115.833 84.9375 115.958 84.9792 116.031 85.0625C116.109 85.1406 116.148 85.276 116.148 85.4688C116.148 85.6615 116.109 85.7995 116.031 85.8828C115.958 85.9609 115.833 86 115.656 86H114.414C114.237 86 114.109 85.9609 114.031 85.8828C113.958 85.7995 113.922 85.6615 113.922 85.4688V84.8438C113.594 85.2708 113.214 85.599 112.781 85.8281C112.349 86.0573 111.878 86.1719 111.367 86.1719C110.721 86.1719 110.143 86.0208 109.633 85.7188C109.122 85.4115 108.721 84.974 108.43 84.4062C108.138 83.8333 107.992 83.1615 107.992 82.3906C107.992 81.6198 108.138 80.9505 108.43 80.3828C108.721 79.8099 109.122 79.3724 109.633 79.0703C110.143 78.763 110.721 78.6094 111.367 78.6094C112.346 78.6094 113.172 79.0391 113.844 79.8984V76.8125H112.578C112.401 76.8125 112.273 76.7734 112.195 76.6953C112.122 76.612 112.086 76.474 112.086 76.2812C112.086 76.0885 112.122 75.9531 112.195 75.875C112.273 75.7917 112.401 75.75 112.578 75.75H114.523ZM111.445 79.7656C110.982 79.7656 110.583 79.8776 110.25 80.1016C109.917 80.3203 109.661 80.6276 109.484 81.0234C109.312 81.4193 109.227 81.875 109.227 82.3906C109.227 82.9062 109.312 83.362 109.484 83.7578C109.661 84.1536 109.917 84.4635 110.25 84.6875C110.583 84.9062 110.982 85.0156 111.445 85.0156C111.909 85.0156 112.32 84.9115 112.68 84.7031C113.044 84.4948 113.328 84.1927 113.531 83.7969C113.74 83.401 113.844 82.9323 113.844 82.3906C113.844 81.849 113.74 81.3802 113.531 80.9844C113.328 80.5885 113.044 80.2865 112.68 80.0781C112.32 79.8698 111.909 79.7656 111.445 79.7656ZM122.906 76.0859C122.994 76.0859 123.062 76.1094 123.109 76.1562C123.161 76.2031 123.187 76.2656 123.187 76.3438C123.187 76.4062 123.166 76.4844 123.125 76.5781L121.406 80.0859C121.297 80.3099 121.104 80.4219 120.828 80.4219C120.677 80.4219 120.554 80.3854 120.461 80.3125C120.372 80.2396 120.328 80.1406 120.328 80.0156C120.328 79.9896 120.333 79.9453 120.343 79.8828L121.132 76.3984C121.179 76.1901 121.315 76.0859 121.539 76.0859H122.906ZM131.624 78.6094C132.338 78.6094 132.981 78.7708 133.554 79.0938C134.127 79.4167 134.575 79.8672 134.898 80.4453C135.226 81.0182 135.39 81.6667 135.39 82.3906C135.39 83.1146 135.226 83.7656 134.898 84.3438C134.575 84.9167 134.127 85.3646 133.554 85.6875C132.981 86.0104 132.338 86.1719 131.624 86.1719C130.911 86.1719 130.268 86.0104 129.695 85.6875C129.122 85.3646 128.671 84.9167 128.343 84.3438C128.02 83.7656 127.859 83.1146 127.859 82.3906C127.859 81.6667 128.02 81.0182 128.343 80.4453C128.671 79.8672 129.122 79.4167 129.695 79.0938C130.268 78.7708 130.911 78.6094 131.624 78.6094ZM131.624 79.7656C131.119 79.7656 130.674 79.8776 130.288 80.1016C129.908 80.3203 129.614 80.6302 129.406 81.0312C129.197 81.4271 129.093 81.8802 129.093 82.3906C129.093 82.901 129.197 83.3568 129.406 83.7578C129.614 84.1536 129.908 84.4635 130.288 84.6875C130.674 84.9062 131.119 85.0156 131.624 85.0156C132.13 85.0156 132.572 84.9062 132.952 84.6875C133.338 84.4635 133.635 84.1536 133.843 83.7578C134.051 83.3568 134.156 82.901 134.156 82.3906C134.156 81.8802 134.051 81.4271 133.843 81.0312C133.635 80.6302 133.338 80.3203 132.952 80.1016C132.572 79.8776 132.13 79.7656 131.624 79.7656ZM141.608 78.6094C142.364 78.6094 143.007 78.763 143.538 79.0703C144.075 79.3724 144.486 79.7943 144.772 80.3359C145.059 80.8724 145.223 81.4922 145.265 82.1953C145.265 82.3724 145.226 82.4974 145.147 82.5703C145.075 82.6432 144.95 82.6797 144.772 82.6797H139.116C139.153 83.4557 139.382 84.0443 139.804 84.4453C140.231 84.8411 140.832 85.0391 141.608 85.0391C142.088 85.0391 142.562 84.9792 143.03 84.8594C143.499 84.7344 143.911 84.5703 144.265 84.3672C144.353 84.3203 144.434 84.2969 144.507 84.2969C144.689 84.2969 144.838 84.4349 144.952 84.7109C144.999 84.8203 145.022 84.9193 145.022 85.0078C145.022 85.2161 144.908 85.3776 144.679 85.4922C144.278 85.6953 143.804 85.8594 143.257 85.9844C142.71 86.1094 142.161 86.1719 141.608 86.1719C140.822 86.1719 140.15 86.0208 139.593 85.7188C139.036 85.4167 138.611 84.9818 138.319 84.4141C138.028 83.8464 137.882 83.1719 137.882 82.3906C137.882 81.6458 138.041 80.987 138.358 80.4141C138.676 79.8411 139.116 79.3984 139.679 79.0859C140.241 78.7682 140.884 78.6094 141.608 78.6094ZM141.608 79.7422C140.968 79.7422 140.437 79.9062 140.015 80.2344C139.598 80.5573 139.325 81.0078 139.194 81.5859H143.968C143.858 80.987 143.606 80.5312 143.21 80.2188C142.819 79.901 142.286 79.7422 141.608 79.7422ZM151.733 78.7812C151.91 78.7812 152.035 78.8229 152.108 78.9062C152.186 78.9844 152.225 79.1198 152.225 79.3125V84.9375H154.733C154.91 84.9375 155.035 84.9792 155.108 85.0625C155.186 85.1406 155.225 85.276 155.225 85.4688C155.225 85.6615 155.186 85.7995 155.108 85.8828C155.035 85.9609 154.91 86 154.733 86H148.608C148.431 86 148.303 85.9609 148.225 85.8828C148.152 85.7995 148.116 85.6615 148.116 85.4688C148.116 85.276 148.152 85.1406 148.225 85.0625C148.303 84.9792 148.431 84.9375 148.608 84.9375H151.053V79.8438H149.077C148.9 79.8438 148.772 79.8047 148.694 79.7266C148.621 79.6432 148.585 79.5052 148.585 79.3125C148.585 79.1198 148.621 78.9844 148.694 78.9062C148.772 78.8229 148.9 78.7812 149.077 78.7812H151.733ZM151.483 75.3516C151.77 75.3516 151.965 75.3906 152.069 75.4688C152.173 75.5417 152.225 75.6719 152.225 75.8594V76.875C152.225 77.0625 152.173 77.1953 152.069 77.2734C151.965 77.3464 151.77 77.3828 151.483 77.3828C151.197 77.3828 151.001 77.3464 150.897 77.2734C150.793 77.1953 150.741 77.0625 150.741 76.875V75.8594C150.741 75.6719 150.793 75.5417 150.897 75.4688C151.001 75.3906 151.197 75.3516 151.483 75.3516ZM161.569 75.75C161.746 75.75 161.871 75.7917 161.944 75.875C162.022 75.9531 162.061 76.0885 162.061 76.2812V84.9375H164.569C164.746 84.9375 164.871 84.9792 164.944 85.0625C165.022 85.1406 165.061 85.276 165.061 85.4688C165.061 85.6615 165.022 85.7995 164.944 85.8828C164.871 85.9609 164.746 86 164.569 86H158.444C158.267 86 158.139 85.9609 158.061 85.8828C157.988 85.7995 157.952 85.6615 157.952 85.4688C157.952 85.276 157.988 85.1406 158.061 85.0625C158.139 84.9792 158.267 84.9375 158.444 84.9375H160.889V76.8125H158.756C158.579 76.8125 158.452 76.7734 158.373 76.6953C158.301 76.612 158.264 76.474 158.264 76.2812C158.264 76.0885 158.301 75.9531 158.373 75.875C158.452 75.7917 158.579 75.75 158.756 75.75H161.569ZM181.224 78.6094C182.204 78.6094 182.938 78.8281 183.427 79.2656C183.917 79.7031 184.162 80.3516 184.162 81.2109V84.3203C184.162 84.7318 184.334 84.9375 184.677 84.9375H184.951C185.128 84.9375 185.253 84.9792 185.326 85.0625C185.404 85.1406 185.443 85.276 185.443 85.4688C185.443 85.6615 185.404 85.7995 185.326 85.8828C185.253 85.9609 185.128 86 184.951 86H184.451C184.112 86 183.821 85.9167 183.576 85.75C183.336 85.5781 183.18 85.3281 183.107 85C182.68 85.375 182.217 85.6641 181.717 85.8672C181.222 86.0703 180.696 86.1719 180.138 86.1719C179.612 86.1719 179.146 86.0833 178.74 85.9062C178.339 85.724 178.024 85.4609 177.795 85.1172C177.566 84.7734 177.451 84.3646 177.451 83.8906C177.451 83.0677 177.745 82.4609 178.334 82.0703C178.922 81.6745 179.683 81.4766 180.615 81.4766C181.443 81.4766 182.235 81.6094 182.99 81.875V81.2109C182.99 80.7057 182.847 80.3359 182.56 80.1016C182.279 79.862 181.823 79.7422 181.193 79.7422C180.802 79.7422 180.396 79.7969 179.974 79.9062C179.552 80.0156 179.151 80.1667 178.771 80.3594C178.683 80.4062 178.602 80.4297 178.529 80.4297C178.357 80.4297 178.214 80.3047 178.099 80.0547C178.042 79.9297 178.013 79.8255 178.013 79.7422C178.013 79.5599 178.11 79.4193 178.302 79.3203C178.74 79.0911 179.209 78.9167 179.709 78.7969C180.214 78.6719 180.719 78.6094 181.224 78.6094ZM180.623 82.5781C180.024 82.5781 179.55 82.6823 179.201 82.8906C178.857 83.0938 178.685 83.4193 178.685 83.8672C178.685 84.2474 178.816 84.5443 179.076 84.7578C179.342 84.9661 179.711 85.0703 180.185 85.0703C181.222 85.0703 182.157 84.6406 182.99 83.7812V82.9297C182.636 82.8151 182.256 82.7292 181.849 82.6719C181.443 82.6094 181.034 82.5781 180.623 82.5781ZM183.092 77.0469C183.175 77.1094 183.217 77.1901 183.217 77.2891C183.217 77.4193 183.154 77.5547 183.029 77.6953C182.914 77.8255 182.795 77.8906 182.67 77.8906C182.597 77.8906 182.513 77.8646 182.42 77.8125L179.498 76.1016C179.383 76.0339 179.326 75.9323 179.326 75.7969C179.326 75.6458 179.404 75.4688 179.56 75.2656C179.732 75.0521 179.907 74.9453 180.084 74.9453C180.183 74.9453 180.279 74.9792 180.373 75.0469L183.092 77.0469ZM197.888 80.125C197.799 80.125 197.729 80.1016 197.677 80.0547C197.63 80.0078 197.607 79.9453 197.607 79.8672C197.607 79.8047 197.627 79.7266 197.669 79.6328L199.388 76.125C199.502 75.901 199.695 75.7891 199.966 75.7891C200.117 75.7891 200.237 75.8255 200.325 75.8984C200.419 75.9714 200.466 76.0703 200.466 76.1953C200.466 76.2214 200.461 76.2656 200.45 76.3281L199.661 79.8125C199.614 80.0208 199.479 80.125 199.255 80.125H197.888ZM201.716 80.125C201.627 80.125 201.557 80.1016 201.505 80.0547C201.458 80.0078 201.435 79.9453 201.435 79.8672C201.435 79.8047 201.456 79.7266 201.497 79.6328L203.216 76.125C203.331 75.901 203.523 75.7891 203.794 75.7891C203.945 75.7891 204.065 75.8255 204.153 75.8984C204.247 75.9714 204.294 76.0703 204.294 76.1953C204.294 76.2214 204.289 76.2656 204.278 76.3281L203.489 79.8125C203.442 80.0208 203.307 80.125 203.083 80.125H201.716ZM211.137 76.7266C211.346 76.7266 211.512 76.7682 211.637 76.8516C211.768 76.9297 211.864 77.0573 211.927 77.2344L214.684 84.9375H215.161C215.338 84.9375 215.463 84.9792 215.536 85.0625C215.614 85.1406 215.653 85.276 215.653 85.4688C215.653 85.6615 215.614 85.7995 215.536 85.8828C215.463 85.9609 215.338 86 215.161 86H212.395C212.218 86 212.091 85.9609 212.012 85.8828C211.94 85.7995 211.903 85.6615 211.903 85.4688C211.903 85.276 211.94 85.1406 212.012 85.0625C212.091 84.9792 212.218 84.9375 212.395 84.9375H213.45L212.809 83.0781H209.02L208.372 84.9375H209.317C209.494 84.9375 209.619 84.9792 209.692 85.0625C209.77 85.1406 209.809 85.276 209.809 85.4688C209.809 85.6615 209.77 85.7995 209.692 85.8828C209.619 85.9609 209.494 86 209.317 86H206.708C206.531 86 206.403 85.9609 206.325 85.8828C206.252 85.7995 206.216 85.6615 206.216 85.4688C206.216 85.276 206.252 85.1406 206.325 85.0625C206.403 84.9792 206.531 84.9375 206.708 84.9375H207.145L209.731 77.7891H208.27C208.093 77.7891 207.966 77.75 207.887 77.6719C207.815 77.5885 207.778 77.4505 207.778 77.2578C207.778 77.0651 207.815 76.9297 207.887 76.8516C207.966 76.7682 208.093 76.7266 208.27 76.7266H211.137ZM210.848 77.7891L209.387 82.0156H212.45L210.997 77.7891H210.848ZM221.731 78.6094C222.205 78.6094 222.616 78.7135 222.965 78.9219C223.314 79.125 223.582 79.4193 223.77 79.8047C223.957 80.1901 224.051 80.6406 224.051 81.1562V84.9375H224.692C224.869 84.9375 224.994 84.9792 225.067 85.0625C225.145 85.1406 225.184 85.276 225.184 85.4688C225.184 85.6615 225.145 85.7995 225.067 85.8828C224.994 85.9609 224.869 86 224.692 86H222.161C221.984 86 221.856 85.9609 221.778 85.8828C221.705 85.7995 221.668 85.6615 221.668 85.4688C221.668 85.276 221.705 85.1406 221.778 85.0625C221.856 84.9792 221.984 84.9375 222.161 84.9375H222.879V81.2734C222.879 80.8099 222.773 80.4427 222.559 80.1719C222.346 79.901 222.03 79.7656 221.614 79.7656C221.171 79.7656 220.757 79.8932 220.372 80.1484C219.991 80.4036 219.687 80.7552 219.457 81.2031C219.228 81.651 219.114 82.151 219.114 82.7031V84.9375H219.832C220.01 84.9375 220.135 84.9792 220.207 85.0625C220.286 85.1406 220.325 85.276 220.325 85.4688C220.325 85.6615 220.286 85.7995 220.207 85.8828C220.135 85.9609 220.01 86 219.832 86H217.301C217.124 86 216.997 85.9609 216.918 85.8828C216.846 85.7995 216.809 85.6615 216.809 85.4688C216.809 85.276 216.846 85.1406 216.918 85.0625C216.997 84.9792 217.124 84.9375 217.301 84.9375H217.942V79.8438H217.145C216.968 79.8438 216.84 79.8047 216.762 79.7266C216.689 79.6432 216.653 79.5052 216.653 79.3125C216.653 79.1198 216.689 78.9844 216.762 78.9062C216.84 78.8229 216.968 78.7812 217.145 78.7812H218.543C218.721 78.7812 218.846 78.8229 218.918 78.9062C218.997 78.9844 219.036 79.1198 219.036 79.3125V80.25C219.379 79.7188 219.78 79.3125 220.239 79.0312C220.702 78.75 221.2 78.6094 221.731 78.6094ZM231.645 78.6094C232.119 78.6094 232.53 78.7135 232.879 78.9219C233.228 79.125 233.496 79.4193 233.684 79.8047C233.871 80.1901 233.965 80.6406 233.965 81.1562V84.9375H234.606C234.783 84.9375 234.908 84.9792 234.981 85.0625C235.059 85.1406 235.098 85.276 235.098 85.4688C235.098 85.6615 235.059 85.7995 234.981 85.8828C234.908 85.9609 234.783 86 234.606 86H232.074C231.897 86 231.77 85.9609 231.692 85.8828C231.619 85.7995 231.582 85.6615 231.582 85.4688C231.582 85.276 231.619 85.1406 231.692 85.0625C231.77 84.9792 231.897 84.9375 232.074 84.9375H232.793V81.2734C232.793 80.8099 232.686 80.4427 232.473 80.1719C232.259 79.901 231.944 79.7656 231.527 79.7656C231.085 79.7656 230.671 79.8932 230.285 80.1484C229.905 80.4036 229.6 80.7552 229.371 81.2031C229.142 81.651 229.027 82.151 229.027 82.7031V84.9375H229.746C229.923 84.9375 230.048 84.9792 230.121 85.0625C230.199 85.1406 230.238 85.276 230.238 85.4688C230.238 85.6615 230.199 85.7995 230.121 85.8828C230.048 85.9609 229.923 86 229.746 86H227.215C227.038 86 226.91 85.9609 226.832 85.8828C226.759 85.7995 226.723 85.6615 226.723 85.4688C226.723 85.276 226.759 85.1406 226.832 85.0625C226.91 84.9792 227.038 84.9375 227.215 84.9375H227.856V79.8438H227.059C226.882 79.8438 226.754 79.8047 226.676 79.7266C226.603 79.6432 226.567 79.5052 226.567 79.3125C226.567 79.1198 226.603 78.9844 226.676 78.9062C226.754 78.8229 226.882 78.7812 227.059 78.7812H228.457C228.634 78.7812 228.759 78.8229 228.832 78.9062C228.91 78.9844 228.949 79.1198 228.949 79.3125V80.25C229.293 79.7188 229.694 79.3125 230.152 79.0312C230.616 78.75 231.113 78.6094 231.645 78.6094ZM240.957 78.7812C241.134 78.7812 241.259 78.8229 241.332 78.9062C241.41 78.9844 241.449 79.1198 241.449 79.3125V84.9375H243.957C244.134 84.9375 244.259 84.9792 244.332 85.0625C244.41 85.1406 244.449 85.276 244.449 85.4688C244.449 85.6615 244.41 85.7995 244.332 85.8828C244.259 85.9609 244.134 86 243.957 86H237.832C237.655 86 237.527 85.9609 237.449 85.8828C237.376 85.7995 237.34 85.6615 237.34 85.4688C237.34 85.276 237.376 85.1406 237.449 85.0625C237.527 84.9792 237.655 84.9375 237.832 84.9375H240.277V79.8438H238.301C238.124 79.8438 237.996 79.8047 237.918 79.7266C237.845 79.6432 237.808 79.5052 237.808 79.3125C237.808 79.1198 237.845 78.9844 237.918 78.9062C237.996 78.8229 238.124 78.7812 238.301 78.7812H240.957ZM240.707 75.3516C240.993 75.3516 241.189 75.3906 241.293 75.4688C241.397 75.5417 241.449 75.6719 241.449 75.8594V76.875C241.449 77.0625 241.397 77.1953 241.293 77.2734C241.189 77.3464 240.993 77.3828 240.707 77.3828C240.42 77.3828 240.225 77.3464 240.121 77.2734C240.017 77.1953 239.965 77.0625 239.965 76.875V75.8594C239.965 75.6719 240.017 75.5417 240.121 75.4688C240.225 75.3906 240.42 75.3516 240.707 75.3516ZM254.503 78.7812C254.681 78.7812 254.806 78.8229 254.878 78.9062C254.957 78.9844 254.996 79.1198 254.996 79.3125C254.996 79.5052 254.957 79.6432 254.878 79.7266C254.806 79.8047 254.681 79.8438 254.503 79.8438H254.011L251.488 85.6641C251.415 85.8411 251.306 85.9688 251.16 86.0469C251.019 86.1302 250.821 86.1719 250.566 86.1719C250.316 86.1719 250.121 86.1302 249.98 86.0469C249.845 85.9688 249.738 85.8411 249.66 85.6641L247.16 79.8438H246.675C246.498 79.8438 246.371 79.8047 246.292 79.7266C246.22 79.6432 246.183 79.5052 246.183 79.3125C246.183 79.1198 246.22 78.9844 246.292 78.9062C246.371 78.8229 246.498 78.7812 246.675 78.7812H249.441C249.618 78.7812 249.743 78.8229 249.816 78.9062C249.894 78.9844 249.933 79.1198 249.933 79.3125C249.933 79.5052 249.894 79.6432 249.816 79.7266C249.743 79.8047 249.618 79.8438 249.441 79.8438H248.441L250.574 84.9375L252.73 79.8438H252.05C251.873 79.8438 251.746 79.8047 251.667 79.7266C251.595 79.6432 251.558 79.5052 251.558 79.3125C251.558 79.1198 251.595 78.9844 251.667 78.9062C251.746 78.8229 251.873 78.7812 252.05 78.7812H254.503ZM271.065 76.7266C271.242 76.7266 271.367 76.7682 271.44 76.8516C271.518 76.9297 271.557 77.0651 271.557 77.2578C271.557 77.4505 271.518 77.5885 271.44 77.6719C271.367 77.75 271.242 77.7891 271.065 77.7891H269.175V84.9375H273.042V82.3672C273.042 82.1849 273.086 82.0547 273.175 81.9766C273.263 81.8984 273.414 81.8594 273.628 81.8594C273.841 81.8594 273.992 81.8984 274.081 81.9766C274.169 82.0547 274.214 82.1849 274.214 82.3672V85.4688C274.214 85.6615 274.175 85.7995 274.097 85.8828C274.024 85.9609 273.899 86 273.722 86H266.737C266.56 86 266.432 85.9609 266.354 85.8828C266.281 85.7995 266.245 85.6615 266.245 85.4688C266.245 85.276 266.281 85.1406 266.354 85.0625C266.432 84.9792 266.56 84.9375 266.737 84.9375H268.003V77.7891H266.737C266.56 77.7891 266.432 77.75 266.354 77.6719C266.281 77.5885 266.245 77.4505 266.245 77.2578C266.245 77.0651 266.281 76.9297 266.354 76.8516C266.432 76.7682 266.56 76.7266 266.737 76.7266H271.065ZM280.362 78.6094C281.341 78.6094 282.075 78.8281 282.565 79.2656C283.055 79.7031 283.299 80.3516 283.299 81.2109V84.3203C283.299 84.7318 283.471 84.9375 283.815 84.9375H284.088C284.266 84.9375 284.391 84.9792 284.463 85.0625C284.542 85.1406 284.581 85.276 284.581 85.4688C284.581 85.6615 284.542 85.7995 284.463 85.8828C284.391 85.9609 284.266 86 284.088 86H283.588C283.25 86 282.958 85.9167 282.713 85.75C282.474 85.5781 282.318 85.3281 282.245 85C281.818 85.375 281.354 85.6641 280.854 85.8672C280.359 86.0703 279.833 86.1719 279.276 86.1719C278.75 86.1719 278.284 86.0833 277.878 85.9062C277.476 85.724 277.161 85.4609 276.932 85.1172C276.703 84.7734 276.588 84.3646 276.588 83.8906C276.588 83.0677 276.883 82.4609 277.471 82.0703C278.06 81.6745 278.82 81.4766 279.753 81.4766C280.581 81.4766 281.372 81.6094 282.128 81.875V81.2109C282.128 80.7057 281.984 80.3359 281.698 80.1016C281.417 79.862 280.961 79.7422 280.331 79.7422C279.94 79.7422 279.534 79.7969 279.112 79.9062C278.69 80.0156 278.289 80.1667 277.909 80.3594C277.82 80.4062 277.739 80.4297 277.667 80.4297C277.495 80.4297 277.351 80.3047 277.237 80.0547C277.18 79.9297 277.151 79.8255 277.151 79.7422C277.151 79.5599 277.247 79.4193 277.44 79.3203C277.878 79.0911 278.346 78.9167 278.846 78.7969C279.351 78.6719 279.857 78.6094 280.362 78.6094ZM279.76 82.5781C279.161 82.5781 278.687 82.6823 278.338 82.8906C277.995 83.0938 277.823 83.4193 277.823 83.8672C277.823 84.2474 277.953 84.5443 278.213 84.7578C278.479 84.9661 278.849 85.0703 279.323 85.0703C280.359 85.0703 281.294 84.6406 282.128 83.7812V82.9297C281.773 82.8151 281.393 82.7292 280.987 82.6719C280.581 82.6094 280.172 82.5781 279.76 82.5781ZM294.158 78.7812C294.336 78.7812 294.461 78.8229 294.533 78.9062C294.612 78.9844 294.651 79.1198 294.651 79.3125C294.651 79.5052 294.612 79.6432 294.533 79.7266C294.461 79.8047 294.336 79.8438 294.158 79.8438H293.674L290.479 86.3906C290.14 87.0833 289.809 87.6276 289.487 88.0234C289.164 88.4193 288.799 88.7083 288.393 88.8906C287.992 89.0781 287.502 89.1823 286.924 89.2031C286.742 89.2083 286.601 89.1615 286.502 89.0625C286.403 88.9688 286.354 88.7995 286.354 88.5547C286.354 88.2161 286.492 88.0391 286.768 88.0234C287.268 87.9974 287.664 87.9141 287.955 87.7734C288.252 87.6328 288.523 87.3906 288.768 87.0469C289.018 86.7083 289.322 86.1771 289.682 85.4531L286.822 79.8438H286.33C286.153 79.8438 286.026 79.8047 285.947 79.7266C285.875 79.6432 285.838 79.5052 285.838 79.3125C285.838 79.1198 285.875 78.9844 285.947 78.9062C286.026 78.8229 286.153 78.7812 286.33 78.7812H289.096C289.273 78.7812 289.398 78.8229 289.471 78.9062C289.549 78.9844 289.588 79.1198 289.588 79.3125C289.588 79.5052 289.549 79.6432 289.471 79.7266C289.398 79.8047 289.273 79.8438 289.096 79.8438H288.096L290.299 84.2344L292.401 79.8438H291.705C291.528 79.8438 291.401 79.8047 291.322 79.7266C291.25 79.6432 291.213 79.5052 291.213 79.3125C291.213 79.1198 291.25 78.9844 291.322 78.9062C291.401 78.8229 291.528 78.7812 291.705 78.7812H294.158ZM300.361 75.75C300.538 75.75 300.663 75.7917 300.736 75.875C300.814 75.9531 300.853 76.0885 300.853 76.2812V84.9375H303.361C303.538 84.9375 303.663 84.9792 303.736 85.0625C303.814 85.1406 303.853 85.276 303.853 85.4688C303.853 85.6615 303.814 85.7995 303.736 85.8828C303.663 85.9609 303.538 86 303.361 86H297.236C297.059 86 296.932 85.9609 296.853 85.8828C296.781 85.7995 296.744 85.6615 296.744 85.4688C296.744 85.276 296.781 85.1406 296.853 85.0625C296.932 84.9792 297.059 84.9375 297.236 84.9375H299.682V76.8125H297.549C297.372 76.8125 297.244 76.7734 297.166 76.6953C297.093 76.612 297.057 76.474 297.057 76.2812C297.057 76.0885 297.093 75.9531 297.166 75.875C297.244 75.7917 297.372 75.75 297.549 75.75H300.361ZM310.103 78.6094C311.082 78.6094 311.817 78.8281 312.306 79.2656C312.796 79.7031 313.041 80.3516 313.041 81.2109V84.3203C313.041 84.7318 313.212 84.9375 313.556 84.9375H313.83C314.007 84.9375 314.132 84.9792 314.205 85.0625C314.283 85.1406 314.322 85.276 314.322 85.4688C314.322 85.6615 314.283 85.7995 314.205 85.8828C314.132 85.9609 314.007 86 313.83 86H313.33C312.991 86 312.699 85.9167 312.455 85.75C312.215 85.5781 312.059 85.3281 311.986 85C311.559 85.375 311.095 85.6641 310.595 85.8672C310.101 86.0703 309.574 86.1719 309.017 86.1719C308.491 86.1719 308.025 86.0833 307.619 85.9062C307.218 85.724 306.903 85.4609 306.673 85.1172C306.444 84.7734 306.33 84.3646 306.33 83.8906C306.33 83.0677 306.624 82.4609 307.212 82.0703C307.801 81.6745 308.561 81.4766 309.494 81.4766C310.322 81.4766 311.114 81.6094 311.869 81.875V81.2109C311.869 80.7057 311.726 80.3359 311.439 80.1016C311.158 79.862 310.702 79.7422 310.072 79.7422C309.681 79.7422 309.275 79.7969 308.853 79.9062C308.431 80.0156 308.03 80.1667 307.65 80.3594C307.561 80.4062 307.481 80.4297 307.408 80.4297C307.236 80.4297 307.093 80.3047 306.978 80.0547C306.921 79.9297 306.892 79.8255 306.892 79.7422C306.892 79.5599 306.989 79.4193 307.181 79.3203C307.619 79.0911 308.087 78.9167 308.587 78.7969C309.093 78.6719 309.598 78.6094 310.103 78.6094ZM309.502 82.5781C308.903 82.5781 308.429 82.6823 308.08 82.8906C307.736 83.0938 307.564 83.4193 307.564 83.8672C307.564 84.2474 307.694 84.5443 307.955 84.7578C308.22 84.9661 308.59 85.0703 309.064 85.0703C310.101 85.0703 311.035 84.6406 311.869 83.7812V82.9297C311.515 82.8151 311.134 82.7292 310.728 82.6719C310.322 82.6094 309.913 82.5781 309.502 82.5781ZM319.267 76.0859C319.355 76.0859 319.423 76.1094 319.47 76.1562C319.522 76.2031 319.548 76.2656 319.548 76.3438C319.548 76.4062 319.527 76.4844 319.486 76.5781L317.767 80.0859C317.658 80.3099 317.465 80.4219 317.189 80.4219C317.038 80.4219 316.915 80.3854 316.822 80.3125C316.733 80.2396 316.689 80.1406 316.689 80.0156C316.689 79.9896 316.694 79.9453 316.704 79.8828L317.493 76.3984C317.54 76.1901 317.676 76.0859 317.9 76.0859H319.267ZM323.095 76.0859C323.184 76.0859 323.251 76.1094 323.298 76.1562C323.35 76.2031 323.376 76.2656 323.376 76.3438C323.376 76.4062 323.355 76.4844 323.314 76.5781L321.595 80.0859C321.486 80.3099 321.293 80.4219 321.017 80.4219C320.866 80.4219 320.743 80.3854 320.65 80.3125C320.561 80.2396 320.517 80.1406 320.517 80.0156C320.517 79.9896 320.522 79.9453 320.533 79.8828L321.322 76.3984C321.368 76.1901 321.504 76.0859 321.728 76.0859H323.095Z" fill="black"/>
<defs>
<clipPath id="clip0_796_4947">
<rect width="75" height="75" fill="white" transform="translate(16 16)"/>
</clipPath>
</defs>
</svg>
