<svg width="315" height="93" viewBox="0 0 315 93" fill="none" xmlns="http://www.w3.org/2000/svg">
<path d="M57.2752 4.88574L1.92773 24.9053L7.56798 76.6164L56.4922 89.2041L74.541 41.3881L57.2752 4.88574Z" fill="#231815" fill-opacity="0.5"/>
<path d="M60.0798 2.23682L4.73242 22.2564L10.3727 73.9741L59.2968 86.5618L77.3456 38.7392L60.0798 2.23682Z" fill="#FF4D6D"/>
<path d="M61.6569 60.9879L52.3405 28.1551C50.3432 21.1081 43.0109 17.0139 35.9639 19.0179L35.3003 19.2103C28.2533 21.2076 24.1592 28.5399 26.1631 35.5869L35.4795 68.4198C37.4768 75.4668 44.8091 79.5609 51.8561 77.557L52.5197 77.3712C59.5667 75.3739 63.6608 68.0416 61.6569 60.9946V60.9879ZM50.4958 71.1138L50.2901 71.1736C48.0871 71.7973 45.7912 70.5166 45.1674 68.3136L34.4642 30.5837C33.8405 28.3807 35.1212 26.0847 37.3242 25.461L37.5299 25.4013C39.7329 24.7775 42.0288 26.0582 42.6525 28.2612L53.3558 65.9912C53.9795 68.1942 52.6988 70.4901 50.4958 71.1138Z" fill="#231815" fill-opacity="0.5"/>
<path d="M58.7897 60.9879L49.4733 28.1551C47.476 21.1081 40.1437 17.0139 33.0967 19.0179L32.4331 19.2103C25.3861 21.2076 21.292 28.5399 23.2959 35.5869L32.6123 68.4198C34.6096 75.4668 41.9419 79.5609 48.9889 77.557L49.6525 77.3712C56.6995 75.3739 60.7936 68.0416 58.7897 60.9946V60.9879ZM47.622 71.1138L47.4163 71.1736C45.2133 71.7973 42.9174 70.5166 42.2936 68.3136L31.5904 30.5837C30.9667 28.3807 32.2473 26.0847 34.4503 25.461L34.6561 25.4013C36.8591 24.7775 39.155 26.0582 39.7787 28.2612L50.4819 65.9912C51.1057 68.1942 49.825 70.4901 47.622 71.1138Z" fill="#FFF3B0"/>
<path d="M86.3472 10.6687L62.5586 74.4168L121.463 83.9455L130.872 13.6149L86.3472 10.6687Z" fill="#231815" fill-opacity="0.5"/>
<path d="M181.582 19.6541L165.77 71.1528L184.017 86.5607H207.129L226.591 36.6876L199.83 19.6541H181.582Z" fill="#231815" fill-opacity="0.5"/>
<path d="M218.349 15.4399L208.216 37.3374L218.349 43.4156L204.566 81.1256L255.654 76.2617V19.4943L218.349 15.4399Z" fill="#231815" fill-opacity="0.5"/>
<path d="M122.444 5.31323L118.795 87.2229H169.478L172.318 53.972L160.606 44.0385L175.158 10.9933L122.444 5.31323Z" fill="#231815" fill-opacity="0.5"/>
<path d="M81.148 6.82104L57.3594 70.5758L116.263 80.1045L125.673 9.77388L81.148 6.82104Z" fill="#FDE35C"/>
<path d="M120.763 3.05737L117.113 84.967H167.803L170.636 51.7161L158.924 41.7827L173.476 8.73743L120.763 3.05737Z" fill="#42A5F5"/>
<path d="M176.315 18.0625L160.502 69.5613L178.743 84.9691H201.855L221.324 35.096L194.562 18.0625H176.315Z" fill="#FF4D87"/>
<path d="M214.836 12.3901L204.696 34.2809L214.836 40.3658L201.047 78.0758L252.141 73.2119V16.4445L214.836 12.3901Z" fill="#00E5FF"/>
<path d="M83.3626 21.0015L74.8027 57.4308L84.1987 58.7646L89.0891 38.1744L103.541 61.379L110.27 61.4785L118.372 27.7499L108.764 25.5601L101.956 45.7124L90.3101 22.0698L83.3626 21.0015Z" fill="#010101"/>
<path d="M157.761 53.0036C157.761 53.0036 155.803 67.7877 146.911 66.8853C138.013 65.9895 137.104 65.8966 137.104 65.8966L141.49 22.5065L146.294 22.9909L146.507 20.8741L127.317 18.9365L127.104 21.0533L131.855 21.531L127.469 64.9211L122.718 64.4434L122.373 67.8673L158.656 71.5368L160.501 53.289L157.761 53.0103V53.0036Z" fill="#EFE80C"/>
<path d="M187.264 41.208C190.943 41.208 193.926 38.2253 193.926 34.5459C193.926 30.8665 190.943 27.8838 187.264 27.8838C183.584 27.8838 180.602 30.8665 180.602 34.5459C180.602 38.2253 183.584 41.208 187.264 41.208Z" fill="#F9DA10"/>
<path d="M183.189 45.7783L193.919 43.1904V75.0081L183.189 77.9675V45.7783Z" fill="#F9DA10"/>
<path d="M216.613 65.1752L219.095 36.3569L216.613 31.4001L224.669 27.3723L236.135 49.0574L237.376 29.2303L245.12 27.3723V60.8356L237.681 65.1752L224.981 49.0574L224.357 63.0054L216.613 65.1752Z" fill="#003366"/>
<path d="M81.6251 19.2305L73.0586 55.6598L82.4612 56.9936L87.345 36.3967L101.797 59.6014L108.526 59.7075L116.628 25.9789L107.02 23.7825L100.211 43.9414L88.5726 20.2988L81.6251 19.2305Z" fill="#1365D1"/>
<path d="M263.931 18.7725L243.115 84.4781L295.41 87.4441L312.285 22.0173L263.931 18.7725Z" fill="#231815" fill-opacity="0.5"/>
<path d="M261.456 16.2913L240.641 82.0035L292.929 84.9696L309.803 19.5361L261.456 16.2913Z" fill="#FF0054"/>
<path d="M294.626 54.2703C294.626 54.2703 278.017 63.1952 274.487 52.3991L287.307 50.6606C289.842 50.3155 292.091 48.869 293.452 46.6991C295.203 43.9122 295.21 40.3754 293.485 37.5685C291.003 33.5208 286.312 28.7897 278.223 29.7651C264.521 31.424 260.785 45.1265 260.99 50.1098C261.196 55.0931 264.315 68.6762 280.837 66.7187C294.241 65.1328 297.533 60.2821 297.533 60.2821L294.626 54.2637V54.2703ZM273.744 41.6892C273.432 39.4265 275.018 37.3429 277.281 37.0311L277.705 36.9713C279.968 36.6595 282.052 38.2454 282.364 40.5081L282.868 44.1909L274.255 45.372L273.751 41.6892H273.744Z" fill="#231815" fill-opacity="0.5"/>
<path d="M292.909 56.6216C292.909 56.6216 276.3 65.5465 272.77 54.7504L285.59 53.0119C288.125 52.6668 290.375 51.2203 291.735 49.0504C293.487 46.2635 293.493 42.7267 291.768 39.9199C289.286 35.8722 284.595 31.141 276.506 32.1164C262.804 33.7753 259.068 47.4778 259.274 52.4611C259.479 57.4445 262.598 71.0275 279.121 69.07C292.524 67.4841 295.816 62.6335 295.816 62.6335L292.909 56.615V56.6216ZM272.021 44.0339C271.709 41.7712 273.295 39.6876 275.557 39.3757L275.982 39.316C278.245 39.0042 280.328 40.5901 280.64 42.8528L281.144 46.5356L272.531 47.7167L272.027 44.0339H272.021Z" fill="#FFF59D"/>
<path opacity="0.8" d="M180.494 23.2179C180.494 23.2179 154.35 3.40406 151.921 0L145.816 10.3183L173.195 30.8754C173.195 30.8754 177.687 25.5935 180.487 23.2179H180.494Z" fill="#FFE680"/>
<path opacity="0.8" d="M249.709 67.8105C249.709 67.8105 219.962 81.6325 215.814 82.1766L222.072 92.402L253.06 77.8436C253.06 77.8436 250.499 71.407 249.709 67.8105Z" fill="#FFE680"/>
<path opacity="0.8" d="M29.2298 81.8031C29.2298 81.8031 10.1989 55.0816 8.90496 51.1069L0 59.1294L19.9864 86.9325C19.9864 86.9325 25.8456 83.2364 29.2364 81.8031H29.2298Z" fill="#FFE680"/>
<path opacity="0.8" d="M287.82 17.3386C287.82 17.3386 307.442 35.759 309.134 38.745L315 30.8553L294.436 11.7183C294.436 11.7183 290.315 15.6399 287.827 17.3386H287.82Z" fill="#FFE680"/>
</svg>
