<svg width="186" height="132" viewBox="0 0 186 132" fill="none" xmlns="http://www.w3.org/2000/svg">
<g filter="url(#filter0_d_1271_758)">
<path d="M26.5 92.3809C30.7454 92.3809 34 95.6154 34 99.3809C34 103.146 30.7454 106.381 26.5 106.381C22.2546 106.381 19 103.146 19 99.3809C19 95.6154 22.2546 92.3809 26.5 92.3809Z" fill="white" stroke="#0D0500" stroke-width="4" stroke-linejoin="round"/>
<mask id="path-2-inside-1_1271_758" fill="white">
<path d="M124.467 17C145.748 17 163 34.252 163 55.5332C163 76.8146 145.748 94.0664 124.467 94.0664H73.0889C67.1781 94.0664 61.579 92.7339 56.5732 90.3555C53.8774 92.668 50.3743 94.0664 46.5439 94.0664C38.0316 94.0662 31.1309 87.1657 31.1309 78.6533C31.1309 74.0605 33.1402 69.9371 36.3271 67.1133C35.1769 63.4582 34.5557 59.5681 34.5557 55.5332C34.5558 34.2521 51.8077 17.0002 73.0889 17H124.467Z"/>
</mask>
<g filter="url(#filter1_i_1271_758)">
<path d="M124.467 17C145.748 17 163 34.252 163 55.5332C163 76.8146 145.748 94.0664 124.467 94.0664H73.0889C67.1781 94.0664 61.579 92.7339 56.5732 90.3555C53.8774 92.668 50.3743 94.0664 46.5439 94.0664C38.0316 94.0662 31.1309 87.1657 31.1309 78.6533C31.1309 74.0605 33.1402 69.9371 36.3271 67.1133C35.1769 63.4582 34.5557 59.5681 34.5557 55.5332C34.5558 34.2521 51.8077 17.0002 73.0889 17H124.467Z" fill="white"/>
</g>
<path d="M163 55.5332H168V55.5332L163 55.5332ZM73.0889 94.0664L73.0888 99.0664H73.0889V94.0664ZM56.5732 90.3555L58.719 85.8393C56.9343 84.9913 54.8176 85.2739 53.3178 86.5604L56.5732 90.3555ZM46.5439 94.0664L46.5438 99.0664H46.5439V94.0664ZM31.1309 78.6533H26.1309V78.6533L31.1309 78.6533ZM36.3271 67.1133L39.643 70.8556C41.1193 69.5476 41.6886 67.4939 41.0966 65.6124L36.3271 67.1133ZM34.5557 55.5332L29.5557 55.5332V55.5332H34.5557ZM73.0889 17V12H73.0888L73.0889 17ZM124.467 17V22C142.987 22 158 37.0134 158 55.5332L163 55.5332L168 55.5332C168 31.4906 148.51 12 124.467 12V17ZM163 55.5332H158C158 74.0531 142.987 89.0664 124.467 89.0664V94.0664V99.0664C148.51 99.0664 168 79.576 168 55.5332H163ZM124.467 94.0664V89.0664H73.0889V94.0664V99.0664H124.467V94.0664ZM73.0889 94.0664L73.0889 89.0664C67.937 89.0664 63.0695 87.9064 58.719 85.8393L56.5732 90.3555L54.4274 94.8716C60.0886 97.5614 66.4192 99.0664 73.0888 99.0664L73.0889 94.0664ZM56.5732 90.3555L53.3178 86.5604C51.493 88.1258 49.1342 89.0664 46.5439 89.0664V94.0664V99.0664C51.6144 99.0664 56.2619 97.2101 59.8286 94.1505L56.5732 90.3555ZM46.5439 94.0664L46.5441 89.0664C40.793 89.0663 36.1309 84.4042 36.1309 78.6533L31.1309 78.6533L26.1309 78.6533C26.1309 89.9272 35.2703 99.0661 46.5438 99.0664L46.5439 94.0664ZM31.1309 78.6533H36.1309C36.1309 75.5514 37.4813 72.771 39.643 70.8556L36.3271 67.1133L33.0113 63.3709C28.799 67.1031 26.1309 72.5695 26.1309 78.6533H31.1309ZM36.3271 67.1133L41.0966 65.6124C40.0971 62.4364 39.5557 59.0522 39.5557 55.5332H34.5557H29.5557C29.5557 60.0841 30.2568 64.48 31.5577 68.6142L36.3271 67.1133ZM34.5557 55.5332L39.5557 55.5332C39.5558 37.0135 54.5692 22.0002 73.0889 22L73.0889 17L73.0888 12C49.0463 12.0002 29.5558 31.4906 29.5557 55.5332L34.5557 55.5332ZM73.0889 17V22H124.467V17V12H73.0889V17Z" fill="#0D0500" mask="url(#path-2-inside-1_1271_758)"/>
<circle cx="73.5" cy="56.8809" r="9.5" fill="#343434"/>
<circle cx="100.5" cy="56.8809" r="9.5" fill="#343434"/>
<circle cx="127.5" cy="56.8809" r="9.5" fill="#343434"/>
</g>
<defs>
<filter id="filter0_d_1271_758" x="0" y="0" width="186" height="131.381" filterUnits="userSpaceOnUse" color-interpolation-filters="sRGB">
<feFlood flood-opacity="0" result="BackgroundImageFix"/>
<feColorMatrix in="SourceAlpha" type="matrix" values="0 0 0 0 0 0 0 0 0 0 0 0 0 0 0 0 0 0 127 0" result="hardAlpha"/>
<feOffset dx="3" dy="3"/>
<feGaussianBlur stdDeviation="10"/>
<feComposite in2="hardAlpha" operator="out"/>
<feColorMatrix type="matrix" values="0 0 0 0 0 0 0 0 0 0 0 0 0 0 0 0 0 0 0.25 0"/>
<feBlend mode="normal" in2="BackgroundImageFix" result="effect1_dropShadow_1271_758"/>
<feBlend mode="normal" in="SourceGraphic" in2="effect1_dropShadow_1271_758" result="shape"/>
</filter>
<filter id="filter1_i_1271_758" x="31.1309" y="17" width="135.869" height="81.0664" filterUnits="userSpaceOnUse" color-interpolation-filters="sRGB">
<feFlood flood-opacity="0" result="BackgroundImageFix"/>
<feBlend mode="normal" in="SourceGraphic" in2="BackgroundImageFix" result="shape"/>
<feColorMatrix in="SourceAlpha" type="matrix" values="0 0 0 0 0 0 0 0 0 0 0 0 0 0 0 0 0 0 127 0" result="hardAlpha"/>
<feOffset dx="4" dy="4"/>
<feGaussianBlur stdDeviation="2"/>
<feComposite in2="hardAlpha" operator="arithmetic" k2="-1" k3="1"/>
<feColorMatrix type="matrix" values="0 0 0 0 0 0 0 0 0 0 0 0 0 0 0 0 0 0 0.25 0"/>
<feBlend mode="normal" in2="shape" result="effect1_innerShadow_1271_758"/>
</filter>
</defs>
</svg>
