<svg width="32" height="34" viewBox="0 0 32 34" fill="none" xmlns="http://www.w3.org/2000/svg">
<rect y="6" width="3" height="21" fill="black"/>
<rect x="2" y="7" width="28" height="20" fill="#FFF4DB"/>
<rect x="5" y="2" width="3" height="3" fill="black"/>
<rect x="24" y="2" width="6" height="3" fill="black"/>
<rect x="26" y="5" width="6" height="3" fill="black"/>
<rect x="26" y="11" width="6" height="3" fill="black"/>
<rect x="29" y="14" width="3" height="13" fill="black"/>
<rect x="2" y="27" width="3" height="3" fill="black"/>
<rect x="5" y="29" width="3" height="3" fill="black"/>
<rect x="5" y="27" width="21" height="5" fill="#FFF4DB"/>
<rect x="23" y="29" width="3" height="3" fill="black"/>
<rect x="26" y="26" width="3" height="3" fill="black"/>
<rect x="13" y="25" width="3" height="3" fill="black"/>
<rect x="16" y="25" width="3" height="3" fill="black"/>
<rect x="21" y="16" width="3" height="5" fill="black"/>
<rect x="8" y="16" width="3" height="5" fill="black"/>
<rect x="8" y="3" width="3" height="7" fill="black"/>
<rect x="21" y="5" width="3" height="5" fill="black"/>
<rect x="21" y="3" width="3" height="5" fill="black"/>
<rect x="18" y="3" width="3" height="5" fill="black"/>
<rect x="16" y="3" width="3" height="5" fill="black"/>
<rect x="10" y="2" width="3" height="5" fill="black"/>
<rect x="13" y="2" width="3" height="3" fill="black"/>
<rect x="13" y="5" width="3" height="6" fill="black"/>
<rect x="5" y="5" width="3" height="7" fill="black"/>
<rect x="10" y="24" width="3" height="3" fill="black"/>
<rect x="19" y="24" width="3" height="3" fill="black"/>
<rect x="7" y="31" width="17" height="3" fill="black"/>
<rect x="16" y="5" width="16" height="6" fill="black"/>
<rect x="8" width="16" height="3" fill="black"/>
<rect x="5" y="29" width="3" height="3" fill="black"/>
<rect x="2" y="3" width="3" height="10" fill="black"/>
</svg>
