<svg width="412" height="108" viewBox="0 0 412 108" fill="none" xmlns="http://www.w3.org/2000/svg">
<mask id="path-1-inside-1_453_1974" fill="white">
<path d="M0 16C0 7.16344 7.16344 0 16 0H396C404.837 0 412 7.16344 412 16V92C412 100.837 404.837 108 396 108H16C7.16343 108 0 100.837 0 92V16Z"/>
</mask>
<path d="M0 16C0 7.16344 7.16344 0 16 0H396C404.837 0 412 7.16344 412 16V92C412 100.837 404.837 108 396 108H16C7.16343 108 0 100.837 0 92V16Z" fill="white"/>
<path d="M16 0V2H396V0V-2H16V0ZM412 16H410V92H412H414V16H412ZM396 108V106H16V108V110H396V108ZM0 92H2V16H0H-2V92H0ZM16 108V106C8.26801 106 2 99.732 2 92H0H-2C-2 101.941 6.05886 110 16 110V108ZM412 92H410C410 99.732 403.732 106 396 106V108V110C405.941 110 414 101.941 414 92H412ZM396 0V2C403.732 2 410 8.26801 410 16H412H414C414 6.05888 405.941 -2 396 -2V0ZM16 0V-2C6.05888 -2 -2 6.05887 -2 16H0H2C2 8.26801 8.26801 2 16 2V0Z" fill="black" mask="url(#path-1-inside-1_453_1974)"/>
<g clip-path="url(#clip0_453_1974)">
<path d="M19.5402 19.5645H16V79.258H19.5402V19.5645Z" fill="#231815"/>
<path d="M83.3899 19.5645H79.8496V79.258H83.3899V19.5645Z" fill="#231815"/>
<path d="M78.8398 19.5638V16L19.5408 16V19.5638L78.8398 19.5638Z" fill="#231815"/>
<path d="M78.8574 82.8216V79.2578H19.5584V82.8216H78.8574Z" fill="#231815"/>
<path d="M87.4414 90.9818V87.418H28.1424V90.9818H87.4414Z" fill="#231815"/>
<path d="M90.9992 27.7246H87.459V87.4181H90.9992V27.7246Z" fill="#231815"/>
<path d="M27.3469 25.9785H23.8066V66.0355H27.3469V25.9785Z" fill="#231815"/>
<path d="M75.2297 25.9785H71.6895V66.0355H75.2297V25.9785Z" fill="#231815"/>
<path d="M71.6895 69.1009V65.5371H27.3656V69.1009H71.6895Z" fill="#231815"/>
<path d="M71.8652 28.3118V24.748L27.5414 24.748V28.3118L71.8652 28.3118Z" fill="#231815"/>
<path d="M29.1158 54.8457H27.3457V56.6276H29.1158V54.8457Z" fill="#231815"/>
<path d="M30.9049 54.8457H29.1348V56.6276H30.9049V54.8457Z" fill="#231815"/>
<path d="M29.1158 53.0645H27.3457V54.8463H29.1158V53.0645Z" fill="#231815"/>
<path d="M30.9049 53.0645H29.1348V54.8463H30.9049V53.0645Z" fill="#231815"/>
<path d="M29.1158 56.627H27.3457V58.4088H29.1158V56.627Z" fill="#231815"/>
<path d="M30.9049 56.627H29.1348V58.4088H30.9049V56.627Z" fill="#231815"/>
<path d="M32.6744 51.1934H30.9043V52.9753H32.6744V51.1934Z" fill="#231815"/>
<path d="M34.4459 51.1934H32.6758V52.9753H34.4459V51.1934Z" fill="#231815"/>
<path d="M32.6744 49.4102H30.9043V51.1921H32.6744V49.4102Z" fill="#231815"/>
<path d="M34.4459 49.4102H32.6758V51.1921H34.4459V49.4102Z" fill="#231815"/>
<path d="M32.6744 52.9746H30.9043V54.7565H32.6744V52.9746Z" fill="#231815"/>
<path d="M34.4459 52.9746H32.6758V54.7565H34.4459V52.9746Z" fill="#231815"/>
<path d="M36.1236 47.7188H34.3535V49.5006H36.1236V47.7188Z" fill="#231815"/>
<path d="M37.9166 47.7188H36.1465V49.5006H37.9166V47.7188Z" fill="#231815"/>
<path d="M36.1236 45.9355H34.3535V47.7174H36.1236V45.9355Z" fill="#231815"/>
<path d="M37.9166 45.9355H36.1465V47.7174H37.9166V45.9355Z" fill="#231815"/>
<path d="M36.1236 49.5H34.3535V51.2819H36.1236V49.5Z" fill="#231815"/>
<path d="M37.9166 49.5H36.1465V51.2819H37.9166V49.5Z" fill="#231815"/>
<path d="M41.457 44.2253V42.4434H39.6869V44.2253H41.457Z" fill="#231815"/>
<path d="M41.457 46.026V44.2441H39.6869V46.026H41.457Z" fill="#231815"/>
<path d="M43.2266 44.2253V42.4434H41.4564V44.2253H43.2266Z" fill="#231815"/>
<path d="M43.2266 46.026V44.2441H41.4564V46.026H43.2266Z" fill="#231815"/>
<path d="M39.6875 44.2253V42.4434H37.9174V44.2253H39.6875Z" fill="#231815"/>
<path d="M39.6875 46.026V44.2441H37.9174V46.026H39.6875Z" fill="#231815"/>
<path d="M46.7676 44.2253V42.4434H44.9975V44.2253H46.7676Z" fill="#231815"/>
<path d="M46.7676 46.026V44.2441H44.9975V46.026H46.7676Z" fill="#231815"/>
<path d="M44.998 44.2253V42.4434H43.2279V44.2253H44.998Z" fill="#231815"/>
<path d="M44.998 46.026V44.2441H43.2279V46.026H44.998Z" fill="#231815"/>
<path d="M46.7676 47.8073V46.0254H44.9975V47.8073H46.7676Z" fill="#231815"/>
<path d="M46.7461 49.5885V47.8066H44.976V49.5885H46.7461Z" fill="#231815"/>
<path d="M50.3086 47.8073V46.0254H48.5385V47.8073H50.3086Z" fill="#231815"/>
<path d="M50.2852 49.5885V47.8066H48.515V49.5885H50.2852Z" fill="#231815"/>
<path d="M48.5371 47.8073V46.0254H46.767V47.8073H48.5371Z" fill="#231815"/>
<path d="M48.5156 49.5885V47.8066H46.7455V49.5885H48.5156Z" fill="#231815"/>
<path d="M50.2852 51.3717V49.5898H48.515V51.3717H50.2852Z" fill="#231815"/>
<path d="M50.3086 53.153V51.3711H48.5385V53.153H50.3086Z" fill="#231815"/>
<path d="M53.8262 51.3717V49.5898H52.0561V51.3717H53.8262Z" fill="#231815"/>
<path d="M53.8477 53.153V51.3711H52.0775V53.153H53.8477Z" fill="#231815"/>
<path d="M52.0566 51.3717V49.5898H50.2865V51.3717H52.0566Z" fill="#231815"/>
<path d="M52.0781 53.153V51.3711H50.308V53.153H52.0781Z" fill="#231815"/>
<path d="M53.8477 54.8463V53.0645H52.0775V54.8463H53.8477Z" fill="#231815"/>
<path d="M53.8262 56.6276V54.8457H52.0561V56.6276H53.8262Z" fill="#231815"/>
<path d="M57.3887 54.8463V53.0645H55.6186V54.8463H57.3887Z" fill="#231815"/>
<path d="M57.3652 56.6276V54.8457H55.5951V56.6276H57.3652Z" fill="#231815"/>
<path d="M55.6172 54.8463V53.0645H53.8471V54.8463H55.6172Z" fill="#231815"/>
<path d="M55.5957 56.6276V54.8457H53.8256V56.6276H55.5957Z" fill="#231815"/>
<path d="M55.5957 58.4088V56.627H53.8256V58.4088H55.5957Z" fill="#231815"/>
<path d="M59.1367 58.4088V56.627H57.3666V58.4088H59.1367Z" fill="#231815"/>
<path d="M57.3652 58.4088V56.627H55.5951V58.4088H57.3652Z" fill="#231815"/>
<path d="M60.9062 58.4088V56.627H59.1361V58.4088H60.9062Z" fill="#231815"/>
<path d="M64.4473 58.4088V56.627H62.6771V58.4088H64.4473Z" fill="#231815"/>
<path d="M62.6758 58.4088V56.627H60.9057V58.4088H62.6758Z" fill="#231815"/>
<path d="M64.4473 56.6276V54.8457H62.6771V56.6276H64.4473Z" fill="#231815"/>
<path d="M62.6758 56.6276V54.8457H60.9057V56.6276H62.6758Z" fill="#231815"/>
<path d="M64.4688 65.5378V63.7559H62.6986V65.5378H64.4688Z" fill="#231815"/>
<path d="M62.6973 65.5378V63.7559H60.9271V65.5378H62.6973Z" fill="#231815"/>
<path d="M64.4688 63.7546V61.9727H62.6986V63.7546H64.4688Z" fill="#231815"/>
<path d="M62.6973 63.7546V61.9727H60.9271V63.7546H62.6973Z" fill="#231815"/>
<path d="M60.9277 61.9733V60.1914H59.1576V61.9733H60.9277Z" fill="#231815"/>
<path d="M59.1582 61.9733V60.1914H57.3881V61.9733H59.1582Z" fill="#231815"/>
<path d="M60.9062 60.1921V58.4102H59.1361V60.1921H60.9062Z" fill="#231815"/>
<path d="M59.1367 60.1921V58.4102H57.3666V60.1921H59.1367Z" fill="#231815"/>
<path d="M64.4688 54.8463V53.0645H62.6986V54.8463H64.4688Z" fill="#231815"/>
<path d="M62.6973 54.8463V53.0645H60.9271V54.8463H62.6973Z" fill="#231815"/>
<path d="M68.166 53.0631V51.2812H66.3959V53.0631H68.166Z" fill="#231815"/>
<path d="M66.3965 53.0631V51.2812H64.6264V53.0631H66.3965Z" fill="#231815"/>
<path d="M68.166 51.2643V49.4824H66.3959V51.2643H68.166Z" fill="#231815"/>
<path d="M66.3965 51.2643V49.4824H64.6264V51.2643H66.3965Z" fill="#231815"/>
<path d="M71.707 53.0631V51.2812H69.9369V53.0631H71.707Z" fill="#231815"/>
<path d="M69.9375 53.0631V51.2812H68.1674V53.0631H69.9375Z" fill="#231815"/>
<path d="M71.707 51.2643V49.4824H69.9369V51.2643H71.707Z" fill="#231815"/>
<path d="M69.9375 51.2643V49.4824H68.1674V51.2643H69.9375Z" fill="#231815"/>
<path d="M57.5625 42.444V40.6621H55.7924V42.444H57.5625Z" fill="#231815"/>
<path d="M55.793 42.444V40.6621H54.0228V42.444H55.793Z" fill="#231815"/>
<path d="M61.1035 42.444V40.6621H59.3334V42.444H61.1035Z" fill="#231815"/>
<path d="M59.334 42.444V40.6621H57.5639V42.444H59.334Z" fill="#231815"/>
<path d="M64.6094 42.444V40.6621H62.8393V42.444H64.6094Z" fill="#231815"/>
<path d="M62.8398 42.444V40.6621H61.0697V42.444H62.8398Z" fill="#231815"/>
<path d="M68.1504 42.444V40.6621H66.3803V42.444H68.1504Z" fill="#231815"/>
<path d="M66.3809 42.444V40.6621H64.6107V42.444H66.3809Z" fill="#231815"/>
<path d="M57.5625 40.6608V38.8789H55.7924V40.6608H57.5625Z" fill="#231815"/>
<path d="M55.793 40.6608V38.8789H54.0228V40.6608H55.793Z" fill="#231815"/>
<path d="M61.1035 40.6608V38.8789H59.3334V40.6608H61.1035Z" fill="#231815"/>
<path d="M59.334 40.6608V38.8789H57.5639V40.6608H59.334Z" fill="#231815"/>
<path d="M64.6094 40.6608V38.8789H62.8393V40.6608H64.6094Z" fill="#231815"/>
<path d="M62.8398 40.6608V38.8789H61.0697V40.6608H62.8398Z" fill="#231815"/>
<path d="M61.1211 46.0065V44.2246H59.351V46.0065H61.1211Z" fill="#231815"/>
<path d="M59.3516 46.0065V44.2246H57.5814V46.0065H59.3516Z" fill="#231815"/>
<path d="M64.627 46.0065V44.2246H62.8568V46.0065H64.627Z" fill="#231815"/>
<path d="M62.8574 46.0065V44.2246H61.0873V46.0065H62.8574Z" fill="#231815"/>
<path d="M61.1211 44.2253V42.4434H59.351V44.2253H61.1211Z" fill="#231815"/>
<path d="M59.3516 44.2253V42.4434H57.5814V44.2253H59.3516Z" fill="#231815"/>
<path d="M64.627 44.2253V42.4434H62.8568V44.2253H64.627Z" fill="#231815"/>
<path d="M62.8574 44.2253V42.4434H61.0873V44.2253H62.8574Z" fill="#231815"/>
<path d="M61.1035 35.3151V33.5332H59.3334V35.3151H61.1035Z" fill="#231815"/>
<path d="M59.334 35.3151V33.5332H57.5639V35.3151H59.334Z" fill="#231815"/>
<path d="M64.6094 35.3151V33.5332H62.8393V35.3151H64.6094Z" fill="#231815"/>
<path d="M62.8398 35.3151V33.5332H61.0697V35.3151H62.8398Z" fill="#231815"/>
<path d="M61.1035 33.5338V31.752H59.3334V33.5338H61.1035Z" fill="#231815"/>
<path d="M59.334 33.5338V31.752H57.5639V33.5338H59.334Z" fill="#231815"/>
<path d="M64.6094 33.5338V31.752H62.8393V33.5338H64.6094Z" fill="#231815"/>
<path d="M62.8398 33.5338V31.752H61.0697V33.5338H62.8398Z" fill="#231815"/>
<path d="M68.1504 40.6608V38.8789H66.3803V40.6608H68.1504Z" fill="#231815"/>
<path d="M66.3809 40.6608V38.8789H64.6107V40.6608H66.3809Z" fill="#231815"/>
<path d="M57.5625 38.8796V37.0977H55.7924V38.8796H57.5625Z" fill="#231815"/>
<path d="M55.793 38.8796V37.0977H54.0228V38.8796H55.793Z" fill="#231815"/>
<path d="M61.1035 38.8796V37.0977H59.3334V38.8796H61.1035Z" fill="#231815"/>
<path d="M59.334 38.8796V37.0977H57.5639V38.8796H59.334Z" fill="#231815"/>
<path d="M64.6094 38.8796V37.0977H62.8393V38.8796H64.6094Z" fill="#231815"/>
<path d="M62.8398 38.8796V37.0977H61.0697V38.8796H62.8398Z" fill="#231815"/>
<path d="M68.1504 38.8796V37.0977H66.3803V38.8796H68.1504Z" fill="#231815"/>
<path d="M66.3809 38.8796V37.0977H64.6107V38.8796H66.3809Z" fill="#231815"/>
<path d="M57.5625 37.0983V35.3164H55.7924V37.0983H57.5625Z" fill="#231815"/>
<path d="M55.793 37.0983V35.3164H54.0228V37.0983H55.793Z" fill="#231815"/>
<path d="M61.1035 37.0983V35.3164H59.3334V37.0983H61.1035Z" fill="#231815"/>
<path d="M59.334 37.0983V35.3164H57.5639V37.0983H59.334Z" fill="#231815"/>
<path d="M64.6094 37.0983V35.3164H62.8393V37.0983H64.6094Z" fill="#231815"/>
<path d="M62.8398 37.0983V35.3164H61.0697V37.0983H62.8398Z" fill="#231815"/>
<path d="M68.1504 37.0983V35.3164H66.3803V37.0983H68.1504Z" fill="#231815"/>
<path d="M66.3809 37.0983V35.3164H64.6107V37.0983H66.3809Z" fill="#231815"/>
</g>
<path d="M115.887 21.7715C117.81 21.7715 119.286 22.1953 120.316 23.043C121.346 23.8906 121.861 25.1211 121.861 26.7344C121.861 28.8398 120.731 30.166 118.471 30.7129C118.963 30.9043 119.355 31.1868 119.646 31.5605C119.838 31.8066 120.011 32.0664 120.166 32.3398C120.33 32.6042 120.517 32.9414 120.727 33.3516C120.945 33.7891 121.114 34.1035 121.232 34.2949C121.415 34.5957 121.597 34.8236 121.779 34.9785C121.962 35.1243 122.167 35.1973 122.395 35.1973H122.654C122.873 35.1973 123.042 35.2383 123.16 35.3203C123.279 35.3932 123.365 35.5299 123.42 35.7305C123.484 35.931 123.516 36.2227 123.516 36.6055C123.516 36.9883 123.484 37.2799 123.42 37.4805C123.365 37.681 123.279 37.8177 123.16 37.8906C123.042 37.9635 122.873 38 122.654 38H121.328C120.608 38 120.025 37.8542 119.578 37.5625C119.132 37.2708 118.721 36.7832 118.348 36.0996C118.165 35.7806 117.947 35.3431 117.691 34.7871C117.509 34.3678 117.336 34.0078 117.172 33.707C117.008 33.3971 116.826 33.0964 116.625 32.8047C116.342 32.4128 116.028 32.1302 115.682 31.957C115.335 31.7839 114.921 31.6973 114.438 31.6973H113.562V35.1973H114.889C115.107 35.1973 115.276 35.2383 115.395 35.3203C115.513 35.3932 115.6 35.5299 115.654 35.7305C115.718 35.931 115.75 36.2227 115.75 36.6055C115.75 36.9883 115.718 37.2799 115.654 37.4805C115.6 37.681 115.513 37.8177 115.395 37.8906C115.276 37.9635 115.107 38 114.889 38H108.682C108.463 38 108.294 37.9635 108.176 37.8906C108.057 37.8177 107.966 37.681 107.902 37.4805C107.848 37.2799 107.82 36.9883 107.82 36.6055C107.82 36.2227 107.848 35.931 107.902 35.7305C107.966 35.5299 108.057 35.3932 108.176 35.3203C108.294 35.2383 108.463 35.1973 108.682 35.1973H110.145V24.5742H108.682C108.463 24.5742 108.294 24.5378 108.176 24.4648C108.057 24.3919 107.966 24.2552 107.902 24.0547C107.848 23.8542 107.82 23.5625 107.82 23.1797C107.82 22.7969 107.848 22.5052 107.902 22.3047C107.966 22.1042 108.057 21.9674 108.176 21.8945C108.294 21.8125 108.463 21.7715 108.682 21.7715H115.887ZM113.562 28.7578H115.6C116.529 28.7578 117.217 28.5938 117.664 28.2656C118.111 27.9284 118.334 27.418 118.334 26.7344C118.334 26.0508 118.111 25.5449 117.664 25.2168C117.217 24.8796 116.529 24.7109 115.6 24.7109H113.562V28.7578ZM132.593 25.0664C134.598 25.0664 136.048 25.4993 136.941 26.3652C137.834 27.2311 138.281 28.4707 138.281 30.084V34.0352C138.281 34.3997 138.358 34.6868 138.513 34.8965C138.668 35.097 138.891 35.1973 139.183 35.1973H139.607C139.826 35.1973 139.994 35.2383 140.113 35.3203C140.231 35.3932 140.318 35.5299 140.372 35.7305C140.436 35.931 140.468 36.2227 140.468 36.6055C140.468 36.9883 140.436 37.2799 140.372 37.4805C140.318 37.681 140.231 37.8177 140.113 37.8906C139.994 37.9635 139.826 38 139.607 38H138.076C137.511 38 137.009 37.8861 136.572 37.6582C136.143 37.4212 135.815 37.0521 135.587 36.5508C134.867 37.1068 134.106 37.5397 133.304 37.8496C132.502 38.1504 131.677 38.3008 130.83 38.3008C129.8 38.3008 128.911 38.1276 128.164 37.7812C127.416 37.4258 126.842 36.9245 126.441 36.2773C126.049 35.6211 125.853 34.8509 125.853 33.9668C125.853 32.6908 126.304 31.7018 127.206 31C128.109 30.2982 129.371 29.9473 130.994 29.9473C132.206 29.9473 133.496 30.084 134.863 30.3574V29.9609C134.863 29.3503 134.671 28.8991 134.289 28.6074C133.906 28.3158 133.231 28.1699 132.265 28.1699C131.727 28.1699 131.126 28.2383 130.46 28.375C129.804 28.5026 129.152 28.6758 128.505 28.8945C128.35 28.9401 128.218 28.9629 128.109 28.9629C127.881 28.9629 127.676 28.8809 127.494 28.7168C127.32 28.5436 127.161 28.2565 127.015 27.8555C126.878 27.4544 126.81 27.1263 126.81 26.8711C126.81 26.4062 127.02 26.0964 127.439 25.9414C128.25 25.6497 129.111 25.431 130.023 25.2852C130.934 25.1393 131.791 25.0664 132.593 25.0664ZM131.335 32.7637C130.697 32.7637 130.21 32.8776 129.872 33.1055C129.544 33.3333 129.38 33.666 129.38 34.1035C129.38 34.5319 129.54 34.86 129.859 35.0879C130.187 35.3066 130.656 35.416 131.267 35.416C131.896 35.416 132.516 35.293 133.126 35.0469C133.746 34.7917 134.325 34.4453 134.863 34.0078V33.1328C133.66 32.8867 132.484 32.7637 131.335 32.7637ZM151.268 25.0664C152.462 25.0664 153.506 25.3581 154.399 25.9414C155.293 26.5247 155.976 27.3177 156.45 28.3203C156.924 29.3229 157.161 30.444 157.161 31.6836C157.161 32.9232 156.924 34.0443 156.45 35.0469C155.976 36.0495 155.293 36.8424 154.399 37.4258C153.506 38.0091 152.462 38.3008 151.268 38.3008C150.557 38.3008 149.897 38.1641 149.286 37.8906C148.675 37.6081 148.138 37.207 147.673 36.6875V40.502H149.956C150.175 40.502 150.343 40.5384 150.462 40.6113C150.58 40.6842 150.667 40.821 150.722 41.0215C150.785 41.222 150.817 41.5137 150.817 41.8965C150.817 42.2793 150.785 42.571 150.722 42.7715C150.667 42.972 150.58 43.1087 150.462 43.1816C150.343 43.2637 150.175 43.3047 149.956 43.3047H143.065C142.847 43.3047 142.678 43.2682 142.559 43.1953C142.441 43.1224 142.35 42.9857 142.286 42.7852C142.231 42.5846 142.204 42.293 142.204 41.9102C142.204 41.5273 142.231 41.2357 142.286 41.0352C142.35 40.8346 142.441 40.6934 142.559 40.6113C142.678 40.5384 142.847 40.502 143.065 40.502H144.255V28.1699H143.065C142.847 28.1699 142.678 28.1335 142.559 28.0605C142.441 27.9876 142.35 27.8509 142.286 27.6504C142.231 27.4499 142.204 27.1582 142.204 26.7754C142.204 26.3926 142.231 26.1009 142.286 25.9004C142.35 25.6999 142.441 25.5632 142.559 25.4902C142.678 25.4082 142.847 25.3672 143.065 25.3672H146.265C146.574 25.3672 146.793 25.4355 146.921 25.5723C147.057 25.6999 147.126 25.9186 147.126 26.2285V27.377C147.6 26.6478 148.192 26.0827 148.903 25.6816C149.614 25.2715 150.403 25.0664 151.268 25.0664ZM150.722 28.1699C150.138 28.1699 149.61 28.3066 149.136 28.5801C148.662 28.8535 148.283 29.2591 148.001 29.7969C147.718 30.3255 147.577 30.9544 147.577 31.6836C147.577 32.4128 147.718 33.0462 148.001 33.584C148.283 34.1126 148.662 34.5137 149.136 34.7871C149.61 35.0605 150.138 35.1973 150.722 35.1973C151.287 35.1973 151.779 35.056 152.198 34.7734C152.617 34.4818 152.936 34.0716 153.155 33.543C153.383 33.0143 153.497 32.3945 153.497 31.6836C153.497 30.9727 153.383 30.3529 153.155 29.8242C152.936 29.2956 152.617 28.89 152.198 28.6074C151.779 28.3158 151.287 28.1699 150.722 28.1699ZM168.618 25.0664C169.812 25.0664 170.855 25.3581 171.748 25.9414C172.642 26.5247 173.325 27.3177 173.799 28.3203C174.273 29.3229 174.51 30.444 174.51 31.6836C174.51 32.9232 174.273 34.0443 173.799 35.0469C173.325 36.0495 172.642 36.8424 171.748 37.4258C170.855 38.0091 169.812 38.3008 168.618 38.3008C167.907 38.3008 167.246 38.1641 166.635 37.8906C166.024 37.6081 165.487 37.207 165.022 36.6875V40.502H167.305C167.524 40.502 167.692 40.5384 167.811 40.6113C167.929 40.6842 168.016 40.821 168.071 41.0215C168.134 41.222 168.166 41.5137 168.166 41.8965C168.166 42.2793 168.134 42.571 168.071 42.7715C168.016 42.972 167.929 43.1087 167.811 43.1816C167.692 43.2637 167.524 43.3047 167.305 43.3047H160.414C160.196 43.3047 160.027 43.2682 159.909 43.1953C159.79 43.1224 159.699 42.9857 159.635 42.7852C159.58 42.5846 159.553 42.293 159.553 41.9102C159.553 41.5273 159.58 41.2357 159.635 41.0352C159.699 40.8346 159.79 40.6934 159.909 40.6113C160.027 40.5384 160.196 40.502 160.414 40.502H161.604V28.1699H160.414C160.196 28.1699 160.027 28.1335 159.909 28.0605C159.79 27.9876 159.699 27.8509 159.635 27.6504C159.58 27.4499 159.553 27.1582 159.553 26.7754C159.553 26.3926 159.58 26.1009 159.635 25.9004C159.699 25.6999 159.79 25.5632 159.909 25.4902C160.027 25.4082 160.196 25.3672 160.414 25.3672H163.614C163.923 25.3672 164.142 25.4355 164.27 25.5723C164.407 25.6999 164.475 25.9186 164.475 26.2285V27.377C164.949 26.6478 165.541 26.0827 166.252 25.6816C166.963 25.2715 167.752 25.0664 168.618 25.0664ZM168.071 28.1699C167.487 28.1699 166.959 28.3066 166.485 28.5801C166.011 28.8535 165.632 29.2591 165.35 29.7969C165.067 30.3255 164.926 30.9544 164.926 31.6836C164.926 32.4128 165.067 33.0462 165.35 33.584C165.632 34.1126 166.011 34.5137 166.485 34.7871C166.959 35.0605 167.487 35.1973 168.071 35.1973C168.636 35.1973 169.128 35.056 169.547 34.7734C169.966 34.4818 170.285 34.0716 170.504 33.543C170.732 33.0143 170.846 32.3945 170.846 31.6836C170.846 30.9727 170.732 30.3529 170.504 29.8242C170.285 29.2956 169.966 28.89 169.547 28.6074C169.128 28.3158 168.636 28.1699 168.071 28.1699ZM184.982 25.0664C186.368 25.0664 187.548 25.3672 188.523 25.9688C189.498 26.5612 190.232 27.3906 190.724 28.457C191.226 29.5143 191.476 30.7266 191.476 32.0938C191.476 32.4036 191.408 32.6224 191.271 32.75C191.144 32.8776 190.925 32.9414 190.615 32.9414H181.838C182.011 33.6706 182.38 34.2311 182.945 34.623C183.519 35.0059 184.244 35.1973 185.119 35.1973C186.532 35.1973 188.063 34.9466 189.713 34.4453C189.822 34.4089 189.931 34.3906 190.041 34.3906C190.241 34.3906 190.414 34.4818 190.56 34.6641C190.706 34.8464 190.838 35.1562 190.957 35.5938C191.048 35.931 191.094 36.2181 191.094 36.4551C191.094 36.6921 191.039 36.8789 190.929 37.0156C190.829 37.1432 190.661 37.248 190.424 37.3301C189.512 37.6309 188.582 37.8678 187.635 38.041C186.687 38.2142 185.757 38.3008 184.845 38.3008C183.46 38.3008 182.266 38.0182 181.263 37.4531C180.261 36.888 179.495 36.1087 178.967 35.1152C178.447 34.1126 178.187 32.9688 178.187 31.6836C178.187 30.4076 178.461 29.2682 179.008 28.2656C179.554 27.263 180.343 26.4792 181.373 25.9141C182.403 25.349 183.606 25.0664 184.982 25.0664ZM184.982 28.1699C183.314 28.1699 182.284 28.8717 181.892 30.2754H187.908C187.753 29.61 187.42 29.0951 186.91 28.7305C186.409 28.3568 185.766 28.1699 184.982 28.1699ZM203.042 20.0625C203.352 20.0625 203.571 20.1309 203.698 20.2676C203.835 20.3952 203.904 20.6139 203.904 20.9238V35.1973H207.745C207.964 35.1973 208.133 35.2383 208.251 35.3203C208.37 35.3932 208.456 35.5299 208.511 35.7305C208.575 35.931 208.607 36.2227 208.607 36.6055C208.607 36.9883 208.575 37.2799 208.511 37.4805C208.456 37.681 208.37 37.8177 208.251 37.8906C208.133 37.9635 207.964 38 207.745 38H196.753C196.534 38 196.366 37.9635 196.247 37.8906C196.129 37.8177 196.038 37.681 195.974 37.4805C195.919 37.2799 195.892 36.9883 195.892 36.6055C195.892 36.2227 195.919 35.931 195.974 35.7305C196.038 35.5299 196.129 35.3932 196.247 35.3203C196.366 35.2383 196.534 35.1973 196.753 35.1973H200.486V22.8652H197.3C197.081 22.8652 196.913 22.8288 196.794 22.7559C196.676 22.6829 196.585 22.5462 196.521 22.3457C196.466 22.1452 196.439 21.8535 196.439 21.4707C196.439 21.0879 196.466 20.7962 196.521 20.5957C196.585 20.3952 196.676 20.2585 196.794 20.1855C196.913 20.1035 197.081 20.0625 197.3 20.0625H203.042Z" fill="black"/>
<path d="M116.023 58.7266C116.201 58.7266 116.326 58.7682 116.398 58.8516C116.477 58.9297 116.516 59.0651 116.516 59.2578C116.516 59.4505 116.477 59.5885 116.398 59.6719C116.326 59.75 116.201 59.7891 116.023 59.7891H115.422L112.617 67.6641C112.549 67.8464 112.448 67.9766 112.312 68.0547C112.182 68.1328 112.003 68.1719 111.773 68.1719C111.549 68.1719 111.37 68.1302 111.234 68.0469C111.104 67.9688 111.008 67.8411 110.945 67.6641L108.164 59.7891H107.57C107.393 59.7891 107.266 59.75 107.188 59.6719C107.115 59.5885 107.078 59.4505 107.078 59.2578C107.078 59.0651 107.115 58.9297 107.188 58.8516C107.266 58.7682 107.393 58.7266 107.57 58.7266H110.492C110.669 58.7266 110.794 58.7682 110.867 58.8516C110.945 58.9297 110.984 59.0651 110.984 59.2578C110.984 59.4505 110.945 59.5885 110.867 59.6719C110.794 59.75 110.669 59.7891 110.492 59.7891H109.391L111.781 66.6953L114.195 59.7891H113.414C113.237 59.7891 113.109 59.75 113.031 59.6719C112.958 59.5885 112.922 59.4505 112.922 59.2578C112.922 59.0651 112.958 58.9297 113.031 58.8516C113.109 58.7682 113.237 58.7266 113.414 58.7266H116.023ZM121.781 60.6094C122.536 60.6094 123.179 60.763 123.711 61.0703C124.247 61.3724 124.659 61.7943 124.945 62.3359C125.231 62.8724 125.396 63.4922 125.437 64.1953C125.437 64.3724 125.398 64.4974 125.32 64.5703C125.247 64.6432 125.122 64.6797 124.945 64.6797H119.289C119.325 65.4557 119.554 66.0443 119.976 66.4453C120.403 66.8411 121.005 67.0391 121.781 67.0391C122.26 67.0391 122.734 66.9792 123.203 66.8594C123.672 66.7344 124.083 66.5703 124.437 66.3672C124.526 66.3203 124.606 66.2969 124.679 66.2969C124.862 66.2969 125.01 66.4349 125.125 66.7109C125.172 66.8203 125.195 66.9193 125.195 67.0078C125.195 67.2161 125.08 67.3776 124.851 67.4922C124.45 67.6953 123.976 67.8594 123.429 67.9844C122.882 68.1094 122.333 68.1719 121.781 68.1719C120.994 68.1719 120.323 68.0208 119.765 67.7188C119.208 67.4167 118.784 66.9818 118.492 66.4141C118.2 65.8464 118.054 65.1719 118.054 64.3906C118.054 63.6458 118.213 62.987 118.531 62.4141C118.849 61.8411 119.289 61.3984 119.851 61.0859C120.414 60.7682 121.057 60.6094 121.781 60.6094ZM121.781 61.7422C121.14 61.7422 120.609 61.9062 120.187 62.2344C119.771 62.5573 119.497 63.0078 119.367 63.5859H124.14C124.031 62.987 123.778 62.5312 123.382 62.2188C122.992 61.901 122.458 61.7422 121.781 61.7422ZM132.507 60.6094C132.981 60.6094 133.393 60.7135 133.742 60.9219C134.091 61.125 134.359 61.4193 134.546 61.8047C134.734 62.1901 134.827 62.6406 134.827 63.1562V66.9375H135.468C135.645 66.9375 135.77 66.9792 135.843 67.0625C135.921 67.1406 135.96 67.276 135.96 67.4688C135.96 67.6615 135.921 67.7995 135.843 67.8828C135.77 67.9609 135.645 68 135.468 68H132.937C132.76 68 132.632 67.9609 132.554 67.8828C132.481 67.7995 132.445 67.6615 132.445 67.4688C132.445 67.276 132.481 67.1406 132.554 67.0625C132.632 66.9792 132.76 66.9375 132.937 66.9375H133.656V63.2734C133.656 62.8099 133.549 62.4427 133.335 62.1719C133.122 61.901 132.807 61.7656 132.39 61.7656C131.947 61.7656 131.533 61.8932 131.148 62.1484C130.768 62.4036 130.463 62.7552 130.234 63.2031C130.005 63.651 129.89 64.151 129.89 64.7031V66.9375H130.609C130.786 66.9375 130.911 66.9792 130.984 67.0625C131.062 67.1406 131.101 67.276 131.101 67.4688C131.101 67.6615 131.062 67.7995 130.984 67.8828C130.911 67.9609 130.786 68 130.609 68H128.077C127.9 68 127.773 67.9609 127.695 67.8828C127.622 67.7995 127.585 67.6615 127.585 67.4688C127.585 67.276 127.622 67.1406 127.695 67.0625C127.773 66.9792 127.9 66.9375 128.077 66.9375H128.718V61.8438H127.921C127.744 61.8438 127.617 61.8047 127.538 61.7266C127.466 61.6432 127.429 61.5052 127.429 61.3125C127.429 61.1198 127.466 60.9844 127.538 60.9062C127.617 60.8229 127.744 60.7812 127.921 60.7812H129.32C129.497 60.7812 129.622 60.8229 129.695 60.9062C129.773 60.9844 129.812 61.1198 129.812 61.3125V62.25C130.156 61.7188 130.557 61.3125 131.015 61.0312C131.479 60.75 131.976 60.6094 132.507 60.6094ZM144.265 57.75C144.442 57.75 144.567 57.7917 144.64 57.875C144.718 57.9531 144.757 58.0885 144.757 58.2812V66.9375H145.397C145.575 66.9375 145.7 66.9792 145.772 67.0625C145.851 67.1406 145.89 67.276 145.89 67.4688C145.89 67.6615 145.851 67.7995 145.772 67.8828C145.7 67.9609 145.575 68 145.397 68H144.155C143.978 68 143.851 67.9609 143.772 67.8828C143.7 67.7995 143.663 67.6615 143.663 67.4688V66.8438C143.335 67.2708 142.955 67.599 142.522 67.8281C142.09 68.0573 141.619 68.1719 141.108 68.1719C140.463 68.1719 139.884 68.0208 139.374 67.7188C138.864 67.4115 138.463 66.974 138.171 66.4062C137.879 65.8333 137.733 65.1615 137.733 64.3906C137.733 63.6198 137.879 62.9505 138.171 62.3828C138.463 61.8099 138.864 61.3724 139.374 61.0703C139.884 60.763 140.463 60.6094 141.108 60.6094C142.088 60.6094 142.913 61.0391 143.585 61.8984V58.8125H142.319C142.142 58.8125 142.015 58.7734 141.937 58.6953C141.864 58.612 141.827 58.474 141.827 58.2812C141.827 58.0885 141.864 57.9531 141.937 57.875C142.015 57.7917 142.142 57.75 142.319 57.75H144.265ZM141.187 61.7656C140.723 61.7656 140.325 61.8776 139.991 62.1016C139.658 62.3203 139.403 62.6276 139.226 63.0234C139.054 63.4193 138.968 63.875 138.968 64.3906C138.968 64.9062 139.054 65.362 139.226 65.7578C139.403 66.1536 139.658 66.4635 139.991 66.6875C140.325 66.9062 140.723 67.0156 141.187 67.0156C141.65 67.0156 142.062 66.9115 142.421 66.7031C142.786 66.4948 143.069 66.1927 143.272 65.7969C143.481 65.401 143.585 64.9323 143.585 64.3906C143.585 63.849 143.481 63.3802 143.272 62.9844C143.069 62.5885 142.786 62.2865 142.421 62.0781C142.062 61.8698 141.65 61.7656 141.187 61.7656ZM153.842 60.6094C154.249 60.6094 154.629 60.7135 154.983 60.9219C155.191 61.0469 155.296 61.2083 155.296 61.4062C155.296 61.5 155.272 61.6094 155.225 61.7344C155.116 62.0312 154.965 62.1797 154.772 62.1797C154.694 62.1797 154.621 62.1589 154.553 62.1172C154.298 61.9766 154.025 61.9062 153.733 61.9062C153.264 61.9062 152.793 62.0703 152.319 62.3984C151.845 62.7214 151.454 63.1536 151.147 63.6953C150.845 64.237 150.694 64.8125 150.694 65.4219V66.9375H153.327C153.504 66.9375 153.629 66.9792 153.702 67.0625C153.78 67.1406 153.819 67.276 153.819 67.4688C153.819 67.6615 153.78 67.7995 153.702 67.8828C153.629 67.9609 153.504 68 153.327 68H148.296C148.119 68 147.991 67.9609 147.913 67.8828C147.84 67.7995 147.803 67.6615 147.803 67.4688C147.803 67.276 147.84 67.1406 147.913 67.0625C147.991 66.9792 148.119 66.9375 148.296 66.9375H149.522V61.8438H148.53C148.353 61.8438 148.225 61.8047 148.147 61.7266C148.074 61.6432 148.038 61.5052 148.038 61.3125C148.038 61.1198 148.074 60.9844 148.147 60.9062C148.225 60.8229 148.353 60.7812 148.53 60.7812H150.124C150.301 60.7812 150.426 60.8229 150.499 60.9062C150.577 60.9844 150.616 61.1198 150.616 61.3125V62.8906C150.866 62.4323 151.168 62.0312 151.522 61.6875C151.876 61.3438 152.254 61.0781 152.655 60.8906C153.056 60.7031 153.452 60.6094 153.842 60.6094ZM161.436 60.6094C162.191 60.6094 162.834 60.763 163.366 61.0703C163.902 61.3724 164.314 61.7943 164.6 62.3359C164.886 62.8724 165.051 63.4922 165.092 64.1953C165.092 64.3724 165.053 64.4974 164.975 64.5703C164.902 64.6432 164.777 64.6797 164.6 64.6797H158.944C158.98 65.4557 159.209 66.0443 159.631 66.4453C160.058 66.8411 160.66 67.0391 161.436 67.0391C161.915 67.0391 162.389 66.9792 162.858 66.8594C163.327 66.7344 163.738 66.5703 164.092 66.3672C164.181 66.3203 164.261 66.2969 164.334 66.2969C164.517 66.2969 164.665 66.4349 164.78 66.7109C164.827 66.8203 164.85 66.9193 164.85 67.0078C164.85 67.2161 164.735 67.3776 164.506 67.4922C164.105 67.6953 163.631 67.8594 163.084 67.9844C162.537 68.1094 161.988 68.1719 161.436 68.1719C160.649 68.1719 159.978 68.0208 159.42 67.7188C158.863 67.4167 158.439 66.9818 158.147 66.4141C157.855 65.8464 157.709 65.1719 157.709 64.3906C157.709 63.6458 157.868 62.987 158.186 62.4141C158.504 61.8411 158.944 61.3984 159.506 61.0859C160.069 60.7682 160.712 60.6094 161.436 60.6094ZM161.436 61.7422C160.795 61.7422 160.264 61.9062 159.842 62.2344C159.426 62.5573 159.152 63.0078 159.022 63.5859H163.795C163.686 62.987 163.433 62.5312 163.037 62.2188C162.647 61.901 162.113 61.7422 161.436 61.7422ZM174.006 57.75C174.183 57.75 174.308 57.7917 174.381 57.875C174.459 57.9531 174.498 58.0885 174.498 58.2812V66.9375H175.139C175.316 66.9375 175.441 66.9792 175.514 67.0625C175.592 67.1406 175.631 67.276 175.631 67.4688C175.631 67.6615 175.592 67.7995 175.514 67.8828C175.441 67.9609 175.316 68 175.139 68H173.897C173.719 68 173.592 67.9609 173.514 67.8828C173.441 67.7995 173.404 67.6615 173.404 67.4688V66.8438C173.076 67.2708 172.696 67.599 172.264 67.8281C171.831 68.0573 171.36 68.1719 170.85 68.1719C170.204 68.1719 169.626 68.0208 169.115 67.7188C168.605 67.4115 168.204 66.974 167.912 66.4062C167.621 65.8333 167.475 65.1615 167.475 64.3906C167.475 63.6198 167.621 62.9505 167.912 62.3828C168.204 61.8099 168.605 61.3724 169.115 61.0703C169.626 60.763 170.204 60.6094 170.85 60.6094C171.829 60.6094 172.654 61.0391 173.326 61.8984V58.8125H172.061C171.884 58.8125 171.756 58.7734 171.678 58.6953C171.605 58.612 171.568 58.474 171.568 58.2812C171.568 58.0885 171.605 57.9531 171.678 57.875C171.756 57.7917 171.884 57.75 172.061 57.75H174.006ZM170.928 61.7656C170.464 61.7656 170.066 61.8776 169.732 62.1016C169.399 62.3203 169.144 62.6276 168.967 63.0234C168.795 63.4193 168.709 63.875 168.709 64.3906C168.709 64.9062 168.795 65.362 168.967 65.7578C169.144 66.1536 169.399 66.4635 169.732 66.6875C170.066 66.9062 170.464 67.0156 170.928 67.0156C171.391 67.0156 171.803 66.9115 172.162 66.7031C172.527 66.4948 172.811 66.1927 173.014 65.7969C173.222 65.401 173.326 64.9323 173.326 64.3906C173.326 63.849 173.222 63.3802 173.014 62.9844C172.811 62.5885 172.527 62.2865 172.162 62.0781C171.803 61.8698 171.391 61.7656 170.928 61.7656ZM181.474 60.7812C181.651 60.7812 181.776 60.8229 181.849 60.9062C181.927 60.9844 181.967 61.1198 181.967 61.3125V66.9375H184.474C184.651 66.9375 184.776 66.9792 184.849 67.0625C184.927 67.1406 184.967 67.276 184.967 67.4688C184.967 67.6615 184.927 67.7995 184.849 67.8828C184.776 67.9609 184.651 68 184.474 68H178.349C178.172 68 178.045 67.9609 177.967 67.8828C177.894 67.7995 177.857 67.6615 177.857 67.4688C177.857 67.276 177.894 67.1406 177.967 67.0625C178.045 66.9792 178.172 66.9375 178.349 66.9375H180.795V61.8438H178.818C178.641 61.8438 178.513 61.8047 178.435 61.7266C178.362 61.6432 178.326 61.5052 178.326 61.3125C178.326 61.1198 178.362 60.9844 178.435 60.9062C178.513 60.8229 178.641 60.7812 178.818 60.7812H181.474ZM181.224 57.3516C181.511 57.3516 181.706 57.3906 181.81 57.4688C181.914 57.5417 181.967 57.6719 181.967 57.8594V58.875C181.967 59.0625 181.914 59.1953 181.81 59.2734C181.706 59.3464 181.511 59.3828 181.224 59.3828C180.938 59.3828 180.743 59.3464 180.638 59.2734C180.534 59.1953 180.482 59.0625 180.482 58.875V57.8594C180.482 57.6719 180.534 57.5417 180.638 57.4688C180.743 57.3906 180.938 57.3516 181.224 57.3516ZM200.755 58.5547C201.359 58.5547 201.888 58.6641 202.341 58.8828C202.799 59.0964 203.153 59.4089 203.403 59.8203C203.653 60.2318 203.778 60.7214 203.778 61.2891C203.778 61.8203 203.646 62.3099 203.38 62.7578C203.12 63.2005 202.711 63.7057 202.153 64.2734L199.528 66.9375H202.919V65.9531C202.919 65.7708 202.963 65.6406 203.052 65.5625C203.14 65.4844 203.291 65.4453 203.505 65.4453C203.719 65.4453 203.87 65.4844 203.958 65.5625C204.047 65.6406 204.091 65.7708 204.091 65.9531V67.4688C204.091 67.6615 204.052 67.7995 203.974 67.8828C203.901 67.9609 203.776 68 203.599 68H198.177C198 68 197.872 67.9609 197.794 67.8828C197.721 67.7995 197.685 67.6615 197.685 67.4688C197.685 67.2708 197.724 67.1302 197.802 67.0469L201.239 63.5625C201.719 63.0729 202.054 62.6667 202.247 62.3438C202.445 62.0156 202.544 61.6641 202.544 61.2891C202.544 60.8047 202.388 60.4219 202.075 60.1406C201.768 59.8542 201.331 59.7109 200.763 59.7109C200.19 59.7109 199.651 59.8568 199.146 60.1484V61.0078C199.146 61.1901 199.101 61.3203 199.013 61.3984C198.924 61.4766 198.773 61.5156 198.56 61.5156C198.346 61.5156 198.195 61.4766 198.107 61.3984C198.018 61.3203 197.974 61.1901 197.974 61.0078V59.8594C197.974 59.6562 198.034 59.513 198.153 59.4297C198.534 59.1536 198.945 58.9401 199.388 58.7891C199.831 58.6328 200.286 58.5547 200.755 58.5547ZM210.934 58.5547C211.476 58.5547 211.966 58.6693 212.403 58.8984C212.846 59.1224 213.192 59.4323 213.442 59.8281C213.692 60.224 213.817 60.6589 213.817 61.1328C213.817 61.5547 213.697 61.9323 213.458 62.2656C213.218 62.599 212.906 62.8698 212.52 63.0781C213.005 63.2969 213.393 63.6016 213.684 63.9922C213.976 64.3828 214.122 64.8333 214.122 65.3438C214.122 65.8802 213.984 66.3646 213.708 66.7969C213.432 67.224 213.052 67.5599 212.567 67.8047C212.083 68.0495 211.539 68.1719 210.934 68.1719C210.33 68.1719 209.786 68.0495 209.302 67.8047C208.817 67.5599 208.437 67.224 208.161 66.7969C207.885 66.3646 207.747 65.8802 207.747 65.3438C207.747 64.8333 207.893 64.3828 208.184 63.9922C208.476 63.6016 208.861 63.2969 209.341 63.0781C208.955 62.8698 208.643 62.599 208.403 62.2656C208.169 61.9323 208.052 61.5547 208.052 61.1328C208.052 60.6589 208.177 60.224 208.427 59.8281C208.677 59.4323 209.02 59.1224 209.458 58.8984C209.901 58.6693 210.393 58.5547 210.934 58.5547ZM210.934 59.7109C210.611 59.7109 210.322 59.7708 210.067 59.8906C209.817 60.0052 209.619 60.1719 209.473 60.3906C209.328 60.6094 209.255 60.8646 209.255 61.1562C209.255 61.4219 209.328 61.6641 209.473 61.8828C209.619 62.1016 209.82 62.2734 210.075 62.3984C210.335 62.5234 210.622 62.5859 210.934 62.5859C211.247 62.5859 211.531 62.5234 211.786 62.3984C212.046 62.2734 212.249 62.1016 212.395 61.8828C212.541 61.6641 212.614 61.4219 212.614 61.1562C212.614 60.8646 212.541 60.6094 212.395 60.3906C212.249 60.1719 212.049 60.0052 211.794 59.8906C211.544 59.7708 211.257 59.7109 210.934 59.7109ZM210.934 63.6719C210.554 63.6719 210.218 63.7422 209.927 63.8828C209.635 64.0234 209.406 64.2214 209.239 64.4766C209.078 64.7266 208.997 65.013 208.997 65.3359C208.997 65.6589 209.078 65.9479 209.239 66.2031C209.406 66.4583 209.635 66.6589 209.927 66.8047C210.218 66.9453 210.554 67.0156 210.934 67.0156C211.315 67.0156 211.651 66.9453 211.942 66.8047C212.234 66.6589 212.46 66.4583 212.622 66.2031C212.789 65.9479 212.872 65.6589 212.872 65.3359C212.872 65.013 212.789 64.7266 212.622 64.4766C212.46 64.2214 212.234 64.0234 211.942 63.8828C211.651 63.7422 211.315 63.6719 210.934 63.6719ZM230.762 58.5547C231.429 58.5547 232.012 58.7552 232.512 59.1562C233.017 59.5521 233.405 60.1146 233.676 60.8438C233.952 61.5677 234.09 62.4089 234.09 63.3672C234.09 64.3255 233.952 65.1667 233.676 65.8906C233.405 66.6146 233.02 67.1771 232.52 67.5781C232.02 67.974 231.434 68.1719 230.762 68.1719C230.09 68.1719 229.504 67.974 229.004 67.5781C228.504 67.1771 228.116 66.6146 227.84 65.8906C227.569 65.1667 227.434 64.3255 227.434 63.3672C227.434 62.4089 227.569 61.5677 227.84 60.8438C228.116 60.1146 228.504 59.5521 229.004 59.1562C229.509 58.7552 230.095 58.5547 230.762 58.5547ZM230.762 59.7109C230.35 59.7109 229.986 59.8568 229.668 60.1484C229.356 60.4349 229.111 60.8542 228.934 61.4062C228.757 61.9531 228.668 62.6068 228.668 63.3672C228.668 64.1276 228.757 64.7839 228.934 65.3359C229.111 65.8828 229.356 66.2995 229.668 66.5859C229.986 66.8724 230.35 67.0156 230.762 67.0156C231.173 67.0156 231.535 66.8724 231.848 66.5859C232.166 66.2995 232.413 65.8828 232.59 65.3359C232.767 64.7839 232.856 64.1276 232.856 63.3672C232.856 62.6068 232.767 61.9531 232.59 61.4062C232.413 60.8542 232.166 60.4349 231.848 60.1484C231.535 59.8568 231.173 59.7109 230.762 59.7109ZM240.676 58.5547C241.217 58.5547 241.707 58.6693 242.144 58.8984C242.587 59.1224 242.933 59.4323 243.183 59.8281C243.433 60.224 243.558 60.6589 243.558 61.1328C243.558 61.5547 243.439 61.9323 243.199 62.2656C242.959 62.599 242.647 62.8698 242.262 63.0781C242.746 63.2969 243.134 63.6016 243.426 63.9922C243.717 64.3828 243.863 64.8333 243.863 65.3438C243.863 65.8802 243.725 66.3646 243.449 66.7969C243.173 67.224 242.793 67.5599 242.308 67.8047C241.824 68.0495 241.28 68.1719 240.676 68.1719C240.071 68.1719 239.527 68.0495 239.043 67.8047C238.558 67.5599 238.178 67.224 237.902 66.7969C237.626 66.3646 237.488 65.8802 237.488 65.3438C237.488 64.8333 237.634 64.3828 237.926 63.9922C238.217 63.6016 238.603 63.2969 239.082 63.0781C238.696 62.8698 238.384 62.599 238.144 62.2656C237.91 61.9323 237.793 61.5547 237.793 61.1328C237.793 60.6589 237.918 60.224 238.168 59.8281C238.418 59.4323 238.762 59.1224 239.199 58.8984C239.642 58.6693 240.134 58.5547 240.676 58.5547ZM240.676 59.7109C240.353 59.7109 240.064 59.7708 239.808 59.8906C239.558 60.0052 239.361 60.1719 239.215 60.3906C239.069 60.6094 238.996 60.8646 238.996 61.1562C238.996 61.4219 239.069 61.6641 239.215 61.8828C239.361 62.1016 239.561 62.2734 239.816 62.3984C240.077 62.5234 240.363 62.5859 240.676 62.5859C240.988 62.5859 241.272 62.5234 241.527 62.3984C241.788 62.2734 241.991 62.1016 242.137 61.8828C242.282 61.6641 242.355 61.4219 242.355 61.1562C242.355 60.8646 242.282 60.6094 242.137 60.3906C241.991 60.1719 241.79 60.0052 241.535 59.8906C241.285 59.7708 240.999 59.7109 240.676 59.7109ZM240.676 63.6719C240.295 63.6719 239.959 63.7422 239.668 63.8828C239.376 64.0234 239.147 64.2214 238.98 64.4766C238.819 64.7266 238.738 65.013 238.738 65.3359C238.738 65.6589 238.819 65.9479 238.98 66.2031C239.147 66.4583 239.376 66.6589 239.668 66.8047C239.959 66.9453 240.295 67.0156 240.676 67.0156C241.056 67.0156 241.392 66.9453 241.683 66.8047C241.975 66.6589 242.202 66.4583 242.363 66.2031C242.53 65.9479 242.613 65.6589 242.613 65.3359C242.613 65.013 242.53 64.7266 242.363 64.4766C242.202 64.2214 241.975 64.0234 241.683 63.8828C241.392 63.7422 241.056 63.6719 240.676 63.6719ZM250.589 63.125C250.214 63.125 249.944 63.0885 249.777 63.0156C249.615 62.9375 249.535 62.8099 249.535 62.6328V61.1953C249.535 61.0182 249.615 60.8932 249.777 60.8203C249.944 60.7422 250.214 60.7031 250.589 60.7031C250.964 60.7031 251.233 60.7422 251.394 60.8203C251.561 60.8932 251.644 61.0182 251.644 61.1953V62.6328C251.644 62.8099 251.561 62.9375 251.394 63.0156C251.233 63.0885 250.964 63.125 250.589 63.125ZM250.589 68.0781C250.214 68.0781 249.944 68.0417 249.777 67.9688C249.615 67.8906 249.535 67.763 249.535 67.5859V66.1484C249.535 65.9714 249.615 65.8464 249.777 65.7734C249.944 65.6953 250.214 65.6562 250.589 65.6562C250.964 65.6562 251.233 65.6953 251.394 65.7734C251.561 65.8464 251.644 65.9714 251.644 66.1484V67.5859C251.644 67.763 251.561 67.8906 251.394 67.9688C251.233 68.0417 250.964 68.0781 250.589 68.0781ZM260.503 58.5547C261.17 58.5547 261.753 58.7552 262.253 59.1562C262.758 59.5521 263.146 60.1146 263.417 60.8438C263.693 61.5677 263.831 62.4089 263.831 63.3672C263.831 64.3255 263.693 65.1667 263.417 65.8906C263.146 66.6146 262.761 67.1771 262.261 67.5781C261.761 67.974 261.175 68.1719 260.503 68.1719C259.831 68.1719 259.245 67.974 258.745 67.5781C258.245 67.1771 257.857 66.6146 257.581 65.8906C257.31 65.1667 257.175 64.3255 257.175 63.3672C257.175 62.4089 257.31 61.5677 257.581 60.8438C257.857 60.1146 258.245 59.5521 258.745 59.1562C259.251 58.7552 259.836 58.5547 260.503 58.5547ZM260.503 59.7109C260.092 59.7109 259.727 59.8568 259.409 60.1484C259.097 60.4349 258.852 60.8542 258.675 61.4062C258.498 61.9531 258.409 62.6068 258.409 63.3672C258.409 64.1276 258.498 64.7839 258.675 65.3359C258.852 65.8828 259.097 66.2995 259.409 66.5859C259.727 66.8724 260.092 67.0156 260.503 67.0156C260.915 67.0156 261.277 66.8724 261.589 66.5859C261.907 66.2995 262.154 65.8828 262.331 65.3359C262.508 64.7839 262.597 64.1276 262.597 63.3672C262.597 62.6068 262.508 61.9531 262.331 61.4062C262.154 60.8542 261.907 60.4349 261.589 60.1484C261.277 59.8568 260.915 59.7109 260.503 59.7109ZM270.417 58.5547C271.084 58.5547 271.667 58.7552 272.167 59.1562C272.672 59.5521 273.06 60.1146 273.331 60.8438C273.607 61.5677 273.745 62.4089 273.745 63.3672C273.745 64.3255 273.607 65.1667 273.331 65.8906C273.06 66.6146 272.675 67.1771 272.175 67.5781C271.675 67.974 271.089 68.1719 270.417 68.1719C269.745 68.1719 269.159 67.974 268.659 67.5781C268.159 67.1771 267.771 66.6146 267.495 65.8906C267.224 65.1667 267.089 64.3255 267.089 63.3672C267.089 62.4089 267.224 61.5677 267.495 60.8438C267.771 60.1146 268.159 59.5521 268.659 59.1562C269.164 58.7552 269.75 58.5547 270.417 58.5547ZM270.417 59.7109C270.005 59.7109 269.641 59.8568 269.323 60.1484C269.011 60.4349 268.766 60.8542 268.589 61.4062C268.412 61.9531 268.323 62.6068 268.323 63.3672C268.323 64.1276 268.412 64.7839 268.589 65.3359C268.766 65.8828 269.011 66.2995 269.323 66.5859C269.641 66.8724 270.005 67.0156 270.417 67.0156C270.828 67.0156 271.19 66.8724 271.503 66.5859C271.821 66.2995 272.068 65.8828 272.245 65.3359C272.422 64.7839 272.511 64.1276 272.511 63.3672C272.511 62.6068 272.422 61.9531 272.245 61.4062C272.068 60.8542 271.821 60.4349 271.503 60.1484C271.19 59.8568 270.828 59.7109 270.417 59.7109ZM293.221 62.9219C293.398 62.9219 293.523 62.9635 293.596 63.0469C293.674 63.125 293.713 63.2604 293.713 63.4531C293.713 63.6458 293.674 63.7839 293.596 63.8672C293.523 63.9453 293.398 63.9844 293.221 63.9844H287.268C287.091 63.9844 286.963 63.9453 286.885 63.8672C286.812 63.7839 286.776 63.6458 286.776 63.4531C286.776 63.2604 286.812 63.125 286.885 63.0469C286.963 62.9635 287.091 62.9219 287.268 62.9219H293.221ZM310.502 60.6094C311.147 60.6094 311.726 60.763 312.236 61.0703C312.746 61.3724 313.147 61.8099 313.439 62.3828C313.731 62.9505 313.877 63.6198 313.877 64.3906C313.877 65.1615 313.731 65.8333 313.439 66.4062C313.147 66.974 312.746 67.4115 312.236 67.7188C311.726 68.0208 311.147 68.1719 310.502 68.1719C309.522 68.1719 308.697 67.7422 308.025 66.8828V69.9688H309.369C309.546 69.9688 309.671 70.0078 309.744 70.0859C309.822 70.1693 309.861 70.3073 309.861 70.5C309.861 70.6927 309.822 70.8281 309.744 70.9062C309.671 70.9896 309.546 71.0312 309.369 71.0312H306.056C305.879 71.0312 305.752 70.9896 305.673 70.9062C305.601 70.8281 305.564 70.6927 305.564 70.5C305.564 70.3073 305.601 70.1693 305.673 70.0859C305.752 70.0078 305.879 69.9688 306.056 69.9688H306.853V61.8438H306.212C306.035 61.8438 305.908 61.8047 305.83 61.7266C305.757 61.6432 305.72 61.5052 305.72 61.3125C305.72 61.1198 305.757 60.9844 305.83 60.9062C305.908 60.8229 306.035 60.7812 306.212 60.7812H307.455C307.632 60.7812 307.757 60.8229 307.83 60.9062C307.908 60.9844 307.947 61.1198 307.947 61.3125V61.9375C308.275 61.5104 308.655 61.1823 309.087 60.9531C309.52 60.724 309.991 60.6094 310.502 60.6094ZM310.423 61.7656C309.96 61.7656 309.546 61.8698 309.181 62.0781C308.822 62.2865 308.538 62.5885 308.33 62.9844C308.127 63.3802 308.025 63.849 308.025 64.3906C308.025 64.9323 308.127 65.401 308.33 65.7969C308.538 66.1927 308.822 66.4948 309.181 66.7031C309.546 66.9115 309.96 67.0156 310.423 67.0156C310.887 67.0156 311.285 66.9062 311.619 66.6875C311.952 66.4635 312.205 66.1536 312.377 65.7578C312.554 65.362 312.642 64.9062 312.642 64.3906C312.642 63.875 312.554 63.4193 312.377 63.0234C312.205 62.6276 311.952 62.3203 311.619 62.1016C311.285 61.8776 310.887 61.7656 310.423 61.7656ZM320.017 60.6094C320.996 60.6094 321.73 60.8281 322.22 61.2656C322.71 61.7031 322.954 62.3516 322.954 63.2109V66.3203C322.954 66.7318 323.126 66.9375 323.47 66.9375H323.743C323.921 66.9375 324.046 66.9792 324.118 67.0625C324.197 67.1406 324.236 67.276 324.236 67.4688C324.236 67.6615 324.197 67.7995 324.118 67.8828C324.046 67.9609 323.921 68 323.743 68H323.243C322.905 68 322.613 67.9167 322.368 67.75C322.129 67.5781 321.973 67.3281 321.9 67C321.473 67.375 321.009 67.6641 320.509 67.8672C320.014 68.0703 319.488 68.1719 318.931 68.1719C318.405 68.1719 317.939 68.0833 317.533 67.9062C317.131 67.724 316.816 67.4609 316.587 67.1172C316.358 66.7734 316.243 66.3646 316.243 65.8906C316.243 65.0677 316.538 64.4609 317.126 64.0703C317.715 63.6745 318.475 63.4766 319.408 63.4766C320.236 63.4766 321.027 63.6094 321.783 63.875V63.2109C321.783 62.7057 321.639 62.3359 321.353 62.1016C321.072 61.862 320.616 61.7422 319.986 61.7422C319.595 61.7422 319.189 61.7969 318.767 61.9062C318.345 62.0156 317.944 62.1667 317.564 62.3594C317.475 62.4062 317.394 62.4297 317.322 62.4297C317.15 62.4297 317.006 62.3047 316.892 62.0547C316.835 61.9297 316.806 61.8255 316.806 61.7422C316.806 61.5599 316.902 61.4193 317.095 61.3203C317.533 61.0911 318.001 60.9167 318.501 60.7969C319.006 60.6719 319.512 60.6094 320.017 60.6094ZM319.415 64.5781C318.816 64.5781 318.342 64.6823 317.993 64.8906C317.65 65.0938 317.478 65.4193 317.478 65.8672C317.478 66.2474 317.608 66.5443 317.868 66.7578C318.134 66.9661 318.504 67.0703 318.978 67.0703C320.014 67.0703 320.949 66.6406 321.783 65.7812V64.9297C321.428 64.8151 321.048 64.7292 320.642 64.6719C320.236 64.6094 319.827 64.5781 319.415 64.5781ZM332.29 60.6094C332.696 60.6094 333.076 60.7135 333.431 60.9219C333.639 61.0469 333.743 61.2083 333.743 61.4062C333.743 61.5 333.72 61.6094 333.673 61.7344C333.563 62.0312 333.412 62.1797 333.22 62.1797C333.142 62.1797 333.069 62.1589 333.001 62.1172C332.746 61.9766 332.472 61.9062 332.181 61.9062C331.712 61.9062 331.241 62.0703 330.767 62.3984C330.293 62.7214 329.902 63.1536 329.595 63.6953C329.293 64.237 329.142 64.8125 329.142 65.4219V66.9375H331.774C331.951 66.9375 332.076 66.9792 332.149 67.0625C332.227 67.1406 332.267 67.276 332.267 67.4688C332.267 67.6615 332.227 67.7995 332.149 67.8828C332.076 67.9609 331.951 68 331.774 68H326.743C326.566 68 326.438 67.9609 326.36 67.8828C326.287 67.7995 326.251 67.6615 326.251 67.4688C326.251 67.276 326.287 67.1406 326.36 67.0625C326.438 66.9792 326.566 66.9375 326.743 66.9375H327.97V61.8438H326.977C326.8 61.8438 326.673 61.8047 326.595 61.7266C326.522 61.6432 326.485 61.5052 326.485 61.3125C326.485 61.1198 326.522 60.9844 326.595 60.9062C326.673 60.8229 326.8 60.7812 326.977 60.7812H328.571C328.748 60.7812 328.873 60.8229 328.946 60.9062C329.024 60.9844 329.063 61.1198 329.063 61.3125V62.8906C329.313 62.4323 329.616 62.0312 329.97 61.6875C330.324 61.3438 330.701 61.0781 331.102 60.8906C331.504 60.7031 331.899 60.6094 332.29 60.6094ZM338.594 58.5547C338.808 58.5547 338.959 58.5938 339.048 58.6719C339.136 58.75 339.18 58.8802 339.18 59.0625V61.4062H342.391C342.568 61.4062 342.693 61.4479 342.766 61.5312C342.844 61.6094 342.883 61.7448 342.883 61.9375C342.883 62.1302 342.844 62.2682 342.766 62.3516C342.693 62.4297 342.568 62.4688 342.391 62.4688H339.18V65.3125C339.18 65.9062 339.282 66.3411 339.485 66.6172C339.693 66.8932 340.053 67.0312 340.563 67.0312C340.912 67.0312 341.279 66.9609 341.665 66.8203C342.05 66.6797 342.423 66.4922 342.782 66.2578C342.855 66.2057 342.936 66.1797 343.024 66.1797C343.201 66.1797 343.352 66.2995 343.477 66.5391C343.545 66.6745 343.579 66.7917 343.579 66.8906C343.579 67.0573 343.493 67.1927 343.321 67.2969C342.915 67.5521 342.462 67.763 341.962 67.9297C341.462 68.0911 340.995 68.1719 340.563 68.1719C339.678 68.1719 339.029 67.9427 338.618 67.4844C338.212 67.0208 338.008 66.3307 338.008 65.4141V62.4688H336.423C336.245 62.4688 336.118 62.4297 336.04 62.3516C335.967 62.2682 335.93 62.1302 335.93 61.9375C335.93 61.7448 335.967 61.6094 336.04 61.5312C336.118 61.4479 336.245 61.4062 336.423 61.4062H338.008V59.0625C338.008 58.8802 338.053 58.75 338.141 58.6719C338.23 58.5938 338.381 58.5547 338.594 58.5547ZM350.008 60.7812C350.185 60.7812 350.31 60.8229 350.383 60.9062C350.461 60.9844 350.5 61.1198 350.5 61.3125V66.9375H353.008C353.185 66.9375 353.31 66.9792 353.383 67.0625C353.461 67.1406 353.5 67.276 353.5 67.4688C353.5 67.6615 353.461 67.7995 353.383 67.8828C353.31 67.9609 353.185 68 353.008 68H346.883C346.706 68 346.578 67.9609 346.5 67.8828C346.427 67.7995 346.391 67.6615 346.391 67.4688C346.391 67.276 346.427 67.1406 346.5 67.0625C346.578 66.9792 346.706 66.9375 346.883 66.9375H349.328V61.8438H347.352C347.175 61.8438 347.047 61.8047 346.969 61.7266C346.896 61.6432 346.86 61.5052 346.86 61.3125C346.86 61.1198 346.896 60.9844 346.969 60.9062C347.047 60.8229 347.175 60.7812 347.352 60.7812H350.008ZM349.758 57.3516C350.045 57.3516 350.24 57.3906 350.344 57.4688C350.448 57.5417 350.5 57.6719 350.5 57.8594V58.875C350.5 59.0625 350.448 59.1953 350.344 59.2734C350.24 59.3464 350.045 59.3828 349.758 59.3828C349.472 59.3828 349.276 59.3464 349.172 59.2734C349.068 59.1953 349.016 59.0625 349.016 58.875V57.8594C349.016 57.6719 349.068 57.5417 349.172 57.4688C349.276 57.3906 349.472 57.3516 349.758 57.3516ZM359.711 60.6094C360.466 60.6094 361.109 60.763 361.641 61.0703C362.177 61.3724 362.589 61.7943 362.875 62.3359C363.161 62.8724 363.326 63.4922 363.367 64.1953C363.367 64.3724 363.328 64.4974 363.25 64.5703C363.177 64.6432 363.052 64.6797 362.875 64.6797H357.219C357.255 65.4557 357.484 66.0443 357.906 66.4453C358.333 66.8411 358.935 67.0391 359.711 67.0391C360.19 67.0391 360.664 66.9792 361.133 66.8594C361.602 66.7344 362.013 66.5703 362.367 66.3672C362.456 66.3203 362.536 66.2969 362.609 66.2969C362.792 66.2969 362.94 66.4349 363.055 66.7109C363.102 66.8203 363.125 66.9193 363.125 67.0078C363.125 67.2161 363.01 67.3776 362.781 67.4922C362.38 67.6953 361.906 67.8594 361.359 67.9844C360.812 68.1094 360.263 68.1719 359.711 68.1719C358.924 68.1719 358.253 68.0208 357.695 67.7188C357.138 67.4167 356.714 66.9818 356.422 66.4141C356.13 65.8464 355.984 65.1719 355.984 64.3906C355.984 63.6458 356.143 62.987 356.461 62.4141C356.779 61.8411 357.219 61.3984 357.781 61.0859C358.344 60.7682 358.987 60.6094 359.711 60.6094ZM359.711 61.7422C359.07 61.7422 358.539 61.9062 358.117 62.2344C357.701 62.5573 357.427 63.0078 357.297 63.5859H362.07C361.961 62.987 361.708 62.5312 361.312 62.2188C360.922 61.901 360.388 61.7422 359.711 61.7422ZM369.758 57.75C369.935 57.75 370.06 57.7917 370.133 57.875C370.211 57.9531 370.25 58.0885 370.25 58.2812V66.9375H372.758C372.935 66.9375 373.06 66.9792 373.133 67.0625C373.211 67.1406 373.25 67.276 373.25 67.4688C373.25 67.6615 373.211 67.7995 373.133 67.8828C373.06 67.9609 372.935 68 372.758 68H366.633C366.455 68 366.328 67.9609 366.25 67.8828C366.177 67.7995 366.14 67.6615 366.14 67.4688C366.14 67.276 366.177 67.1406 366.25 67.0625C366.328 66.9792 366.455 66.9375 366.633 66.9375H369.078V58.8125H366.945C366.768 58.8125 366.64 58.7734 366.562 58.6953C366.489 58.612 366.453 58.474 366.453 58.2812C366.453 58.0885 366.489 57.9531 366.562 57.875C366.64 57.7917 366.768 57.75 366.945 57.75H369.758ZM114.523 75.75C114.701 75.75 114.826 75.7917 114.898 75.875C114.977 75.9531 115.016 76.0885 115.016 76.2812V84.9375H115.656C115.833 84.9375 115.958 84.9792 116.031 85.0625C116.109 85.1406 116.148 85.276 116.148 85.4688C116.148 85.6615 116.109 85.7995 116.031 85.8828C115.958 85.9609 115.833 86 115.656 86H114.414C114.237 86 114.109 85.9609 114.031 85.8828C113.958 85.7995 113.922 85.6615 113.922 85.4688V84.8438C113.594 85.2708 113.214 85.599 112.781 85.8281C112.349 86.0573 111.878 86.1719 111.367 86.1719C110.721 86.1719 110.143 86.0208 109.633 85.7188C109.122 85.4115 108.721 84.974 108.43 84.4062C108.138 83.8333 107.992 83.1615 107.992 82.3906C107.992 81.6198 108.138 80.9505 108.43 80.3828C108.721 79.8099 109.122 79.3724 109.633 79.0703C110.143 78.763 110.721 78.6094 111.367 78.6094C112.346 78.6094 113.172 79.0391 113.844 79.8984V76.8125H112.578C112.401 76.8125 112.273 76.7734 112.195 76.6953C112.122 76.612 112.086 76.474 112.086 76.2812C112.086 76.0885 112.122 75.9531 112.195 75.875C112.273 75.7917 112.401 75.75 112.578 75.75H114.523ZM111.445 79.7656C110.982 79.7656 110.583 79.8776 110.25 80.1016C109.917 80.3203 109.661 80.6276 109.484 81.0234C109.312 81.4193 109.227 81.875 109.227 82.3906C109.227 82.9062 109.312 83.362 109.484 83.7578C109.661 84.1536 109.917 84.4635 110.25 84.6875C110.583 84.9062 110.982 85.0156 111.445 85.0156C111.909 85.0156 112.32 84.9115 112.68 84.7031C113.044 84.4948 113.328 84.1927 113.531 83.7969C113.74 83.401 113.844 82.9323 113.844 82.3906C113.844 81.849 113.74 81.3802 113.531 80.9844C113.328 80.5885 113.044 80.2865 112.68 80.0781C112.32 79.8698 111.909 79.7656 111.445 79.7656ZM121.781 78.6094C122.536 78.6094 123.179 78.763 123.711 79.0703C124.247 79.3724 124.659 79.7943 124.945 80.3359C125.231 80.8724 125.396 81.4922 125.437 82.1953C125.437 82.3724 125.398 82.4974 125.32 82.5703C125.247 82.6432 125.122 82.6797 124.945 82.6797H119.289C119.325 83.4557 119.554 84.0443 119.976 84.4453C120.403 84.8411 121.005 85.0391 121.781 85.0391C122.26 85.0391 122.734 84.9792 123.203 84.8594C123.672 84.7344 124.083 84.5703 124.437 84.3672C124.526 84.3203 124.606 84.2969 124.679 84.2969C124.862 84.2969 125.01 84.4349 125.125 84.7109C125.172 84.8203 125.195 84.9193 125.195 85.0078C125.195 85.2161 125.08 85.3776 124.851 85.4922C124.45 85.6953 123.976 85.8594 123.429 85.9844C122.882 86.1094 122.333 86.1719 121.781 86.1719C120.994 86.1719 120.323 86.0208 119.765 85.7188C119.208 85.4167 118.784 84.9818 118.492 84.4141C118.2 83.8464 118.054 83.1719 118.054 82.3906C118.054 81.6458 118.213 80.987 118.531 80.4141C118.849 79.8411 119.289 79.3984 119.851 79.0859C120.414 78.7682 121.057 78.6094 121.781 78.6094ZM121.781 79.7422C121.14 79.7422 120.609 79.9062 120.187 80.2344C119.771 80.5573 119.497 81.0078 119.367 81.5859H124.14C124.031 80.987 123.778 80.5312 123.382 80.2188C122.992 79.901 122.458 79.7422 121.781 79.7422ZM145.374 76.7266C145.551 76.7266 145.676 76.7682 145.749 76.8516C145.827 76.9297 145.866 77.0651 145.866 77.2578C145.866 77.4505 145.827 77.5885 145.749 77.6719C145.676 77.75 145.551 77.7891 145.374 77.7891H144.983L145.187 84.9375H145.608C145.786 84.9375 145.911 84.9792 145.983 85.0625C146.062 85.1406 146.101 85.276 146.101 85.4688C146.101 85.6615 146.062 85.7995 145.983 85.8828C145.911 85.9609 145.786 86 145.608 86H143.155C142.978 86 142.851 85.9609 142.772 85.8828C142.7 85.7995 142.663 85.6615 142.663 85.4688C142.663 85.276 142.7 85.1406 142.772 85.0625C142.851 84.9792 142.978 84.9375 143.155 84.9375H144.022L143.851 78.5391L142.257 82.9922C142.189 83.1745 142.098 83.3047 141.983 83.3828C141.874 83.4609 141.726 83.5 141.538 83.5C141.351 83.5 141.2 83.4609 141.085 83.3828C140.976 83.3047 140.887 83.1745 140.819 82.9922L139.218 78.5391L139.054 84.9375H139.921C140.098 84.9375 140.223 84.9792 140.296 85.0625C140.374 85.1406 140.413 85.276 140.413 85.4688C140.413 85.6615 140.374 85.7995 140.296 85.8828C140.223 85.9609 140.098 86 139.921 86H137.468C137.291 86 137.163 85.9609 137.085 85.8828C137.012 85.7995 136.976 85.6615 136.976 85.4688C136.976 85.276 137.012 85.1406 137.085 85.0625C137.163 84.9792 137.291 84.9375 137.468 84.9375H137.89L138.085 77.7891H137.702C137.525 77.7891 137.397 77.75 137.319 77.6719C137.246 77.5885 137.21 77.4505 137.21 77.2578C137.21 77.0651 137.246 76.9297 137.319 76.8516C137.397 76.7682 137.525 76.7266 137.702 76.7266H139.351C139.476 76.7266 139.575 76.7474 139.647 76.7891C139.72 76.8307 139.772 76.8958 139.804 76.9844L141.538 81.7422L143.265 76.9844C143.322 76.8125 143.476 76.7266 143.726 76.7266H145.374ZM151.483 78.6094C152.462 78.6094 153.197 78.8281 153.686 79.2656C154.176 79.7031 154.421 80.3516 154.421 81.2109V84.3203C154.421 84.7318 154.592 84.9375 154.936 84.9375H155.21C155.387 84.9375 155.512 84.9792 155.585 85.0625C155.663 85.1406 155.702 85.276 155.702 85.4688C155.702 85.6615 155.663 85.7995 155.585 85.8828C155.512 85.9609 155.387 86 155.21 86H154.71C154.371 86 154.079 85.9167 153.835 85.75C153.595 85.5781 153.439 85.3281 153.366 85C152.939 85.375 152.475 85.6641 151.975 85.8672C151.481 86.0703 150.954 86.1719 150.397 86.1719C149.871 86.1719 149.405 86.0833 148.999 85.9062C148.598 85.724 148.283 85.4609 148.053 85.1172C147.824 84.7734 147.71 84.3646 147.71 83.8906C147.71 83.0677 148.004 82.4609 148.592 82.0703C149.181 81.6745 149.941 81.4766 150.874 81.4766C151.702 81.4766 152.494 81.6094 153.249 81.875V81.2109C153.249 80.7057 153.106 80.3359 152.819 80.1016C152.538 79.862 152.082 79.7422 151.452 79.7422C151.061 79.7422 150.655 79.7969 150.233 79.9062C149.811 80.0156 149.41 80.1667 149.03 80.3594C148.941 80.4062 148.861 80.4297 148.788 80.4297C148.616 80.4297 148.473 80.3047 148.358 80.0547C148.301 79.9297 148.272 79.8255 148.272 79.7422C148.272 79.5599 148.369 79.4193 148.561 79.3203C148.999 79.0911 149.467 78.9167 149.967 78.7969C150.473 78.6719 150.978 78.6094 151.483 78.6094ZM150.882 82.5781C150.283 82.5781 149.809 82.6823 149.46 82.8906C149.116 83.0938 148.944 83.4193 148.944 83.8672C148.944 84.2474 149.074 84.5443 149.335 84.7578C149.6 84.9661 149.97 85.0703 150.444 85.0703C151.481 85.0703 152.415 84.6406 153.249 83.7812V82.9297C152.895 82.8151 152.514 82.7292 152.108 82.6719C151.702 82.6094 151.293 82.5781 150.882 82.5781ZM160.147 76.5547C160.36 76.5547 160.511 76.5938 160.6 76.6719C160.689 76.75 160.733 76.8802 160.733 77.0625V79.4062H163.944C164.121 79.4062 164.246 79.4479 164.319 79.5312C164.397 79.6094 164.436 79.7448 164.436 79.9375C164.436 80.1302 164.397 80.2682 164.319 80.3516C164.246 80.4297 164.121 80.4688 163.944 80.4688H160.733V83.3125C160.733 83.9062 160.834 84.3411 161.037 84.6172C161.246 84.8932 161.605 85.0312 162.116 85.0312C162.465 85.0312 162.832 84.9609 163.217 84.8203C163.603 84.6797 163.975 84.4922 164.334 84.2578C164.407 84.2057 164.488 84.1797 164.577 84.1797C164.754 84.1797 164.905 84.2995 165.03 84.5391C165.097 84.6745 165.131 84.7917 165.131 84.8906C165.131 85.0573 165.045 85.1927 164.873 85.2969C164.467 85.5521 164.014 85.763 163.514 85.9297C163.014 86.0911 162.548 86.1719 162.116 86.1719C161.23 86.1719 160.582 85.9427 160.17 85.4844C159.764 85.0208 159.561 84.3307 159.561 83.4141V80.4688H157.975C157.798 80.4688 157.67 80.4297 157.592 80.3516C157.519 80.2682 157.483 80.1302 157.483 79.9375C157.483 79.7448 157.519 79.6094 157.592 79.5312C157.67 79.4479 157.798 79.4062 157.975 79.4062H159.561V77.0625C159.561 76.8802 159.605 76.75 159.694 76.6719C159.782 76.5938 159.933 76.5547 160.147 76.5547ZM168.975 75.75C169.152 75.75 169.277 75.7917 169.35 75.875C169.428 75.9531 169.467 76.0885 169.467 76.2812V80.1719C169.805 79.6667 170.196 79.2812 170.639 79.0156C171.087 78.7448 171.568 78.6094 172.084 78.6094C172.558 78.6094 172.969 78.7135 173.318 78.9219C173.667 79.125 173.936 79.4193 174.123 79.8047C174.311 80.1901 174.404 80.6406 174.404 81.1562V84.9375H175.045C175.222 84.9375 175.347 84.9792 175.42 85.0625C175.498 85.1406 175.537 85.276 175.537 85.4688C175.537 85.6615 175.498 85.7995 175.42 85.8828C175.347 85.9609 175.222 86 175.045 86H172.514C172.337 86 172.209 85.9609 172.131 85.8828C172.058 85.7995 172.022 85.6615 172.022 85.4688C172.022 85.276 172.058 85.1406 172.131 85.0625C172.209 84.9792 172.337 84.9375 172.514 84.9375H173.232V81.2734C173.232 80.8099 173.126 80.4427 172.912 80.1719C172.699 79.901 172.384 79.7656 171.967 79.7656C171.524 79.7656 171.11 79.8932 170.725 80.1484C170.344 80.4036 170.04 80.7552 169.811 81.2031C169.581 81.651 169.467 82.151 169.467 82.7031V84.9375H170.186C170.363 84.9375 170.488 84.9792 170.561 85.0625C170.639 85.1406 170.678 85.276 170.678 85.4688C170.678 85.6615 170.639 85.7995 170.561 85.8828C170.488 85.9609 170.363 86 170.186 86H167.654C167.477 86 167.35 85.9609 167.272 85.8828C167.199 85.7995 167.162 85.6615 167.162 85.4688C167.162 85.276 167.199 85.1406 167.272 85.0625C167.35 84.9792 167.477 84.9375 167.654 84.9375H168.295V76.8125H167.576C167.399 76.8125 167.272 76.7734 167.193 76.6953C167.121 76.612 167.084 76.474 167.084 76.2812C167.084 76.0885 167.121 75.9531 167.193 75.875C167.272 75.7917 167.399 75.75 167.576 75.75H168.975ZM183.654 78.6094C183.868 78.6094 184.019 78.6484 184.107 78.7266C184.196 78.8047 184.24 78.9349 184.24 79.1172V80.6016C184.24 80.7839 184.196 80.9141 184.107 80.9922C184.019 81.0703 183.868 81.1094 183.654 81.1094C183.477 81.1094 183.352 81.0417 183.279 80.9062C183.055 80.4792 182.73 80.1797 182.302 80.0078C181.875 79.8307 181.334 79.7422 180.677 79.7422C180.172 79.7422 179.776 79.8333 179.49 80.0156C179.209 80.1927 179.068 80.4427 179.068 80.7656C179.068 80.9323 179.12 81.0677 179.224 81.1719C179.334 81.276 179.493 81.362 179.701 81.4297C179.873 81.487 180.071 81.5312 180.295 81.5625C180.524 81.5938 180.818 81.6276 181.177 81.6641C181.683 81.7214 182.089 81.776 182.396 81.8281C182.709 81.875 183.003 81.9479 183.279 82.0469C183.696 82.1979 184.019 82.4167 184.248 82.7031C184.482 82.9896 184.599 83.3672 184.599 83.8359C184.599 84.3047 184.48 84.7161 184.24 85.0703C184.006 85.4193 183.659 85.6901 183.201 85.8828C182.748 86.0755 182.204 86.1719 181.568 86.1719C181.006 86.1719 180.511 86.0938 180.084 85.9375C179.657 85.7812 179.284 85.5443 178.967 85.2266V85.6641C178.967 85.8464 178.922 85.9766 178.834 86.0547C178.745 86.1328 178.594 86.1719 178.381 86.1719C178.167 86.1719 178.016 86.1328 177.927 86.0547C177.839 85.9766 177.795 85.8464 177.795 85.6641V83.7891C177.795 83.6068 177.839 83.4766 177.927 83.3984C178.016 83.3203 178.167 83.2812 178.381 83.2812C178.49 83.2812 178.576 83.3073 178.638 83.3594C178.701 83.4062 178.756 83.487 178.802 83.6016C178.99 84.1016 179.302 84.4661 179.74 84.6953C180.177 84.9245 180.761 85.0391 181.49 85.0391C182.094 85.0391 182.558 84.9297 182.881 84.7109C183.204 84.4922 183.365 84.2005 183.365 83.8359C183.365 83.6589 183.308 83.513 183.193 83.3984C183.079 83.2839 182.914 83.1901 182.701 83.1172C182.519 83.0599 182.308 83.013 182.068 82.9766C181.834 82.9349 181.534 82.8958 181.17 82.8594C180.68 82.8073 180.271 82.7526 179.943 82.6953C179.615 82.638 179.313 82.5547 179.037 82.4453C178.657 82.2943 178.36 82.0859 178.146 81.8203C177.938 81.5495 177.834 81.1979 177.834 80.7656C177.834 80.3125 177.951 79.9245 178.185 79.6016C178.425 79.2734 178.753 79.026 179.17 78.8594C179.592 78.6927 180.068 78.6094 180.599 78.6094C181.105 78.6094 181.566 78.6849 181.982 78.8359C182.404 78.987 182.766 79.1979 183.068 79.4688V79.1172C183.068 78.9349 183.112 78.8047 183.201 78.7266C183.289 78.6484 183.441 78.6094 183.654 78.6094ZM201.528 76.0859C201.648 76.0859 201.734 76.1172 201.786 76.1797C201.838 76.2422 201.859 76.3411 201.849 76.4766L201.466 82C201.456 82.1198 201.411 82.2135 201.333 82.2812C201.26 82.3438 201.156 82.375 201.021 82.375C200.885 82.375 200.776 82.3438 200.692 82.2812C200.614 82.2135 200.573 82.1198 200.567 82L200.192 76.4766C200.182 76.3411 200.203 76.2422 200.255 76.1797C200.307 76.1172 200.393 76.0859 200.513 76.0859H201.528ZM201.021 83.8906C201.364 83.8906 201.612 83.9297 201.763 84.0078C201.919 84.0807 201.997 84.2057 201.997 84.3828V85.5859C201.997 85.763 201.919 85.8906 201.763 85.9688C201.612 86.0417 201.364 86.0781 201.021 86.0781C200.677 86.0781 200.427 86.0417 200.271 85.9688C200.12 85.8906 200.044 85.763 200.044 85.5859V84.3828C200.044 84.2057 200.12 84.0807 200.271 84.0078C200.427 83.9297 200.677 83.8906 201.021 83.8906ZM211.442 76.0859C211.562 76.0859 211.648 76.1172 211.7 76.1797C211.752 76.2422 211.773 76.3411 211.762 76.4766L211.38 82C211.369 82.1198 211.325 82.2135 211.247 82.2812C211.174 82.3438 211.07 82.375 210.934 82.375C210.799 82.375 210.69 82.3438 210.606 82.2812C210.528 82.2135 210.486 82.1198 210.481 82L210.106 76.4766C210.096 76.3411 210.117 76.2422 210.169 76.1797C210.221 76.1172 210.307 76.0859 210.427 76.0859H211.442ZM210.934 83.8906C211.278 83.8906 211.526 83.9297 211.677 84.0078C211.833 84.0807 211.911 84.2057 211.911 84.3828V85.5859C211.911 85.763 211.833 85.8906 211.677 85.9688C211.526 86.0417 211.278 86.0781 210.934 86.0781C210.591 86.0781 210.341 86.0417 210.184 85.9688C210.033 85.8906 209.958 85.763 209.958 85.5859V84.3828C209.958 84.2057 210.033 84.0807 210.184 84.0078C210.341 83.9297 210.591 83.8906 210.934 83.8906ZM221.356 76.0859C221.476 76.0859 221.562 76.1172 221.614 76.1797C221.666 76.2422 221.687 76.3411 221.676 76.4766L221.293 82C221.283 82.1198 221.239 82.2135 221.161 82.2812C221.088 82.3438 220.984 82.375 220.848 82.375C220.713 82.375 220.603 82.3438 220.52 82.2812C220.442 82.2135 220.4 82.1198 220.395 82L220.02 76.4766C220.01 76.3411 220.03 76.2422 220.082 76.1797C220.135 76.1172 220.221 76.0859 220.34 76.0859H221.356ZM220.848 83.8906C221.192 83.8906 221.439 83.9297 221.59 84.0078C221.747 84.0807 221.825 84.2057 221.825 84.3828V85.5859C221.825 85.763 221.747 85.8906 221.59 85.9688C221.439 86.0417 221.192 86.0781 220.848 86.0781C220.504 86.0781 220.254 86.0417 220.098 85.9688C219.947 85.8906 219.872 85.763 219.872 85.5859V84.3828C219.872 84.2057 219.947 84.0807 220.098 84.0078C220.254 83.9297 220.504 83.8906 220.848 83.8906Z" fill="black"/>
<defs>
<clipPath id="clip0_453_1974">
<rect width="75" height="75" fill="white" transform="translate(16 16)"/>
</clipPath>
</defs>
</svg>
