<svg width="106" height="117" viewBox="0 0 106 117" fill="none" xmlns="http://www.w3.org/2000/svg">
<path d="M8.10642 22.4557L46.2776 3.37006C50.5185 1.24963 55.5122 1.25913 59.745 3.39568L97.4109 22.4081C102.394 24.9235 105.651 30.0157 105.312 35.5877C102.645 79.4971 76.1306 104.643 58.5756 114.312C55.1079 116.221 50.9207 116.21 47.3936 114.412C13.3349 97.0526 2.20995 59.1856 0.310358 35.5237C-0.134779 29.9789 3.13109 24.9433 8.10642 22.4557Z" fill="#0B65F4"/>
<path d="M18.1699 29.0399L46.0342 15.2907C50.2362 13.2173 55.1656 13.2266 59.3598 15.3159L86.8142 28.9918C91.8355 31.4931 95.1493 36.6104 94.686 42.201C91.9564 75.1345 72.0224 94.4053 58.1634 102.315C54.7669 104.253 50.6288 104.247 47.1679 102.426C21.4104 88.8726 12.3659 60.7714 10.4259 42.1329C9.8473 36.5735 13.1575 31.5132 18.1699 29.0399Z" fill="#5A9AFF"/>
<path d="M31 53.6112L47.5356 71.328C47.8502 71.665 48.3815 71.6742 48.7075 71.3482L75 45.0557" stroke="white" stroke-width="6" stroke-linecap="round"/>
</svg>
